<svg version="1.1" baseProfile="full" width="100%" height="100%" viewBox="0 0 100 100" xmlns="http://www.w3.org/2000/svg"><polyline points="28.752 11.544 28.974 11.989 29.419 12.433 30.307 13.322 30.974 13.767 31.419 14.211 31.863 14.656 32.307 14.656 32.53 14.878 32.752 15.1 32.752 15.322 32.974 15.322 33.196 15.544 33.419 15.544 33.419 15.767 33.419 15.767 33.419 15.989 33.419 16.211 33.419 16.656 33.419 17.322 33.419 17.989 33.196 20.433 32.974 21.322 32.752 22.211 32.752 23.322 32.752 23.767 32.752 23.989 32.752 24.211 32.752 24.433 32.752 23.989 33.196 22.878 33.641 21.322 34.085 19.989 34.307 19.1 34.752 17.989 34.974 17.322 34.974 16.878 34.974 16.656 35.196 16.656 35.196 16.656 35.419 16.656 35.641 16.878 35.863 17.322 36.307 17.767 36.53 18.211 36.974 18.878 37.419 19.544 37.641 20.211 38.085 20.878 38.307 21.322 38.752 22.656 38.752 23.1 38.974 23.767 38.974 24.211 39.196 24.656 39.196 25.1 39.196 25.544 39.196 25.989 39.196 26.211 39.196 26.433 39.196 26.656 39.196 26.656 39.196 26.878 39.196 26.878 39.196 27.1 39.196 27.1 39.196 27.322 39.196 27.544 39.196 27.767 39.196 28.211 39.196 28.656 39.196 28.878 39.196 29.322 39.196 29.544 39.196 29.767 39.196 29.767 39.196 29.989 39.196 29.989 39.196 30.211 39.196 30.211 39.196 30.433 38.974 30.433 38.752 30.433 38.307 30.211 38.085 29.989 37.641 29.544 36.53 28.656 34.974 27.544 33.641 25.767 32.974 25.1 32.307 23.989 31.863 22.656 31.419 21.1 30.974 19.989 30.53 18.656 30.085 17.544 29.641 16.211 29.419 14.433 29.419 13.322 29.419 12.433 29.419 11.544 29.419 11.1 29.419 10.878 29.419 10.878 29.419 11.1 29.419 11.544 29.419 12.433 29.196 15.767 28.974 17.1 28.752 18.433 28.752 19.989 28.752 21.322 28.752 22.878 28.752 25.322 29.196 25.989 29.419 26.656 29.641 27.1 29.863 27.322 30.085 27.544 30.085 27.544 30.307 27.544 30.752 27.544 31.196 27.544 31.863 27.544 32.752 27.544 33.419 27.544 34.752 27.544 35.196 27.544 35.641 27.544 35.863 27.544 35.863 27.544 35.641 27.544 35.196 27.544 34.53 27.544 33.641 27.544 32.974 27.544 32.085 27.767 31.641 27.989 31.196 28.211 30.752 28.211 30.53 28.211 30.53 28.433 30.53 28.433 30.53 28.656 30.974 28.656 31.641 28.878 32.307 29.322 33.419 29.767 34.307 30.433 35.419 30.656 36.307 30.878 37.196 30.878 37.863 31.1 38.307 31.1 38.53 31.1 38.752 31.1 38.974 31.1 38.974 31.1 39.196 31.1 39.196 31.322 39.196 31.989 39.196 32.878 39.196 33.767 38.974 34.878 38.974 35.767 38.752 36.878 38.752 37.989 38.752 38.656 38.752 39.544 38.752 40.211 38.752 40.656 38.752 40.656 38.752 40.878 38.752 41.1 38.53 41.1 38.53 41.1 38.307 41.1 38.307 41.1 38.085 41.1 37.863 41.1 37.419 41.1 36.752 40.878 36.085 40.656 35.419 40.433 34.53 40.211 33.863 39.767 32.974 39.544 32.53 39.322 32.085 39.322 32.085 39.322 31.863 39.322 31.863 39.322 31.863 39.322 32.53 39.544 33.196 39.989 33.863 40.433 34.752 40.878 35.419 41.322 36.307 41.544 36.752 41.767 37.196 41.767 37.419 41.989 37.419 42.211 37.641 42.211 37.641 42.211 37.863 42.211 37.863 42.211 38.085 42.211 38.085 42.211 38.307 42.433 38.307 42.433 38.53 42.433 38.53 42.656 38.752 42.656 38.752 42.656 38.974 42.878 38.974 42.878 39.196 42.878 39.196 42.878 39.196 42.878 39.196 43.1 39.196 43.1 39.196 43.544 39.196 43.989 39.196 44.433 39.196 44.878 39.196 45.544 39.196 46.656 39.196 47.544 39.196 48.656 39.196 49.544 39.196 50.433 39.196 51.1 39.196 51.767 39.196 52.211 39.196 52.656 39.196 52.878 39.196 53.1 39.196 53.1 38.974 53.1 38.752 53.1 38.085 53.1 37.641 53.1 36.53 52.878 35.863 52.656 34.752 52.211 33.863 51.989 32.974 51.544 32.307 51.322 31.641 51.1 31.196 50.878 30.974 50.656 30.53 50.433 30.53 50.433 30.307 50.433 31.196 50.878 31.863 51.544 32.752 52.211 33.863 52.656 34.974 53.1 36.085 53.322 36.974 53.544 37.641 53.767 38.085 53.767 38.53 53.767 38.752 53.767 38.752 53.767 38.974 53.767 39.196 53.767 39.196 53.989 39.196 53.989 39.196 54.211 39.196 54.656 39.196 55.1 39.196 55.544 39.196 55.989 39.196 56.656 39.196 57.544 39.196 58.211 39.196 58.878 39.196 59.544 39.196 59.989 39.196 60.433 39.196 60.878 39.196 61.1 39.196 61.322 39.196 61.544 39.196 61.767 39.196 61.989 39.196 61.989 39.196 62.211 39.196 62.211 39.419 62.211 39.419 62.433 39.419 62.433 39.419 62.656 39.196 62.656 38.974 62.656 38.53 62.656 38.085 62.656 37.641 62.656 37.196 62.656 36.53 62.656 36.307 62.656 35.863 62.656 35.419 62.656 34.974 62.656 34.752 62.656 34.307 62.656 34.085 62.656 33.863 62.656 33.419 62.656 32.974 62.433 32.752 62.433 32.307 62.211 31.641 62.211 31.641 62.211 31.419 62.211 31.196 62.211 31.196 62.211 30.974 62.211 30.974 62.211 30.752 62.211 30.752 62.211 30.752 62.211 30.752 62.656 30.752 62.878 30.752 63.322 30.974 63.767 31.196 64.211 31.419 64.656 31.641 65.1 31.863 65.544 32.085 65.989 32.307 66.433 32.53 66.878 32.974 67.322 33.196 67.767 33.419 68.211 33.641 68.656 33.863 68.878 34.085 69.322 34.307 69.544 34.53 69.989 34.974 70.211 35.196 70.433 35.419 70.878 35.641 71.1 36.085 71.322 36.307 71.544 36.53 71.544 36.752 71.767 36.974 71.767 37.196 71.989 37.196 71.989 37.419 72.211 37.641 72.211 37.641 72.433 37.863 72.433 38.085 72.656 38.085 72.878 38.307 72.878 38.307 72.211 38.307 71.767 38.085 71.322 38.085 70.878 38.085 70.433 37.863 69.989 37.863 69.767 37.863 69.322 37.863 69.1 37.863 68.656 37.863 68.433 37.863 68.433 37.863 68.211 37.863 67.989 37.863 67.767 37.863 67.767 37.863 67.544 37.863 67.544 37.863 67.322 37.863 67.1 38.085 67.1 38.085 67.1 38.307 67.1 38.752 67.1 38.752 67.322 39.196 67.322 39.196 67.767 39.419 67.989 39.419 68.211 39.641 68.656 39.641 69.1 39.863 69.544 39.863 69.989 39.863 70.433 40.085 70.878 40.307 71.1 40.307 71.544 40.307 71.767 40.53 71.989 40.53 72.211 40.53 72.211 40.53 72.433 40.752 72.433 40.752 72.656 40.752 72.656 40.752 72.656 40.752 72.878 40.974 72.878 40.974 72.878 41.196 72.878 41.196 73.1 41.419 73.1 41.641 73.1 42.085 73.1 42.307 73.1 42.752 73.1 43.196 73.1 43.641 73.1 44.085 73.1 44.752 73.1 45.196 73.1 45.419 73.1 45.863 73.1 46.307 73.1 46.752 73.1 47.196 73.1 47.641 73.1 47.863 73.1 48.307 72.878 48.752 72.656 49.196 72.656 49.419 72.211 50.085 71.989 50.307 71.544 50.53 71.322 50.974 71.1 51.196 70.656 51.196 70.433 51.419 69.767 51.641 69.544 51.641 69.1 51.641 68.656 51.641 68.211 51.641 67.767 51.641 67.322 51.641 67.1 51.419 66.878 51.196 66.656 50.974 66.433 50.53 66.433 50.085 66.211 49.641 66.211 49.419 66.211 48.974 66.211 48.752 66.211 48.53 66.211 48.307 66.211 48.085 66.433 47.863 66.656 47.863 67.1 47.641 67.767 47.419 68.211 47.419 68.433 47.419 68.656 47.419 69.1 47.419 69.322 47.419 69.544 47.419 69.767 48.085 70.433 48.53 70.433 48.974 70.433 49.641 70.656 50.085 70.656 50.53 70.656 50.752 70.656 51.196 70.433 51.419 70.211 51.641 69.767 51.863 69.544 51.863 69.1 52.085 68.656 52.085 68.211 52.085 67.989 52.085 67.544 52.085 67.1 52.085 66.878 52.085 66.211 51.863 65.767 51.419 65.544 51.196 65.1 50.974 64.878 50.53 64.878 49.419 64.878 48.974 64.878 48.53 64.878 48.307 64.878 47.863 65.322 47.641 65.767 47.419 66.211 47.419 66.656 47.196 67.1 47.196 67.322 46.974 67.767 46.974 68.211 46.974 68.656 46.974 68.878 46.974 69.1 46.974 69.322 46.974 69.767 47.196 69.989 47.419 70.211 47.863 70.433 48.307 70.433 48.752 70.656 49.196 70.656 49.863 70.878 50.085 70.878 50.53 70.878 50.974 70.878 51.419 70.878 51.641 70.433 52.085 70.211 52.53 69.767 53.196 69.322 53.863 68.878 54.307 68.433 54.752 67.989 55.196 67.544 55.419 67.1 55.863 66.433 56.085 65.767 56.085 65.544 56.307 64.878 56.307 64.433 56.307 63.767 56.53 63.322 56.53 62.878 56.53 62.656 56.53 62.433 56.752 62.211 56.752 61.989 56.752 61.544 56.752 61.322 56.752 61.1 56.752 61.1 56.752 60.878 56.752 60.656 56.752 60.433 56.752 60.433 56.752 60.211 56.752 60.211 56.752 59.989 56.53 59.989 56.307 59.989 55.863 59.989 55.419 59.989 54.974 59.989 54.53 59.989 54.085 59.989 53.419 60.211 52.752 60.211 51.641 60.433 51.196 60.656 50.53 60.656 50.085 60.656 49.419 60.878 48.974 60.878 48.307 61.1 47.863 61.1 47.196 61.1 46.752 61.1 46.085 61.1 45.419 61.322 44.974 61.322 44.307 61.322 43.863 61.544 43.419 61.544 42.974 61.544 42.752 61.544 42.53 61.767 42.307 61.767 42.085 61.767 41.863 61.767 41.863 61.767 41.641 61.767 41.641 61.767 41.419 61.767 41.419 61.767 41.196 61.767 41.196 61.767 40.974 61.767 40.974 61.767 40.752 61.767 40.752 61.767 40.752 61.544 40.53 61.1 40.53 60.878 40.53 60.433 40.53 59.989 40.53 59.322 40.53 58.656 40.53 58.211 40.53 57.544 40.53 57.1 40.53 56.656 40.53 56.433 40.53 55.989 40.53 55.767 40.53 55.544 40.53 55.322 40.53 54.878 40.53 54.656 40.53 54.433 40.53 54.211 40.53 54.211 40.53 53.989 40.53 53.989 40.53 53.767 40.53 53.767 40.53 53.544 40.53 53.544 40.53 53.322 40.53 53.322 40.53 53.1 40.53 53.1 40.752 53.1 41.196 53.1 42.974 52.878 43.863 52.878 44.752 52.656 45.641 52.433 46.53 51.989 47.419 51.767 48.307 51.544 49.196 51.322 50.085 50.878 50.53 50.656 51.196 50.433 51.419 50.211 51.863 49.989 52.085 49.767 52.307 49.544 52.53 49.322 52.752 49.322 52.752 49.1 52.974 49.1 53.196 48.878 53.196 48.878 53.419 48.878 53.419 48.656 53.641 48.656 53.641 48.656 53.641 48.656 53.641 48.433 53.863 48.433 53.863 48.433 53.863 48.211 53.863 48.211 54.085 47.989 54.085 47.989 54.085 47.989 53.641 47.989 52.53 48.211 51.419 48.656 50.085 49.322 48.53 49.767 47.419 50.211 46.53 50.433 45.641 50.433 44.974 50.656 44.085 50.878 43.419 50.878 42.53 51.1 41.419 51.322 40.974 51.544 40.307 51.767 40.085 51.989 39.863 51.989 39.863 51.989 39.863 51.322 39.863 50.656 39.863 49.322 39.863 47.989 39.863 46.878 39.863 45.989 39.863 45.1 39.863 44.656 39.863 44.211 39.863 43.767 39.863 43.322 39.863 42.878 39.863 42.433 39.863 42.211 39.863 42.211 39.863 41.989 39.863 41.989 39.863 41.767 40.085 41.767 40.307 41.767 40.752 41.544 41.196 41.544 42.085 41.322 43.641 40.878 44.974 40.656 46.307 40.211 47.419 39.989 48.307 39.544 48.974 39.1 49.419 38.878 49.641 38.656 49.863 38.433 50.085 38.211 50.307 37.989 50.53 37.767 50.974 37.322 50.974 37.322 50.974 37.322 50.085 37.322 48.752 37.767 47.641 38.211 46.53 38.433 45.641 38.656 44.752 38.878 43.863 39.1 42.974 39.322 41.863 39.544 40.974 39.767 40.307 39.989 40.085 40.211 39.863 40.211 39.641 40.211 39.641 40.211 39.641 39.767 39.641 39.544 39.641 38.211 39.641 36.433 39.641 35.767 39.641 35.1 39.641 34.656 39.641 34.211 39.641 33.1 39.641 32.433 39.641 31.767 39.641 31.322 39.641 30.878 39.641 30.656 39.641 30.433 39.863 30.211 39.863 30.211 39.863 29.989 39.863 29.767 39.863 29.767 39.863 29.767 40.085 29.767 40.085 29.767 40.307 29.767 40.307 29.767 40.752 29.767 40.974 29.767 41.419 29.767 41.641 29.767 42.085 29.767 42.53 29.767 43.196 29.544 43.863 29.322 44.307 29.1 44.974 28.878 45.419 28.433 46.085 28.211 46.752 27.767 47.419 27.1 48.085 26.433 48.53 25.767 48.974 25.1 49.419 24.433 49.863 23.989 50.307 23.322 50.53 22.878 50.974 22.211 51.419 21.544 51.641 20.878 52.085 20.211 52.307 19.544 52.974 17.989 53.196 17.322 53.196 16.878 53.419 16.433 53.419 15.767 53.641 15.322 53.641 14.878 53.863 14.433 53.863 13.989 54.752 12.656 55.196 12.211 55.419 11.544 55.641 11.322 55.641 11.322 55.641 11.544 55.641 11.767 55.419 12.211 55.196 12.656 54.974 13.1 54.53 13.767 54.085 14.211 53.641 14.878 53.196 15.322 52.752 15.767 52.307 16.211 52.085 16.656 51.641 17.1 51.196 17.544 50.53 17.989 50.085 18.433 49.419 19.1 48.752 19.544 48.085 20.433 47.419 20.878 46.752 21.544 46.307 21.989 45.641 22.433 45.196 23.1 44.53 23.544 44.085 24.211 43.419 24.878 42.974 25.322 42.752 25.767 42.307 25.989 41.863 26.433 41.863 26.656 41.641 27.1 41.419 27.322 40.974 27.544 40.974 27.767 40.752 28.211 40.53 28.433 40.307 28.878 40.307 29.1 40.085 29.322 40.085 29.322 40.085 29.322 40.085 28.878 40.085 28.211 40.085 27.767 40.085 26.878 40.307 25.989 40.974 23.322 41.419 22.656 41.641 21.767 41.863 20.878 42.307 20.211 42.53 19.544 42.974 18.878 43.196 18.433 43.419 18.211 43.641 17.989 43.641 17.767 43.863 17.544 44.085 17.322 44.307 17.1 44.53 17.1 44.53 17.1 44.752 17.1 44.752 17.1 44.752 17.544 44.752 18.211 44.752 18.878 44.752 19.544 44.752 20.211 44.752 20.878 44.752 21.544 44.752 22.211 44.752 22.433 44.752 22.878 44.752 22.878 44.752 22.878 44.752 22.211 44.974 21.322 45.196 20.211 45.419 19.544 45.641 18.433 45.863 17.989 46.085 17.322 46.307 16.878 46.307 16.433 46.307 16.433 46.307 16.211 46.307 16.211 46.53 16.211 46.53 16.211 46.974 16.211 47.419 16.211 48.085 15.989 48.974 15.767 50.085 15.322 51.196 14.433 52.307 13.767 53.196 13.1 53.641 12.656 54.085 12.211 54.53 11.767 54.974 11.322 55.419 10.878 55.863 10.656 56.085 10.433 56.307 10.433 56.53 10.211 56.53 9.989" stroke="#000000" fill="none" stroke-width=".9" stroke-linecap="round" stroke-linejoin="round"/></svg>