<svg version="1.1" baseProfile="full" width="100%" height="100%" viewBox="0 0 100 100" xmlns="http://www.w3.org/2000/svg"><polyline points="10.364 18.679 11.475 18.679 12.216 18.679 13.327 18.679 14.068 18.309 15.179 17.568 16.29 16.827 17.401 15.716 18.142 14.235 18.142 13.864 18.142 13.123 18.512 12.753 18.512 12.753 18.512 12.753 18.512 12.753 18.512 13.123 18.512 13.123 18.512 13.494 18.512 13.494 18.142 14.235 18.142 14.605 18.142 15.716 17.772 16.457 17.401 17.568 16.66 19.049 16.29 19.79 15.179 21.272 14.438 22.383 14.068 23.494 13.698 24.235 13.698 24.605 13.698 24.975 13.698 24.975 13.698 25.346 13.698 25.346 13.698 24.975 13.698 24.975 14.068 24.235 14.068 23.494 14.438 22.383 15.179 21.272 16.29 20.16 17.772 19.049 18.883 17.568 21.105 14.975 21.846 13.494 22.586 13.123 22.957 12.753 22.957 13.123 22.216 14.235 21.846 15.716 21.105 17.568 20.364 19.42 19.623 20.901 19.253 22.753 18.883 23.494 18.883 24.235 19.253 23.864 19.253 23.494 19.994 22.012 20.364 20.901 21.105 19.049 21.846 17.198 24.068 13.864 25.92 11.642 27.772 10.16 28.883 8.679 29.253 8.309 29.623 8.679 29.253 9.79 28.512 11.272 27.401 12.753 26.29 14.605 24.438 17.568 23.698 19.049 23.327 20.531 23.327 22.753 23.327 23.864 23.698 24.605 24.438 24.605 25.549 24.605 26.66 24.235 27.401 23.494 28.883 22.753 29.623 22.012 30.364 20.901 31.105 19.42 31.475 18.679 31.475 17.938 31.105 17.568 31.105 17.198 30.735 17.198 30.364 17.568 29.623 18.309 29.253 19.049 28.883 20.16 28.512 21.272 28.512 22.012 28.512 23.123 28.512 23.864 28.883 24.235 29.253 24.235 29.994 24.605 30.735 24.235 31.475 23.494 32.586 22.012 33.327 21.272 34.068 20.16 34.809 19.049 35.179 17.938 35.549 16.827 35.92 15.716 35.92 14.605 35.92 13.864 35.549 13.864 35.549 13.864 35.549 13.864 35.179 14.605 35.179 15.346 34.809 16.457 34.438 17.568 34.068 19.049 33.698 20.531 33.698 21.272 33.698 22.012 34.068 23.123 34.809 23.494 35.179 23.494 35.549 23.494 36.29 23.123 37.031 22.383 37.401 21.642 37.772 20.531 38.142 19.79 37.772 19.049 37.772 18.679 37.772 18.679 37.401 18.309 37.401 18.679 37.031 18.679 37.031 19.42 36.66 20.16 36.66 21.272 36.66 22.012 36.66 22.753 37.031 23.494 37.401 23.494 38.142 23.494 38.512 23.123 39.253 22.383 39.994 22.012 40.735 20.901 41.105 20.16 41.475 19.049 41.475 18.309 41.846 17.568 41.846 17.568 41.846 17.198 41.846 17.568 41.846 17.938 41.846 18.309 41.846 19.79 41.846 20.531 41.846 21.642 41.846 23.494 41.475 24.235 40.735 24.975 39.994 24.975 39.253 24.975 38.883 24.605 38.883 23.864 39.253 23.123 39.623 22.753 40.735 22.012 41.846 21.272 42.957 20.531 44.068 19.79 44.438 19.049 45.179 18.679 45.179 18.309 45.179 17.198 45.179 16.827 45.179 16.457 45.179 16.457 45.179 16.457 45.179 17.198 45.549 17.938 45.92 19.049 46.29 19.79 46.29 21.272 45.92 23.123 45.179 23.864 44.809 24.605 43.698 24.605 43.327 24.235 42.957 23.494 42.957 23.123 43.327 22.383 44.068 21.642 44.809 20.901 46.66 19.79 48.142 19.049 49.253 18.309 50.364 17.198 50.735 16.827 50.735 16.457 50.364 16.457 49.994 16.457 49.253 17.198 48.142 17.938 47.031 19.42 46.66 20.531 46.66 21.642 47.031 22.012 47.401 22.012 47.772 22.012 48.512 22.012 48.883 21.642 49.253 20.901 49.994 19.79 50.364 19.049 50.735 18.309 50.735 17.938 50.735 17.938 50.735 17.938 50.735 18.309 50.364 18.679 50.364 19.42 50.364 20.531 50.735 20.901 51.105 21.642 51.846 22.012 52.216 22.012 52.957 22.012 54.068 22.012 54.438 21.272 55.179 20.901 55.549 20.531 55.549 20.16 55.549 19.79 55.549 19.79 55.549 19.42 55.549 19.42 55.549 19.42 55.549 19.42 55.179 19.42 55.179 19.42 55.179 19.42 55.179 19.42 54.809 19.42 54.809 19.79 54.809 19.79 54.809 19.79 54.809 19.79 54.809 19.79 54.809 19.79 54.809 19.79 54.809 19.79 54.809 19.79 54.809 19.79 54.809 19.79 54.809 19.79 54.809 19.79 54.809 19.79 54.809 19.79 54.809 19.79 54.809 19.79 54.809 19.79 54.809 19.79 54.809 19.79 54.809 19.79 55.179 19.79 55.179 19.79 55.179 19.79 55.549 19.42 55.92 19.049 56.66 18.309 57.031 17.568 57.772 16.827 58.883 16.086 59.994 15.346 61.475 14.605 62.957 14.605 64.068 14.605 64.809 15.346 65.549 16.827 65.179 18.309 64.809 19.79 64.068 21.642 63.327 23.494 62.586 25.346 62.216 26.457 61.105 28.309 60.735 29.42 60.364 30.16 60.364 30.531 60.364 30.531 60.364 30.531 59.994 30.16 59.623 29.42 58.883 28.679 58.142 27.938 56.66 26.457 55.92 25.346 54.809 23.864 53.327 21.272 52.957 20.16 52.957 19.049 53.327 18.309 53.698 17.198 54.068 16.457 55.179 15.346 55.92 14.605 56.66 14.605 57.772 14.605 58.512 15.346 59.253 16.457 59.253 18.309 59.623 19.79 59.623 21.272 59.623 22.753 58.883 24.975 58.883 26.086 58.512 26.827 58.512 26.827 58.512 26.827 58.512 26.827 58.512 26.457 58.512 26.457 58.883 26.457 58.883 26.086 58.883 26.086 58.883 26.086 58.883 26.086 58.883 26.086 58.883 26.086 58.883 26.086 58.883 26.086 58.883 26.086 58.512 26.086 58.142 26.086 57.772 26.457 57.031 27.198 56.29 28.309 55.179 30.531 53.327 33.494 51.846 36.827 49.994 40.16 48.883 43.494 47.031 43.494 45.92 43.494 45.179 43.494 44.809 43.494 44.809 43.494 45.549 43.494 46.29 43.494 48.142 43.494 49.994 41.272 51.846 39.049 53.698 36.827 54.809 36.086 56.29 35.716 56.66 35.716 56.66 36.086 56.66 36.457 56.29 37.198 56.29 37.568 55.92 37.568 55.92 37.568 55.92 37.198 55.92 37.198 55.92 36.827 55.92 36.827 55.92 36.827 55.92 36.827 55.92 36.827 55.92 37.198 55.92 37.198 55.92 37.198 55.92 37.198 55.92 36.827 55.549 36.827 54.809 36.827 54.068 37.198 53.698 37.568 52.957 37.938 52.216 38.309 51.475 38.679 51.105 39.79 50.735 40.16 50.735 40.531 50.735 40.901 50.735 40.901 50.364 40.901 50.364 40.901 50.364 40.901 50.364 40.531 50.735 40.16 51.846 39.79 52.216 39.79 52.957 39.42 52.957 39.42 53.327 39.79 53.327 40.16 52.957 40.531 51.846 41.272 51.105 41.642 49.994 42.383 49.253 42.753 49.253 42.753 49.623 42.753 49.994 42.753 50.735 43.123 51.105 43.123 51.846 44.235 52.216 44.975 52.586 46.457 52.957 47.568 52.957 48.309 52.957 49.049 52.586 50.16 52.586 50.901 52.586 52.012 52.957 52.753 53.327 52.753 53.698 52.753 54.438 52.753 54.809 52.753 54.809 52.753 55.179 52.383 55.549 52.012 55.92 51.642 55.92 50.531 56.29 49.79 56.66 48.309 57.401 46.086 57.772 44.605 58.142 43.494 58.142 42.383 58.142 42.383 58.142 42.012 57.772 42.383 57.401 43.494 57.401 44.605 57.401 45.346 58.142 46.457 58.512 46.457 59.253 46.457 59.994 45.716 60.735 44.975 61.105 43.864 61.475 42.753 61.475 41.642 61.475 41.642 61.475 41.642 61.475 42.753 61.846 44.605 62.216 46.457 62.586 49.049 63.327 51.642 64.068 54.605 64.068 57.198 63.698 60.16 62.586 60.16 61.105 60.16 59.994 60.16 59.623 58.309 59.623 56.457 59.994 54.235 60.735 51.642 61.475 48.679 62.957 44.975 64.068 42.753 65.179 40.901 65.92 39.049 66.29 37.938 66.29 37.198 66.29 36.457 66.29 36.086 66.29 36.086 66.29 35.716 65.92 35.716 65.92 36.827 65.549 37.568 65.549 39.42 65.179 40.531 65.179 42.012 65.549 43.123 65.92 44.235 66.29 45.346 66.66 45.716 67.401 46.086 68.142 46.086 68.883 45.716 69.253 44.975 69.253 43.864 69.623 43.123 69.623 42.383 69.623 41.642 69.623 41.272 69.623 41.272 69.623 41.642 69.253 42.012 69.253 43.123 69.623 43.864 69.994 44.605 70.735 45.346 71.105 45.716 71.846 46.086 72.586 46.457 73.698 46.086 74.438 45.346 75.179 44.605 76.29 43.494 76.29 42.383 76.66 41.642 76.66 40.901 76.29 40.531 75.92 40.531 75.92 40.531 75.179 40.901 74.809 41.272 74.438 42.012 74.068 43.123 74.068 44.235 74.068 45.346 74.438 46.086 74.809 46.827 75.179 47.198 76.29 47.568 77.772 47.568 78.512 47.568 79.253 46.827 79.623 46.457 79.994 46.457 79.994 46.086 79.994 46.086 79.994 46.086 79.623 45.716 79.623 45.716 79.623 45.716 79.623 45.716 79.623 45.716 79.623 45.716 79.623 46.086 79.623 46.086 79.623 46.086 79.623 46.086 79.994 46.086 79.994 46.086 79.994 46.086 79.994 46.086 79.994 46.086 79.994 46.086 79.994 46.086 79.994 46.457 79.994 46.457 79.994 46.457 79.623 46.457 79.253 46.827 79.253 46.827 78.883 47.198 78.512 47.198 78.142 47.198 77.772 47.198 77.031 47.198 76.29 47.198 75.179 47.198 74.068 47.198 73.327 47.198 72.586 46.827 72.216 46.827 71.846 46.827 71.846 46.827 71.846 46.827 71.475 46.457 71.475 46.457 71.105 46.457 71.105 46.086 70.735 46.086 70.364 45.716 70.364 45.346 69.994 44.975 69.994 44.605 69.994 44.235 69.994 43.864 69.623 43.494 69.623 43.494 69.623 43.123 69.253 43.123 69.253 42.753 69.253 42.383 68.883 42.012 68.883 41.642 68.512 41.272 68.883 40.531 68.883 39.79 69.253 39.42 69.623 38.679 69.623 38.309 69.994 37.938 69.994 37.198 69.994 36.827 69.623 36.457 69.253 36.457 68.883 37.198 68.883 37.938 68.883 37.938 69.253 37.938 69.253 37.938 69.623 37.568 69.623 37.198 69.253 36.827 69.253 36.827 68.883 36.827 68.883 36.827 69.253 37.198 69.623 37.198 69.623 37.198 69.623 37.198 69.623 37.198 69.623 37.198 69.623 37.568 69.253 37.938 69.253 38.309 69.253 38.679 68.883 38.679 68.883 39.049 68.883 39.049 68.883 39.049 68.883 39.049 68.883 39.049 68.883 39.049 68.883 39.049 68.883 39.049 68.883 39.42 69.253 39.79 69.253 40.531 69.253 40.901 69.253 41.642 69.253 42.383 69.253 42.753 69.623 43.494 69.623 43.864 69.994 44.235 70.364 44.605 70.364 44.975 70.735 44.975 71.105 45.346 71.475 45.716 71.846 46.086 72.216 46.086 72.586 46.086 72.957 46.086 73.327 46.086 73.327 46.086 73.698 46.457 74.068 46.457 74.438 46.457 75.179 46.827 75.549 46.827 76.29 47.198 77.031 47.198 77.772 47.568 78.142 47.938 78.883 48.309 79.253 48.679 79.623 49.42 79.994 50.531 79.994 51.642 79.623 52.753 79.623 53.864 79.623 53.864 79.623 53.864 79.623 53.123 79.623 52.012 79.994 50.901 80.364 49.79 81.846 48.309 82.957 47.198 84.068 46.457 85.549 46.086 86.66 46.086 87.401 46.457 87.772 47.198 87.772 48.679 87.401 50.531 86.66 52.753 84.809 56.086 83.327 58.309 81.475 60.531 79.253 63.494 78.512 64.975 77.772 64.975 77.401 64.975 77.031 64.975 76.66 64.975 75.92 63.864 75.179 62.753 74.438 61.642 72.957 59.049 71.846 57.198 71.105 55.346 71.105 53.864 71.475 52.383 71.846 50.901 72.586 49.79 74.068 49.049 75.179 49.049 76.29 49.049 77.772 49.79 78.142 50.531 78.883 51.642 78.883 52.383 78.883 53.494 78.883 54.605 78.883 56.086 79.253 57.198 79.253 57.938 79.253 57.938 79.253 57.938 78.883 57.568 78.883 57.198 78.883 56.827 79.253 56.457 79.253 56.086 78.883 55.346 78.512 55.346 78.142 54.975 78.142 54.975 78.142 55.346 77.772 56.086 77.401 56.827 76.66 57.568 75.92 58.679 74.809 59.79 72.957 62.012 71.846 63.494 70.735 65.716 69.253 67.938 68.512 69.049 68.512 69.79 68.142 70.16 67.772 70.16 67.401 69.79 66.66 69.049 65.179 66.827 64.068 65.346 62.216 64.605 58.883 64.975 56.66 66.086 54.438 67.568 52.216 69.42 51.475 72.012 51.475 74.975 52.216 77.568 54.809 81.272 56.66 83.123 59.253 83.864 62.957 83.123 64.809 82.012 66.29 80.901 67.031 79.049 67.031 77.198 66.29 76.086 65.549 75.716 64.438 76.086 63.698 76.827 62.957 78.679 62.957 80.16 63.698 81.642 64.809 82.383 65.92 82.753 67.031 82.753 68.512 82.753 69.994 81.642 69.994 80.901 69.253 79.42 67.401 77.568 66.29 76.827 65.179 76.457 65.179 76.457 65.179 76.457 65.549 77.198 67.031 77.568 69.623 78.309 71.105 78.309 72.586 77.938 74.068 77.198 74.809 76.827 74.809 76.457 74.068 76.457 72.957 76.827 71.846 77.568 71.105 78.679 71.105 80.531 71.475 80.901 72.216 81.272 73.698 81.272 75.179 80.531 76.29 79.42 76.66 77.938 77.031 76.457 77.031 74.605 77.031 72.753 76.66 72.012 76.29 72.012 75.92 72.383 75.179 73.864 75.179 75.346 75.179 76.827 75.179 77.938 75.549 79.42 76.29 80.531 77.401 80.901 78.512 81.272 79.253 80.901 80.364 80.16 80.735 79.049 80.735 77.938 81.105 76.827 81.105 76.086 80.735 75.716 80.735 75.346 79.994 76.086 79.623 77.198 79.623 78.309 80.364 79.79 81.105 80.531 82.216 80.531 83.327 80.531 84.438 79.79 85.179 79.049 85.549 78.309 85.179 77.568 84.809 77.938 84.068 78.309 84.068 79.42 84.438 79.79 84.809 79.79 85.179 79.42 85.549 78.679 85.549 77.568 85.92 76.457 86.29 74.975 86.29 74.235 86.29 73.494 86.29 73.494 86.29 73.864 86.66 74.605 86.66 76.086 87.031 77.568 87.401 79.42 88.142 82.753 88.883 84.975 89.253 87.568 89.253 90.901 88.512 92.383 87.401 92.383 85.92 92.383 83.698 92.383 81.475 92.383 79.623 91.272 78.142 88.679 77.401 86.827 77.401 84.605 78.883 82.753 80.735 81.272 83.327 80.16 85.92 79.049 88.512 78.309 90.364 77.938 91.846 77.938 92.957 78.309 93.327 78.309 93.327 78.309 93.327 78.309 93.327 77.938 93.327 77.938 93.327 77.938 93.327 77.938 93.327 77.938 93.327 77.938 93.327 77.568 93.327 77.568 93.327 77.568 93.327 77.568 93.327 77.568 93.327 77.568 93.327 77.568 93.327 77.568 93.327 77.568 93.698 77.568 94.068 76.457" stroke="#000000" fill="none" stroke-width=".9" stroke-linecap="round" stroke-linejoin="round"/></svg>