<svg version="1.1" baseProfile="full" width="100%" height="100%" viewBox="0 0 100 100" xmlns="http://www.w3.org/2000/svg"><polyline points="24.444 83.333 24.815 82.222 25.556 80.741 26.296 79.259 27.407 77.407 28.519 75.556 29.259 74.444 30.37 72.593 31.111 71.481 31.852 69.63 32.963 68.519 33.333 67.037 34.074 65.185 34.444 63.704 35.185 62.963 35.185 62.222 35.556 61.111 35.556 60.741 35.926 60.0 36.296 59.63 36.667 58.889 37.037 58.519 37.037 58.148 37.407 57.407 37.778 57.037 37.778 56.296 38.148 55.926 38.519 55.185 38.889 54.444 38.519 53.704 39.259 53.333 39.63 52.593 39.63 52.222 40.0 51.852 40.37 51.481 40.37 51.111 40.741 50.741 41.111 50.37 41.111 50.0 41.481 49.63 41.481 49.63 41.852 49.259 42.593 48.889 42.963 48.889 43.333 48.519 43.333 48.519 43.704 48.148 44.444 48.148 45.185 47.778 45.185 47.778 45.556 48.148 45.926 48.519 46.296 49.259 47.037 49.63 47.407 51.111 48.148 51.481 49.259 52.222 49.63 53.704 50.37 55.185 50.741 56.296 51.481 58.148 52.593 59.63 52.593 61.111 53.704 62.593 54.074 64.074 54.074 64.815 54.815 65.926 55.185 67.407 55.185 68.148 55.556 68.889 56.296 70.0 56.296 70.741 56.667 71.111 57.037 71.852 57.407 72.222 58.519 72.593 58.889 72.963 59.259 73.333 59.259 73.333 59.63 73.704 59.63 73.704 60.37 74.074 60.741 74.815 60.741 74.444 61.111 75.185 61.481 75.556 61.852 75.926 61.852 76.296 62.222 76.667 61.852 77.037 62.222 77.407 62.593 77.778 62.593 78.148 62.593 78.519 62.593 78.519 62.963 78.889 63.333 79.63 63.333 79.63 63.333 80.0 63.333 80.0 63.333 80.37 62.963 80.37 62.963 80.37 62.963 80.37 62.963 80.37 62.963 79.63 62.593 78.889 62.222 77.778 61.852 77.407 61.852 76.296 61.481 75.185 60.741 73.704 60.741 72.593 60.741 71.852 60.37 70.741 60.0 69.63 59.63 68.519 59.63 67.407 59.259 66.296 58.889 64.815 58.519 64.444 57.778 62.963 57.778 61.852 57.778 60.741 57.037 60.0 56.296 59.63 55.556 58.519 54.444 57.778 53.704 56.667 52.963 55.926 52.222 54.815 51.111 54.074 50.37 53.333 50.0 52.222 48.889 51.852 48.519 51.111 47.778 50.37 47.407 49.63 46.296 48.889 46.667 48.148 45.926 48.148 45.556 47.778 45.185 47.407 45.185 47.037 44.815 46.667 44.074 46.296 44.444 46.296 44.444 46.296 44.074 45.926 44.074 46.296 44.074 46.296 43.704 46.296 43.333 45.926 42.593 44.815 42.593 43.704 41.852 42.593 41.111 41.481 40.37 40.741 40.0 39.63 38.519 38.519 38.148 38.148 37.037 37.037 36.296 36.296 35.926 35.556 35.556 35.185 34.815 34.815 34.074 33.704 33.333 33.333 32.963 32.963 32.593 32.222 32.222 31.852 31.481 31.481 31.111 30.741 30.741 30.0 30.37 30.0 29.63 29.259 29.63 28.519 29.259 28.889 29.259 28.519 29.259 28.148 28.519 28.148 28.519 27.778 28.519 28.148 28.148 28.148 28.148 28.148 28.148 28.148 27.778 28.148 28.148 27.778 28.148 28.148 27.778 28.519 27.407 28.519 26.667 28.519 26.296 28.889 25.926 28.889 25.185 28.889 24.074 30.0 22.222 31.111 19.259 30.741 17.037 32.593 14.444 33.704 12.222 34.815 9.259 36.296 5.926 38.519 1.852 40.741 0.0 42.222 0.0 44.074 0.0 45.185 0.0 45.926 0.0 46.296 0.0 46.667 0.0 47.037 0.0 47.037 0.0 47.037 0.0 47.037 0.0 47.778 0.0 47.407 0.0 46.667 0.0 46.296 0.741 45.185 4.815 43.333 8.889 41.481 13.704 39.63 17.778 36.667 21.852 34.074 25.556 31.852 27.407 30.0 29.259 28.889 29.63 28.519 30.37 28.148 30.741 27.778 30.741 27.778 31.111 26.667 31.481 26.667 31.111 25.926 31.111 25.926 31.111 25.926 31.111 25.926 31.111 25.926 31.481 25.926 31.481 25.926 31.481 25.926 31.481 25.926 31.852 25.926 31.852 25.926 32.222 25.926 32.222 25.926 32.593 25.926 32.593 25.926 32.963 25.926 32.963 26.296 32.963 25.926 33.333 25.926 33.333 25.926 33.333 26.296 33.333 26.296 33.704 26.296 34.074 25.926 34.074 26.296 34.815 25.926 35.556 26.296 35.926 26.296 37.037 26.667 38.519 26.667 40.37 27.037 41.852 27.778 43.704 27.778 45.556 28.148 47.037 28.889 49.63 30.0 51.111 30.37 52.593 31.481 54.444 32.963 56.667 34.074 58.889 34.444 61.111 35.556 63.333 36.296 66.296 38.519 68.148 40.0 71.111 41.852 72.222 42.963 73.333 43.704 74.815 43.704 75.556 44.444 75.926 44.815 76.667 45.185 76.667 45.185 77.037 45.185 76.667 45.185 75.556 43.704 74.815 42.222 73.704 40.741 72.963 39.259 71.111 35.926 70.741 33.333 69.259 31.111 67.407 30.0 65.556 28.519 63.333 27.778 61.111 27.407 59.63 26.667 57.037 26.667 54.074 26.296 51.111 25.556 48.519 24.815 45.185 24.815 42.593 24.815 40.0 24.444 38.148 24.444 36.296 24.074 35.556 24.444 35.185 24.444 34.815 24.444 34.444 24.444 34.074 24.444 34.074 24.444 34.074 24.815 33.704 24.815 33.333 24.815 32.963 24.444 32.593 24.444 32.222 24.074 31.852 23.333 31.481 22.593 31.111 21.852 30.741 20.741 30.0 19.259 29.63 18.519 28.889 17.407 28.148 15.556 27.778 14.815 27.037 14.815 27.037 14.815 26.667 14.444 26.667 14.074 26.667 13.333 26.296 12.963 25.926 12.222 25.926 11.852 25.556 11.481 25.185 10.741 25.185 10.741 25.185 10.37 25.185 10.0 25.185 10.0 24.815 9.63 24.815 9.63 24.815 10.0 28.519 6.296 29.259 5.556 30.0 4.815 31.111 4.815 31.111 3.704 31.111 3.333 31.481 2.593 31.852 1.852 32.593 0.37 32.593 0.0 33.333 0.0 33.333 0.0 32.963 0.0 32.593 0.0 32.222 0.0 31.852 0.0 30.741 0.0 28.519 0.0 26.667 0.0 25.556 0.0 24.444 0.0 22.963 0.0 22.222 0.0 21.111 0.0 19.63 0.0 17.778 0.0 16.296 0.0 13.704 0.0 12.593 0.0 11.111 0.0 10.37 0.0 9.63 1.111 8.519 2.593 7.778 3.704 6.667 5.926 6.296 6.667 5.926 6.667 5.185 7.037 5.926 7.778 6.667 7.778 7.407 8.148 8.519 8.519 10.0 9.63 11.852 9.63 13.333 10.0 15.556 10.37 18.148 10.37 20.0 11.852 21.852 11.481 23.704 11.481 24.815 11.481 25.185 11.481 25.185 11.481 25.926 11.481 25.926 11.852 26.296 11.481 25.926 11.852 26.296 11.852 26.296 11.852 26.296 11.852 26.667 11.111 28.889 11.111" stroke="#000000" fill="none" stroke-width=".9" stroke-linecap="round" stroke-linejoin="round"/></svg>