<svg version="1.1" baseProfile="full" width="100%" height="100%" viewBox="0 0 100 100" xmlns="http://www.w3.org/2000/svg"><polyline points="54.012 19.073 54.012 19.382 54.012 19.999 54.012 20.616 54.012 21.234 54.012 22.16 54.012 23.085 54.012 23.703 54.012 24.32 54.012 24.937 54.012 25.246 54.012 25.555 54.012 26.172 54.012 26.481 54.012 26.789 54.012 27.406 54.012 27.715 54.012 28.024 54.012 28.641 54.012 29.258 54.012 29.876 54.012 30.493 54.012 31.11 54.012 31.419 54.012 32.036 54.012 32.653 54.012 32.962 54.012 33.271 54.012 33.579 54.012 33.888 54.012 34.197 54.012 34.505 54.012 35.122 54.012 35.431 54.012 36.048 54.012 36.666 54.012 36.974 54.012 37.283 54.012 37.592 54.012 37.9 54.012 38.209 54.012 38.518 54.012 38.826 54.012 39.135 54.012 39.443 54.012 39.752 54.012 40.061 54.012 40.678 54.012 40.987 54.012 41.295 54.012 41.604 54.012 41.913 53.704 41.913 53.395 41.913 53.086 41.913 52.469 41.913 51.852 41.913 50.926 41.913 50.309 42.221 49.383 42.53 48.457 42.839 47.531 43.456 46.914 43.764 45.988 44.073 45.062 44.073 44.136 44.69 43.519 44.999 42.901 45.308 41.975 45.616 41.049 46.234 40.432 46.542 39.506 46.851 38.58 47.16 36.42 48.394 35.802 48.703 34.877 49.32 34.259 49.937 33.642 50.246 33.025 50.555 32.407 51.172 32.099 51.481 31.481 52.098 30.864 52.715 30.556 53.024 30.247 53.641 29.938 53.95 29.63 54.258 29.321 54.876 29.321 55.184 29.012 55.493 29.012 55.802 29.012 56.419 28.704 56.727 28.704 57.345 28.704 57.962 28.395 58.579 28.395 59.197 28.395 59.814 28.395 62.592 28.395 63.209 28.395 63.826 28.395 64.443 28.704 65.061 29.012 65.678 29.012 66.295 29.321 66.913 29.63 67.53 30.247 68.147 30.556 68.764 30.864 69.382 31.481 69.999 32.099 70.616 32.716 71.234 33.333 71.851 33.951 72.468 34.568 73.085 35.185 73.703 35.802 74.32 36.728 74.937 37.654 75.555 38.272 76.172 38.889 76.789 39.815 77.406 40.741 78.024 41.667 78.641 42.593 78.95 43.519 79.567 44.444 79.567 45.37 80.184 46.296 80.493 47.222 80.802 48.148 81.11 49.383 81.419 50.309 81.419 51.543 81.727 52.778 81.727 53.704 82.036 54.63 82.036 55.864 82.345 56.481 82.345 57.407 82.345 58.642 82.345 59.568 82.345 60.494 82.345 61.111 82.345 62.037 82.345 62.654 82.036 63.272 81.727 63.889 81.419 64.815 81.11 65.432 80.802 66.358 80.184 66.975 79.567 67.901 79.567 68.519 78.95 69.444 78.332 70.062 78.024 70.679 77.406 71.605 76.789 73.148 75.555 73.765 75.246 74.383 74.32 75.0 73.703 75.617 73.085 76.235 72.468 76.543 71.851 77.16 71.234 77.469 70.616 77.778 69.999 78.086 69.382 78.395 68.764 78.704 68.147 79.012 67.53 79.012 66.913 79.012 65.987 79.321 65.369 79.321 64.135 79.321 63.209 79.63 62.283 79.63 61.357 79.63 60.74 79.63 59.814 79.63 59.197 79.63 58.271 79.63 57.345 79.63 56.727 79.63 56.11 79.63 55.493 79.321 55.184 79.012 54.567 78.704 53.95 78.395 53.641 77.778 53.024 77.16 52.406 76.852 52.098 76.235 51.481 75.617 51.172 75.309 50.863 74.383 50.555 74.074 49.937 73.457 49.629 72.84 49.011 72.531 48.703 71.914 48.085 71.605 48.085 70.988 47.777 70.679 47.468 70.37 47.468 70.062 46.851 69.753 46.851 69.136 46.542 68.827 46.234 68.519 46.234 67.901 45.925 67.901 45.616 67.593 45.616 67.284 45.616 66.975 45.308 66.667 45.308 66.358 44.999 66.049 44.999 65.741 44.999 65.123 44.69 64.815 44.69 64.506 44.69 63.889 44.382 63.58 44.073 63.272 44.073 62.654 44.073 62.346 44.073 61.728 43.764 61.111 43.764 60.802 43.456 60.494 43.456 60.185 43.456 59.877 43.456 59.568 43.456 58.951 43.456 58.642 43.456 58.333 43.147 58.025 43.147 57.716 43.147 57.407 43.147 57.099 43.147 56.79 43.147 56.481 43.147 56.173 43.147 55.864 43.147 55.864 43.456 55.556 43.456 55.247 43.764 54.938 44.073 54.938 44.382 54.63 44.69 54.63 44.999 54.321 45.308 54.321 45.616 54.321 45.925 54.321 46.234 54.321 46.542 54.321 46.851 54.321 47.16 54.63 47.468 54.938 47.777 55.247 48.085 55.556 48.394 55.864 48.703 56.173 49.629 56.481 49.937 56.79 50.246 56.79 50.555 57.099 50.555 57.099 50.863 57.099 51.172 57.099 51.481 57.099 52.098 57.099 52.406 57.099 52.715 57.099 53.024 56.481 53.641 56.173 53.95 55.864 54.567 55.247 54.876 54.938 55.184 54.63 55.184 54.012 55.493 53.704 55.802 53.086 55.802 52.778 56.11 52.469 56.419 52.16 56.419 51.852 56.727 51.852 57.036 51.852 57.345 51.852 57.653 51.852 57.962 51.852 58.579 51.852 58.888 51.852 59.197 51.852 59.505 52.778 60.431 53.395 60.431 54.321 60.74 55.247 60.74 55.864 60.74 56.481 61.048 57.099 61.048 57.716 61.048 58.333 61.048 58.642 61.048 59.259 61.048 59.568 61.048 60.185 61.048 60.802 61.048 61.111 61.048 61.42 60.74 61.728 60.431 62.037 60.122 62.346 59.814 62.963 59.505 63.272 59.197 63.58 58.888 63.889 58.579 64.198 57.962 64.506 57.653 64.815 57.345 64.815 57.036 65.123 56.727 65.432 56.419 65.741 56.419 66.049 56.11 66.358 56.11 66.667 55.802 67.284 55.802 67.593 55.493 67.901 55.493 68.21 55.493 68.519 55.493 68.827 55.493 69.136 55.493 69.444 55.493 70.062 55.493 70.37 55.493 70.679 55.493 70.679 55.802 70.988 56.11 71.296 56.727 71.296 57.036 71.605 57.345 71.605 57.653 71.605 57.962 71.605 58.579 71.296 59.197 70.679 59.814 70.062 60.74 69.444 61.357 69.136 61.666 68.519 62.283 68.21 62.283 68.21 62.592 67.901 62.592 67.593 62.9 66.975 62.9 66.667 63.209 66.049 63.209 65.432 63.209 64.815 63.209 63.889 63.209 62.963 63.209 62.346 63.518 61.42 63.518 60.802 63.518 59.877 63.826 59.259 63.826 58.642 63.826 58.025 64.135 57.407 64.135 56.79 64.135 56.173 64.443 55.864 64.443 55.556 64.752 55.247 64.752 54.63 65.061 54.63 65.369 54.321 65.369 54.012 65.678 54.012 65.987 53.704 66.604 53.704 66.913 53.704 67.53 53.704 68.147 53.704 68.764 53.704 69.382 53.704 69.69 53.704 70.308 53.704 70.616 53.704 70.925 53.704 71.234 54.012 71.542 54.321 71.851 54.63 71.851 55.247 72.16 55.556 72.16 55.864 72.16 56.173 72.468 56.79 72.468 57.407 72.468 58.025 72.468 58.333 72.777 58.642 72.777 58.951 72.777 59.259 72.777 59.568 72.777 60.185 73.085 60.494 73.085 60.802 73.085 61.42 73.085 61.728 73.394 62.037 73.394 62.654 73.394 62.963 73.394 63.272 73.394 63.58 73.703 63.889 73.703 64.506 74.011 64.815 74.32 65.123 74.32 65.432 74.629 65.741 74.937 66.049 75.246 66.049 75.555 66.358 75.555 66.358 75.863 66.358 76.172 66.667 76.172 66.667 76.481 66.975 76.789 66.975 77.098 66.975 77.406 66.975 77.715 66.975 78.024 66.975 78.332 66.975 78.641 66.975 78.95 66.667 79.258 66.049 79.567 65.741 79.567 65.432 79.876 65.123 80.184 64.815 80.184 64.815 80.493 64.506 80.493 64.198 80.493 63.58 80.493 63.272 80.493 62.654 80.493 62.037 80.184 61.42 80.184 60.494 79.876 59.877 79.567 58.951 79.258 58.333 78.95 57.716 78.641 57.099 78.332 56.173 78.332 55.864 78.332 55.247 78.024 54.63 78.024 54.321 77.715 53.704 77.715 53.086 77.715 52.778 77.715 52.469 77.715 51.852 77.715 51.235 77.715 50.926 77.715 50.617 77.715 50.309 77.715 50.0 77.715 49.691 77.715 49.074 77.715 48.765 77.715 48.457 77.715 48.148 77.715 47.531 77.715 47.222 77.715 46.914 77.715 46.605 77.715 46.296 77.715 45.988 77.715 45.679 77.715 45.37 77.715 45.062 77.715 44.753 77.098 44.136 76.789 43.827 76.481 43.519 75.863 43.21 75.246 42.593 74.011 42.284 73.703 41.975 73.085 41.667 72.777 41.358 72.468 41.358 71.851 41.049 71.234 40.741 70.925 40.432 70.925 40.123 70.616 40.123 70.308 40.123 69.999 39.815 69.999 39.815 69.69 39.815 69.382 39.815 69.073 39.815 68.764 39.815 68.456 39.815 68.147 39.815 67.839 40.123 67.839 40.432 67.53 41.049 67.53 41.358 67.221 41.975 67.221 42.901 67.221 43.519 66.913 44.444 66.913 45.062 66.604 45.988 66.604 46.296 66.295 46.605 65.987 46.914 65.987 46.914 65.678 46.914 65.369 46.914 65.061 46.296 65.061 45.679 64.752 45.062 64.443 44.136 64.135 43.827 63.518 42.901 62.9 42.284 62.592 41.667 61.974 41.049 61.666 40.741 61.048 40.123 60.431 39.815 59.814 39.506 59.505 39.198 59.197 39.198 58.888 39.198 58.579 39.506 58.271 39.815 58.271 40.432 57.962 41.049 57.653 41.358 57.345 41.975 57.345 42.284 57.036 42.901 56.727 43.21 56.727 43.827 56.419 44.444 56.419 44.753 56.11 45.37 56.11 45.988 55.802 46.296 55.802 46.914 55.802 46.914 55.493 47.531 55.493 47.531 55.184 47.84 55.184 48.148 54.567 48.148 54.258 48.457 53.641 48.457 53.024 48.457 52.715 48.457 52.098 48.457 51.789 48.457 51.172 48.457 50.863 48.457 50.555 48.148 50.246 47.84 49.937 47.531 49.937 46.914 49.629 46.605 49.32 46.296 49.32 45.679 49.011 45.062 49.011 44.444 48.703 43.827 48.703 43.519 48.394 42.901 48.085 42.593 48.085 42.284 47.777 41.975 47.777 41.667 47.777 41.667 47.468 41.975 47.468 41.975 47.16 42.284 47.16 42.593 47.16 42.593 46.851 42.901 46.851 43.519 46.542 43.827 46.542 44.444 46.234 45.062 45.925 45.679 45.925 46.296 45.616 46.914 45.308 47.531 44.999 48.148 44.999 48.765 44.69 49.691 44.382 50.309 44.382 50.926 44.073 51.543 44.073 52.16 43.764 52.778 43.764 53.086 43.456 53.395 43.456 54.012 43.456 54.321 43.456 54.63 43.147 54.938 43.147 54.938 42.839 54.938 42.53 55.247 42.53 55.247 41.913 55.247 41.295 55.247 40.678 55.247 39.752 55.247 38.826 55.247 37.9 55.247 36.666 55.247 35.74 55.247 35.122 55.247 34.197 55.247 33.579 55.247 32.653 55.247 32.036 55.247 31.419 55.247 30.493 55.247 29.876 55.247 29.258 55.247 28.332 55.247 27.715 55.247 27.098 55.247 26.172 55.247 25.555 55.247 24.629 55.247 24.011 55.247 23.394 55.247 22.777 55.247 22.16 55.247 21.851 55.247 21.542 55.247 21.234 55.247 20.925 54.938 20.925 54.321 20.616 54.012 19.999 53.395 19.382 52.778 18.764 52.16 18.456 51.543 17.839 50.926 17.221 50.617 16.604 50.0 16.295 49.691 15.678 49.383 15.061 49.074 14.443 49.074 13.518 49.074 12.592 49.074 11.666 49.074 10.431 49.074 9.505 49.074 8.579 49.691 7.653 50.309 6.727 50.926 6.11 51.235 5.493 51.852 5.184 52.16 5.184 52.778 5.184 53.086 5.184 53.395 5.184 54.012 5.184 54.938 5.184 55.556 5.184 56.173 5.184 57.099 5.184 58.025 5.184 58.951 5.184 59.877 5.184 60.494 5.184 61.111 5.184 61.728 5.493 62.346 6.11 62.654 6.11 63.272 6.419 63.58 7.036 63.889 7.345 64.506 7.653 64.506 8.271 64.815 8.579 64.815 9.197 65.123 9.814 65.123 10.122 65.123 10.431 65.123 11.048 65.123 11.357 65.123 11.974 65.123 12.283 65.123 12.592 65.123 13.209 65.123 13.518 65.123 14.135 64.815 14.443 64.506 15.061 64.198 15.678 64.198 15.987 63.889 16.295 63.58 16.604 63.272 16.913 62.963 17.221 62.654 17.839 62.037 17.839 61.728 18.147 61.42 18.456 60.802 18.456 60.185 18.764 59.568 18.764 58.951 19.073 58.333 19.382 57.716 19.382 57.407 19.382 57.099 19.382 56.79 19.382 56.481 19.382 56.173 19.382 56.481 19.69" stroke="#000000" fill="none" stroke-width=".9" stroke-linecap="round" stroke-linejoin="round"/></svg>