<svg version="1.1" baseProfile="full" width="100%" height="100%" viewBox="0 0 100 100" xmlns="http://www.w3.org/2000/svg"><polyline points="37.585 13.989 37.585 14.878 37.585 15.1 36.919 16.656 36.696 17.544 36.696 18.433 36.252 19.1 36.03 19.989 36.03 20.211 36.03 20.656 36.03 21.1 35.807 21.544 35.807 21.989 35.807 22.433 35.807 22.656 35.807 22.878 35.807 23.322 35.807 23.544 35.585 24.211 35.363 24.433 35.363 24.656 35.363 24.878 35.363 25.544 35.363 25.767 35.363 26.211 35.363 26.433 35.141 27.322 35.141 27.544 34.919 28.211 34.919 28.656 34.919 29.1 34.919 29.767 34.919 30.433 34.919 30.878 34.919 31.767 34.919 32.433 34.919 33.1 34.919 33.767 34.919 35.1 34.696 35.767 34.696 36.211 34.696 36.656 34.696 37.322 34.696 38.211 34.696 40.211 34.696 40.878 34.696 42.211 34.696 42.878 34.919 43.544 34.919 43.989 34.919 44.878 35.141 45.1 35.807 46.656 35.807 46.878 35.807 47.1 36.03 47.767 36.252 47.989 36.252 48.211 36.474 48.211 36.696 48.656 36.919 48.878 36.919 49.1 36.919 49.322 37.363 49.767 37.585 49.767 37.807 50.211 38.03 50.211 39.141 50.211 39.807 50.211 40.474 50.433 41.141 50.433 41.585 50.656 42.252 50.656 42.474 50.656 42.919 50.656 43.363 50.878 43.585 50.878 43.807 50.878 44.03 50.878 44.474 50.878 44.474 51.1 45.141 51.1 45.363 51.1 46.252 51.322 46.696 51.322 46.919 51.322 47.363 51.322 47.807 51.322 48.474 51.322 49.141 51.322 50.03 51.322 50.474 51.322 51.363 51.322 52.919 51.322 53.363 51.322 53.807 51.322 54.03 51.322 54.474 51.322 54.919 51.1 55.141 50.878 55.363 50.656 56.474 50.656 56.919 50.211 57.807 49.989 58.696 49.544 58.919 49.544 59.141 49.322 59.807 49.1 60.03 48.878 60.474 48.433 60.919 48.211 61.141 47.767 62.474 47.1 62.919 46.656 63.363 46.433 64.03 45.544 64.696 45.1 64.696 44.878 65.141 44.433 65.363 44.211 65.363 43.989 65.807 43.544 66.03 43.322 66.474 42.211 67.141 41.767 67.585 40.656 68.03 39.989 68.696 38.878 69.141 38.211 69.141 37.322 69.807 36.433 70.03 35.767 70.252 34.878 71.141 33.767 71.363 33.1 71.807 31.989 72.03 30.878 72.03 30.211 72.252 29.544 72.252 28.656 72.696 27.989 72.696 27.544 72.696 27.1 72.919 26.656 72.919 25.989 72.919 25.1 72.919 24.211 72.919 23.544 72.919 22.211 72.919 21.767 72.919 21.1 73.141 20.433 73.141 19.767 73.141 19.322 73.141 18.878 73.141 18.433 73.141 17.989 73.141 17.767 73.141 17.322 73.141 17.1 73.141 16.878 73.141 16.656 73.141 16.433 73.141 16.211 73.141 15.767 73.141 15.544 73.141 15.1 72.919 15.1 72.696 15.1 72.474 15.1 72.252 15.1 72.03 15.1 71.585 15.544 71.585 15.989 71.585 16.211 71.363 16.433 71.363 16.656 71.141 17.1 70.919 17.322 70.919 17.989 70.919 18.878 70.919 19.989 70.696 21.1 70.474 23.1 70.252 23.989 69.807 25.1 69.807 25.322 69.585 26.211 69.585 26.656 69.585 27.544 69.585 27.767 69.585 28.433 69.585 29.1 69.363 29.544 69.363 30.211 68.919 30.878 68.919 31.1 68.696 31.767 68.696 31.989 68.696 32.433 68.696 32.656 68.474 33.1 68.474 33.322 68.474 33.544 68.474 33.767 68.03 34.211 68.03 34.433 68.03 34.656 67.585 35.1 67.363 35.544 67.141 35.989 67.141 36.433 67.141 36.656 66.696 36.878 66.696 37.1 66.696 37.322 66.474 37.767 66.252 38.211 66.252 38.433 66.252 38.656 66.03 38.878 65.807 39.1 65.807 39.544 65.363 39.989 65.363 40.211 64.919 40.656 64.474 41.1 64.252 41.1 63.807 41.544 63.363 41.767 62.919 42.211 62.696 42.211 62.474 42.656 62.252 43.1 62.03 43.322 61.807 43.544 61.807 43.767 61.363 44.433 61.141 44.433 60.919 44.878 60.696 45.1 60.474 45.322 60.252 45.544 60.03 45.767 59.807 45.767 59.807 45.989 59.363 46.433 59.141 46.656 58.919 46.878 58.474 47.1 58.474 47.322 58.252 47.544 58.03 47.767 57.807 47.767 57.807 47.989 57.363 48.211 56.696 48.656 56.03 49.1 55.807 49.1 55.585 49.544 55.363 49.544 54.919 49.767 54.696 49.989 54.696 50.211 54.474 50.433 54.474 50.656 54.252 50.656 54.03 50.656 54.03 50.211 54.03 49.989 54.03 49.544 54.252 49.322 54.252 48.878 54.252 48.433 54.919 47.544 55.363 46.656 55.585 45.989 56.252 45.322 56.474 44.878 56.919 44.433 57.363 43.989 57.585 43.767 57.585 43.544 57.807 43.322 58.252 42.211 58.252 41.544 58.474 40.656 58.696 40.211 59.141 39.1 59.363 38.433 59.585 37.767 60.03 36.656 60.03 35.989 60.252 35.322 61.141 34.433 61.141 33.767 61.141 32.878 61.141 31.989 61.141 31.322 61.363 29.989 61.363 29.544 61.363 29.1 61.363 28.656 61.363 28.433 61.363 27.989 61.363 27.767 61.363 27.322 61.363 27.1 61.363 26.433 61.141 26.211 61.141 25.767 60.919 25.544 60.919 25.322 60.474 24.656 60.474 24.433 60.252 24.433 60.252 23.989 60.03 23.544 60.03 23.322 59.585 22.878 59.585 22.656 59.363 21.989 58.696 21.767 58.252 21.1 57.807 20.878 57.141 20.433 56.919 20.211 56.696 19.989 56.474 19.989 56.252 19.544 56.03 19.544 55.807 19.1 55.585 18.656 55.363 18.433 54.919 17.989 54.696 17.544 53.807 17.1 53.141 16.878 52.919 16.656 52.696 16.433 52.474 16.211 52.252 16.211 52.03 15.989 51.807 15.989 51.363 15.767 50.919 15.544 50.252 15.322 49.141 15.1 48.474 14.433 48.03 14.433 47.363 14.433 47.141 14.211 46.919 13.989 46.696 13.989 46.474 13.767 46.03 13.767 44.919 13.544 44.03 13.1 43.141 13.1 42.474 12.878 41.807 12.878 41.363 12.878 41.141 12.878 40.696 12.878 40.252 12.878 39.585 12.878 38.919 12.878 38.696 12.878 38.474 12.878 37.363 12.878 36.252 12.878 35.807 12.878 35.585 12.878 35.363 12.878 35.363 12.656 35.363 12.433 35.363 11.989 36.03 11.544 36.696 11.1 37.141 10.656 37.585 10.211 37.807 9.322 38.03 9.322 38.252 8.878 38.919 8.433 39.141 7.989 39.807 7.544 41.585 7.1 42.696 6.656 43.807 6.433 44.919 5.767 45.585 5.767 46.03 5.767 46.474 5.544 46.919 5.544 47.585 5.544 48.03 5.544 48.252 5.544 48.696 5.1 49.141 5.1 49.585 5.1 49.807 5.1 50.03 5.1 50.252 5.1 50.474 5.1 51.585 5.1 52.474 5.1 54.252 5.1 55.585 5.1 56.474 5.1 57.363 5.1 58.696 5.1 60.03 5.322 60.919 5.544 62.03 5.989 62.696 6.211 63.141 6.433 63.363 6.433 63.807 6.433 64.03 6.433 64.252 6.878 64.474 6.878 64.919 6.878 64.919 7.1 65.363 7.544 65.585 7.767 66.03 8.433 66.252 8.878 66.474 8.878 66.474 9.1 66.696 9.544 66.919 9.989 67.141 9.989 67.141 10.433 67.363 11.1 67.363 11.544 67.585 12.433 68.03 12.878 68.03 13.1 68.03 13.322 68.03 13.544 68.03 13.989 68.03 14.433 68.03 14.656 68.03 14.878 68.03 15.1 67.807 15.1 67.363 15.1 66.474 15.1 65.141 15.1 63.363 15.1 61.807 15.1 60.03 15.1 58.919 15.1 57.585 15.1 56.919 15.1 56.696 15.1 56.03 15.1 55.807 15.1 55.363 15.1 55.141 15.1 54.696 15.1 54.252 15.1 53.585 14.878 52.919 14.433 52.474 14.433 52.03 14.433 51.807 14.433 51.141 14.433 50.919 14.211 50.474 14.211 49.585 14.211 48.252 13.989 46.696 13.544 45.141 13.322 43.807 13.322 42.696 13.1 41.807 12.878 41.141 12.878 40.919 12.656 40.696 12.656 40.696 12.433 40.474 12.433 40.474 12.211 40.474 11.989 40.919 11.544 42.474 10.878 43.363 10.433 44.474 9.767 45.807 9.1 46.696 8.656 47.585 8.211 48.474 7.544 49.141 7.1 49.807 6.878 50.696 6.878 51.585 6.656 52.03 6.656 52.474 6.656 53.141 6.656 53.807 6.656 54.03 6.656 54.696 6.656 55.807 6.656 57.363 6.878 59.141 7.322 61.141 7.767 62.03 7.989 62.696 8.211 63.363 8.211 63.363 8.433 63.585 8.656 63.585 8.878 63.807 8.878 63.807 9.1 63.807 9.322 64.03 9.544 64.03 9.989 64.03 10.211 64.03 10.656 64.03 10.878 64.03 11.322 64.03 11.544 64.03 12.211 63.807 12.433 63.585 12.656 62.919 12.656 62.252 12.878 61.141 12.878 60.696 12.878 60.474 13.1 60.252 13.1 59.807 13.1 59.363 13.1 58.474 13.1 57.585 13.1 56.696 13.1 55.807 13.1 54.919 13.1 54.474 13.1 54.252 13.1 54.03 13.1 53.807 13.1 53.363 13.1 52.919 13.1 52.696 13.1 52.252 12.878 52.03 12.878 51.807 12.878 51.363 12.878 50.696 12.878 50.474 12.878 50.03 12.878 49.585 12.878 49.363 12.878 48.919 12.656 48.474 12.433 48.03 12.433 47.141 12.433 46.474 12.433 46.03 12.433 45.585 12.433 45.363 12.433 45.141 12.433 44.919 12.433 44.252 12.433 43.363 12.433 42.252 12.433 41.585 12.433 41.363 12.433 41.141 12.433 40.919 12.433 40.474 12.433 40.03 12.433 39.585 12.433 39.363 12.433 39.141 12.433 38.919 12.433 38.919 12.878 38.919 13.1 38.919 13.544 38.919 13.767 38.696 14.211 38.696 14.656 38.474 15.1 38.474 15.544 38.252 16.211 38.03 16.433 38.03 16.878 38.03 17.1 37.807 17.544 37.807 17.989 37.585 18.433 37.141 18.878 37.141 19.1 36.919 19.322 36.919 19.767 36.696 20.211 36.696 20.656 36.696 20.878 36.696 21.322 36.696 21.544 36.696 21.989 36.474 22.433 36.474 22.878 36.474 23.322 36.252 23.989 36.252 24.656 36.252 24.878 36.03 25.544 36.03 25.767 36.03 26.433 36.03 26.878 36.03 27.322 35.807 27.544 35.585 27.989 35.585 28.211 35.363 28.878 35.363 29.767 35.363 30.211 35.141 30.433 35.141 30.656 35.141 30.878 35.141 31.322 35.141 31.767 35.141 31.989 35.141 32.656 35.141 33.322 35.141 33.544 35.141 33.989 35.141 34.433 35.141 35.1 35.141 35.544 35.141 35.767 35.141 36.433 35.141 36.656 35.141 37.1 35.141 37.544 35.141 37.989 35.141 38.211 35.141 38.656 35.141 39.1 35.141 39.322 35.363 39.989 35.585 40.211 35.585 40.433 35.807 40.878 35.807 41.1 36.03 41.767 36.03 41.989 36.252 42.433 36.474 43.1 36.474 43.989 36.474 44.211 36.919 44.656 37.141 45.1 37.363 45.544 37.807 45.989 38.03 46.433 38.03 46.656 38.03 47.1 38.252 47.1 38.474 47.544 38.474 47.767 38.474 47.989 38.474 48.211 38.474 48.433 38.474 48.656 38.696 48.878 38.919 49.322 38.919 49.544 38.919 49.989 39.141 50.211 39.363 50.211 39.807 50.433 40.03 50.433 40.474 50.433 41.141 50.656 42.252 50.878 43.363 50.878 44.696 50.878 46.474 50.878 47.807 50.878 48.03 50.878 48.474 50.878 48.696 50.878 48.696 51.1 48.696 51.544 48.696 51.989 48.474 52.656 48.474 53.322 48.252 54.211 47.807 55.1 47.807 55.989 47.807 56.433 47.585 57.1 47.585 57.767 47.585 58.433 47.363 59.1 47.363 59.544 47.363 59.989 47.363 60.433 46.696 61.1 46.696 61.544 46.696 62.211 46.696 62.878 46.474 63.989 46.03 65.1 46.03 66.433 45.807 67.322 45.585 68.878 45.585 70.211 45.363 71.322 44.919 72.656 44.696 73.989 44.696 75.1 44.474 75.767 44.474 76.433 44.474 77.1 44.474 77.322 44.474 77.989 44.03 79.1 43.807 79.1 43.807 79.989 43.585 80.211 43.585 80.878 43.141 81.544 43.141 81.989 43.141 82.211 43.141 82.878 43.141 83.544 42.919 83.767 42.696 84.211 42.474 84.878 42.252 85.322 42.03 85.544 42.03 85.989 41.585 86.433 41.585 86.878 41.363 87.1 41.141 87.322 40.919 87.989 40.696 88.211 40.252 88.656 39.807 89.322 39.585 89.544 39.363 89.544 39.141 89.767 38.919 89.989 38.919 90.211 38.474 90.433 38.252 90.656 38.03 90.878 38.03 91.1 37.807 91.1 37.585 91.544 36.919 91.767 36.696 92.211 36.03 92.656 35.141 93.544 33.807 94.211 33.141 94.656 32.696 95.1 32.474 95.322 32.474 95.1 32.696 94.656 33.363 93.989 33.807 93.544 34.03 93.1 34.696 93.1 34.919 92.433 35.363 92.211 35.585 91.989 35.807 91.989 35.807 91.544 36.252 91.1 36.474 90.878 36.696 90.433 36.919 90.211 37.141 90.211 37.363 89.767 37.807 89.544 38.919 89.1 39.363 88.656 39.585 88.656 40.252 88.433 40.474 88.211 40.696 88.211 40.696 87.989 40.696 87.767 40.919 87.544 41.141 87.322 41.141 87.1 41.363 86.656 41.585 86.433 41.807 86.211 42.03 85.989 42.03 85.767 42.252 85.322 42.252 85.1 42.474 84.878 42.474 84.656 42.696 84.211 42.696 83.989 42.696 83.544 42.919 83.1 42.919 82.878 42.919 82.433 42.919 82.211 42.919 81.767 42.919 81.544 42.919 81.1 42.919 80.878 42.474 80.433 41.141 79.989 39.585 79.767 38.252 79.1 37.363 78.878 36.919 78.656 36.696 78.656 36.474 78.656 35.807 78.433 34.696 78.211 33.807 77.989 32.919 77.989 32.252 77.989 31.807 77.767 31.585 77.767 31.363 77.767 30.696 77.544 29.585 77.1 29.141 76.878 28.252 76.656 27.363 76.211 27.141 75.989 26.696 75.767 26.696 75.544 26.474 75.544 26.252 75.1 25.807 74.878 25.363 74.433 25.141 74.433 24.919 73.989 24.696 73.767 24.474 73.544 24.252 73.322 23.807 73.1 23.585 72.656 23.363 72.433 23.141 71.767 22.919 71.767 22.696 71.322 22.696 71.1 22.252 70.878 22.03 70.433 22.03 69.989 21.807 69.322 21.363 68.656 21.141 67.767 21.141 67.1 20.919 66.211 20.474 64.878 20.252 64.211 20.03 63.544 20.03 62.878 20.03 62.211 20.03 61.544 19.585 60.656 19.585 59.989 19.363 59.322 19.363 58.656 19.363 58.211 19.141 57.544 19.141 56.656 19.141 55.989 19.141 55.544 19.141 54.878 19.141 54.211 19.141 53.544 19.141 53.1 19.141 52.211 19.141 51.544 19.141 50.878 19.141 50.433 19.141 49.989 19.141 49.767 19.141 49.322 19.141 48.878 19.363 48.656 19.363 48.211 19.363 47.989 19.363 47.544 19.363 47.322 19.363 47.1 19.363 47.544 19.363 48.211 19.363 48.656 19.363 49.544 19.363 50.211 19.585 51.322 19.585 52.211 19.807 53.322 20.252 54.433 20.696 55.322 20.919 56.433 21.141 57.322 21.807 58.433 22.03 59.1 22.474 59.989 22.919 60.656 23.141 61.1 23.585 61.767 24.03 62.211 24.252 62.211 24.474 62.656 24.696 62.656 25.363 62.656 26.252 62.656 27.585 62.656 29.141 62.656 30.919 62.656 32.252 63.1 34.03 63.1 35.807 63.322 38.252 63.767 40.252 63.989 42.252 64.211 44.252 64.433 45.141 64.878 47.141 64.878 48.474 64.878 49.585 65.322 50.03 65.322 50.252 65.322 50.252 65.544 50.252 65.767 50.474 65.989 50.474 66.211 50.696 66.656 50.919 66.656 50.919 66.878 50.696 67.322 50.252 67.544 50.252 67.767 50.03 67.767 50.03 67.989 49.807 68.211 49.585 68.656 49.585 68.878 49.585 69.1 49.363 69.322 49.363 69.544 49.363 69.767 49.141 70.211 49.141 70.433 48.919 70.878 48.696 71.322 48.696 71.544 48.696 71.989 48.696 72.433 48.696 72.656 48.474 72.878 48.474 73.1 48.252 73.767 48.03 74.211 48.03 74.433 47.807 74.878 47.807 75.1 47.807 75.322 47.807 75.544 47.585 75.989 47.363 75.989 47.363 76.211 47.141 76.433 46.919 76.878 46.919 77.1 46.696 77.322 46.696 77.544 46.696 77.767 46.474 77.989 46.474 78.211 46.252 78.656 46.03 78.878 45.807 79.322 45.807 79.544 45.585 79.767 45.363 79.767 45.141 79.989 45.141 80.211 44.919 80.433 44.919 80.656 44.696 80.878 44.474 81.1 44.252 81.1 43.807 80.878 43.807 80.656 43.807 80.211 43.585 79.322 43.363 78.878 43.141 78.211" stroke="#000000" fill="none" stroke-width=".9" stroke-linecap="round" stroke-linejoin="round"/></svg>