<svg version="1.1" baseProfile="full" width="100%" height="100%" viewBox="0 0 100 100" xmlns="http://www.w3.org/2000/svg"><polyline points="22.174 48.607 21.304 48.607 20.435 48.173 19.13 47.303 17.826 46.868 16.087 45.999 15.217 45.564 13.478 45.129 12.609 44.26 11.739 43.825 11.304 43.39 10.87 42.955 10.435 42.955 10.435 42.52 10.0 42.52 10.0 42.086 9.565 42.086 9.13 42.086 8.696 42.086 8.261 42.086 7.826 42.086 7.391 42.086 6.957 42.086 6.087 42.086 5.652 42.086 4.783 42.52 4.348 42.52 3.913 42.52 3.478 42.52 3.043 42.52 2.609 42.52 2.174 42.52 1.739 42.52 1.739 42.086 1.304 41.651 1.304 40.781 0.87 39.912 0.87 39.477 0.87 38.607 0.87 37.738 0.87 37.303 0.87 36.868 0.87 36.433 0.87 35.999 0.87 35.564 0.87 35.129 0.87 34.694 1.304 34.26 1.739 34.26 1.739 33.825 2.174 33.825 2.174 33.39 2.609 33.39 3.043 33.39 3.478 32.955 3.913 32.955 4.348 32.955 4.783 32.52 5.217 32.52 5.652 32.52 6.087 32.52 6.522 32.52 6.957 32.52 7.391 32.955 7.391 33.39 7.826 34.26 7.826 34.694 7.826 35.129 7.826 35.564 7.826 35.999 7.826 36.433 8.261 36.433 8.696 36.433 9.13 36.433 10.0 36.433 10.87 36.433 11.739 36.433 13.043 36.868 13.913 37.303 14.783 37.738 15.652 38.173 16.522 38.607 17.391 39.042 17.826 39.477 18.261 39.912 18.696 40.346 19.13 40.781 19.565 41.216 19.565 41.651 20.0 42.086 20.0 42.52 20.435 42.955 20.87 43.39 21.304 43.825 21.304 44.26 21.739 44.26 21.739 44.694 22.174 44.694 22.174 45.129 22.609 45.564 23.043 45.999 23.478 46.433 23.478 46.868 23.913 46.868 23.913 47.303 24.348 47.303 24.783 47.738 25.217 48.173 25.652 48.173 25.652 48.607 26.087 48.607 26.522 48.607 26.522 49.042 26.957 49.042 27.391 49.042 27.826 49.042 28.261 49.042 28.696 49.042 28.696 48.607 29.13 48.173 29.13 47.738 29.13 47.303 29.13 46.868 29.13 46.433 29.13 45.999 29.13 45.129 29.13 43.825 29.13 42.955 29.13 41.651 29.13 40.346 29.13 39.477 29.13 38.607 29.13 37.738 29.13 36.433 29.13 35.129 29.13 34.694 29.13 33.825 29.13 33.39 28.261 33.39 27.826 33.39 26.957 33.39 26.087 32.955 25.217 32.955 24.783 32.955 24.348 32.52 23.913 32.52 23.478 32.086 23.043 32.086 22.609 31.651 22.174 31.651 21.739 31.216 21.739 30.781 21.304 30.346 20.87 29.912 20.435 29.477 20.435 29.042 20.435 28.173 20.435 27.738 20.435 27.303 20.435 26.868 20.0 26.433 20.0 25.999 20.0 25.129 20.0 24.694 20.0 24.26 20.0 23.825 20.0 23.39 20.0 22.955 20.435 22.955 20.435 22.52 20.87 22.52 21.304 22.086 21.739 22.086 21.739 21.651 22.174 21.651 22.609 21.651 23.043 21.651 23.478 21.651 23.913 21.651 24.348 21.651 24.783 21.651 25.217 21.651 25.652 21.651 26.087 21.651 26.522 21.651 26.957 21.651 27.391 21.651 27.826 21.651 27.826 22.086 27.826 22.52 28.261 22.955 28.261 23.39 28.261 24.26 28.261 24.694 28.261 25.129 28.261 25.564 28.261 25.999 28.261 26.433 29.13 26.433 29.565 26.868 30.0 27.738 30.435 28.173 30.87 28.607 31.304 29.477 31.739 29.912 32.174 30.346 32.609 31.216 32.609 32.086 33.043 32.52 33.043 32.955 33.478 33.825 33.478 34.26 33.913 35.129 33.913 35.564 33.913 36.433 34.348 36.868 34.348 37.738 34.348 38.173 34.783 38.607 34.783 39.042 35.217 39.477 35.217 39.912 35.217 40.346 35.217 40.781 35.652 40.781 36.087 40.781 36.087 41.216 36.522 41.216 36.957 41.216 37.391 41.651 38.696 41.651 39.565 41.651 40.435 42.086 41.304 42.086 42.174 42.086 43.043 42.086 43.478 42.086 43.478 41.216 43.478 40.346 43.478 39.477 43.478 38.173 43.478 36.868 43.478 35.564 43.478 34.694 43.478 33.825 43.478 32.955 43.478 31.651 43.043 30.781 43.043 29.477 43.043 28.173 43.043 26.868 42.609 25.564 42.609 24.694 42.174 23.825 42.174 22.955 42.174 22.086 42.174 20.781 42.174 19.912 41.739 18.607 41.739 18.173 41.739 17.303 41.739 16.868 41.739 16.433 41.739 15.999 41.739 15.564 41.739 14.694 41.739 14.26 41.739 13.825 41.739 13.39 41.739 12.955 41.304 12.52 40.87 12.52 40.435 12.086 40.0 12.086 39.565 11.651 38.696 11.216 38.261 11.216 37.826 11.216 37.391 10.781 36.957 10.781 36.522 10.346 36.087 10.346 36.087 9.912 35.652 9.912 35.652 9.477 35.217 9.042 35.217 8.607 35.217 8.173 35.217 7.738 35.217 7.303 35.217 6.868 35.217 6.433 35.217 5.999 35.217 5.564 35.217 5.129 35.217 4.694 35.652 4.26 36.087 3.39 36.522 2.955 37.391 2.52 37.826 2.086 38.696 2.086 39.565 1.651 40.435 1.651 41.304 1.651 42.174 1.651 43.043 1.651 43.478 1.651 44.348 1.651 44.783 1.651 45.652 1.651 46.522 1.651 47.391 1.651 48.261 1.651 48.696 1.651 49.13 2.086 49.565 2.086 50.0 2.086 50.0 2.52 50.435 2.52 50.87 2.955 50.87 3.39 50.87 4.26 51.304 5.129 51.304 5.999 51.304 7.303 51.304 8.607 51.739 9.477 51.739 10.781 51.739 12.086 51.739 13.39 51.739 14.694 51.739 15.999 51.739 17.303 51.739 19.042 51.739 19.912 51.739 21.216 51.739 22.086 51.739 22.955 51.739 24.26 51.739 25.564 51.739 26.868 51.304 28.173 50.87 29.477 50.87 30.781 50.87 31.651 50.435 32.086 50.435 32.52 50.435 32.955 50.435 33.39 50.435 33.825 50.435 34.26 50.435 34.694 50.435 35.129 50.435 35.564 50.435 35.999 50.435 36.433 50.435 36.868 50.435 37.303 50.435 37.738 50.435 38.173 50.87 38.173 50.87 38.607 51.304 38.607 51.739 38.607 52.174 38.607 52.609 38.607 53.043 38.607 53.478 38.607 53.913 38.607 54.348 38.607 54.783 38.607 55.217 38.607 55.652 38.607 56.087 38.607 56.522 38.607 56.957 38.607 57.391 38.607 57.826 38.607 58.261 38.607 58.696 38.607 59.13 38.607 59.13 37.738 59.565 36.868 59.565 35.999 60.0 35.564 60.0 34.694 60.435 33.825 60.87 32.52 61.304 31.216 61.739 29.912 61.739 29.042 62.174 28.173 62.174 27.738 62.609 27.738 63.043 27.738 63.043 27.303 63.043 26.868 63.043 26.433 63.043 25.999 63.043 25.564 63.043 25.129 63.043 24.694 63.043 24.26 63.043 23.39 63.043 22.955 63.043 22.52 63.043 22.086 63.043 21.651 63.043 21.216 63.043 20.781 62.609 20.781 62.174 19.912 61.739 19.477 61.304 18.607 60.87 17.738 60.87 17.303 60.87 16.433 60.435 15.999 60.435 15.564 60.435 15.129 60.435 14.26 60.435 13.825 60.435 13.39 60.87 12.955 61.304 12.52 61.739 12.086 62.174 11.651 62.609 11.651 63.478 11.651 63.913 11.651 64.783 11.651 66.087 11.651 66.957 11.651 68.696 11.651 70.0 11.651 71.304 11.651 72.174 12.086 73.043 12.086 73.913 12.52 74.348 12.955 75.217 13.39 75.652 13.825 76.087 14.26 76.522 14.694 76.957 15.564 77.391 15.999 77.826 16.433 77.826 16.868 78.261 17.738 78.261 18.173 78.261 18.607 78.261 19.042 78.261 19.477 78.261 19.912 78.261 20.781 78.261 21.216 78.261 21.651 78.261 22.086 78.261 22.52 77.826 22.955 76.957 22.955 76.087 23.39 75.217 23.825 74.348 23.825 73.913 24.26 73.043 24.26 72.609 24.694 72.174 24.694 72.174 25.129 72.174 25.999 71.739 26.868 71.739 28.173 71.304 29.477 70.87 30.346 70.87 31.651 70.435 32.52 70.435 33.39 70.0 33.825 69.565 34.694 69.13 35.564 69.13 36.433 68.696 36.868 68.696 37.738 68.261 38.173 68.261 38.607 68.261 39.042 68.261 39.477 67.826 39.912 67.826 40.346 67.826 40.781 67.826 41.216 67.826 41.651 67.826 42.086 67.826 42.52 68.261 42.955 68.696 42.955 69.13 43.39 69.565 43.825 70.0 44.26 70.435 45.129 71.304 45.564 71.739 45.999 72.174 46.433 72.609 46.868 73.043 46.868 73.478 47.303 73.913 47.738 74.348 48.607 74.783 49.042 75.217 49.477 75.652 49.477 75.652 49.912 76.087 49.912 76.087 50.346 76.522 49.912 76.522 48.607 76.957 47.738 77.391 46.433 77.391 45.564 77.826 45.129 77.826 44.26 78.261 43.825 78.261 43.39 78.696 42.955 79.13 42.52 79.565 42.086 79.565 41.651 80.0 40.781 80.435 40.346 81.304 39.912 81.739 39.042 82.609 38.173 83.478 37.303 83.913 36.868 84.348 36.433 84.783 35.999 84.783 35.564 85.217 35.564 85.652 35.129 85.652 34.694 86.087 34.26 86.522 33.825 86.957 33.39 87.391 32.955 87.391 32.52 87.826 32.52 88.261 32.086 88.261 31.651 88.696 31.216 88.696 30.781 87.826 29.042 87.391 28.607 87.391 28.173 86.957 27.303 86.957 26.868 86.957 26.433 86.522 25.999 86.522 25.564 86.522 25.129 86.522 24.694 86.522 24.26 86.522 23.825 86.522 23.39 86.957 22.955 86.957 22.52 87.391 22.52 87.826 22.086 88.261 22.086 88.696 22.086 89.13 22.086 89.565 22.086 90.435 22.086 90.87 22.086 92.174 22.086 93.043 22.086 93.913 22.52 94.783 23.39 95.652 23.825 96.522 24.694 96.957 25.129 97.391 25.999 98.261 26.868 98.696 27.738 99.13 28.607 99.13 29.912 99.565 30.781 100.0 31.651 100.0 32.955 100.0 33.825 100.0 35.129 100.0 35.999 100.0 36.868 100.0 37.738 100.0 38.173 100.0 38.607 100.0 39.042 100.0 39.042 99.13 39.042 98.696 39.042 97.391 39.477 96.957 39.477 96.522 39.477 96.087 39.477 95.652 39.477 95.217 39.912 94.783 40.781 93.913 41.651 93.478 42.52 93.043 43.39 92.609 44.26 91.739 45.564 91.304 46.433 90.87 46.868 90.435 47.738 90.0 48.173 89.565 49.042 89.13 49.477 88.261 50.346 87.826 51.216 87.391 51.651 86.957 52.52 86.522 52.955 86.522 53.39 86.087 53.825 86.087 54.26 86.087 54.694 86.087 55.129 86.087 55.564 86.087 55.999 86.087 56.433 86.087 57.303 86.087 58.173 86.087 58.607 86.087 59.477 86.087 59.912 86.087 60.781 86.087 61.216 86.087 62.086 86.087 62.955 86.087 63.39 86.087 63.825 86.087 64.26 86.087 64.694 86.087 65.129 86.087 65.564 86.087 66.433 86.087 66.868 86.087 67.303 86.087 68.173 86.087 68.607 86.087 69.042 86.087 69.477 86.087 69.912 85.652 70.781 85.652 71.216 85.652 71.651 85.652 72.52 85.217 72.955 85.217 73.825 84.783 74.694 84.783 75.129 84.783 75.564 84.348 75.999 84.348 76.433 83.478 76.868 83.478 77.303 83.043 77.738 82.609 78.607 82.174 79.042 81.739 79.477 81.304 79.912 80.435 80.781 79.565 81.216 78.696 82.086 78.261 82.52 77.391 82.955 76.957 82.955 76.522 83.39 76.087 83.39 75.652 83.825 74.783 84.26 74.348 84.26 73.478 84.694 72.609 85.129 71.739 85.129 71.304 85.564 70.435 85.564 69.565 85.999 68.696 85.999 67.826 86.433 66.957 86.433 66.087 86.433 61.304 86.868 60.435 86.868 58.696 86.868 57.391 86.868 55.652 86.868 54.348 86.868 53.478 86.868 52.174 86.868 51.739 86.868 50.87 86.868 50.0 86.868 49.565 86.868 48.696 86.868 47.826 86.433 46.957 86.433 44.783 85.564 43.478 85.564 42.174 85.129 41.304 84.694 40.0 84.694 39.13 84.26 38.261 84.26 37.391 83.825 36.522 83.825 36.087 83.39 35.217 83.39 34.348 82.955 33.913 82.52 33.043 82.52 32.609 82.086 31.739 81.651 31.304 81.216 30.87 81.216 30.435 80.781 30.0 80.346 29.565 80.346 29.13 79.912 28.261 79.477 27.391 79.042 26.957 78.607 26.087 78.173 25.652 77.303 25.217 76.868 24.783 75.999 24.348 75.564 23.913 75.129 23.913 74.26 23.478 73.39 23.043 72.52 23.043 71.651 23.043 70.781 23.043 69.912 22.609 69.477 22.609 69.042 22.609 68.607 22.609 67.738 22.609 66.868 22.609 65.999 22.609 65.564 22.609 63.39 22.609 62.52 22.609 62.086 22.609 61.651 22.609 61.216 22.609 60.781 22.609 60.346 22.609 59.912 22.609 59.477 22.609 59.042 22.609 58.173 22.609 57.738 22.609 57.303 22.609 56.868 22.609 55.999 22.609 55.564 22.609 55.129 22.609 54.694 22.609 54.26 22.609 53.825 22.609 53.39 22.609 52.955 22.609 52.52 22.174 52.086 22.174 51.651 22.609 51.651 23.478 51.651 24.348 51.651 25.217 52.086 26.522 52.52 27.391 53.39 28.261 53.825 29.13 54.26 30.0 54.694 30.87 54.694 31.304 55.129 32.174 55.564 33.043 55.564 33.478 55.999 34.348 55.999 34.783 55.999 35.652 55.999 36.522 55.999 37.391 55.999 38.261 55.999 39.565 55.999 40.435 55.999 41.739 55.999 43.478 55.999 44.783 55.999 46.087 56.433 47.391 56.433 48.261 56.433 49.13 56.433 50.0 56.433 51.304 56.868 52.174 56.868 53.043 56.868 54.348 56.868 55.217 56.868 56.522 57.303 57.391 57.303 58.261 57.303 59.565 57.738 60.87 57.738 61.739 57.738 62.609 58.173 63.478 58.173 64.348 58.173 64.783 58.173 65.652 58.607 66.087 58.607 66.957 58.607 67.826 59.042 68.696 59.042 69.565 59.042 70.435 59.042 71.304 59.042 72.174 59.042 73.043 59.042 73.913 59.042 74.783 59.042 75.652 59.042 76.522 59.042 77.391 59.042 77.826 59.042 78.696 59.042 79.13 59.042 79.565 59.042 80.0 59.042 80.87 59.042 81.304 59.042 81.739 59.042 82.174 59.042 82.609 59.042 83.043 59.042 83.478 59.042 84.348 59.042 84.783 59.477 85.217 59.477 85.652 59.477 86.087 59.477 86.522 59.912 86.957 59.912 87.391 59.912 87.826 59.912 87.826 60.346 88.261 60.346 88.696 60.346 89.13 60.346 89.565 60.346 90.0 60.346 90.435 60.346 90.435 60.781 90.435 61.216 90.435 61.651 90.435 62.086 90.435 62.52 90.435 62.955 90.435 63.39 90.0 63.39 89.565 63.39 89.565 63.825 89.13 63.825 88.696 63.825 88.696 64.26 88.261 64.26 87.826 64.26 87.826 64.694 87.391 64.694 86.957 64.694 86.957 65.129 86.087 65.129 85.652 65.129 84.783 65.564 83.913 65.564 83.043 65.564 82.174 65.564 80.87 65.564 80.0 65.564 79.13 65.564 77.826 65.564 76.957 65.564 75.217 65.564 73.913 65.564 72.174 65.564 70.435 65.129 69.13 64.694 67.826 64.694 66.957 64.26 66.087 64.26 64.783 64.26 63.913 63.825 62.609 63.825 61.739 63.825 60.435 63.825 59.565 63.39 58.696 63.39 58.261 63.39 57.391 63.39 56.522 62.955 54.783 62.955 53.913 62.955 52.609 62.955 51.739 62.955 50.435 62.955 49.565 62.955 48.261 62.955 47.391 62.955 46.522 62.955 45.652 62.955 45.217 62.52 44.348 62.52 43.913 62.52 43.043 62.52 42.609 62.52 41.739 62.52 41.304 62.086 40.435 62.086 39.565 62.086 38.696 62.086 38.261 61.651 37.391 61.651 36.957 61.651 36.522 61.216 36.087 61.216 35.652 61.216 35.217 60.781 34.783 60.781 34.348 60.781 33.913 60.346 33.478 60.346 33.043 59.912 32.609 59.912 32.174 59.912 31.739 59.912 31.304 59.912 30.87 59.912 30.435 59.912 30.0 59.912 29.565 59.912 29.13 59.912 29.13 60.346 28.696 60.346 28.696 60.781 28.696 61.216 29.13 61.216 29.13 61.651 29.565 61.651 30.0 61.651 30.0 62.086 30.87 62.086 31.304 62.086 31.739 62.52 32.609 62.52 33.043 62.955 33.478 62.955 34.348 63.39 34.783 63.39 35.217 63.825 35.652 63.825 36.087 63.825 36.522 63.825 36.957 63.825 37.391 63.825 37.826 63.825 38.696 64.26 39.13 64.26 39.565 64.26 40.0 64.26 40.435 64.26 40.87 64.26 41.304 64.26 42.174 64.26 42.609 64.26 43.478 64.26 43.913 64.26 44.348 64.26 45.217 64.26 45.652 64.26 46.522 64.26 47.391 64.26 47.826 64.26 48.261 64.26 48.696 64.26 49.13 64.26 49.565 64.26 50.0 64.26" stroke="#000000" fill="none" stroke-width=".9" stroke-linecap="round" stroke-linejoin="round"/></svg>