<svg version="1.1" baseProfile="full" width="100%" height="100%" viewBox="0 0 100 100" xmlns="http://www.w3.org/2000/svg"><polyline points="42.222 21.406 41.111 20.295 39.259 18.443 38.148 17.332 36.667 16.221 35.185 15.48 33.704 15.11 32.222 14.74 29.63 14.74 27.778 14.74 25.926 14.74 24.444 15.11 22.963 15.48 21.111 16.221 20.0 16.591 18.519 16.962 17.407 17.332 16.296 18.073 14.815 19.184 13.704 19.925 12.963 21.036 11.852 21.777 11.111 22.888 10.37 23.999 9.259 25.48 8.889 26.962 8.519 28.073 8.148 29.184 7.778 30.666 7.778 32.517 7.778 33.999 8.148 35.11 8.519 36.962 8.889 38.443 9.63 39.925 10.741 41.777 11.481 43.258 12.593 44.369 13.333 45.851 14.444 46.962 16.296 48.814 17.778 49.925 19.259 51.406 21.111 52.888 22.963 54.369 26.296 56.221 28.519 57.332 30.741 58.443 32.963 59.554 34.815 59.925 36.296 60.666 36.667 60.666 36.667 61.036 36.667 61.036 36.296 60.666 35.556 60.295 33.704 59.184 32.593 58.443 31.481 57.703 30.0 56.962 28.889 55.851 27.407 54.74 26.296 53.628 25.556 52.517 24.444 51.406 23.704 50.666 22.963 49.925 22.222 48.443 21.481 47.703 21.111 46.591 20.37 45.11 20.0 44.369 19.63 43.258 19.63 41.777 19.259 41.036 18.889 39.925 18.889 38.814 18.889 37.332 18.889 36.591 18.889 35.48 19.259 34.74 19.259 33.628 19.63 32.517 20.0 30.666 20.37 29.925 20.741 28.814 21.481 28.073 21.852 27.332 22.593 26.221 23.333 25.48 24.074 25.11 25.185 24.369 25.926 23.628 27.037 23.258 28.519 22.147 29.63 21.777 30.741 21.406 31.481 21.036 32.593 21.036 33.704 20.666 34.444 20.666 35.185 20.295 35.926 20.295 36.667 20.295 37.778 20.295 38.519 20.295 39.259 20.666 40.0 21.036 40.741 21.406 41.852 21.777 42.593 22.517 43.333 22.888 44.074 23.258 44.815 23.999 45.185 24.369 45.185 24.369 45.185 24.369 45.185 24.369 45.185 24.369 45.185 24.369 45.556 24.369 45.556 23.999 45.556 23.999 45.926 23.628 46.296 23.258 47.037 22.517 48.148 21.777 48.519 21.777 50.37 20.666 51.852 19.925 53.333 19.184 54.815 18.443 57.037 17.703 58.889 17.332 60.37 17.332 61.852 16.962 63.704 16.962 64.815 17.332 65.926 17.332 67.037 17.703 67.778 18.073 67.778 18.073 68.889 18.443 68.889 18.443 70.37 19.184 71.111 19.925 71.111 19.925 72.222 20.666 72.963 21.406 73.704 22.147 74.074 23.258 74.444 23.999 74.815 24.74 75.185 25.48 75.556 26.591 75.556 28.443 75.185 29.554 74.815 31.036 74.815 31.036 74.444 32.517 74.444 32.517 74.074 33.999 73.333 35.11 72.593 37.332 71.852 38.814 70.741 40.295 69.63 41.406 68.519 42.888 66.667 45.48 65.185 46.962 63.333 48.443 61.481 49.554 59.63 51.036 58.148 52.147 55.185 53.999 53.333 55.11 51.111 56.221 48.889 56.962 47.037 57.703 44.074 58.814 42.963 59.184 41.481 59.925 40.37 60.295 39.63 60.295 38.889 60.666 38.889 60.666 38.889 60.666 38.889 60.666 39.259 60.295 39.259 60.295 39.259 60.295 39.259 60.295 39.259 60.295 38.889 59.925 37.778 59.554 35.926 58.073 32.963 56.591 32.963 56.591 32.593 56.591 32.593 56.591 32.963 56.591 35.556 57.332 38.148 58.443 39.259 59.184 39.63 59.184 39.259 59.184 37.407 58.814 33.704 57.703 31.111 56.962 30.0 56.221 29.63 55.851 30.37 55.48 32.593 55.851 34.815 55.851 36.296 56.221 37.407 56.221 37.407 56.221 36.667 55.48 35.556 54.74 33.333 53.628 31.852 52.517 30.741 51.406 30.741 51.036 31.852 51.036 35.556 52.517 38.148 53.628 40.0 54.369 40.37 54.369 39.63 53.999 38.148 52.517 35.556 51.406 32.963 50.295 30.37 49.554 29.259 49.554 29.63 49.925 31.481 51.036 34.074 52.517 34.074 52.517 37.407 54.369 37.407 54.369 37.037 54.369 35.926 53.628 33.704 52.888 33.704 52.888 30.37 51.777 27.407 50.666 25.556 49.554 25.926 49.925 27.037 50.666 29.259 52.147 31.111 53.628 32.222 54.74 32.593 55.11 32.222 54.74 31.481 54.369 28.519 52.517 26.296 51.777 24.074 51.036 24.074 51.036 25.185 51.777 27.407 52.517 29.63 53.628 31.111 53.999 31.481 53.628 31.111 53.258 30.37 52.517 28.889 51.777 27.037 50.666 24.444 49.184 24.444 49.184 24.444 49.184 24.815 49.184 27.037 49.925 29.63 51.036 32.222 51.777 32.963 51.777 32.963 51.406 32.593 50.666 31.111 49.554 27.778 47.703 25.926 46.221 24.815 45.48 24.815 45.11 26.296 45.11 28.519 46.221 31.111 47.332 33.704 48.443 34.074 48.443 34.074 48.443 32.593 47.703 30.37 46.962 27.037 44.74 25.556 43.999 24.815 43.258 25.185 43.258 27.778 44.369 28.889 45.11 32.593 46.962 33.704 47.332 33.704 47.332 32.963 46.962 32.963 46.962 30.0 45.48 27.407 44.369 22.593 41.777 22.593 41.777 22.222 41.036 22.222 41.036 24.074 42.147 26.667 43.999 29.63 46.221 29.63 46.221 31.481 47.703 32.222 47.703 31.481 47.332 31.481 47.332 30.0 46.221 27.778 44.369 24.815 42.888 22.593 41.406 21.481 40.295 21.481 40.295 21.852 40.666 23.333 41.777 25.556 43.628 25.556 43.628 27.778 45.48 29.259 47.332 29.259 47.332 28.889 47.332 27.778 46.221 25.926 44.74 23.704 42.888 22.222 41.406 21.481 41.036 21.481 41.036 22.222 41.777 23.704 43.258 25.926 45.11 28.148 47.332 28.519 47.332 28.519 47.332 28.519 47.703 27.778 47.332 26.296 46.221 26.296 46.221 24.444 45.11 22.963 43.258 21.481 41.036 21.481 41.036 21.481 39.925 23.333 39.925 26.667 40.666 26.667 40.666 31.481 42.147 32.963 42.888 33.333 43.258 33.333 43.258 32.593 42.888 30.37 42.147 26.667 40.295 26.667 40.295 24.444 39.184 24.444 39.184 22.963 38.073 22.593 37.703 23.704 37.703 26.667 38.814 33.333 42.147 33.333 42.147 37.037 43.628 38.519 44.369 38.889 44.369 38.889 44.369 37.407 43.258 32.963 41.036 29.259 39.184 29.259 39.184 26.296 36.962 24.074 35.851 23.704 35.48 23.704 35.48 25.556 36.221 28.519 37.703 32.222 39.554 32.222 39.554 35.185 40.666 36.667 40.666 37.037 41.036 37.037 41.036 34.815 40.295 31.852 39.184 27.778 37.703 27.778 37.703 24.074 35.851 21.481 33.999 20.37 32.888 20.37 32.888 22.593 33.628 27.037 35.851 31.852 38.443 31.852 38.443 36.296 40.666 38.889 41.777 38.889 41.406 38.889 41.406 37.037 39.925 37.037 39.925 34.074 38.073 30.0 35.851 30.0 35.851 25.926 33.999 21.111 31.777 20.37 31.406 20.37 31.406 21.852 31.777 25.926 33.628 38.148 39.184 38.148 39.184 40.741 39.554 41.852 39.554 41.481 38.814 41.481 38.814 36.667 35.48 36.667 35.48 29.63 31.777 25.185 29.554 22.593 27.703 22.222 27.332 24.074 28.443 24.074 28.443 29.259 31.777 29.259 31.777 33.333 33.999 36.667 35.48 38.519 35.851 39.259 35.48 37.778 33.628 35.185 31.777 31.852 30.295 28.148 28.443 25.926 26.962 25.185 26.591 27.407 27.703 31.481 29.925 36.296 32.517 40.741 34.369 43.704 35.11 44.444 34.74 44.444 34.74 42.963 33.258 40.0 31.406 36.296 29.184 32.593 26.962 30.0 25.11 30.0 25.11 29.259 24.369 30.741 25.11 34.074 26.962 34.074 26.962 38.519 29.184 42.222 30.666 44.815 30.666 44.815 30.666 44.815 30.295 44.074 29.184 42.222 27.703 42.222 27.703 36.296 23.628 36.296 23.628 35.185 22.888 35.556 22.517 37.778 23.258 37.778 23.258 41.852 25.11 41.852 25.11 47.778 28.073 47.778 28.073 50.37 29.184 51.111 29.554 51.111 29.554 50.37 28.814 48.889 27.703 45.926 26.221 45.926 26.221 41.852 23.628 40.0 22.517 39.259 22.147 39.259 22.147 39.63 22.517 41.852 23.628 50.0 28.443 50.0 28.443 52.963 29.925 52.963 29.925 52.222 29.925 50.37 29.184 46.296 27.332 46.296 27.332 44.074 25.48 42.593 24.369 42.593 23.999 42.593 23.999 44.815 24.74 51.111 27.703 55.556 30.295 55.556 30.295 58.889 31.777 60.37 32.517 56.296 30.666 56.296 30.666 52.593 28.814 48.148 27.332 43.704 26.962 43.704 26.962 51.481 34.74 51.481 34.74 54.074 36.591 54.815 36.962 54.815 36.962 54.074 36.962 50.0 35.851 45.926 34.74 45.926 34.74 42.222 33.999 40.741 33.628 41.481 33.999 41.481 33.999 46.296 36.591 50.741 38.814 54.444 40.666 54.444 40.666 56.296 41.777 56.667 41.777 55.556 41.777 55.556 41.777 49.63 41.036 44.444 39.925 39.63 38.443 39.63 38.443 37.037 37.332 36.667 36.962 41.111 38.073 41.111 38.073 46.667 39.925 51.852 41.406 55.556 42.517 55.556 42.517 57.037 43.258 57.037 43.258 52.963 43.628 52.963 43.628 48.148 43.999 42.593 44.369 38.148 44.369 38.148 44.369 35.926 44.369 35.926 44.74 41.481 46.591 41.481 46.591 47.407 48.073 52.963 49.184 58.889 49.925 58.889 49.925 48.148 48.814 48.148 48.814 43.333 48.443 40.37 48.443 39.259 48.443 39.259 48.443 40.37 48.443 43.333 49.184 47.037 49.554 47.037 49.554 50.37 49.925 52.963 50.295 49.63 51.036 49.63 51.036 38.889 53.999 38.889 53.999 38.889 53.999 40.0 53.628 50.741 53.628 50.741 53.628 52.222 55.11 52.222 55.11 47.407 55.11 42.222 55.48 42.222 55.48 37.037 55.48 35.926 55.48 36.296 55.48 36.296 55.48 38.148 55.48 40.741 55.48 48.519 55.48 48.519 55.48 49.63 55.48 49.63 55.48 47.778 55.48 44.815 55.851 36.667 56.591 36.667 56.591 36.296 56.591 37.407 56.591 40.0 56.221 40.0 56.221 45.926 55.48 49.63 54.74 51.852 54.369 51.852 54.369 52.222 53.999 51.111 53.999 48.148 53.628 48.148 53.628 43.333 53.258 36.296 52.888 34.074 52.147 34.074 52.147 34.444 51.036 37.407 49.925 46.296 48.443 46.296 48.443 53.333 47.332 59.259 46.221 63.333 45.48 63.333 45.48 64.815 45.11 64.815 45.11 61.481 44.369 56.667 43.628 56.667 43.628 50.741 43.628 50.741 43.628 46.296 43.258 43.333 42.888 43.333 42.888 46.296 42.517 50.741 41.777 55.926 41.406 55.926 41.406 60.741 40.666 64.444 39.925 66.296 39.184 66.296 39.184 64.815 38.443 61.111 37.703 56.667 36.962 56.667 36.962 52.593 36.221 49.63 35.48 50.0 35.11 50.0 35.11 52.222 34.74 57.037 33.999 62.222 33.999 62.222 33.999 67.037 33.628 67.037 33.628 70.741 33.258 67.037 32.888 67.037 32.888 61.481 32.147 55.185 31.777 45.556 30.295 45.556 30.295 45.926 29.554 48.148 28.814 52.593 28.073 52.593 28.073 58.148 27.703 64.444 26.591 66.667 26.591 66.667 26.591 66.667 26.221 64.815 25.851 60.741 25.48 60.741 25.48 54.444 24.74 51.481 24.74 51.481 24.369 51.481 24.369 61.111 23.999 61.111 23.999 65.185 23.999 67.778 23.628 67.778 23.258 67.778 23.258 65.185 23.258 58.889 22.517 55.185 22.147 55.185 22.147 53.333 21.777 52.963 21.406 58.889 21.036 58.889 21.036 65.556 20.666 65.556 20.666 65.185 20.666 62.963 20.295 58.519 19.925 58.519 19.925 56.667 19.925 55.926 19.925 57.778 19.554 57.778 19.554 60.741 19.184 62.593 18.814 63.333 18.814 63.333 18.814 63.333 18.814 63.333 18.814 62.593 18.814 62.593 18.814 62.593 19.184 62.593 19.184 62.963 19.184 63.704 19.184 63.704 19.184 65.185 19.184 66.296 19.184 66.296 19.184 66.296 19.184 65.556 19.184 64.074 19.184 62.222 18.814 62.222 18.814 60.741 18.814 60.37 18.814 61.481 19.184 61.481 19.184 64.074 19.554 67.037 20.295 70.0 21.036 70.0 21.036 73.333 21.406 73.333 21.406 74.074 21.777 73.333 22.147 73.333 22.147 71.481 22.147 67.778 22.517 64.444 22.517 64.444 22.517 61.481 22.888 61.481 22.888 62.963 23.258 62.963 23.258 65.926 23.999 69.259 24.369 73.333 25.48 73.333 25.48 74.815 25.851 74.815 26.221 73.333 26.591 73.333 26.591 70.37 26.962 64.815 26.962 62.222 26.962 62.222 26.962 61.111 26.962 62.222 26.962 65.185 27.332 65.185 27.332 68.889 27.703 74.074 28.814 75.556 29.184 75.556 29.184 75.556 29.554 74.074 30.295 70.37 30.666 70.37 30.666 61.852 31.406 61.852 31.406 60.741 31.406 61.111 31.406 62.963 31.777 62.963 31.777 66.296 32.517 71.852 33.628 73.704 34.369 73.704 34.369 73.704 34.74 71.481 34.74 60.0 35.48 60.0 35.48 56.667 35.851 55.556 35.851 55.556 36.221 55.556 36.221 57.037 36.221 62.222 36.962 66.296 37.332 66.296 37.332 68.889 38.073 70.0 38.814 69.63 39.554 69.63 39.554 65.926 40.666 62.222 41.036 58.519 41.406 58.519 41.406 55.926 41.406 55.185 41.036 56.296 40.666 56.296 40.666 61.111 40.666 65.185 41.036 68.889 41.406 68.889 41.406 70.37 41.777 70.0 42.147 65.926 42.888 65.926 42.888 60.741 43.999 54.815 45.11 50.0 46.591 50.0 46.591 47.037 47.332 45.926 48.073 49.259 49.184 49.259 49.184 51.481 50.295 51.481 50.295 46.296 51.036 40.741 51.777 35.185 52.517 35.185 52.517 32.222 52.517 31.852 52.517 37.037 51.406 37.037 51.406 43.333 50.295 50.37 48.814 55.556 47.703 55.556 47.703 57.778 46.962 57.037 46.221 49.63 45.48 49.63 45.48 41.852 45.48 35.185 45.48 31.111 45.48 31.111 45.48 30.37 45.48 32.222 45.11 40.0 43.999 40.0 43.999 46.667 43.258 52.593 42.517 55.926 42.517 55.926 42.517 55.556 42.517 50.741 42.517 35.926 42.888 35.926 42.888 29.63 42.888 26.296 42.517 38.148 40.295 38.148 40.295 49.63 38.814 49.63 38.814 52.222 38.073 50.37 37.703 45.556 37.332 45.556 37.332 39.259 36.591 32.963 35.851 28.519 35.11 28.519 35.11 26.296 33.999 27.407 33.258 30.0 32.147 30.0 32.147 33.333 31.406 36.296 30.666 37.407 29.925 37.407 29.925 36.296 29.925 33.704 29.925 30.37 29.554 30.37 29.554 26.667 29.554 23.333 28.073 28.148 25.11 28.148 25.11 36.667 24.74 36.667 24.74 35.926 25.11 34.074 25.11 29.259 24.74 29.259 24.74 28.519 24.369 28.519 23.999 31.481 22.517 31.481 22.517 34.074 21.777 36.296 21.036 37.037 21.406 37.037 21.406 35.556 22.147 33.704 22.147 31.481 22.147 31.481 22.147 31.852 21.777 32.963 21.406 34.815 21.406 34.815 21.406 35.185 21.036 35.185 21.036 34.444 21.036 34.444 21.036 34.074 21.406 32.593 22.147 28.889 23.999 28.889 23.999 27.778 24.74 26.667 25.48 24.074 28.073 24.074 28.073 22.963 29.184 22.963 29.184 22.222 29.925 21.852 31.036 21.852 31.036 21.111 32.147 21.111 32.147 20.741 32.888 19.63 34.74 19.63 34.74 19.259 35.48 19.259 36.221 19.63 37.703 19.63 37.703 19.63 38.814 19.63 40.295 19.63 41.406 19.63 41.406 19.63 42.517 20.0 43.628 21.111 45.11 21.111 45.11 22.222 46.221 22.963 47.332 23.704 48.814 23.704 48.814 25.185 50.295 25.926 51.036 26.667 51.406 26.667 51.406 27.407 51.406 27.778 51.406 28.148 51.036 28.148 51.036 27.778 49.554 26.667 47.703 23.704 42.517 23.704 42.517 22.963 41.036 22.963 40.295 25.185 42.147 25.185 42.147 27.407 43.628 29.259 45.11 30.37 46.221 30.37 46.221 30.741 46.591 30.741 46.591 30.741 46.591 27.778 45.48 27.778 45.48 26.296 43.999 25.556 41.777 32.222 39.554 32.222 39.554 55.556 38.814 55.556 38.814 58.889 38.443 58.889 36.591 58.889 36.591 55.556 35.48 50.741 33.999 41.111 30.666 41.111 30.666 42.593 28.814 42.593 28.814 46.296 28.073 54.074 28.073 60.37 28.073 60.37 28.073 60.741 28.073 58.889 27.703 49.63 25.48 49.63 25.48 47.407 25.11 46.296 24.74 46.667 24.369 46.667 24.369 47.778 23.999 51.111 23.258" stroke="#000000" fill="none" stroke-width=".9" stroke-linecap="round" stroke-linejoin="round"/></svg>