<svg version="1.1" baseProfile="full" width="100%" height="100%" viewBox="0 0 100 100" xmlns="http://www.w3.org/2000/svg"><polyline points="13.995 28.238 14.221 29.141 14.673 30.044 15.124 30.721 15.35 31.624 15.801 32.301 16.253 32.753 16.479 33.43 16.93 33.655 17.156 33.881 17.156 34.333 17.607 34.558 17.833 35.01 18.284 35.687 18.736 36.139 19.187 37.041 19.413 37.493 19.639 37.944 19.865 38.396 20.09 38.847 20.316 39.299 20.542 39.75 20.767 40.202 20.767 40.427 20.993 40.879 20.993 41.105 21.219 41.33 21.219 41.556 21.445 41.556 21.445 41.782 21.67 42.008 21.67 42.233 21.896 42.233 21.896 42.233 22.122 42.233 22.122 42.685 22.122 42.911 22.122 42.685 22.122 42.459 21.896 42.459 21.896 42.233 21.896 42.008 21.67 42.008 21.67 41.556 21.67 41.556 21.445 41.556 21.445 41.33 21.445 41.105 21.219 41.105 21.219 40.879 20.993 40.879 20.993 40.653 20.767 40.427 20.767 39.976 20.542 39.75 20.316 39.525 20.09 39.073 19.865 38.622 19.865 37.944 19.639 37.493 19.413 37.267 19.413 37.041 19.187 36.816 18.962 36.59 18.962 36.364 18.962 36.139 18.736 35.913 18.736 35.687 18.736 35.461 18.51 35.236 18.51 34.784 18.51 34.558 18.284 34.107 18.059 33.655 18.059 32.978 18.059 32.527 17.833 31.624 17.833 30.947 17.833 30.269 17.833 29.592 17.833 29.141 17.833 28.689 17.833 28.238 17.833 27.786 17.833 27.109 17.833 26.883 17.833 26.658 17.607 26.658 17.607 26.883 17.607 27.109 17.607 27.561 17.607 28.012 17.607 28.464 17.607 29.141 17.607 30.044 17.607 30.495 17.607 30.947 17.607 31.85 17.607 32.301 17.607 32.753 17.607 33.204 17.607 33.43 17.607 33.655 17.833 33.881 17.833 34.107 17.833 34.333 18.059 34.333 18.284 34.333 18.51 34.333 18.736 34.558 19.187 34.558 19.639 34.558 20.09 34.784 20.542 34.784 21.219 34.784 21.67 35.01 22.122 35.01 22.348 35.236 22.799 35.236 23.025 35.461 23.476 35.913 23.702 35.913 24.153 36.139 24.605 36.364 25.056 36.59 25.282 36.59 25.508 36.59 25.508 36.59 25.734 36.59 25.959 36.59 26.185 36.59 26.411 36.59 26.637 36.59 26.637 36.364 26.411 35.913 25.959 35.236 25.734 34.558 25.282 33.881 24.831 33.204 24.605 32.527 24.153 31.85 23.928 31.398 23.928 30.947 23.702 30.269 23.702 29.818 23.702 28.915 23.476 28.464 23.476 28.238 23.476 27.561 23.476 27.109 23.476 26.658 23.476 26.206 23.476 25.529 23.476 25.078 23.476 24.4 23.702 23.949 23.928 23.272 24.153 22.82 24.379 22.369 24.605 21.917 25.056 21.692 25.282 21.692 25.734 21.692 26.185 21.692 26.637 21.692 27.314 21.692 27.765 21.692 28.217 21.692 28.894 21.692 29.12 21.917 29.345 21.917 29.345 22.143 29.571 22.143 29.571 22.369 29.345 22.369 28.668 22.369 27.54 22.369 26.637 22.369 26.185 22.369 25.734 22.369 25.508 22.369 25.508 22.595 25.282 22.595 25.282 22.82 25.056 23.046 24.831 23.272 24.831 23.497 24.605 23.723 24.379 23.949 24.153 24.175 24.153 24.4 23.928 24.626 23.702 25.078 23.702 25.303 23.702 25.529 23.476 25.755 23.476 26.206 23.476 26.432 23.476 26.883 23.476 27.335 23.476 27.561 23.476 28.012 23.476 28.464 23.476 28.915 23.476 29.818 23.476 30.269 23.702 30.947 23.702 31.398 23.928 31.624 24.153 32.075 24.379 32.301 24.605 32.753 24.831 33.204 25.056 33.43 25.282 33.43 25.734 33.655 25.959 33.881 26.185 34.107 26.637 34.107 26.862 34.333 27.314 34.558 27.765 34.558 28.217 34.784 28.442 34.784 28.894 34.784 29.12 34.784 29.345 34.784 29.571 34.784 29.797 34.784 30.023 34.784 30.248 34.784 30.248 34.558 30.474 34.333 30.7 34.333 30.7 34.107 30.7 33.881 30.7 33.655 30.7 33.43 30.7 33.204 30.7 32.978 30.7 32.753 30.926 32.301 30.926 32.075 30.926 31.85 31.151 31.624 31.377 31.398 31.603 30.947 31.828 30.495 32.28 30.044 32.731 29.592 33.183 29.141 33.86 28.915 34.086 28.689 34.763 28.464 35.214 28.238 35.44 28.238 36.117 28.238 36.569 28.238 37.246 28.238 37.698 28.238 38.149 28.238 38.6 28.238 39.052 28.464 39.503 28.689 39.955 29.367 40.406 29.818 40.858 30.495 41.309 30.947 41.535 31.398 41.761 31.85 41.986 32.301 42.212 32.753 42.212 33.204 42.438 33.655 42.438 34.558 42.438 35.01 42.438 35.687 42.664 36.364 42.664 36.816 42.664 37.493 42.664 38.17 42.664 38.622 42.664 39.299 42.664 39.75 42.664 40.202 42.664 40.653 42.664 40.879 42.664 41.782 42.664 42.233 42.664 42.911 42.664 43.588 42.664 44.265 42.664 45.168 42.438 45.845 42.438 46.297 42.212 46.974 41.986 47.425 41.986 47.877 41.761 48.328 41.535 49.005 41.535 49.457 41.309 49.683 41.084 50.36 40.858 50.585 40.181 50.811 39.729 51.263 39.278 51.488 38.6 51.714 37.923 51.94 37.246 51.94 36.569 51.94 36.117 51.94 35.666 51.94 35.214 51.94 34.763 51.94 34.537 51.94 34.086 51.94 33.409 51.714 32.957 51.488 32.28 51.263 31.828 51.037 31.151 50.811 30.7 50.585 29.797 49.908 29.345 49.683 28.894 49.231 28.442 48.78 27.991 48.554 27.765 48.102 27.314 47.877 27.088 47.425 26.637 47.199 26.185 46.748 25.959 46.297 25.734 45.845 25.734 45.394 25.508 45.168 25.282 44.491 25.056 43.813 24.831 43.588 24.831 42.911 24.379 42.685 24.379 42.459 24.153 42.008 24.153 41.782 24.153 41.105 24.153 40.653 24.153 40.427 24.153 39.976 24.153 39.525 24.153 39.299 24.153 38.847 24.153 38.396 24.153 38.17 24.153 37.944 24.153 37.493 24.379 37.267 24.831 37.041 25.056 36.816 25.282 36.59 25.508 36.59 25.959 36.59 26.185 36.59 26.411 36.59 26.862 36.59 27.088 36.364 27.54 36.364 27.991 36.364 28.668 36.364 29.12 36.364 29.571 36.364 30.248 36.364 30.7 36.364 30.926 36.364 30.926 36.364 31.151 36.364 31.377 36.364 31.603 36.364 31.603 36.139 31.603 35.913 31.603 35.236 31.603 35.01 31.603 34.784 31.377 34.784 31.377 34.558 31.377 34.558 31.377 34.333 31.377 34.107 31.377 33.881 31.377 33.655 31.377 33.43 31.377 33.204 31.377 32.978 31.151 32.753 31.151 32.527 31.151 32.301 31.151 32.075 31.151 31.85 31.151 31.624 31.151 31.398 31.151 31.172 31.151 30.947 31.151 30.721 31.151 30.495 31.377 30.269 31.603 29.818 31.603 29.818 31.603 29.592 32.054 29.592 32.054 29.367 32.28 29.141 32.28 28.915 32.506 28.689 32.731 28.464 32.957 28.464 33.183 28.238 33.409 28.238 33.409 28.012 33.634 28.012 33.86 28.012 34.086 28.012 34.312 28.012 34.537 28.012 34.763 28.012 34.989 28.012 35.214 28.012 35.44 28.012 35.892 27.786 36.343 27.786 37.02 27.786 37.472 27.786 37.698 27.786 38.149 27.786 38.375 27.786 38.6 27.786 38.826 27.786 39.052 27.786 39.278 27.786 39.503 27.786 39.729 27.786 39.955 27.786 40.181 27.786 40.181 28.012 40.181 28.238 40.181 28.689 40.406 28.915 40.632 29.141 40.632 29.367 40.858 29.592 41.084 29.818 41.084 30.044 41.309 30.044 41.309 30.269 41.309 30.495 41.309 30.495 41.309 30.721 41.535 30.947 41.535 31.172 41.761 31.172 41.761 31.398 41.761 31.624 41.986 31.624 41.986 31.85 42.212 32.075 42.212 32.301 42.212 32.527 42.438 32.753 42.438 32.978 42.664 33.43 42.664 33.655 43.115 34.107 43.115 34.333 43.115 34.784 43.115 35.01 43.115 35.236 43.115 35.461 43.115 35.687 43.115 35.913 43.115 36.139 43.115 36.364 43.115 36.59 43.115 36.816 43.115 37.041 43.115 37.267 43.115 37.267 43.115 37.493 43.115 37.719 43.341 37.719 43.567 38.396 43.792 38.622 44.244 39.525 45.147 40.427 45.598 41.33 46.05 42.233 46.501 43.136 47.178 44.039 47.404 44.716 47.856 45.394 48.081 45.845 48.307 46.071 48.533 46.297 48.758 46.522 48.533 46.522 48.307 46.071 47.856 44.942 47.63 44.491 46.953 43.813 46.727 42.911 46.05 42.459 45.824 41.782 45.598 41.556 45.372 40.879 45.147 40.653 45.147 40.202 44.921 39.75 44.921 39.525 44.695 39.299 44.47 38.847 44.47 38.622 44.47 37.944 44.47 37.493 44.47 37.041 44.47 36.59 44.47 35.913 44.47 35.461 44.47 35.236 44.47 34.784 44.47 34.558 44.47 34.107 44.695 33.881 45.147 33.43 45.372 33.204 45.598 33.204 45.824 33.204 46.05 33.204 46.275 33.204 46.501 33.204 46.953 33.204 47.178 33.204 47.404 33.655 47.63 33.881 47.856 34.107 48.081 34.333 48.081 34.784 48.307 35.01 48.307 35.461 48.307 35.687 48.307 36.364 48.307 36.816 48.307 37.493 48.307 37.944 48.307 38.622 48.307 39.073 48.307 39.525 48.307 39.976 48.307 40.427 48.307 40.879 48.307 41.33 48.081 41.556 48.081 41.782 47.856 42.008 47.856 41.782 47.856 41.556 47.856 41.105 48.081 40.653 48.307 40.653 48.533 40.427 48.758 40.202 48.984 39.976 49.436 39.75 49.887 39.75 50.113 39.525 50.564 39.299 51.016 39.299 51.467 39.299 51.919 39.299 52.144 39.299 52.37 39.299 52.596 39.299 52.822 39.299 53.047 39.299 53.273 39.525 53.273 39.75 53.499 39.976 53.725 40.202 53.725 40.427 53.95 40.879 54.176 41.33 54.176 41.556 54.402 42.233 54.402 42.685 54.628 43.362 54.628 43.588 54.628 44.039 54.628 44.265 54.628 44.491 54.628 44.942 54.628 45.168 54.628 45.394 54.628 45.394 54.628 45.619 54.402 45.619 54.402 45.845 54.176 45.845 53.95 45.845 53.725 45.845 53.499 46.071 53.273 46.071 53.047 46.297 52.822 46.297 52.37 46.297 52.144 46.522 51.919 46.522 51.693 46.522 51.693 46.748 51.467 46.748 51.242 46.748 51.016 46.748 50.79 46.748 50.564 46.748 50.339 46.748 50.113 46.748 49.661 46.748 49.436 46.748 48.984 46.748 48.758 46.748 48.758 46.522 48.533 46.522 48.307 46.522 48.533 46.522 48.758 46.522 48.984 46.522 49.436 46.748 49.661 46.748 49.887 46.974 50.113 46.974 50.339 46.974 50.564 46.974 50.79 46.974 51.016 46.974 51.242 47.199 51.467 47.199 51.693 47.199 51.693 47.199 51.919 47.199 52.144 47.199 52.37 47.199 52.596 47.199 52.822 47.199 53.047 46.974 53.273 46.748 53.499 46.522 53.725 46.297 53.95 46.071 54.176 45.845 54.176 45.619 54.402 45.394 54.628 45.394 54.853 45.168 54.853 44.942 55.079 44.716 55.305 44.491 55.53 44.265 55.756 44.039 55.756 43.813 55.982 43.588 56.208 43.136 56.208 42.911 56.433 42.685 56.433 42.233 56.433 42.008 56.433 41.556 56.433 41.33 56.433 40.879 56.433 40.427 56.433 39.75 55.982 39.073 55.756 38.622 55.53 38.17 55.305 37.719 55.079 37.267 54.853 36.816 54.628 36.59 54.176 36.139 54.176 35.687 53.95 35.236 53.725 34.784 53.725 34.333 53.499 33.881 53.273 33.655 53.273 33.204 53.047 32.978 52.822 32.527 52.822 32.075 52.37 31.85 52.37 31.398 52.144 30.721 51.919 30.269 51.693 29.818 51.467 29.367 51.467 28.915 51.016 28.689 50.79 28.238 50.79 28.012 50.564 27.335 50.339 27.109 50.339 26.883 50.339 26.883 50.113 26.883 50.113 26.658 50.113 26.883 50.339 27.335 50.564 28.012 51.016 28.689 51.467 29.367 51.693 30.044 52.144 30.495 52.596 30.947 52.822 31.624 53.047 32.075 53.273 32.527 53.725 32.978 53.95 33.43 54.176 33.655 54.402 34.107 54.628 34.558 54.853 35.01 55.079 35.461 55.079 35.913 55.305 36.364 55.53 36.816 55.756 37.493 55.982 37.944 56.208 38.396 56.208 38.847 56.433 39.299 56.659 39.976 56.885 40.427 56.885 40.879 56.885 41.105 57.111 41.33 57.111 41.556 57.111 41.782 57.336 41.782 57.336 42.008 57.562 42.008 57.788 42.008 57.788 42.008 58.014 42.008 58.239 42.008 58.465 41.782 58.691 41.782 58.916 41.556 59.142 41.556 59.368 41.33 59.594 41.105 59.819 40.879 60.045 40.653 60.045 40.427 60.497 40.202 60.722 40.202 60.948 39.75 60.948 39.75 61.174 39.299 61.174 38.622 61.4 38.17 61.625 37.944 61.625 37.719 61.625 37.267 61.625 36.816 61.625 36.364 61.625 35.913 61.625 35.461 61.625 35.01 61.625 34.784 61.625 34.333 61.625 34.107 61.625 33.43 61.625 33.204 61.625 32.753 61.4 32.527 61.4 32.301 61.174 32.075 60.948 31.85 60.948 31.398 60.722 31.172 60.497 30.721 60.045 30.495 59.594 29.818 59.368 29.818 59.142 29.367 58.691 29.141 58.465 28.915 58.014 28.238 57.562 28.238 57.336 28.012 56.885 27.786 56.659 27.786 56.433 27.561 55.982 27.335 55.756 27.335 55.305 27.109 55.079 26.883 54.853 26.883 54.628 26.883 54.176 26.658 53.95 26.658 53.725 26.432 53.047 26.432 52.822 26.432 52.596 26.206 52.37 26.206 52.37 26.206 52.144 26.206 51.919 26.206 51.693 26.206 51.467 26.206 51.242 26.206 51.016 26.206 51.016 26.206 50.79 26.206 50.79 26.432 50.79 26.658 50.79 26.883 50.564 26.883 50.564 27.109" stroke="#000000" fill="none" stroke-width=".9" stroke-linecap="round" stroke-linejoin="round"/></svg>