<svg version="1.1" baseProfile="full" width="100%" height="100%" viewBox="0 0 100 100" xmlns="http://www.w3.org/2000/svg"><polyline points="51.258 32.383 51.258 31.896 51.258 31.653 51.258 31.41 50.772 30.923 50.772 30.68 50.772 30.436 51.015 29.95 51.502 29.95 51.745 29.463 51.745 28.977 51.988 28.733 52.232 28.247 52.232 27.76 52.232 27.517 52.232 27.03 52.232 26.3 52.232 25.814 52.232 25.57 52.232 25.084 52.232 24.597 52.232 23.867 51.745 23.624 51.745 23.137 51.745 22.894 51.502 22.407 51.258 22.164 50.772 21.677 50.528 21.434 50.285 21.191 50.042 20.947 49.555 20.461 49.312 20.461 49.069 20.461 48.582 20.461 48.095 20.217 47.852 20.217 47.365 20.217 47.122 20.461 46.879 20.947 46.392 20.947 46.149 21.677 45.906 21.921 45.662 22.164 45.419 22.651 45.419 22.894 45.176 23.137 45.176 23.624 45.176 23.867 44.932 24.11 44.689 24.597 44.689 24.84 44.689 25.084 44.446 25.57 44.446 26.057 44.202 26.3 44.202 26.787 44.202 27.03 44.202 27.273 44.202 27.517 44.446 28.247 44.446 28.49 44.689 28.977 44.932 29.463 44.932 29.95 44.932 30.193 44.932 30.436 45.176 30.923 45.419 30.923 45.662 31.166 45.906 31.41 46.149 31.41 46.392 31.41 46.635 31.896 46.879 32.14 46.635 32.626 46.392 32.626 46.149 32.626 45.662 32.87 45.419 33.113 45.176 33.599 44.932 33.599 44.689 33.599 44.202 33.843 43.959 34.086 43.716 34.329 43.472 34.573 42.986 34.816 42.743 34.816 42.499 35.303 42.013 35.303 41.769 35.546 41.283 35.789 41.039 36.519 40.796 36.762 40.553 37.249 40.309 37.736 40.309 37.979 40.309 38.222 40.309 38.709 40.309 39.196 40.309 39.439 40.309 39.682 40.309 40.169 40.309 40.412 40.309 40.655 40.309 41.142 40.309 41.385 40.309 41.629 40.309 42.115 40.066 42.359 40.066 42.602 40.066 43.089 40.066 43.575 40.066 43.818 40.066 44.062 40.066 44.548 40.066 45.035 40.066 45.522 40.066 46.008 40.066 46.252 39.823 46.738 39.823 46.981 39.823 47.468 39.823 47.955 39.823 48.441 39.823 48.685 39.823 48.928 39.58 49.415 39.58 50.144 39.58 50.631 39.58 51.118 39.58 51.604 39.58 52.091 39.58 52.334 39.58 53.064 39.58 53.307 39.336 53.794 39.336 54.281 39.093 54.767 39.093 55.497 38.85 55.984 38.85 56.47 38.85 56.957 38.606 57.2 38.606 57.93 38.363 58.417 38.12 59.147 38.12 60.12 38.12 60.85 38.12 61.337 38.12 61.58 37.876 62.067 37.876 62.553 37.876 62.797 37.876 63.283 37.876 63.77 37.876 64.256 37.876 64.5 37.876 64.986 37.876 65.473 37.876 66.203 37.876 66.446 37.876 66.689 37.876 66.933 37.876 67.419 37.876 67.663 37.876 67.906 37.876 68.393 37.876 68.636 38.12 68.879 38.606 68.879 38.85 68.879 39.093 69.366 39.336 69.366 39.58 69.366 39.58 69.123 39.58 68.636 39.58 68.393 39.58 68.149 39.58 67.906 39.58 67.419 39.58 67.176 39.58 66.933 39.58 66.446 39.823 66.203 40.066 65.96 40.066 65.473 40.066 65.23 40.553 64.986 40.553 64.5 40.553 64.256 40.796 63.77 40.796 63.526 40.796 62.797 40.796 62.553 40.796 62.31 40.796 62.067 41.039 61.337 41.039 61.093 41.039 60.85 41.039 60.363 41.039 60.12 41.039 59.634 41.039 59.147 41.283 58.66 41.526 57.93 41.526 57.687 41.769 57.444 41.769 57.2 41.769 56.714 41.769 56.47 41.769 55.984 42.013 55.497 42.013 55.254 42.013 54.767 42.013 54.524 42.013 54.037 42.013 53.307 42.013 52.578 42.256 51.848 42.256 51.604 42.256 51.361 42.256 51.118 42.256 50.631 42.256 50.388 42.256 50.144 42.256 49.658 42.256 49.415 42.256 49.171 42.256 49.658 42.256 50.144 42.256 50.388 42.499 50.631 42.499 51.118 42.743 51.604 42.743 51.848 42.743 52.091 42.743 52.578 42.743 52.821 42.743 53.064 42.743 53.551 42.743 54.037 42.743 54.767 42.743 55.497 42.743 56.227 42.743 56.714 42.743 56.957 42.743 57.444 42.743 57.687 42.743 57.93 42.743 58.66 42.743 59.147 42.743 59.634 42.743 60.12 42.743 60.607 42.743 60.85 42.743 61.093 42.743 61.58 42.743 62.067 42.743 62.31 42.743 62.797 42.743 63.283 42.743 63.77 42.986 64.013 42.986 64.256 42.986 64.743 42.986 64.986 42.986 65.23 42.986 65.716 42.986 66.203 42.986 66.689 42.986 67.176 43.229 67.419 43.229 67.906 43.229 68.636 43.472 69.123 43.472 69.609 43.472 70.096 43.472 70.582 43.472 71.069 43.472 71.556 43.472 71.799 43.472 72.286 43.472 72.529 43.472 73.016 43.472 73.502 43.472 74.475 43.472 74.962 43.472 75.205 43.472 75.449 43.472 75.935 43.472 76.665 43.472 77.395 43.472 78.125 43.472 78.855 43.229 79.342 43.229 79.828 43.229 80.071 42.986 80.558 42.986 81.045 42.986 81.775 42.986 82.261 42.986 82.505 42.986 82.748 42.986 83.234 42.986 83.478 42.986 83.964 42.986 84.208 42.986 84.694 42.986 85.181 42.986 85.424 42.986 85.668 42.986 86.154 42.986 86.641 42.986 87.127 42.986 87.857 42.986 88.101 42.986 88.344 42.986 88.831 42.986 89.074 42.986 89.317 42.743 89.804 42.499 89.804 42.256 89.804 41.769 89.804 41.526 89.804 41.283 89.804 40.796 89.804 40.553 89.804 40.309 89.804 39.823 89.804 39.58 89.804 39.336 89.804 38.85 90.047 38.606 90.29 38.363 90.534 38.12 91.02 38.12 91.264 37.876 91.264 37.39 91.264 37.39 91.75 37.633 91.994 37.876 92.48 38.12 92.724 38.363 92.967 38.606 93.21 38.85 93.21 39.336 93.453 39.823 93.453 40.309 93.453 40.553 93.21 41.039 93.21 41.283 93.21 41.526 93.21 42.013 92.967 42.499 92.967 42.743 92.724 42.986 92.724 43.472 92.724 43.716 92.724 43.959 92.724 44.202 92.724 44.689 92.724 44.932 92.724 45.176 92.724 45.662 92.724 45.662 92.724 45.662 92.724 45.662 92.724 45.662 92.724 45.662 92.724 45.662 92.724 45.662 92.724 45.662 92.724 45.662 92.724 45.662 92.724 45.662 92.724 45.906 92.48 45.906 92.48 45.906 92.48 45.906 92.48 45.906 92.48 45.906 92.48 45.906 92.48 45.906 92.48 45.906 92.48 45.906 92.48 45.906 92.48 45.906 92.48 45.906 92.48 45.906 92.48 45.906 92.48 45.906 92.48 45.906 92.48 45.906 92.48 45.906 92.48 45.906 92.48 45.906 92.48 45.906 92.48 45.906 92.48 45.906 92.48 45.906 92.48 45.906 92.48 45.906 92.48 45.906 92.48 45.906 92.48 45.906 92.48 45.906 92.237 45.906 92.237 45.906 92.237 45.906 91.75 45.906 91.507 45.906 91.264 45.906 90.777 45.906 90.534 46.149 90.047 46.149 89.804 46.149 89.074 46.392 88.831 46.392 88.587 46.392 88.101 46.392 87.614 46.392 87.127 46.392 86.641 46.635 86.398 46.879 85.911 46.879 85.424 47.122 84.938 47.122 84.451 47.122 84.208 47.365 83.721 47.365 83.478 47.365 82.991 47.365 82.505 47.609 82.261 47.609 82.018 47.609 81.775 47.609 81.045 47.609 80.801 47.609 80.558 47.609 80.315 47.609 79.585 47.609 79.342 47.609 78.855 47.609 78.368 47.609 78.125 47.609 77.395 47.609 77.152 47.609 76.665 47.609 76.422 47.852 75.935 47.852 75.692 47.852 75.449 47.852 74.719 47.852 74.232 47.852 73.745 47.852 73.259 47.852 73.016 47.852 72.529 47.852 72.286 47.852 71.556 47.852 71.312 47.852 71.069 47.852 70.826 47.852 70.339 48.095 69.852 48.095 69.609 48.095 69.123 48.095 68.636 48.095 68.149 48.095 67.906 48.339 67.663 48.339 66.933 48.582 66.689 48.582 66.446 48.582 65.96 48.582 65.716 48.582 65.473 48.582 65.23 48.582 64.743 48.825 64.986 48.825 65.23 48.825 65.473 49.069 65.96 49.069 66.203 49.069 66.446 49.069 66.933 49.069 67.176 49.069 67.663 49.069 68.149 49.069 68.636 49.069 69.366 49.069 69.852 49.069 70.582 49.069 71.069 49.069 71.556 49.069 72.286 49.069 72.772 49.069 73.259 49.069 73.745 49.069 74.232 49.069 74.962 49.069 75.692 49.069 76.179 49.069 76.665 49.069 77.395 49.069 77.882 49.069 78.368 49.069 78.612 49.069 79.098 49.069 79.342 49.069 79.828 49.069 80.071 49.069 80.558 49.069 81.045 49.069 81.531 49.069 81.775 49.069 82.261 49.069 82.748 49.069 83.234 49.069 83.478 49.069 83.721 49.069 84.208 49.069 84.694 49.069 84.938 49.069 85.181 49.069 85.668 49.069 85.911 49.069 86.154 49.069 86.641 49.069 87.371 49.069 87.857 49.069 88.587 49.069 89.074 49.069 89.561 49.069 89.804 49.069 90.29 49.069 90.777 49.069 91.02 49.069 91.264 49.069 91.75 49.069 91.994 49.312 92.237 49.312 92.724 49.312 92.967 49.799 93.453 49.799 93.697 49.799 93.697 49.799 93.697 49.799 93.697 49.799 93.697 50.285 93.453 50.528 93.453 50.772 93.21 51.258 93.21 51.502 93.21 51.745 93.21 52.232 93.21 52.475 93.21 52.718 92.724 53.205 92.724 53.448 92.724 53.691 92.724 53.935 92.724 54.421 92.724 54.665 92.724 54.908 92.967 55.395 92.967 55.638 92.967 55.881 92.724 56.125 92.48 56.125 92.237 56.125 91.75 56.125 91.264 56.125 91.02 56.125 90.534 56.125 90.29 55.638 89.561 55.638 89.317 55.638 89.074 55.151 89.074 54.908 89.074 54.665 89.074 54.178 89.074 53.935 89.074 53.691 89.074 53.205 88.587 52.962 88.587 52.475 88.344 51.988 88.344 51.745 88.101 51.745 87.857 51.502 87.371 51.502 87.127 51.502 86.884 51.502 86.641 51.502 85.911 51.502 85.668 51.502 85.181 51.502 84.938 51.502 84.451 51.502 83.721 51.502 83.478 51.502 83.234 51.502 82.748 51.745 82.505 51.745 82.018 51.745 81.775 51.745 81.288 51.988 81.045 51.988 80.801 51.988 80.315 51.988 80.071 52.232 79.828 52.232 79.342 52.232 78.612 52.232 78.368 52.232 77.882 52.232 77.395 52.232 76.908 52.232 76.422 52.232 76.179 52.232 75.935 52.232 75.449 52.232 75.205 52.232 74.962 52.232 74.475 52.232 73.989 52.232 73.745 52.232 73.502 52.232 73.016 52.232 72.772 52.232 72.529 52.232 72.042 52.232 71.799 52.475 71.556 52.475 71.069 52.475 70.826 52.475 70.582 52.475 70.339 52.475 69.852 52.475 69.366 52.475 69.123 52.475 68.879 52.475 68.393 52.475 68.149 52.232 67.906 52.232 67.419 52.232 67.176 52.232 66.933 52.232 66.689 52.232 66.203 52.232 65.96 52.232 65.716 52.232 65.23 52.232 64.986 52.232 64.743 52.475 64.256 52.475 64.013 52.718 63.526 52.718 63.04 52.718 62.553 52.718 62.31 52.718 62.067 52.718 61.823 52.962 61.337 52.962 60.85 52.962 60.363 53.205 59.877 53.205 59.39 53.205 59.147 53.205 58.904 53.205 58.417 53.448 57.93 53.448 57.687 53.448 57.2 53.448 56.957 53.448 56.227 53.448 55.984 53.448 55.741 53.448 55.254 53.205 54.767 53.205 54.524 52.962 54.037 52.718 53.551 52.718 53.307 52.475 53.064 52.475 52.578 52.475 52.091 52.475 51.848 52.475 51.604 52.475 51.118 52.475 50.874 52.475 50.388 52.475 50.144 52.475 49.658 52.475 49.415 52.475 49.171 52.475 48.685 52.475 48.441 52.475 47.955 52.475 47.711 52.475 47.225 52.718 46.981 52.718 46.738 52.718 46.252 52.718 46.008 52.718 45.765 52.718 45.522 52.718 45.035 52.962 44.792 52.962 44.548 53.205 44.062 53.205 43.575 53.205 43.332 53.205 43.089 53.205 42.602 53.205 42.359 53.205 42.115 53.205 41.629 53.448 41.385 53.691 41.142 53.935 40.412 53.935 39.925 53.935 39.682 53.935 39.439 53.935 38.952 54.178 38.709 54.421 38.222 54.665 37.979 54.908 37.736 55.151 37.492 55.638 37.249 55.881 36.519 56.125 36.276 56.125 35.789 56.611 35.303 56.854 34.816 56.854 34.329 57.098 34.086 57.341 33.599 57.341 33.113 57.341 32.87 57.828 32.383 58.071 31.896 58.071 31.653 58.314 31.166 58.558 30.68 58.558 30.436 58.801 29.95 59.044 29.463 59.288 29.22 59.531 28.733 59.774 28.003 59.774 27.76 59.774 27.517 60.261 27.03 60.504 26.787 60.504 26.543 60.991 25.814 60.991 25.57 61.234 25.327 61.477 24.84 61.721 24.597 61.964 24.11 62.207 23.867 62.451 23.624 62.694 23.137 63.181 23.137 63.181 22.651 63.667 22.407 63.91 21.921 64.397 21.677 64.397 21.434 64.64 20.947 65.127 20.704 65.127 20.217 65.614 20.217 65.857 19.974 66.1 19.731 66.587 19.731 66.83 19.731 67.073 19.731 67.317 19.731 67.803 19.731 68.047 19.488 68.29 19.488 68.533 19.244 68.777 19.001 69.02 18.758 69.263 18.271 69.507 18.028 69.507 17.541 69.02 17.541 68.777 17.298 68.533 17.054 68.29 16.568 68.047 16.811 67.803 16.811 67.803 17.298 67.56 17.541 67.317 17.541 67.073 17.784 66.587 17.784 66.344 18.028 66.1 18.028 65.614 18.028 65.37 18.271 65.127 18.028 64.64 18.028 64.397 17.541 64.154 17.298 63.91 16.811 63.667 16.568 63.424 16.325 63.424 16.568 63.424 17.054 63.424 17.298 63.424 17.784 63.424 18.028 63.424 18.271 63.424 18.758 63.424 19.001 63.424 19.244 63.424 19.488 63.181 19.974 63.181 20.217 62.937 20.461 62.937 20.947 62.694 20.947 62.451 21.191 62.207 21.191 61.964 21.677 61.721 21.921 61.477 22.164 61.234 22.407 60.747 22.651 60.747 22.894 60.261 23.137 60.017 23.137 59.774 23.137 59.288 23.137 59.288 23.624 58.801 23.624 58.558 24.11 58.314 24.354 58.071 24.597 57.828 24.84 57.828 25.327 57.584 25.57 57.341 25.814 57.341 26.3 57.341 26.543 57.098 26.787 57.098 27.273 56.854 27.517 56.611 27.76 56.611 28.247 56.368 28.49 56.125 28.733 56.125 28.977 55.638 29.463 55.395 29.707 55.151 29.95 54.908 30.436 54.421 30.68 54.421 31.166 53.935 31.41 53.935 31.896 53.691 32.383 53.448 32.626 53.205 32.87 52.962 32.87 52.718 32.87 52.232 32.87 51.988 32.87 51.745 32.626 51.745 32.383 51.502 31.896 51.502 31.653 51.258 31.166" stroke="#000000" fill="none" stroke-width=".9" stroke-linecap="round" stroke-linejoin="round"/></svg>