<svg version="1.1" baseProfile="full" width="100%" height="100%" viewBox="0 0 100 100" xmlns="http://www.w3.org/2000/svg"><polyline points="68.054 70.571 67.859 70.376 67.674 70.192 67.325 69.843 66.725 69.242 65.979 68.496 65.346 67.863 64.606 67.176 63.86 66.731 62.877 66.413 61.84 66.449 60.617 66.838 59.765 67.323 58.978 68.22 58.139 69.696 57.778 71.036 58.027 72.79 58.486 74.713 59.281 76.511 60.441 78.094 61.589 79.291 63.149 80.028 64.735 80.316 66.421 79.718 68.574 78.514 70.763 76.853 72.78 74.923 74.321 73.072 75.519 70.998 76.296 68.199 76.42 65.261 75.781 62.873 74.68 60.186 72.873 58.124 70.727 56.126 68.561 54.83 66.863 54.058 65.384 53.761 64.126 53.752 62.775 54.344 61.388 55.508 59.886 57.687 58.601 60.071 58.017 62.175 57.778 63.628 57.909 65.802 58.357 67.782 59.056 69.53 60.278 71.067 61.784 72.314 63.681 73.298 65.534 73.639 67.988 73.198 70.716 71.826 72.994 69.812 75.296 66.856 77.016 63.704 78.213 60.503 78.395 58.141 78.066 55.77 77.124 53.89 75.655 51.774 73.599 49.573 71.235 47.659 69.119 46.136 67.533 45.221 65.96 44.661 64.87 44.461 63.58 44.828 62.485 45.511 61.206 47.306 60.083 49.854 59.894 52.521 59.877 55.172 60.458 57.301 61.294 59.796 62.357 61.92 63.642 63.567 65.072 64.872 66.907 66.061 68.992 66.588 71.481 66.591 74.181 65.439 76.79 63.733 79.274 61.535 80.924 59.317 82.48 56.867 83.126 54.544 83.21 52.046 82.539 49.191 81.314 46.628 79.645 44.008 77.927 42.173 75.715 40.475 73.866 39.583 71.844 39.431 70.069 39.943 68.721 41.204 67.282 43.323 66.587 45.553 66.207 47.916 66.521 50.638 67.034 52.752 68.214 54.53 69.351 56.056 71.116 57.336 72.925 58.247 74.872 58.678 76.992 58.519 79.676 57.561 81.852 56.221 83.583 54.614 85.1 52.631 86.623 50.289 87.502 48.138 87.933 46.046 87.644 43.833 86.839 41.859 85.592 40.126 83.934 38.427 81.817 37.051 80.031 35.968 78.286 35.321 76.706 35.068 75.49 35.428 74.264 36.003 73.232 37.261 72.011 39.427 71.534 42.238 71.311 45.071 71.459 47.409 71.8 49.931 72.556 52.18 73.464 53.838 74.55 54.848 76.109 55.72 78.847 55.73 81.224 54.808 83.408 53.197 85.354 51.053 87.549 48.14 89.04 45.202 89.993 42.417 90.053 39.619 89.421 36.768 87.994 33.948 86.334 31.474 84.368 29.478 81.797 27.368 79.497 26.155 77.349 25.378 75.441 25.233 73.761 25.708 72.199 26.794 70.68 28.257 69.34 30.534 68.485 33.027 68.271 35.417 68.559 37.304 69.398 39.236 70.447 40.686 72.073 42.031 73.765 43.176 75.556 43.258 78.626 42.706 80.709 41.263 82.527 39.681 84.055 37.85 85.414 35.4 86.272 32.967 86.663 30.507 86.294 28.184 85.556 25.48 84.402 23.173 83.042 21.16 81.377 19.191 79.243 17.413 77.117 16.269 74.859 15.974 72.493 16.431 70.578 17.718 68.767 19.134 67.209 21.0 65.78 23.511 65.246 26.039 65.027 28.362 65.375 30.378 65.92 32.292 66.815 33.737 67.883 34.844 69.709 35.776 71.447 36.025 73.208 35.413 74.913 34.303 76.211 32.862 77.578 31.162 78.6 28.675 79.178 26.064 78.896 23.47 78.333 20.974 77.247 17.962 76.186 15.51 74.833 13.654 73.333 12.147 71.268 10.653 69.542 10.154 67.718 10.048 65.5 10.678 63.433 11.79 61.257 13.437 59.359 15.408 57.761 18.107 56.949 20.313 56.699 22.282 56.819 24.163 57.504 26.091 58.477 27.948 59.781 29.213 61.502 30.432 63.269 30.85 65.314 30.913 67.052 30.164 68.723 28.929 70.396 26.628 71.753 23.769 72.08 21.404 72.099 19.204 71.354 16.703 70.247 14.678 68.951 12.977 67.31 11.186 65.592 9.587 63.333 8.073 60.772 7.525 58.412 7.718 55.75 8.37 53.087 9.868 50.703 11.654 48.739 13.531 46.956 15.899 46.097 18.053 45.62 20.094 45.863 21.741 46.509 23.335 47.734 24.791 48.997 25.945 51.155 27.127 53.194 27.71 54.799 27.363 56.418 26.51 57.168 25.626 58.008 24.394 58.367 23.218 58.395 22.107 58.061 20.794 57.407 19.184 56.288 17.318 55.0 15.666 53.6 13.897 51.914 12.209 50.094 10.855 48.148 9.554 46.381 9.299 44.568 9.307 42.557 9.973 40.805 10.898 39.071 12.026 37.475 13.438 35.998 15.35 35.077 17.745 34.793 19.801 35.124 21.936 35.955 23.964 37.202 25.928 38.717 27.694 40.043 28.907 41.594 29.903 43.197 30.048 44.66 29.551 46.181 28.297 47.522 26.796 48.596 24.708 49.334 22.886 49.486 21.119 49.506 19.104 48.794 17.28 47.84 15.172 46.58 13.553 44.923 11.884 42.753 10.232 40.37 9.184 38.257 8.924 36.158 9.074 33.927 9.863 32.073 10.879 30.389 12.011 28.347 13.8 26.336 16.238 24.924 18.914 23.824 21.91 23.495 24.987 23.593 27.512 24.179 29.694 25.013 31.295 26.599 32.667 28.557 33.709 30.76 33.876 32.987 33.364 34.968 32.162 36.778 30.59 38.581 28.208 40.087 25.306 40.672 22.839 40.905 20.22 40.393 17.554 39.541 15.3 38.271 13.663 36.886 12.242 34.973 10.89 32.72 10.094 30.37 9.925 28.646 10.099 26.196 11.129 24.205 12.367 21.983 14.071 20.102 16.396 18.157 19.608 17.099 22.26 16.341 25.68 16.173 28.36 16.442 30.674 17.555 33.06 18.707 34.833 20.434 36.655 22.073 37.998 24.249 38.944 26.296 39.375 28.709 39.209 31.056 38.713 32.804 37.53 34.654 35.938 35.642 34.143 36.72 31.856 36.886 30.101 36.648 27.581 35.892 25.43 34.691 23.381 33.093 22.029 31.091 20.754 28.128 20.417 25.37 20.604 22.467 21.958 20.021 24.032 17.418 26.975 15.115 30.48 13.048 34.726 12.183 38.199 11.975 42.123 12.341 45.086 13.093 47.349 14.567 49.461 16.32 51.307 18.579 52.758 20.653 53.695 22.899 53.876 24.716 53.601 26.787 52.322 28.464 50.879 29.739 49.134 30.782 47.126 31.44 44.188 31.481 41.036 30.941 38.96 30.039 36.378 28.503 34.147 26.932 32.536 24.474 31.107 22.244 30.69 20.529 31.112 18.594 32.225 16.487 34.778 14.702 37.44 13.412 40.947 12.709 44.488 12.593 46.962 12.926 50.811 13.452 53.727 14.558 56.518 15.773 59.003 17.367 61.315 19.329 63.187 21.46 64.247 23.857 64.786 26.19 64.281 28.347 63.218 30.811 61.054 32.71 59.042 34.301 56.925 35.246 55.236 35.735 53.35 35.803 51.604 35.174 49.808 34.337 48.395 32.833 47.025 31.224 45.926 29.076 45.037 27.094 44.628 25.289 45.042 22.963 45.851 21.724 47.213 20.114 49.72 19.113 52.961 18.7 55.657 18.642 58.479 19.008 60.88 20.066 63.157 21.138 64.643 22.729 66.095 24.815 66.962 27.65 67.878 30.23 67.68 33.084 66.88 35.496 65.479 37.532 63.776 39.528 60.977 40.95 58.119 41.526 56.037 41.605 54.027 41.094 52.256 40.132 50.531 39.22 49.391 37.626 47.971 35.631 47.275 33.487 46.884 31.179 47.404 29.158 48.454 27.23 50.456 25.102 53.48 23.742 56.616 22.987 59.94 23.077 62.762 23.642 65.295 24.787 67.524 26.111 69.616 27.913 71.045 30.378 72.359 32.905 73.025 35.556 73.258 38.036 73.115 40.271 72.683 42.88 71.79 44.675 70.457 46.501 68.587 47.778 66.962 48.953 64.896 49.317 63.218 49.383 61.407 48.795 59.272 47.869 57.268 46.867 55.837 45.316 54.422 43.415 53.587 41.6 53.344 40.024 53.661 38.144 54.467 36.961 55.556 35.309 57.95 34.551 60.415 34.197 62.885 34.297 64.72 35.121 67.326 36.134 69.36 37.632 71.261 39.635 72.891 42.089 74.204 44.592 74.897 46.852 75.048 49.195 74.478 51.543 73.567 53.986 71.918 56.042 69.982 57.771 67.793 59.09 65.845 59.924 64.003 60.326 62.022 60.066 60.007 59.29 58.319 58.244 57.181 56.075 56.016 53.797 55.561 51.616 55.781 49.597 56.342 47.999 57.53 46.38 59.275 45.51 61.769 45.077 64.152 45.171 66.992 45.711 69.839 46.616 71.911 47.929 74.007 49.445 75.782 51.852 77.703 54.479 78.537 57.346 78.937 60.237 78.445 62.963 77.332 66.047 75.531 68.649 73.782 71.07 71.853 73.086 69.987 74.844 67.483 75.92 65.543 76.616 63.51 76.47 61.662 75.975 59.824 75.234 58.782 74.192 57.842 72.523 57.379 70.606 57.481 68.992 58.373 67.471 59.444 66.25 60.981 65.338 62.706 65.089 64.244 65.236 66.061 65.954 67.611 67.144 69.286 68.749 70.329 71.199 71.144 73.689 71.177 76.729 70.604 79.368 68.961 82.222 66.962 84.728 64.706 86.859 62.26 88.667 59.464 90.166 56.425 90.97 53.581 91.234 50.195 90.87 47.609 89.92 45.148 88.669 43.243 86.772 41.732 84.371 40.451 81.701 39.967 79.121 40.067 76.812 41.045 74.574 42.536 72.878 44.207 71.298 46.111 70.493 47.984 70.22 50.123 70.649 52.21 71.528 53.934 72.816 55.146 74.73 56.343 77.501 56.704 80.074 56.542 82.551 55.48 85.04 54.003 87.079 51.877 89.184 49.408 90.744 46.462 92.272 43.229 92.723 39.873 92.716 36.952 92.201 33.638 91.173 31.088 89.785 28.8 88.223 26.839 86.383 25.09 84.048 24.057 81.719 23.731 79.732 24.117 77.862 24.944 76.114 26.527 74.567 28.228 73.704 29.894 73.265 31.904 73.531 33.751 74.046 35.55 75.136 37.007 76.836 38.396 78.896 39.186 81.359 39.631 84.173 39.01 86.727 37.796 88.997 35.844 91.077 33.241 92.117 31.122 92.962 28.323 92.963 25.11 92.407 22.456 91.366 19.819 89.95 17.337 88.172 15.383 86.111 13.69 83.361 12.858 80.741 12.517 78.51 12.871 75.617 13.814 73.096 15.473 70.813 17.507 69.14 19.426 67.768 21.589 66.961 23.591 66.992 25.603 67.469 27.393 68.548 28.93 69.687 30.106 71.465 31.297 73.423 32.001 75.222 31.933 77.069 31.396 78.607 30.29 79.891 28.885 81.156 26.501 82.267 23.553 82.346 21.093 82.18 18.432 81.407 15.886 80.474 13.96 79.154 12.292 77.753 10.715 76.044 9.288 73.889 7.888 71.668 7.446 69.266 7.588 66.617 8.381 64.383 9.616 61.89 11.704 60.024 14.086 58.324 17.08 57.828 19.324 57.931 21.46 58.574 23.073 59.687 24.887 61.355 26.23 63.707 27.364 65.892 27.489 68.254 26.803 70.339 25.117 72.172 23.308 73.725 21.156 74.917 18.856 75.158 16.863 75.185 14.74 74.52 13.18 73.611 11.511 72.091 9.809 70.124 7.826 67.637 6.286 64.815 5.11 62.1 4.755 58.889 4.74 56.673 5.443 54.136 6.406 51.934 8.251 49.444 11.098 47.759 14.281 46.7 17.61 46.413 20.272 46.65 22.298 47.356 24.038 48.314 25.234 49.701 26.367 51.373 26.799 53.243 26.687 55.198 25.607 56.88 24.18 58.192 22.349 59.692 19.846 60.62 17.136 61.069 14.909 60.805 13.299 60.206 11.406 59.27 10.14 58.046 8.835 56.053 7.581 53.407 6.718 51.034 6.489 48.333 6.653 46.148 7.184 44.012 7.95 41.869 9.542 40.057 11.04 38.631 12.623 37.146 15.332 36.424 18.054 36.366 20.508 36.808 22.453 37.702 24.256 38.847 25.699 42.544 27.906 44.324 27.99 46.014 27.288 49.514 23.927 50.68 21.934 51.754 19.566 52.07 17.403 52.099 15.288 51.587 13.911 50.824 12.314 49.595 10.908 48.252 9.373 45.785 7.826 42.944 6.658 40.152 6.478 37.155 6.646 34.46 7.727 31.234 9.493 28.659 11.517 25.991 14.633 23.573 18.28 22.222 21.406 21.704 24.631 21.753 27.627 22.393 30.077 23.388 31.796 25.068 33.331 27.121 34.394 29.65 34.77 32.023 34.285 34.806 33.089 37.029 31.469 38.846 29.721 40.14 27.728 41.161 25.276 41.358 23.435 41.04 21.542 40.1 19.424 38.913 17.32 37.139 15.223 35.224 13.462 32.069 12.061 29.492 11.527 26.595 11.773 24.468 12.256 22.193 13.273 20.234 14.704 18.045 17.717 16.481 20.542 15.259 23.9 14.383 27.27 14.444 29.925 14.921 32.895 15.781 35.231 16.991 36.751 18.354 38.022 20.37 38.926 22.437 39.204 24.095 39.015 25.719 38.371 27.324 37.045 28.853 35.217 29.814 33.173 30.475 31.18 30.494 29.522 30.186 27.34 29.406 25.091 28.354 23.231 26.739 21.805 24.531 20.647 22.113 20.315 19.69 20.461 17.04 21.708 14.925 23.268 12.766 26.2 11.023 29.258 9.892 32.838 9.343 36.091 9.499 39.073 11.027 45.606 12.099 48.258 13.919 50.931 15.945 52.883 18.354 54.496 20.766 55.22 23.094 55.212 25.451 54.153 27.694 52.255 31.311 47.268 32.199 44.635 32.644 42.18 32.41 40.034 31.704 37.913 30.415 35.967 29.126 34.446 26.8 33.174 24.164 32.528 21.362 33.191 18.701 34.291 16.054 36.165 13.525 38.271 11.506 40.957 9.897 43.756 9.067 46.522 8.842 49.096 9.21 51.668 10.15 54.216 11.436 56.032 13.123 57.921 15.337 60.074 17.716 61.9 19.773 63.09 21.481 63.628 23.175 63.752 24.877 63.381 26.587 62.241 28.164 60.316 29.591 58.051 30.717 55.495 31.565 52.555 31.815 49.702 31.7 47.056 30.921 45.099 29.843 43.243 28.601 42.065 26.824 40.908 24.594 40.455 22.392 40.747 20.679 41.807 18.42 43.649 16.353 46.011 14.317 48.921 13.279 51.804 12.87 54.4 13.19 56.959 14.071 59.497 17.036 63.833 21.907 67.884 24.254 69.39 26.64 70.62 28.614 71.154 30.679 71.344 32.563 70.761 34.374 69.512 36.214 67.643 39.309 63.223 40.247 60.913 40.667 57.851 40.466 55.531 39.757 52.87 38.73 51.142 37.624 49.745 35.662 48.642 32.965 48.285 30.804 49.003 28.617 50.353 26.173 52.733 23.654 56.0 22.338 58.903 21.404 61.638 21.477 64.07 22.029 66.313 23.304 68.516 24.799 70.398 26.824 72.178 29.278 73.542 31.876 74.546 34.186 74.811 36.351 74.863 38.115 74.178 39.923 73.297 41.608 71.774 43.325 69.756 44.97 67.061 46.386 64.314 47.069 61.896 47.48 59.615 47.233 58.114 46.648 56.801 46.05 56.098 45.001 55.358 43.363 54.801 41.111 54.74 39.701 54.943 38.241 55.461 37.051 56.354 34.995 60.896 34.938 63.016 35.385 65.647 36.106 68.378 37.333 70.538 38.879 72.321 41.353 73.995 43.776 75.035 46.264 75.476 48.519 75.48 50.881 75.011 53.186 73.978 55.062 72.764 56.938 71.135 58.438 69.377 59.943 66.83 60.79 64.593 61.257 61.848 61.358 58.77 60.789 56.204 59.876 53.972 58.741 52.616 57.13 51.468 55.033 51.283 52.511 51.916 50.107 53.603 48.036 55.307 45.769 58.371 44.063 61.178 43.396 63.503 43.333 65.851 43.879 68.438 44.81 70.924 46.453 73.138 48.405 75.243 50.776 77.264 53.204 78.772 56.065 79.434 61.44 77.656 64.077 75.609 66.801 73.133 69.074 70.851 71.239 67.9 72.593 65.851 73.53 63.816 73.704 62.147 73.426 61.051 70.57 58.777 67.664 58.567 64.749 58.872 61.931 59.962 59.459 61.261 57.543 62.902 54.684 67.602 54.972 72.27 57.631 76.413 59.619 78.265 62.201 79.959 64.521 80.885 66.674 81.139 69.028 80.983 71.176 79.784 73.578 77.772 75.7 75.207 79.385 69.18 80.478 66.264 80.75 63.942 80.598 61.539 79.945 59.13 78.938 57.48 77.545 55.988 75.617 54.801 72.815 54.183 70.198 54.411 67.72 55.08 65.551 56.449 63.746 58.154 62.151 60.903 61.519 63.108 61.448 65.294 61.976 67.539 62.962 69.368 64.062 71.018 65.721 72.134 67.933 73.107 70.644 73.135 73.393 72.818 80.767 69.02 87.891 63.351 92.558 57.349 93.546 54.596 93.951 51.308 93.827 48.445 91.526 42.74 89.806 40.403 87.808 38.35 85.517 36.731 81.525 35.156 79.881 35.247 78.45 35.802 77.128 36.703 75.515 38.707 73.996 41.564 73.145 44.303 72.492 47.184 72.664 49.584 74.155 53.16 75.799 54.531 78.611 55.075 81.737 54.607 85.284 52.551 91.5 47.206 94.1 44.082 95.849 40.696 96.947 38.16 97.037 35.11 96.679 32.544 93.951 28.32 92.186 26.176 90.183 24.383 88.018 23.131" stroke="#000000" fill="none" stroke-width=".9" stroke-linecap="round" stroke-linejoin="round"/></svg>