<svg version="1.1" baseProfile="full" width="100%" height="100%" viewBox="0 0 100 100" xmlns="http://www.w3.org/2000/svg"><polyline points="44.0 71.078 44.0 71.3 44.0 71.744 44.0 72.189 44.0 72.411 44.0 72.633 43.778 73.078 43.778 73.3 43.778 73.744 43.778 73.967 43.778 74.189 43.778 74.411 43.556 74.856 43.556 75.078 43.333 75.522 43.333 75.744 43.333 76.189 43.333 76.411 43.556 76.411 43.778 76.411 44.0 76.411 44.444 76.411 44.889 76.411 45.111 76.411 45.556 76.411 45.778 76.411 46.222 76.411 46.444 76.411 46.889 76.411 47.111 76.411 47.778 76.411 48.0 76.411 48.444 76.411 48.667 76.411 48.889 76.411 49.111 76.411 49.333 76.411 49.556 76.411 49.778 76.411 50.0 76.411 50.222 76.189 50.444 76.189 50.444 75.967 50.444 75.744 50.444 75.3 50.444 75.078 50.444 74.856 50.444 74.633 50.444 74.411 50.444 74.189 50.444 73.744 50.444 73.522 50.444 73.078 50.444 72.856 50.444 72.411 50.444 72.189 50.444 71.744 50.222 71.522 50.222 71.078 50.222 70.856 50.222 70.633 50.222 70.411 50.444 70.411 50.667 70.411 50.889 70.411 51.111 70.411 51.333 70.411 51.778 70.411 52.0 70.411 52.222 70.411 52.444 70.411 52.667 70.411 53.111 70.411 53.333 70.411 53.778 70.411 54.0 70.189 54.222 70.189 54.444 70.189 54.444 69.967 54.667 69.967 54.889 69.967 55.111 69.744 55.333 69.744 55.556 69.744 55.556 69.3 55.556 69.078 55.556 68.633 55.556 68.411 55.556 67.967 55.556 67.744 55.556 67.522 55.556 67.3 55.556 67.078 55.556 66.856 55.556 66.633 55.556 66.411 55.556 66.189 55.556 65.744 55.556 65.3 55.556 65.078 55.556 64.856 55.556 64.633 55.556 64.411 55.778 64.411 56.0 64.411 56.222 64.411 56.444 64.411 56.889 64.411 57.111 64.411 57.333 64.411 57.778 64.411 58.0 64.189 58.444 64.189 58.889 64.189 59.333 64.189 59.778 64.189 60.222 63.967 60.444 63.967 60.667 63.967 60.889 63.967 61.111 63.744 61.333 63.3 61.333 63.078 61.333 62.633 61.333 62.411 61.333 61.744 61.333 61.522 61.333 61.078 61.333 60.411 61.333 59.744 61.333 59.522 61.333 59.078 61.333 58.856 61.333 58.633 61.556 58.633 61.778 58.633 61.778 58.411 62.444 58.411 62.667 58.411 62.889 58.411 63.111 58.411 63.333 58.411 63.778 58.189 64.0 58.189 64.222 58.189 64.444 58.189 64.667 58.189 64.889 57.967 65.111 57.967 65.556 57.744 65.778 57.744 66.0 57.744 66.444 57.744 66.667 57.744 67.333 49.967 67.333 49.744 67.333 49.3 67.333 49.078 67.333 48.856 67.333 48.411 67.333 48.189 67.333 47.967 67.333 47.744 67.333 47.522 67.333 47.078 67.333 46.633 67.333 46.411 67.333 46.189 67.333 45.967 67.333 45.744 67.333 45.522 67.333 45.3 67.333 45.078 67.333 44.856 67.333 44.633 67.333 44.411 67.333 44.189 67.111 44.189 66.889 44.189 66.444 44.189 66.222 44.189 65.778 44.189 65.333 43.967 65.111 43.967 64.444 43.967 64.0 43.744 63.778 43.744 63.333 43.744 63.111 43.744 62.889 43.744 62.667 43.744 62.667 43.522 62.667 43.3 62.667 43.078 62.667 42.856 62.667 42.411 62.667 42.189 62.667 41.744 62.667 41.522 62.667 41.3 62.667 41.078 62.667 40.856 62.667 40.633 62.444 40.633 62.222 40.633 62.0 40.633 61.778 40.633 61.556 40.633 61.111 40.633 60.667 40.633 60.0 40.633 59.333 40.633 58.667 40.633 58.444 40.633 57.778 40.633 57.556 40.633 57.111 40.633 56.667 40.633 56.444 40.633 56.0 40.633 55.778 40.633 55.556 40.633 55.333 40.633 55.111 40.633 54.667 40.633 54.444 40.411 54.222 40.411 54.0 40.411 53.778 40.411 53.556 40.411 53.111 40.411 52.889 40.411 52.444 40.411 51.778 40.411 51.556 40.411 51.111 40.411 50.889 40.411 50.667 40.411 50.444 40.411 50.222 40.411 50.222 40.856 50.222 41.078 50.222 41.522 50.444 41.744 50.444 42.189 50.444 42.411 50.444 42.856 50.444 43.078 50.444 43.522 50.444 43.744 50.444 43.967 50.444 44.411 50.444 44.633 50.444 45.078 50.444 45.3 50.444 45.744 50.444 45.967 50.444 46.411 50.444 46.633 50.444 46.856 50.444 47.078 50.444 47.3 50.444 47.522 50.222 47.522 50.0 47.522 49.778 47.522 49.556 47.522 49.111 47.522 48.667 47.522 48.444 47.522 48.0 47.522 47.778 47.522 47.333 47.3 47.111 47.3 46.889 47.3 46.444 47.3 46.222 47.3 45.778 47.3 45.556 47.3 45.111 47.3 44.889 47.3 44.444 47.3 44.444 47.078 44.444 46.856 44.444 46.411 44.444 45.967 44.444 45.744 44.444 45.3 44.444 45.078 44.222 44.633 44.222 44.411 44.222 44.189 44.222 43.967 44.222 43.744 44.222 43.522 44.222 43.3 44.222 43.078 44.222 42.856 44.222 42.411 44.0 42.189 44.0 41.967 43.778 41.967 43.111 41.967 41.778 41.967 41.111 41.967 40.222 41.967 39.111 41.967 38.444 41.967 37.556 41.967 35.778 41.744 34.444 41.744 33.778 41.744 33.111 41.744 32.889 41.744 32.444 41.744 32.222 41.744 32.0 41.744 31.778 41.744 31.556 41.744 31.333 41.744 31.111 41.744 31.111 41.967 31.111 42.189 31.111 42.411 31.111 42.633 31.111 43.078 31.111 43.522 31.111 43.744 31.111 44.189 31.111 44.411 31.111 44.633 31.111 44.856 31.111 45.078 31.111 45.3 30.889 45.3 30.444 45.522 30.222 45.522 30.0 45.522 29.778 45.522 29.556 45.522 29.333 45.522 29.111 45.522 29.111 45.744 28.889 45.744 28.667 45.744 28.444 45.744 28.222 45.744 28.0 45.744 27.778 45.744 27.556 46.189 27.556 46.411 27.556 46.633 27.556 47.078 27.556 47.3 27.556 47.744 27.556 47.967 27.556 48.633 27.333 49.3 27.333 49.744 27.333 49.967 27.333 50.411 27.333 50.633 27.111 51.3 27.111 51.744 27.111 51.967 27.111 52.633 26.889 52.856 26.889 53.522 26.667 53.744 26.667 54.189 26.667 54.411 26.667 54.856 26.444 55.078 26.444 55.3 26.444 55.522 26.444 55.744 26.667 55.744 26.889 55.744 27.111 55.744 27.778 55.744 28.222 55.744 28.444 55.744 29.111 55.744 29.778 55.744 30.0 55.744 30.667 55.744 31.111 55.744 32.222 55.744 32.222 56.189 32.222 56.411 32.0 56.856 32.0 57.078 32.0 57.3 32.0 57.744 32.0 58.411 31.778 58.411 31.778 59.078 31.778 59.3 31.778 59.744 31.778 59.967 31.778 60.411 31.778 60.633 31.778 60.856 31.778 61.078 31.778 61.3 31.778 61.522 31.556 61.744 31.556 61.967 31.556 62.189 31.778 62.189 32.0 62.189 32.444 62.189 32.667 62.189 32.889 62.189 33.111 62.189 33.556 62.189 33.778 62.189 34.222 62.189 34.889 62.189 35.111 62.189 35.556 62.189 35.778 62.189 36.222 62.189 36.667 62.411 37.111 62.411 37.333 62.411 37.778 62.411 38.0 62.411 38.444 62.189 38.667 62.189 38.889 62.189 38.667 62.189 38.444 62.411 38.444 62.856 38.444 63.078 38.444 63.3 38.444 63.744 38.444 63.967 38.444 64.411 38.444 64.856 38.444 65.078 38.444 65.3 38.444 65.522 38.444 65.744 38.444 66.189 38.444 66.411 38.444 66.856 38.444 67.078 38.444 67.522 38.444 67.744 38.444 67.967 38.444 68.189 38.444 68.411 38.444 68.633 38.444 69.078 38.444 69.3 38.444 69.744 38.667 69.744 38.889 69.744 39.111 69.744 39.333 69.744 39.556 69.744 39.778 69.744 40.222 69.744 40.444 69.744 40.889 69.744 41.111 69.744 41.333 69.744 41.556 69.744 41.778 69.744 42.0 69.744 42.222 69.744 42.444 69.744 42.667 69.744 42.889 69.744 43.111 69.744 43.333 69.744 43.556 69.744 43.778 69.744 44.0 69.744 44.222 69.744 44.444 69.744 44.889 69.744 45.111 69.744 45.111 70.189 45.111 70.411 45.111 70.633 45.111 70.856 45.111 71.078" stroke="#000000" fill="none" stroke-width=".9" stroke-linecap="round" stroke-linejoin="round"/></svg>