<svg version="1.1" baseProfile="full" width="100%" height="100%" viewBox="0 0 100 100" xmlns="http://www.w3.org/2000/svg"><polyline points="1.087 65.132 1.309 65.132 1.309 64.91 1.309 64.688 1.309 64.465 1.309 64.243 1.309 63.799 1.531 63.576 1.531 63.354 1.531 62.91 1.531 62.465 1.531 62.243 1.531 61.799 1.531 61.576 1.531 60.91 1.753 60.243 1.976 59.354 1.976 57.799 2.198 56.688 2.42 55.576 2.42 54.91 2.42 54.465 2.42 54.021 2.42 53.799 2.642 53.799 2.642 53.576 2.642 53.354 2.865 53.132 2.865 52.91 2.865 52.688 2.865 52.465 2.865 52.243 2.865 52.021 3.087 51.576 3.087 51.354 3.087 51.132 3.087 50.91 3.087 51.132 3.087 51.354 3.087 51.576 3.087 51.799 3.087 52.021 3.309 52.021 3.309 52.243 3.531 52.465 3.531 52.688 3.976 52.91 4.198 53.132 4.642 53.799 5.309 54.465 5.976 55.799 6.42 57.132 6.865 58.021 7.087 59.132 7.531 59.576 7.753 60.021 8.198 60.465 8.42 60.91 8.42 61.132 8.642 61.576 8.865 61.799 8.865 62.021 8.865 62.243 8.865 62.465 8.865 62.91 8.865 63.354 8.865 63.799 8.865 64.243 8.865 64.688 8.865 64.91 8.865 65.132 8.865 65.354 8.865 65.576 8.865 65.354 8.865 65.132 8.865 64.91 8.865 64.688 8.865 64.465 8.865 64.021 8.865 63.799 8.865 63.576 8.865 63.354 8.865 63.132 8.865 62.91 8.642 62.91 8.642 62.687 8.642 62.465 8.642 62.243 8.642 62.021 8.42 61.799 8.42 61.576 8.42 61.354 8.198 61.354 8.198 61.132 7.976 61.132 7.753 61.132 7.531 61.132 7.309 61.132 7.087 60.91 6.642 60.688 6.42 60.688 6.198 60.688 5.976 60.688 5.753 60.465 5.531 60.465 5.309 60.465 5.087 60.465 4.865 60.465 4.642 60.465 4.42 60.465 4.198 60.465 3.976 60.465 3.753 60.465 3.531 60.465 3.309 60.465 3.087 60.465 2.865 60.465 2.642 60.465 2.42 60.465 2.198 60.465 1.976 60.465 1.753 60.465 1.531 60.465 1.753 60.465 1.976 60.465 2.198 60.465 2.42 60.465 2.865 60.465 3.087 60.465 3.309 60.465 3.753 60.465 3.976 60.465 4.198 60.465 4.42 60.465 4.642 60.465 4.865 60.465 5.087 60.465 5.309 60.465 5.531 60.465 5.976 60.688 6.198 60.688 6.642 60.688 6.865 60.91 7.087 60.91 7.309 60.91 7.531 61.132 7.753 61.132 7.976 61.132 7.976 61.354 8.198 61.354 8.198 61.576 8.42 61.576 8.642 61.576 8.642 61.799 8.865 61.799 8.865 62.021 8.865 62.243 8.865 62.465 8.865 62.687 8.865 62.91 8.865 63.132 8.865 63.354 8.865 63.576 8.865 63.799 8.865 64.021 8.865 64.243 8.865 64.465 8.865 64.688 8.865 64.91 8.865 65.132 9.087 65.132 9.309 65.132 9.531 65.132 9.753 65.132 9.976 65.132 9.976 64.91 9.976 64.688 9.976 64.465 9.976 64.243 9.976 64.021 9.976 63.799 9.976 63.576 9.976 63.354 9.976 63.132 9.976 62.91 9.976 62.465 9.976 62.243 9.976 62.021 9.976 61.799 9.976 61.576 9.976 61.354 9.976 61.132 9.976 60.688 9.976 60.465 9.976 60.243 9.976 60.021 9.976 59.576 9.976 59.132 9.976 58.91 9.976 58.688 9.976 58.465 9.976 58.243 9.976 58.021 9.976 57.576 9.976 57.354 9.976 57.132 9.976 56.91 9.976 56.688 9.976 56.465 9.976 56.243 9.976 56.021 9.976 55.799 9.976 55.576 9.976 55.354 9.976 54.91 9.976 54.688 9.976 54.243 9.976 54.021 9.976 53.799 9.976 53.576 10.198 53.354 10.198 53.132 10.42 53.132 10.42 52.91 10.642 52.91 10.865 52.688 11.087 52.465 11.309 52.243 11.531 52.021 11.753 51.799 11.976 51.799 12.198 51.799 12.198 51.576 12.42 51.576 12.642 51.576 12.865 51.576 13.087 51.576 13.309 51.576 13.531 51.576 13.531 51.799 13.753 52.021 13.976 52.243 14.198 52.243 14.198 52.465 14.42 52.465 14.642 52.688 14.642 52.91 14.865 52.91 14.865 53.132 15.087 53.354 15.087 53.576 15.087 53.799 15.087 54.021 15.087 54.243 15.309 54.465 15.309 54.688 15.309 54.91 15.531 55.354 15.531 55.576 15.531 55.799 15.531 56.021 15.531 56.243 15.531 56.465 15.531 56.688 15.531 56.91 15.531 57.132 15.531 57.354 15.531 57.576 15.531 57.799 15.309 57.799 15.309 58.021 15.087 58.021 15.087 58.243 15.087 58.465 14.865 58.465 14.865 58.688 14.42 58.688 14.198 58.91 13.976 59.132 13.976 59.354 13.753 59.354 13.531 59.354 13.531 59.576 13.309 59.576 13.309 59.799 13.087 60.021 13.087 60.243 13.087 60.465 12.865 60.465 12.865 60.688 12.865 60.91 12.865 61.132 12.865 61.354 12.642 61.576 12.642 61.799 12.642 62.021 12.42 62.021 12.42 62.243 12.42 62.465 12.42 62.687 12.42 62.91 12.198 62.91 12.198 63.132 12.198 63.354 11.976 63.354 11.753 63.354 11.753 63.576 11.531 63.576 11.531 63.799 11.309 63.799 11.309 64.021 11.087 64.243 10.865 64.465 10.865 64.688 10.642 64.91 10.642 65.132 10.42 65.354 10.198 65.354 10.198 65.576 10.198 65.799 9.976 65.799 9.976 66.021 9.976 66.243 9.753 66.465 9.753 66.688 9.753 66.465 9.976 66.465 10.198 66.465 10.198 66.243 10.42 66.243 10.642 66.243 10.865 66.243 11.087 66.243 11.309 66.243 11.531 66.243 11.753 66.243 11.976 66.243 12.198 66.243 12.42 66.021 12.642 66.021 12.642 65.799 12.865 65.799 13.087 65.799 13.309 65.799 13.531 65.799 13.753 65.799 13.976 65.799 14.198 65.799 14.42 65.799 14.42 66.021 14.642 66.021 14.865 66.021 15.087 66.021 15.309 66.021 15.531 66.021 15.531 65.799 15.753 65.799 15.753 65.576 15.753 65.354 15.753 64.91 15.753 64.688 15.976 64.465 15.976 64.243 16.198 64.021 16.198 63.799 16.198 63.354 16.42 63.354 16.42 63.132 16.642 62.91 16.865 62.687 16.865 62.243 16.865 62.021 16.865 61.576 17.087 61.132 17.087 60.465 17.309 60.021 17.309 59.354 17.309 59.132 17.309 58.91 17.531 58.465 17.753 58.243 17.753 58.021 17.976 57.576 17.976 57.354 17.976 56.91 18.198 56.465 18.42 55.799 18.42 55.132 18.642 54.243 18.642 53.799 18.865 53.576 19.087 53.354 19.087 53.132 19.309 53.132 19.309 52.91 19.531 52.91 19.531 52.688 19.753 52.465 19.976 52.243 20.198 52.243 20.42 52.021 20.642 52.021 20.642 52.243 20.642 52.465 20.642 52.688 20.642 52.91 20.642 53.354 20.865 53.799 20.865 54.243 20.865 54.688 20.865 54.91 20.865 55.576 20.865 55.799 21.087 56.021 21.087 56.243 21.087 56.688 21.087 56.91 21.087 57.354 21.087 57.799 21.309 58.243 21.309 58.688 21.309 58.91 21.309 59.132 21.309 59.354 21.309 59.576 21.309 59.799 21.309 60.021 21.309 60.243 21.309 60.465 21.309 60.688 21.531 60.91 21.531 61.132 21.531 61.354 21.531 61.799 21.531 62.243 21.753 62.91 21.753 63.132 21.753 63.354 21.753 63.576 21.753 63.799 21.753 64.021 21.753 64.243 21.976 64.465 21.976 64.688 21.976 64.91 21.976 65.132 21.976 65.354 21.976 65.576 21.976 65.799 21.976 65.576 21.976 65.354 21.976 65.132 21.976 64.91 21.976 64.688 21.976 64.465 21.976 64.243 21.976 64.021 21.976 63.799 21.976 63.576 21.976 63.354 21.976 62.91 21.976 62.687 21.976 62.465 21.976 62.243 21.976 62.021 21.976 61.799 21.976 61.576 21.976 61.354 21.976 61.132 21.976 60.91 21.976 60.688 21.753 60.688 21.531 60.688 21.309 60.688 21.087 60.688 20.642 60.688 20.42 60.688 20.198 60.688 19.976 60.688 19.753 60.688 19.531 60.688 19.309 60.688 19.087 60.688 18.865 60.688 18.642 60.688 18.42 60.688 18.198 60.688 17.976 60.688 17.753 60.688 17.531 60.465 17.309 60.465 17.087 60.465 16.865 60.465 16.865 60.243 17.087 60.243 17.309 60.243 17.531 60.243 17.753 60.243 17.976 60.243 18.198 60.243 18.42 60.243 18.642 60.243 18.865 60.243 19.087 60.243 19.309 60.243 19.531 60.243 19.753 60.243 19.753 60.465 19.976 60.465 20.198 60.465 20.42 60.465 20.42 60.688 20.642 60.688 20.865 60.91 21.087 60.91 21.087 61.132 21.087 61.354 21.309 61.576 21.309 61.799 21.309 62.021 21.531 62.243 21.531 62.465 21.531 62.687 21.531 63.132 21.531 63.354 21.531 63.576 21.531 63.799 21.531 64.021 21.531 64.243 21.753 64.243 21.753 64.465 21.753 64.688 21.976 64.91 21.976 65.132 22.198 65.354 22.198 65.132 22.198 64.91 22.42 64.91 22.642 64.91 22.865 64.91 22.865 64.688 22.865 64.465 22.865 64.243 22.865 64.021 22.865 63.576 22.865 63.354 22.865 63.132 22.865 62.91 22.865 62.687 22.865 62.465 22.865 62.243 22.865 62.021 22.865 61.799 22.865 61.576 22.865 61.354 23.087 61.132 23.087 60.91 23.087 60.465 23.087 60.243 23.087 59.799 23.087 59.132 23.087 58.91 23.087 58.465 23.087 58.243 23.309 57.799 23.531 57.354 23.531 57.132 23.531 56.91 23.531 56.688 23.531 56.243 23.531 56.021 23.531 55.799 23.753 55.576 23.753 55.354 23.753 55.132 23.753 54.91 23.976 54.688 23.976 54.465 23.976 54.243 23.976 54.021 24.198 54.021 24.198 53.799 24.42 53.799 24.42 53.576 24.642 53.354 24.642 53.576 24.642 54.021 24.642 54.243 24.865 54.243 24.865 54.688 25.087 54.91 25.309 55.132 25.309 55.576 25.531 55.799 25.531 56.021 25.531 56.243 25.753 56.243 25.753 56.465 25.976 56.688 26.198 56.91 26.198 57.132 26.42 57.354 26.642 57.576 26.865 57.576 27.087 57.576 27.309 57.576 27.531 57.576 27.753 57.354 27.753 57.132 27.976 56.91 27.976 56.688 28.198 56.688 28.198 56.243 28.42 56.021 28.642 55.799 28.642 55.354 28.865 54.688 28.865 54.465 28.865 54.243 29.087 53.799 29.087 53.576 29.309 53.132 29.309 53.354 29.309 53.576 29.309 53.799 29.309 54.021 29.309 54.465 29.309 54.688 29.309 55.132 29.309 55.354 29.309 55.576 29.309 56.021 29.309 56.243 29.309 56.465 29.309 56.688 29.309 56.91 29.309 57.132 29.309 57.354 29.309 57.576 29.309 57.799 29.309 58.021 29.309 58.243 29.309 58.91 29.309 59.132 29.309 59.354 29.309 59.576 29.309 59.799 29.309 60.243 29.309 60.465 29.309 60.688 29.309 60.91 29.309 61.132 29.309 61.354 29.309 61.576 29.309 61.799 29.309 62.021 29.309 62.243 29.309 62.465 29.309 62.687 29.309 62.91 29.309 63.132 29.531 63.576 29.531 63.799 29.531 64.021 29.531 64.243 29.531 64.465 29.531 64.688 29.753 64.91 29.753 65.132 29.753 65.354 29.753 65.576 29.976 65.799 29.976 66.243 29.976 66.465 29.976 66.688 29.976 66.91 29.976 67.132 29.976 67.354 29.976 66.91 30.198 66.91 30.42 66.91 30.642 66.91 30.865 66.91 31.087 66.91 31.309 66.91 31.531 66.91 31.531 66.688 31.531 66.465 31.531 66.243 31.531 66.021 31.531 65.799 31.753 65.576 31.753 65.132 31.753 64.91 31.753 64.465 31.753 64.243 31.753 64.021 31.753 63.799 31.976 63.799 31.976 63.576 31.976 63.354 31.976 63.132 31.976 62.91 31.976 62.687 31.976 62.465 31.976 62.021 31.976 61.799 31.976 61.354 31.976 61.132 31.976 60.91 31.976 60.465 31.976 60.243 31.976 60.021 31.976 59.799 31.976 59.576 31.976 59.354 31.976 59.132 31.976 58.91 31.976 58.688 31.976 58.465 31.976 58.243 31.976 58.021 31.976 57.799 32.198 57.576 32.198 57.354 32.198 57.132 32.198 56.91 32.42 56.688 32.42 56.465 32.42 56.243 32.42 56.021 32.642 56.021 32.642 55.799 32.642 55.576 32.642 55.354 32.642 55.132 32.642 54.91 32.642 54.688 32.642 54.465 32.642 54.243 32.642 54.021 32.642 53.799 32.642 54.021 32.642 54.243 32.642 54.465 32.642 54.688 32.642 54.91 32.642 55.132 32.642 55.354 32.642 55.576 32.642 55.799 32.42 56.021 32.42 56.243 32.42 56.688 32.42 57.132 32.42 57.576 32.42 57.799 32.42 58.021 32.42 58.243 32.42 58.465 32.42 58.688 32.42 58.91 32.42 59.132 32.42 59.354 32.42 59.799 32.42 60.021 32.42 60.243 32.42 60.688 32.42 60.91 32.42 61.132 32.42 61.354 32.42 61.576 32.642 61.799 32.642 62.243 32.642 62.465 32.642 62.687 32.642 62.91 32.642 63.132 32.642 63.354 32.642 63.576 32.642 63.799 32.642 64.243 32.642 64.688 32.642 64.91 32.642 65.132 32.642 65.354 32.642 65.576 32.642 65.799 32.42 65.799 32.42 66.021 32.198 66.021 32.198 66.243 32.198 66.465 32.198 66.688 32.42 66.688 32.42 66.91 32.42 66.688 32.642 66.688 32.865 66.688 33.087 66.688 33.309 66.688 33.531 66.688 33.753 66.688 33.976 66.688 34.198 66.688 34.42 66.688 34.642 66.688 34.865 66.688 35.087 66.688 35.309 66.688 35.309 66.465 35.309 66.243 35.531 66.243 35.753 66.021 35.976 66.021 35.976 65.799 36.198 65.799 36.42 65.799 36.42 65.576 36.642 65.354 36.865 65.132 37.087 64.688 37.309 64.688 37.309 64.465 37.531 64.243 37.753 64.243 37.753 64.021 37.753 63.799 37.976 63.799 37.976 63.576 38.198 63.576 38.198 63.354 38.198 63.132 38.42 62.91 38.42 62.687 38.642 62.687 38.642 62.243 38.642 62.021 38.642 61.799 38.865 61.576 38.865 61.354 38.865 61.132 38.865 60.91 39.087 60.91 39.087 60.688 39.309 60.688 39.309 60.465 39.309 60.243 39.531 60.021 39.531 59.799 39.531 59.576 39.531 59.354 39.753 59.132 39.753 58.688 39.753 58.243 39.753 58.021 39.753 57.799 39.753 57.576 39.753 57.354 39.753 57.132 39.531 57.132 39.309 56.91 39.087 56.91 39.087 56.688 38.865 56.465 38.642 56.465 38.642 56.243 38.42 56.243 38.198 56.021 38.198 55.799 37.976 55.576 37.753 55.576 37.753 55.354 37.531 55.354 37.309 55.354 37.087 55.354 37.087 55.576 36.865 55.799 36.865 56.021 36.865 56.243 36.642 56.243 36.642 56.465 36.642 56.688 36.42 56.688 36.42 56.91 36.198 56.91 36.198 57.132 35.976 57.132 35.976 57.354 35.976 57.576 35.976 57.799 35.976 58.021 35.976 58.243 35.976 58.465 35.976 58.688 35.976 58.91 35.976 59.132 35.976 59.354 36.198 59.576 36.42 59.576 36.42 59.799 36.642 59.799 36.642 60.021 36.865 60.021 36.865 60.243 37.087 60.243 37.087 60.465 37.309 60.688 37.309 60.91 37.531 60.91 37.531 61.132 37.753 61.132 37.753 61.354 37.976 61.576 37.976 62.021 38.42 62.021 38.42 62.243 38.642 62.465 38.865 62.465 38.865 62.687 39.087 62.687 39.087 62.91 39.309 62.91 39.309 63.132 39.309 63.354 39.531 63.354 39.753 63.354 39.753 63.576 39.976 63.576 39.976 63.799 40.198 63.799 40.198 64.021 40.198 64.243 40.198 64.465 40.42 64.465 40.42 64.688 40.42 64.91 40.42 65.132 40.42 65.354 40.42 65.576 40.42 65.799 40.42 66.021 40.42 66.243 40.198 66.243 40.198 66.465 39.976 66.465 39.976 66.688 39.753 66.688 39.531 66.688 39.531 66.91 39.309 66.91 39.309 67.132 39.087 67.132 38.865 67.132 38.642 67.132 38.42 67.132 38.198 67.132 37.976 67.132 37.753 67.132 37.531 67.132 37.309 67.132 37.309 66.91 37.309 66.688 37.309 66.465 37.309 66.243 37.309 66.021 37.309 65.799 37.309 65.576 37.309 65.354 37.309 65.132 37.309 64.91 37.309 64.688 37.309 64.465 37.309 64.243 37.309 64.021 37.309 63.799 37.309 63.576 37.309 63.354 37.531 63.354 37.531 63.132 37.753 63.132 37.753 62.91" stroke="#000000" fill="none" stroke-width=".9" stroke-linecap="round" stroke-linejoin="round"/></svg>