<svg version="1.1" baseProfile="full" width="100%" height="100%" viewBox="0 0 100 100" xmlns="http://www.w3.org/2000/svg"><polyline points="29.547 45.387 29.547 45.58 29.547 45.773 29.547 45.964 29.547 46.158 29.547 46.351 29.547 46.544 29.547 46.738 29.547 46.931 29.547 47.124 29.547 47.511 29.547 47.704 29.547 48.091 29.547 48.284 29.547 48.478 29.547 48.671 29.547 49.058 29.74 49.058 29.74 49.251 29.74 49.444 29.933 49.444 29.933 49.638 30.127 49.638 30.32 49.831 30.513 50.024 30.707 50.024 30.9 50.024 31.093 50.218 31.48 50.218 31.673 50.218 32.06 50.218 32.253 50.218 32.447 50.218 32.638 50.218 32.831 50.218 33.024 50.218 33.218 50.218 33.411 50.218 33.604 50.218 33.798 50.218 33.991 50.024 33.991 49.831 34.184 49.444 34.378 49.251 34.378 49.058 34.764 48.864 34.764 48.671 34.958 48.478 34.958 48.284 35.151 48.091 35.151 47.898 35.151 47.511 35.151 47.318 35.151 47.124 35.151 46.931 35.151 46.544 34.958 46.544 34.958 46.351 34.958 46.158 34.958 45.964 34.764 45.773 34.764 45.58 34.764 45.773 34.764 45.964 34.764 46.158 34.764 46.351 34.764 46.544 34.764 46.738 34.764 46.931 34.764 47.124 34.764 47.318 34.764 47.511 34.764 47.704 34.764 48.091 34.764 48.284 34.764 48.478 34.764 48.671 34.764 48.864 34.764 49.058 34.764 49.251 34.571 49.251 34.571 49.444 34.378 49.444 34.184 49.638 33.991 49.831 33.798 49.831 33.798 50.024 33.604 50.024 33.411 50.024 33.411 50.218 33.604 50.218 33.604 50.409 33.798 50.602 33.798 50.796 33.991 50.796 33.991 50.989 34.184 50.989 34.378 50.989 34.378 51.182 34.378 50.989 34.378 50.796 34.571 50.602 34.571 50.409 34.764 50.409 34.764 50.218 34.958 50.218 34.958 50.024 34.958 49.831 35.151 49.831 35.151 49.638 35.344 49.638 35.538 49.444 35.538 49.251 35.731 49.251 35.924 49.058 36.118 49.058 36.311 48.671 36.311 48.478 36.504 48.478 36.698 48.284 36.698 48.091 36.891 47.898 37.082 47.704 37.276 47.704 37.469 47.704 37.662 47.704 38.049 47.704 38.436 47.704 38.822 47.704 39.209 47.704 39.209 47.898 39.596 47.898 39.789 47.898 39.789 48.091 39.982 48.284 40.176 48.284 40.176 48.478 40.369 48.478 40.756 48.671 40.756 48.864 40.949 48.864 41.142 49.058 41.336 49.058 41.527 49.251 41.72 49.251 41.913 49.251 42.107 49.444 42.3 49.444 42.687 49.444 42.88 49.444 43.073 49.638 43.267 49.638 43.267 49.831 43.46 49.831 43.46 50.024 43.653 50.024 43.653 50.218 43.653 50.602 43.847 50.602 43.847 50.796 43.847 50.989 43.847 51.182 43.847 51.376 43.847 51.569 44.04 51.762 44.04 51.956 44.04 52.149 44.04 52.342 44.04 52.536 44.233 52.536 44.427 52.536 44.427 52.729 44.62 52.729 44.813 52.922 45.007 52.922 45.2 52.922 45.393 52.922 45.587 52.922 45.78 52.922 45.78 53.116 45.971 53.116 46.164 53.116 46.358 53.116 46.358 53.309 46.551 53.309 46.744 53.309 46.744 53.502 46.938 53.502 47.131 53.502 47.324 53.502 47.518 53.502 47.904 53.502 48.098 53.502 48.291 53.502 48.678 53.502 48.871 53.502 49.258 53.502 49.451 53.502 49.644 53.502 49.838 53.502 50.031 53.502 50.224 53.502 50.416 53.502 50.609 53.502 50.802 53.502 51.189 53.502 51.576 53.502 51.962 53.502 52.156 53.309 52.542 53.309 52.736 53.309 52.736 53.116 52.929 52.922 53.122 52.729 53.316 52.729 53.316 52.536 53.509 52.149 53.702 52.149 53.702 51.762 53.896 51.762 53.896 51.569 53.896 50.796 53.896 50.409 53.702 50.409 53.702 50.024 53.509 49.831 53.509 49.638 53.122 49.444 52.929 49.251 52.542 49.058 52.349 48.864 51.962 48.671 51.769 48.671 51.189 48.671 50.996 48.671 50.802 48.478 50.416 48.284 50.224 48.284 50.031 48.284 49.644 48.091 49.258 47.898 49.064 47.898 48.484 47.898 48.098 47.898 47.711 47.898 47.324 47.898 47.131 47.898 46.744 47.898 46.358 47.898 46.164 47.898 45.971 47.898 45.78 47.898 45.587 47.898 45.393 47.898 45.2 47.898 45.007 47.898 45.007 48.284 44.813 48.284 44.62 48.478 44.427 48.671 44.233 48.671 43.847 49.058 43.653 49.058 43.46 49.444 43.267 49.444 43.267 49.638 43.073 49.638 42.88 49.831 42.88 50.218 42.493 50.602 42.493 50.989 42.3 50.989 42.107 51.182 41.913 51.376 41.913 51.569 41.72 51.569 41.527 51.956 41.336 51.956 41.142 52.149 40.562 52.149 40.176 52.342 39.982 52.536 39.596 52.536 39.016 52.536 38.822 52.536 38.629 52.536 38.436 52.729 38.242 52.729 38.049 52.729 37.856 52.729 37.662 52.729 37.469 52.729 37.276 52.729 37.082 52.729 36.891 52.729 36.504 52.536 35.924 52.536 35.731 52.342 35.538 52.342 35.344 52.342 35.151 52.342 34.958 52.149 34.958 51.956 34.764 51.956 34.764 51.762 34.764 51.569 34.764 51.376 34.764 50.989 34.764 50.602 34.764 50.218 34.764 50.024 34.764 49.831 34.764 49.638 34.958 49.638 35.151 49.444 35.344 49.444 35.538 49.058 35.731 49.058 35.924 49.058 36.118 48.671 36.504 48.284 36.891 48.091 37.082 47.898 37.082 47.704 37.276 47.704 37.469 47.704 37.662 47.704 37.856 47.704 38.049 47.704 38.049 47.898 38.242 47.898 38.436 47.898 38.629 47.898 38.822 48.091 39.209 48.091 39.402 48.091 39.596 48.091 39.789 48.284 39.982 48.284 39.982 48.478 40.176 48.478 40.369 48.478 40.562 48.671 40.756 48.671 40.949 48.671 41.336 48.864 41.527 48.864 41.913 48.864 41.913 49.058 42.107 49.058 42.3 49.058 42.493 49.058 42.687 49.058 42.88 49.058 43.073 49.058 43.073 49.251 43.267 49.251 43.46 49.251 43.653 49.444 43.847 49.444 43.847 49.638 43.847 49.831 44.04 49.831 44.04 50.024 44.04 50.218 44.04 50.409 44.04 50.602 44.233 50.796 44.233 50.989 44.233 51.182 44.233 51.376 44.233 51.569 44.427 51.569 44.427 51.762 44.62 51.762 44.62 51.956 44.813 52.149 45.007 52.149 45.2 52.149 45.2 52.342 45.393 52.342 45.587 52.342 45.587 52.536 45.78 52.729 45.78 52.922 45.971 52.922 45.971 53.116 46.164 53.116 46.358 53.116 46.358 53.309 46.551 53.309 46.744 53.116 47.324 53.116 47.518 53.116 47.904 53.116 48.098 53.116 48.291 53.116 48.484 53.116 48.484 53.309 48.678 53.309 48.871 53.309 49.064 53.309 49.258 53.309 49.258 53.502 49.451 53.502 49.644 53.502 49.838 53.502 50.031 53.696 50.224 53.696 50.416 53.696 50.609 53.696 50.802 53.696 50.996 53.696 51.189 53.696 51.382 53.502 51.382 53.309 51.576 53.309 51.576 53.116 51.576 52.922 51.769 52.922 51.962 52.922 52.156 52.922 52.349 52.922 52.542 52.922 52.736 52.922 52.929 52.922 53.122 52.922 53.316 52.922 53.509 52.922 53.702 52.922 53.702 52.729 53.896 52.536 54.089 52.536 54.089 52.342 54.089 52.149 54.282 52.149 54.476 51.956 54.476 51.762 54.669 51.762 54.669 51.569 54.86 51.569 54.86 51.376 54.86 51.182 55.053 51.182 55.053 50.989 55.247 50.796 55.44 50.796 55.633 50.602 55.827 50.409 55.827 50.602 55.827 50.796 55.827 50.989 55.827 51.182 55.827 51.376 55.827 51.569 55.827 51.956 55.827 52.342 55.827 52.536 55.633 52.536 55.633 52.729 55.633 52.922 55.44 53.116 55.247 53.116 55.247 53.502 55.053 53.502 55.053 53.696 54.669 54.082 54.476 54.276 54.089 54.662 53.896 54.853 53.702 54.853 53.702 55.047 53.509 55.433 53.316 55.433 53.122 55.82 52.929 55.82 52.929 56.013 52.736 56.013 52.929 56.013 53.122 56.013 53.316 56.013 53.509 55.82 53.896 55.627 54.089 55.627 54.089 55.433 54.282 55.433 54.282 55.047 54.476 54.853 54.476 54.662 54.476 54.469 54.669 54.469 54.669 54.276 54.669 54.082 54.669 53.889 54.86 53.889 55.053 53.696 55.247 53.696 55.247 53.502 55.44 53.502 55.633 53.502 55.827 53.502 56.02 53.502 56.213 53.502 56.407 53.502 56.6 53.502 56.987 53.502 57.18 53.502 57.373 53.502 57.567 53.502 57.76 53.502 57.953 53.502 57.953 53.696 58.147 53.696 58.34 53.696 58.533 53.696 58.533 53.889 58.727 53.889 58.92 53.889 58.92 54.082 59.113 54.082 59.304 54.082 59.498 54.082 59.691 53.889 59.691 53.696 59.691 53.502 59.884 53.502 60.078 53.309 60.078 53.116 60.078 52.922 60.078 52.729 60.271 52.729 60.271 52.536 60.271 52.342 60.271 51.956 60.271 51.762 60.464 51.569 60.464 51.762 60.464 51.956 60.464 52.149 60.271 52.342 60.078 52.729 60.078 52.922 59.884 52.922 59.884 53.116 59.691 53.116 59.691 53.309 59.498 53.309 59.304 53.502 59.113 53.696 58.727 53.889 58.533 54.082 58.147 54.276 58.147 54.469 57.953 54.469 57.953 54.662 57.76 54.662 57.76 54.853 57.76 55.24 57.76 55.627 57.76 56.013 57.76 56.207 57.76 56.593 57.76 56.787 57.76 56.98 57.953 56.98 58.147 56.98 58.34 56.98 58.533 56.98 58.727 56.98 58.92 57.173 59.304 57.173 59.304 57.367" stroke="#000000" fill="none" stroke-width=".9" stroke-linecap="round" stroke-linejoin="round"/></svg>