<svg version="1.1" baseProfile="full" width="100%" height="100%" viewBox="0 0 100 100" xmlns="http://www.w3.org/2000/svg"><polyline points="6.087 35.129 6.522 34.694 7.391 34.26 8.261 33.825 9.13 33.39 10.435 33.39 11.304 33.39 12.174 33.39 12.609 33.39 13.478 33.39 13.913 33.39 14.783 33.39 15.217 33.39 15.652 34.26 15.652 35.129 15.652 36.433 15.652 37.738 15.652 39.042 15.652 40.781 15.217 42.955 13.913 44.694 13.043 46.433 12.174 47.738 11.739 49.042 11.304 49.477 10.87 49.912 10.87 50.781 10.435 51.216 10.435 51.651 10.435 50.346 10.87 48.607 11.304 46.433 11.739 44.26 12.609 42.086 13.478 39.912 14.348 38.607 15.652 37.303 16.957 36.433 17.826 35.999 18.696 35.999 19.565 35.999 20.435 35.999 20.87 35.999 21.304 35.999 21.739 36.433 22.174 36.868 22.609 38.173 23.043 39.042 23.043 40.346 23.043 41.651 23.043 42.955 23.043 43.825 23.043 44.694 23.043 45.564 23.043 45.999 23.043 46.433 23.043 46.868 23.043 45.999 23.043 44.26 23.478 42.52 23.913 41.216 24.783 39.912 25.217 38.173 26.087 37.303 26.957 36.868 27.826 36.433 28.261 36.433 28.696 36.433 29.13 36.433 30.0 36.433 30.435 36.433 30.87 37.303 30.87 38.607 30.87 40.346 30.87 42.086 30.87 43.825 31.304 44.694 32.174 45.564 33.043 45.999 34.348 45.999 35.652 45.999 36.957 45.999 37.826 45.999 38.696 45.999 39.565 45.129 39.565 43.825 40.0 42.086 40.0 40.346 40.0 39.042 40.0 37.738 40.0 36.433 40.0 35.999 40.0 35.564 39.13 35.564 38.261 35.999 36.957 36.868 35.652 38.607 35.217 40.781 35.217 42.955 35.217 44.694 35.217 45.999 36.522 46.868 37.826 46.868 39.13 46.868 40.435 46.868 41.304 45.564 41.739 43.825 42.174 42.52 42.174 41.216 42.174 39.912 42.174 39.477 42.174 39.042 42.174 38.607 42.174 39.477 42.174 40.781 42.174 42.086 42.174 42.955 42.609 43.825 43.478 44.694 44.348 45.129 45.652 45.129 46.522 45.564 47.391 45.564 47.826 45.564 48.261 45.564 48.696 44.26 48.696 43.39 49.13 42.086 49.13 40.781 49.13 39.477 49.13 38.173 49.13 36.868 49.13 35.999 49.13 35.564 48.696 35.129 48.261 35.129 49.565 35.129 50.87 35.564 51.739 35.564 53.043 35.564 53.478 35.564 53.913 35.564 54.348 35.564 54.348 36.868 54.348 38.607 54.348 40.346 54.783 42.52 55.217 44.26 56.087 45.564 56.957 46.433 57.826 46.433 58.696 46.433 59.13 46.433 60.0 46.433 60.87 45.999 61.304 45.129 61.739 43.825 62.174 42.52 62.609 40.781 62.609 39.042 62.609 37.738 62.609 36.868 62.609 36.433 62.609 35.999 63.043 37.303 63.043 39.042 63.913 40.781 64.783 42.52 66.087 43.825 67.391 44.26 68.696 44.26 69.565 44.26 70.435 44.26 71.304 43.825 71.739 42.52 71.739 41.216 72.174 39.912 72.609 38.607 72.609 37.303 73.043 35.999 73.043 35.564 73.478 35.129 73.913 35.129 73.913 36.433 73.913 37.738 74.348 39.477 74.348 41.216 74.348 42.955 74.348 44.694 74.348 45.564 74.783 45.564 74.783 44.694 75.652 43.39 76.522 42.086 77.391 40.346 78.696 39.477 79.565 38.607 80.435 38.173 80.87 38.173 81.304 38.173 81.739 38.173 82.174 38.173 82.609 38.607 83.478 39.912 84.348 41.216 85.217 42.086 86.522 42.955 87.826 42.955 89.565 42.955 90.87 42.955 92.174 42.52 93.478 41.216 94.348 39.912 94.348 38.607 94.348 37.303 94.348 36.433 93.913 35.999 93.043 35.564 91.739 35.564 90.435 35.564 89.565 36.433 88.696 38.173 88.261 39.912 88.261 41.216 88.261 42.086 89.13 42.086 90.87 42.086 92.609 42.086 93.913 42.086 94.348 42.086 94.783 42.086 95.217 42.086 95.217 42.52 95.652 43.39 96.957 44.694 99.565 45.999 100.0 46.433 100.0 47.738" stroke="#000000" fill="none" stroke-width=".9" stroke-linecap="round" stroke-linejoin="round"/></svg>