<svg version="1.1" baseProfile="full" width="100%" height="100%" viewBox="0 0 100 100" xmlns="http://www.w3.org/2000/svg"><polyline points="79.437 53.003 78.738 53.003 78.636 53.147 78.593 53.364 79.064 52.586 79.598 51.568 80.212 50.186 81.167 48.433 82.106 46.554 82.902 44.441 83.692 41.756 84.489 39.074 85.284 36.552 85.899 34.018 86.58 30.608 87.071 27.221 87.482 24.43 87.84 21.721 88.004 19.363 87.831 16.887 87.465 14.938 86.837 13.667 86.215 12.929 85.585 12.738 84.675 12.738 83.267 13.214 81.689 13.845 80.343 14.684 79.101 15.706 77.956 17.345 77.017 19.506 76.246 21.986 75.613 24.853 75.134 28.983 74.597 33.221 74.43 36.793 74.395 39.302 74.697 41.807 75.013 44.003 75.323 45.626 75.634 46.874 75.803 47.564 75.97 47.916 75.987 47.784 75.987 47.571 75.843 46.914 75.698 46.29 75.36 45.47 75.049 44.468 74.497 42.879 73.875 40.754 73.249 38.561 72.62 36.667 71.473 34.598 70.233 32.157 68.626 28.889 67.291 26.299 65.76 23.963 64.198 21.932 62.957 20.195 61.856 18.326 60.746 16.671 59.6 15.212 58.389 14.508 57.294 14.18 56.357 14.36 55.613 14.872 55.133 15.572 54.649 16.515 54.168 17.847 53.835 19.553 53.379 21.423 53.257 23.648 53.328 26.121 53.642 29.722 54.244 33.12 55.128 36.033 56.377 38.387 57.963 40.894 59.857 43.362 61.757 46.042 63.347 48.033 64.937 49.488 66.5 50.436 67.886 51.157 69.077 51.409 70.009 51.409 70.699 51.409 71.196 51.133 71.36 51.12 71.516 51.12 71.698 51.12 72.011 51.12 72.466 51.12 73.047 51.242 73.677 51.412 74.306 51.726 75.118 52.036 76.344 52.566 78.001 53.191 80.038 53.967 81.659 54.813 83.302 55.792 84.512 56.606 85.388 57.55 86.014 58.489 86.494 59.313 86.837 60.082 87.31 60.853 87.936 61.663 88.416 62.6 89.043 63.542 89.668 64.732 90.292 66.126 90.766 67.531 91.077 69.101 91.189 70.261 91.111 71.196 90.797 71.789 90.484 72.246 90.173 72.558 89.542 73.045 88.916 73.475 88.289 73.789 87.663 74.102 87.16 74.149 86.704 74.149 86.08 73.983 85.115 73.958 83.9 73.646 82.24 73.096 80.246 72.354 78.374 71.432 76.644 70.184 75.39 68.731 74.562 67.18 73.935 65.613 73.306 64.149 72.681 62.754 72.213 61.663 71.573 60.572 71.011 59.649 70.55 58.699 70.24 57.766 69.926 56.824 69.612 56.033 69.154 55.58 69.013 55.44 69.038 55.465 69.038 55.659 68.63 56.018 68.344 56.304 68.17 56.756 67.843 57.385 67.216 58.012 66.595 58.633 65.967 59.173 65.348 59.628 64.85 59.944 64.382 60.111 63.754 60.244 63.271 60.389 62.648 60.471 62.034 60.534 60.998 60.679 59.745 60.823 57.851 61.144 55.852 61.453 53.958 61.769 52.185 62.226 50.74 62.807 49.633 63.434 48.698 64.058 47.422 65.021 46.177 66.023 44.928 67.182 43.667 68.273 42.695 69.217 41.452 70.152 40.494 71.275 39.451 72.319 38.514 73.256 37.717 74.199 36.928 75.132 35.989 76.072 35.055 77.186 34.11 78.446 33.029 79.923 32.24 81.376 31.57 82.635 31.243 83.887 31.107 85.132 31.45 86.043 31.762 86.833 32.175 87.629 32.803 88.426 33.705 89.204 34.657 89.842 35.595 90.467 36.536 90.877 37.459 90.949 38.411 90.949 39.463 90.949 40.741 90.949 42.328 90.616 43.958 90.303 45.74 89.903 47.305 89.389 48.727 88.933 49.681 88.473 50.439 88.014 51.064 87.495 51.907 86.877 52.857 86.244 53.794 85.488 54.73 84.85 55.495 84.222 56.128 83.937 56.193 83.997 56.008 83.997 56.808 83.289 58.18 82.085 59.597 80.836 60.849 79.589 61.781 78.325 62.932 76.86 64.264 75.391 66.042 74.0 68.236 72.466 70.12 71.206 71.506 70.124 72.135 69.401 72.368 68.997 72.368 68.81 72.585 68.573 72.359 68.645 72.222 69.082 71.964 69.339 71.861 69.441 71.933 69.524 71.717 69.875 71.524 70.068 71.239 70.353 70.782 70.669 69.995 71.29 69.05 72.254 68.116 73.122 67.176 73.75 66.237 74.489 65.156 75.57 64.22 76.81 63.454 78.079 62.895 79.177 62.583 80.343 62.271 81.278 61.957 82.22 61.799 82.859 61.799 83.487 61.654 84.112 61.654 84.819 61.51 85.492 61.51 86.133 61.51 86.617 61.683 87.24 61.851 87.815 62.164 88.349 62.477 88.973 62.788 89.332 63.247 89.791 63.73 89.936 64.164 89.936 64.544 89.866 64.929 89.702 65.114 89.516 65.413 89.218 65.491 89.139 65.573 88.747 65.5 87.863 65.335 86.933 64.911 85.988 64.283 85.046 63.822 83.835 63.321 82.553 63.044 81.448 62.732 80.505 62.417 79.981 62.243 79.942 62.161 79.942 62.039 79.942 62.089 80.16 61.88 80.65 61.654 81.049 61.437 81.318 61.296 81.46 61.054 81.701 60.93 81.867 60.729 82.172 60.408 82.581 59.987 82.949 59.36 83.542 58.735 84.022 57.604 84.683 56.358 85.561 54.86 86.34 53.312 87.209 52.02 88.148 50.759 89.095 49.695 90.024 48.899 90.965 48.179 91.909 47.41 92.599 46.662 93.224 45.867 93.851 45.076 94.5 44.285 95.244 43.416 95.871 42.548 96.5 41.873 96.861 41.248 97.174 40.624 97.486 40.327 97.467 39.872 97.612 39.326 97.701 38.851 97.866 38.499 97.902 38.187 97.902 37.874 97.902 37.74 97.73 37.537 97.757 37.26 97.54 37.056 97.336 36.744 97.024 36.753 96.71 36.753 96.252 36.898 95.795 37.043 95.232 37.312 94.61 37.772 93.986 38.252 93.36 38.54 93.072 38.924 92.76 39.31 92.543 39.624 92.543 39.937 92.688 40.155 92.688 40.562 92.977 40.874 93.122 41.187 93.267 41.458 93.484 41.813 93.694 42.126 94.007 42.438 94.503 42.751 95.068 42.918 95.609 43.23 96.233 43.399 96.86 44.01 97.486 44.637 98.112 45.317 98.537 46.255 98.995 47.446 99.412 48.693 99.891 49.942 100.0 50.883 100.0 51.964 100.0 52.901 100.0 53.987 100.0 54.801 99.954 55.28 99.644 55.429 99.328 55.333 99.014 54.926 98.557 54.375 98.099 53.751 97.642 53.128 97.33 52.196 96.872 51.407 96.56 50.75 96.245 49.96 95.848 48.906 95.474 47.421 95.17 45.808 94.847 44.269 94.684 43.033 94.716 42.01 94.571 41.424 94.464 41.246 94.286 41.241 94.133 41.241 93.976 41.046 93.796 40.927 93.509 40.734 93.34 40.662 93.099 40.303 92.908 40.01 92.615 39.821 92.571 39.509 92.403 39.287 92.398 38.925 92.181 38.359 92.253 37.878 92.108 37.258 91.963 36.764 91.819 36.291 91.515 35.811 91.347 35.331 90.976 34.787 90.348 34.333 89.376 34.019 88.121 33.706 86.866 33.568 85.614 33.423 84.503 33.201 83.255 33.033 82.003 32.989 80.476 32.697 78.916 32.385 77.527 31.539 76.464 30.674 75.743 29.901 75.356 29.163 75.045 28.507 75.018 27.735 75.183 26.967 75.495 26.337 75.81 25.713 76.122 25.089 76.435 24.463 77.029 23.853 77.792 23.21 78.573 22.648 79.196 22.42 79.592 22.42 80.05 22.695 80.363 23.165 80.977 24.118 81.606 25.043 82.566 25.983 83.429 26.926 84.058 28.141 84.686 29.68 85.016 31.561 85.011 33.243 85.011 34.15 85.011 34.437 85.011 34.477 85.011 34.226 85.011" stroke="#000000" fill="none" stroke-width=".9" stroke-linecap="round" stroke-linejoin="round"/></svg>