<svg version="1.1" baseProfile="full" width="100%" height="100%" viewBox="0 0 100 100" xmlns="http://www.w3.org/2000/svg"><polyline points="26.253 32.243 26.253 32.465 26.253 32.688 26.253 32.91 26.031 32.91 26.031 33.132 26.031 33.354 26.031 33.576 25.809 33.576 25.809 33.799 25.809 34.021 25.809 34.243 25.809 34.465 25.809 34.688 25.809 34.91 25.809 35.132 25.587 35.132 25.587 35.354 25.587 35.576 25.587 35.799 25.587 36.021 25.587 36.243 25.587 36.465 25.587 36.688 25.587 36.91 25.587 37.132 25.365 37.132 25.365 37.354 25.365 37.576 25.365 37.799 25.142 38.243 25.142 38.465 25.142 38.688 25.142 38.91 24.92 38.91 24.92 39.132 24.92 39.354 24.698 39.354 24.698 39.576 24.698 39.799 24.698 40.021 24.698 40.243 24.476 40.243 24.476 40.465 24.476 40.688 24.476 40.91 24.476 41.132 24.476 41.354 24.476 41.576 24.476 41.799 24.476 42.021 24.476 42.243 24.476 42.465 24.253 42.688 24.253 42.91 24.253 43.132 24.253 43.354 24.253 43.576 24.253 43.799 24.031 43.799 24.031 44.021 24.031 44.243 24.031 44.465 23.809 44.465 23.809 44.688 23.809 44.91 23.809 45.132 23.809 45.354 23.809 45.576 23.809 45.799 23.809 46.021 23.809 46.243 23.809 46.465 23.809 46.688 23.587 46.91 23.587 47.132 23.365 47.132 23.365 47.354 23.365 47.576 23.365 47.799 23.365 48.021 23.365 48.243 23.365 48.465 23.365 48.688 23.365 48.91 23.365 49.132 23.365 49.354 23.365 49.576 23.365 49.799 23.365 50.021 23.365 50.243 23.365 50.465 23.365 50.688 23.142 50.688 23.142 50.91 22.92 50.91 22.92 51.132 22.92 51.354 22.92 51.576 22.92 51.799 22.92 52.021 22.92 52.243 22.92 52.465 22.92 52.688 22.92 52.91 22.92 53.132 22.92 53.354 22.92 53.576 22.92 53.799 22.92 54.021 22.92 54.243 22.92 54.465 22.92 54.688 22.698 54.91 22.698 55.132 22.476 55.132 22.476 55.354 22.476 55.576 22.476 55.799 22.476 56.021 22.698 56.021 22.92 56.021 23.142 56.021 23.365 56.021 23.587 56.021 23.809 56.021 24.031 56.021 24.253 56.021 24.476 56.021 24.698 56.021 24.92 56.021 25.142 56.021 25.365 56.021 25.587 56.021 25.809 56.021 26.031 56.021 26.031 56.243 26.253 56.243 26.476 56.243 26.698 56.243 26.92 56.465 27.142 56.465 27.365 56.465 27.587 56.465 27.809 56.465 28.031 56.465 28.253 56.465 28.476 56.688 28.698 56.688 28.92 56.688 29.142 56.688 29.365 56.688 29.587 56.688 29.809 56.688 30.031 56.688 30.253 56.688 30.253 56.91 30.476 56.91 30.698 56.91 30.92 56.91 31.142 56.91 31.365 56.91 31.587 56.91 31.809 56.91 32.031 56.91 32.253 56.91 32.476 56.91 32.476 57.132 32.698 57.132 32.92 57.132 33.142 57.132 33.365 57.132 33.587 57.132 33.809 57.132 34.031 57.132 34.253 57.132 34.476 57.132 34.698 57.132 34.92 57.132 35.142 57.132 35.365 57.132 35.587 57.132 35.809 57.132 36.031 57.132 36.253 57.132 36.476 57.132 36.698 57.132 36.92 57.132 37.142 57.132 37.365 57.132 37.587 57.132 37.809 57.132 38.031 57.132 38.253 57.132 38.476 57.132 38.698 57.132 38.92 57.132 39.142 57.132 39.365 57.132 39.587 57.132 39.809 57.132 40.031 57.132 40.253 57.132 40.476 57.132 40.698 57.132 40.92 57.132 41.142 57.132 41.365 57.132 41.587 57.132 41.809 57.132 42.031 57.132 42.253 57.132 42.476 57.132 42.698 57.132 42.92 57.132 43.142 57.132 43.365 57.132 43.587 57.132 43.809 57.132 44.031 57.132 44.253 57.132 44.476 57.132 44.698 57.132 44.92 57.132 45.142 57.132 45.365 57.132 45.587 57.132 45.809 57.132 46.031 57.132 46.253 57.132 46.476 57.132 46.698 57.132 46.92 57.132 47.142 57.132 47.365 57.132 47.587 57.132 47.809 57.132 48.031 57.132 48.253 57.132 48.476 57.132 48.698 57.132 48.92 57.132 49.142 57.132 49.365 57.132 49.587 57.132 49.809 57.132 50.031 57.132 50.031 56.91 50.031 56.688 50.253 56.688 50.253 56.465 50.476 56.243 50.476 56.021 50.476 55.799 50.476 55.576 50.698 55.576 50.698 55.354 50.92 55.354 50.92 55.132 50.92 54.91 51.142 54.91 51.142 54.688 51.142 54.465 51.142 54.243 51.365 54.243 51.365 54.021 51.365 53.799 51.365 53.576 51.587 53.576 51.587 53.354 51.809 53.354 51.809 53.132 51.809 52.91 52.031 52.91 52.031 52.688 52.253 52.465 52.253 52.243 52.476 52.243 52.476 52.021 52.698 52.021 52.698 51.799 52.698 51.576 52.92 51.576 52.92 51.354 52.92 51.132 52.92 50.91 53.142 50.91 53.142 50.688 53.142 50.465 53.142 50.243 53.142 50.021 53.142 49.799 53.142 49.576 53.142 49.354 53.142 49.132 53.365 49.132 53.365 48.91 53.587 48.688 53.587 48.465 53.809 48.465 53.809 48.243 53.809 48.021 53.809 47.799 54.031 47.576 54.031 47.354 54.031 47.132 54.031 46.91 54.031 46.688 54.253 46.688 54.253 46.465 54.253 46.243 54.476 46.243 54.476 46.021 54.476 45.799 54.476 45.576 54.476 45.354 54.476 45.132 54.476 44.91 54.476 44.688 54.698 44.465 54.92 44.243 54.92 44.021 54.92 43.799 54.92 43.576 54.92 43.354 54.92 43.132 54.92 42.91 54.92 42.688 54.92 42.465 54.92 42.243 55.142 42.243 55.142 42.021 55.142 41.799 55.142 41.576 55.142 41.354 55.142 41.132 55.142 40.91 55.142 40.688 55.142 40.465 55.142 40.243 55.365 40.021 55.365 39.799 55.587 39.576 55.587 39.354 55.587 39.132 55.587 38.91 55.587 38.688 55.587 38.465 55.587 38.243 55.587 38.021 55.587 37.799 55.587 37.576 55.587 37.354 55.587 37.132 55.809 36.91 56.031 36.91 56.031 36.688 56.253 36.688 56.253 36.465 56.253 36.243 56.253 36.021 56.253 35.799 56.253 35.576 56.476 35.576 56.253 35.576 56.031 35.576 55.809 35.576 55.587 35.354 55.365 35.354 55.365 35.132 55.142 35.132 54.92 35.132 54.698 35.132 54.476 35.132 54.253 35.132 54.031 35.132 53.809 35.132 53.587 35.132 53.365 35.132 53.142 35.132 52.92 35.132 52.698 35.132 52.476 35.132 52.253 35.132 52.031 35.132 52.031 34.91 51.809 34.91 51.587 34.91 51.365 34.91 51.142 34.91 50.92 34.91 50.698 34.688 50.476 34.688 50.253 34.688 50.031 34.688 49.809 34.688 49.587 34.688 49.365 34.688 49.142 34.688 48.92 34.688 48.698 34.688 48.698 34.465 48.476 34.465 48.253 34.465 48.031 34.243 47.809 34.243 47.587 34.243 47.365 34.243 47.142 34.243 46.92 34.243 46.698 34.243 46.476 34.243 46.253 34.243 46.031 34.243 45.809 34.243 45.587 34.243 45.365 34.243 45.142 34.243 44.92 34.243 44.698 34.243 44.476 34.243 44.476 34.021 44.253 34.021 44.031 34.021 43.809 34.021 43.587 34.021 43.365 34.021 43.142 34.021 42.92 34.021 42.698 34.021 42.476 34.021 42.253 34.021 42.031 34.021 41.809 34.021 41.587 34.021 41.365 34.021 41.142 34.021 40.92 34.021 40.698 34.021 40.476 34.021 40.253 34.021 40.031 34.021 39.809 34.021 39.587 34.021 39.365 34.021 39.142 34.021 38.92 34.021 38.698 34.021 38.476 34.021 38.253 34.021 38.031 34.021 37.809 34.021 37.587 34.021 37.142 34.021 36.92 34.021 36.698 34.021 36.476 34.021 36.253 34.021 36.031 34.021 35.809 34.021 35.587 34.021 35.365 34.021 35.142 34.021 34.92 34.021 34.698 34.021 34.476 34.021 34.253 34.021 34.031 34.021 33.809 34.021 33.587 34.021 33.365 34.021 33.142 34.021 32.92 34.021 32.698 34.021 32.253 34.021 32.031 34.021 31.809 34.021 31.587 34.021 31.365 34.021 31.142 33.799 30.92 33.799 30.698 33.799 30.476 33.799 30.253 33.799 30.031 33.799 29.809 33.799 29.587 33.799 29.365 33.799 29.142 33.799 28.92 33.799 28.698 33.799 28.476 33.799 28.253 33.799 28.031 33.799 27.809 33.799 27.587 33.799 27.365 33.799 27.142 33.799 27.365 33.799 27.587 33.799 27.809 34.021 28.031 34.021 28.031 34.243 28.253 34.465 28.476 34.688 28.476 34.91 28.698 34.91 28.698 35.132 28.92 35.132 28.92 35.354 29.142 35.354 29.365 35.576 29.587 35.576 29.587 35.799 29.809 35.799 30.031 35.799 30.253 35.799 30.253 36.021 30.476 36.021 30.476 36.243 30.698 36.243 30.698 36.465 30.92 36.465 30.92 36.688 31.142 36.688 31.365 36.688 31.587 36.688 31.809 36.688 32.031 36.688 32.031 36.91 32.253 36.91 32.253 37.132 32.476 37.132 32.476 37.354 32.476 37.576 32.698 37.576 32.698 37.799 32.698 38.021 32.92 38.021 32.92 38.243 32.92 38.465 32.92 38.688 33.142 38.688 33.142 38.91 33.365 38.91 33.365 39.132 33.587 39.132 33.587 39.354 33.809 39.354 34.031 39.354 34.031 39.576 34.253 39.576 34.253 39.799 34.476 39.799 34.698 39.799 34.92 39.799 34.92 40.021 34.92 40.243 34.92 40.465 35.142 40.688 35.365 40.688 35.587 40.688 35.809 40.688 35.809 40.91 36.031 40.91 36.253 40.91 36.253 41.132 36.476 41.132 36.476 41.354 36.698 41.354 36.92 41.354 37.142 41.576 37.365 41.576 37.365 41.799 37.587 41.799 37.809 41.799 38.031 42.243 38.253 42.465 38.253 42.688 38.476 42.91 38.698 42.91 39.365 43.132 39.587 43.132 39.587 43.354 39.809 43.354 40.031 43.354 40.253 43.354 40.253 43.576 40.476 43.576 40.698 43.576 40.698 43.799 40.92 43.799 40.92 44.021 40.92 44.243 40.92 44.465 41.142 44.465 41.142 44.688 41.142 44.91 41.142 45.132 41.365 45.132 41.365 45.354 41.587 45.354 41.587 45.576 41.809 45.576 41.809 45.799 42.031 45.799 42.031 46.021 42.253 46.021 42.253 46.243 42.253 46.465 42.253 46.688 42.253 46.91 42.476 46.91 42.476 47.132 42.698 47.132 42.698 47.354 42.698 47.576 42.92 47.576 42.92 47.799 42.92 48.021 43.142 48.021 43.142 48.243 43.365 48.243 43.365 48.465 43.365 48.688 43.365 48.91 43.587 48.91 43.587 49.132 43.809 49.132 43.809 49.354 44.031 49.354 44.031 49.576 44.031 49.799 44.031 50.021 44.253 50.243 44.253 50.465 44.476 50.465 44.476 50.688 44.476 50.91 44.698 50.91 44.698 51.132 44.698 51.354 44.92 51.354 44.92 51.576 44.92 51.799 45.142 52.021 45.365 52.021 45.365 52.243 45.365 52.465 45.365 52.688 45.365 52.91 45.587 52.91 45.587 53.132 45.809 53.132 46.031 53.132 46.253 53.132 46.476 53.132 46.476 53.354 46.476 53.576 46.698 53.576 46.698 53.799 46.92 53.799 46.92 54.021 46.92 54.243 47.142 54.243 47.142 54.465 47.142 54.688 47.142 54.91 47.365 54.91 47.587 54.91 47.809 54.91 47.809 55.132 48.031 55.132 48.253 55.132 48.476 55.132 48.698 55.132 48.92 55.132 49.142 55.132 49.142 55.354 49.365 55.576 49.587 55.799 49.587 56.021 49.365 56.021 49.365 56.243 49.365 56.465 49.365 56.688 49.365 56.91 49.365 57.132 49.587 57.132 49.587 57.354 49.809 57.354 50.031 57.354 50.031 57.576 50.253 57.576 50.476 57.576 50.698 57.576 50.92 57.576 51.142 57.576 51.142 57.354 51.142 57.132 51.365 57.132 51.365 56.91 51.365 56.688 51.365 56.91 51.365 57.132 51.365 57.354 51.365 57.576 51.365 57.799 51.365 58.021 51.365 58.243 51.365 58.465 51.365 58.688 51.142 58.688 51.142 58.91 51.142 59.132 51.142 59.354 51.142 59.576 51.142 59.799 51.142 60.021 50.92 60.243 50.92 60.465 50.92 60.688 50.698 60.688 50.698 61.132 50.476 61.354 50.476 61.576 50.476 61.799 50.476 62.021 50.476 62.243 50.476 62.465 50.253 62.465 50.253 62.687 50.253 62.91 50.031 63.132 50.031 63.354 50.031 63.576 50.031 63.799 50.031 64.243 50.031 64.465 50.031 64.688 49.809 64.688 49.809 64.91 49.587 64.91 49.587 65.132 49.587 65.354 49.587 65.576 49.587 65.799 49.587 66.021 49.587 66.243 49.587 66.465 49.365 66.688 49.365 66.91 49.142 66.91 49.142 67.132 49.142 67.354 48.92 67.354 48.92 67.576 48.92 67.799 48.92 68.021 48.698 68.021 48.698 68.243 48.698 68.465 48.476 68.465 48.476 68.688 48.476 68.91 48.253 69.132 48.253 69.354 48.031 69.354 48.031 69.576 48.031 69.799 47.809 70.021 47.809 70.243 47.587 70.243 47.587 70.465 47.365 70.688 47.365 70.91 47.365 71.132 47.142 71.132 47.142 71.354 47.142 71.576 47.142 71.799 46.92 71.799 46.92 72.021 46.92 72.243 46.698 72.243 46.698 72.465 46.698 72.688 46.476 72.688 46.476 72.91 46.253 72.91 46.253 73.132 46.031 73.132 46.031 73.354 45.809 73.576 45.809 73.799 45.587 73.799 45.365 73.799 45.365 74.021 45.365 74.243 45.365 74.465 45.142 74.465 45.142 74.688 45.142 74.91 44.92 74.91 44.92 75.132 44.92 75.354 44.698 75.354 44.698 75.576 44.698 75.799 44.698 76.021 44.698 76.243 44.698 76.465 44.476 76.465 44.476 76.688 44.253 76.688 44.253 76.465 44.031 76.243 43.809 76.021 43.587 75.799 43.587 75.576 43.587 75.354 43.365 75.354 43.365 75.132 43.142 75.132 43.142 74.91 42.92 74.91 42.92 74.688 42.698 74.688 42.476 74.688 42.253 74.688 42.253 74.465 42.253 74.243 42.031 74.243 41.809 74.243 41.809 74.021 41.587 74.021 41.587 73.799 41.365 73.799 41.142 73.799 41.142 73.576 41.142 73.354 40.92 73.354 40.92 73.132 40.92 72.91 40.698 72.91 40.476 72.91 40.253 72.91 40.253 72.688 40.031 72.688 39.809 72.465 39.587 72.465 39.587 72.243 39.365 72.243 39.365 72.021 39.365 71.799 39.142 71.799 39.142 71.576 39.142 71.354 39.142 71.132 39.142 70.91 38.92 70.91 38.92 70.688 38.92 70.465 38.698 70.465 38.698 70.243 38.698 70.021 38.476 70.021 38.476 69.799 38.253 69.799 38.253 69.576 38.253 69.354 38.253 69.132 38.031 69.132 38.031 68.688 38.031 68.465 38.031 68.243 37.809 68.243 37.809 68.021 37.587 68.021 37.587 67.799 37.365 67.576 37.365 67.354 37.365 67.132 37.142 66.91 37.142 66.688 36.698 66.243 36.698 66.021 36.476 65.799 36.253 65.799 36.253 65.576 36.031 65.576 36.031 65.354 35.809 65.132 35.809 64.91 35.365 64.465 35.142 64.465 35.142 64.243 35.142 64.021 35.142 63.799 34.92 63.799 34.92 63.576 34.92 63.354 34.476 62.91 34.253 62.687 34.031 62.687 34.031 62.465 33.809 62.465 33.587 62.465 33.587 62.243 33.365 62.243 33.365 62.021 33.142 62.021 33.142 61.799 33.142 61.576 33.142 61.354 32.92 61.354 32.92 61.132 32.698 61.132 32.698 60.91 32.476 60.91 32.476 60.688 32.253 60.688 32.253 60.465 32.031 60.465 32.031 60.243 32.031 60.021 31.809 60.021 31.587 60.021 31.365 60.021 31.365 59.799 31.142 59.799 31.142 59.576 30.92 59.576 30.698 59.576 30.698 59.354 30.476 59.354 30.476 59.132 30.253 59.132 30.253 58.91 30.031 58.91 29.809 58.688 29.587 58.465 29.365 58.465 29.142 58.243 28.92 58.243 28.698 58.021 28.476 58.021 28.253 57.799 28.031 57.576 27.809 57.576 27.809 57.354 27.587 57.354 27.365 57.354 27.142 57.354 26.92 57.132 26.92 56.91 26.698 56.91 26.476 56.688 26.253 56.688 26.031 56.465 25.809 56.465 25.809 56.243 25.587 56.243 25.365 56.243 25.142 56.243 24.92 56.021 24.698 55.799 24.476 55.799 24.253 55.799 24.031 55.799 24.031 55.576 23.809 55.576 23.809 55.354 23.587 55.354 23.365 55.354 23.142 55.354 22.92 55.354 22.698 55.354 22.476 55.354 22.698 55.354 22.698 55.576 22.698 55.799 22.698 56.021 22.698 56.243 22.698 56.465 22.698 56.688 22.698 56.91 22.698 57.132 22.698 57.354 22.698 57.576 22.698 57.799 22.698 58.021 22.92 58.021 22.92 58.243 22.92 58.465 22.92 58.688 22.92 58.91 22.92 59.132 22.92 59.354 22.92 59.576" stroke="#000000" fill="none" stroke-width=".9" stroke-linecap="round" stroke-linejoin="round"/></svg>