<svg version="1.1" baseProfile="full" width="100%" height="100%" viewBox="0 0 100 100" xmlns="http://www.w3.org/2000/svg"><polyline points="50.656 44.906 50.394 44.644 49.869 44.382 49.606 44.119 49.344 43.594 49.081 43.332 48.819 43.069 48.294 42.544 47.769 42.282 47.244 42.019 46.719 41.757 46.194 41.494 45.669 41.232 44.882 40.969 44.357 40.707 43.57 40.445 43.307 40.182 42.52 39.92 42.257 39.657 41.732 39.657 41.47 39.657 40.945 39.657 40.42 39.395 39.895 39.395 39.633 39.395 39.108 39.395 39.108 39.395 38.845 39.395 38.583 39.395 38.058 39.395 37.795 39.395 37.533 39.395 37.27 39.395 37.008 39.395 36.745 39.395 36.22 39.395 35.958 39.395 35.433 39.395 35.171 39.395 34.646 39.395 34.383 39.657 34.121 39.657 33.858 39.92 33.596 39.92 33.333 40.182 33.071 40.445 32.808 40.707 32.546 40.707 32.021 40.969 31.759 41.232 31.234 41.494 30.971 41.757 30.446 42.019 30.184 42.282 29.921 42.807 29.659 43.069 29.396 43.594 29.134 43.857 28.871 44.119 28.346 44.382 27.822 44.644 27.297 45.169 27.034 45.431 26.772 45.694 26.509 45.956 26.247 46.219 25.984 46.481 25.459 46.744 25.197 47.006 24.934 47.269 24.672 47.531 24.409 48.056 23.885 48.319 23.36 48.844 23.097 49.368 22.572 49.893 22.31 50.681 22.047 50.943 21.785 51.468 21.522 52.256 21.26 52.781 20.997 53.305 20.997 53.83 20.735 54.355 20.472 54.618 20.472 55.143 20.472 55.668 20.472 56.193 20.21 56.718 20.21 57.505 20.21 58.292 19.948 59.08 19.948 59.605 19.685 60.392 19.685 60.917 19.423 61.442 19.423 61.967 19.16 62.492 19.423 63.279 19.423 63.804 19.685 64.592 19.948 65.379 19.948 65.904 20.21 66.691 20.21 67.216 20.21 68.004 20.21 68.529 20.21 69.053 20.472 69.316 20.472 69.841 20.735 70.103 20.735 70.628 20.735 71.153 20.735 71.416 20.997 71.941 20.997 72.466 20.997 72.99 21.26 73.515 21.26 74.04 21.522 74.565 21.522 75.09 21.785 75.615 22.31 76.403 22.572 76.927 23.36 77.715 23.885 78.24 24.672 78.765 25.459 79.552 26.247 80.077 27.034 80.865 27.822 81.652 28.609 82.439 29.134 83.227 30.184 83.752 30.971 84.014 31.759 84.539 32.283 85.064 32.808 85.326 33.333 85.589 33.858 85.589 34.383 85.851 34.908 85.851 35.433 86.114 35.958 86.114 36.483 86.114 36.745 86.114 37.008 86.114 37.533 86.114 37.795 86.114 38.058 86.114 38.32 86.114 38.583 86.376 39.108 86.376 39.37 86.376 39.633 86.376 39.895 86.376 40.42 86.376 40.682 86.376 40.682 86.114 40.945 86.114 41.207 86.114 41.47 85.851 41.732 85.851 41.995 85.851 42.257 85.589 42.52 85.589 43.045 85.326 43.307 85.326 43.307 85.064 43.57 84.802 43.832 84.802 44.357 84.539 44.619 84.539 44.882 84.277 45.144 84.277 45.407 84.014 45.669 84.014 45.932 83.752 46.194 83.489 46.457 83.489 46.719 83.227 46.982 83.227 47.244 82.964 47.769 82.964 48.031 82.964 48.294 82.964 48.556 82.964 48.819 82.964 49.081 82.964 49.344 83.227 49.606 83.227 49.869 83.489 50.131 83.489 50.656 83.752 50.919 83.752 51.181 84.014 51.706 84.014 51.969 84.014 52.231 84.277 52.493 84.277 52.756 84.277 53.281 84.277 53.543 84.539 53.806 84.539 54.068 84.802 54.593 84.802 54.856 85.064 55.118 85.064 55.643 85.326 56.168 85.589 56.43 85.851 56.693 86.114 57.218 86.114 57.48 86.376 57.743 86.376 58.005 86.376 58.53 86.639 59.055 86.639 59.318 86.639 59.843 86.639 60.105 86.901 60.63 86.901 60.892 86.901 61.155 86.901 61.417 86.901 61.942 86.901 62.205 86.901 62.467 86.901 62.73 86.901 63.78 86.639 64.042 86.639 64.567 86.376 64.829 86.376 65.092 86.114 65.617 85.851 66.142 85.589 66.667 85.064 67.192 84.802 67.717 84.277 68.241 83.752 68.766 82.964 69.291 82.439 69.816 81.652 70.341 80.865 71.129 79.815 71.654 78.765 72.441 77.715 72.966 76.927 73.491 75.615 74.016 74.828 74.541 73.778 74.803 72.728 75.328 71.941 75.591 71.153 75.853 70.103 76.115 69.316 76.378 68.529 76.378 67.741 76.378 66.954 76.64 66.166 76.64 65.379 76.64 64.854 76.378 64.067 76.378 63.542 76.378 63.017 76.378 62.754 76.378 62.229 76.378 61.704 76.378 61.179 76.378 60.655 76.378 60.392 76.378 59.867 76.378 59.342 76.378 58.817 76.378 58.292 76.115 57.767 76.115 57.242 75.853 56.718 75.591 56.193 75.591 55.668 75.591 55.143 75.328 54.88 75.328 54.355 75.066 54.093 75.066 53.568 74.541 53.043 74.541 52.781 74.278 52.518 74.016 51.993 73.753 51.468 73.753 51.206 73.491 50.681 73.491 50.156 73.228 49.893 73.228 49.368 72.966 48.844 72.966 48.581 72.703 48.319 72.441 47.794 72.178 47.269 71.916 47.006 71.654 46.481 71.391 46.219 71.129 45.956 70.866 45.431 70.604 45.169 70.604 44.906 70.341 44.644 70.079 44.382 69.816 44.119 69.554 43.857 69.554 43.857 69.291 43.594 69.029 43.332 68.504 43.069 68.241 42.807 67.717 42.544 67.192 42.282 66.929 42.282 66.404 42.019 66.142 41.757 65.879 41.494 65.617 41.232 65.354 40.969 65.092 40.707 64.829 40.445 64.567 40.445 64.304 40.182 63.78 40.182 63.517 39.92 63.255 39.92 62.73 39.657 62.467 39.657 62.205 39.657 61.68 39.657 61.155 39.657 60.892 39.657 60.63 39.657 60.367 39.657 60.105 39.657 59.843 39.657 59.58 39.657 59.318 39.657 58.793 39.657 58.53 39.657 58.268 39.92 58.005 39.92 57.743 39.92 57.48 39.92 57.218 39.92 56.955 40.182 56.693 40.182 56.168 40.182 55.906 40.445 55.643 40.445 55.381 40.707 55.118 40.707 54.856 40.707 54.856 40.969 54.593 40.969 54.593 41.232 54.331 41.232 54.068 41.232 53.806 41.494 53.543 41.494 53.281 41.757 53.281 41.757 53.018 41.757 52.756 42.019 52.493 42.282 51.969 42.282 51.706 42.544 51.444 42.807 51.444 43.069 50.919 43.332 50.656 43.594 50.394 43.857 50.394 44.119 50.131 44.382 50.131 44.644 49.869 44.906 49.869 44.906 49.606 45.169 49.606 45.431 49.606 45.694 49.606 45.956 49.344 45.956 49.344 46.219 49.344 46.219 49.344 46.481 49.081 46.481 49.081 46.481 49.081 46.481 49.081 46.744 48.819 46.744 48.819 46.744 48.819 46.744 48.819 46.481 48.819 46.481 48.819 46.481 49.081 46.219 49.081 46.219 49.081 45.956 49.081 45.694 49.081 45.431 49.081 45.169 49.081 44.906 49.081 44.382 49.081 44.119 49.344 43.857 49.344 43.594 49.344 43.069 49.344 42.544 49.344 42.282 49.606 41.494 49.606 40.969 49.606 40.445 49.869 39.92 49.869 39.132 50.131 38.607 50.394 37.82 50.656 37.295 50.919 36.77 51.181 36.245 51.444 35.72 51.969 34.933 52.231 34.408 52.231 33.883 52.493 33.095 52.756 32.571 53.018 32.046 53.018 31.521 53.281 30.996 53.543 30.471 53.806 30.208 54.331 29.683 54.593 29.158 55.118 28.634 55.381 28.371 55.906 28.109 56.168 27.584 56.693 27.321 56.955 26.796 57.218 26.534 57.48 26.009 57.743 25.484 58.005 24.959 58.53 24.434 58.793 23.909 59.318 23.384 59.58 22.859 60.105 22.334 60.63 22.072 61.155 21.547 61.417 21.022 61.942 20.76 62.73 20.235 63.255 19.71 63.78 19.447 64.304 19.185 64.567 18.922 64.829 18.66 65.092 18.397 65.354 18.397 65.879 18.135 66.142 17.872 66.404 17.61 66.929 17.61 67.192 17.347 67.454 17.347 67.454 17.085 67.717 17.085 67.979 16.823 67.979 16.823 68.241 16.823 68.241 16.56 68.504 16.56 68.504 16.56 68.504 16.56 68.766 16.298 68.766 16.298 68.766 16.298 68.504 16.298 68.504 16.298 68.504 16.298 68.504 16.56 68.241 16.56 68.241 16.823 67.979 16.823 67.717 17.085 67.454 17.085 67.454 17.347 67.192 17.347 66.929 17.347 66.667 17.347 66.404 17.61 66.404 17.61 66.142 17.872 65.879 18.135 65.879 18.135 65.617 18.397 65.354 18.66 65.354 18.922 65.092 19.185 64.829 19.185 64.567 19.447 64.304 19.71 64.042 19.972 63.78 20.235 63.255 20.235 62.992 20.497 62.467 20.76 61.68 21.547 61.417 21.809 61.155 22.072 60.892 22.334 60.63 22.597 60.367 22.859 60.105 23.122 59.843 23.122 59.58 23.384 59.055 23.647 59.055 23.909 58.53 24.172 58.268 24.434 58.268 24.697 58.005 24.959 57.743 25.221 57.48 25.484 57.218 26.009 56.955 26.534 56.43 26.796 56.168 27.321 55.906 27.584 55.643 28.109 55.381 28.371 55.381 28.634 55.118 29.158 55.118 29.421 54.856 29.946 54.593 30.208 54.331 30.471 54.331 30.996 54.068 31.258 53.806 31.521 53.806 31.783 53.281 32.308 53.281 32.833 53.018 33.095 53.018 33.358 52.756 33.883 52.756 34.145 52.756 34.408 52.493 34.67 52.493 34.933 52.493 35.195 52.231 35.458 52.231 35.72 52.231 35.983 52.231 36.245 51.969 36.245 51.969 36.508 51.969 36.77 51.706 37.032 51.444 37.295 51.444 37.82 51.181 38.082 50.919 38.345 50.656 38.607 50.656 38.87 50.656 39.132 50.394 39.395 50.394 39.395 50.131 39.657 50.131 39.92 50.131 39.92 50.131 40.182 50.131 40.445 49.869 40.707 49.869 40.707 49.869 40.707 49.606 40.969 49.606 40.969 49.606 40.969 49.606 40.969 49.606 40.969 49.606 40.969 49.606 40.707 49.344 40.707 49.344 40.707 49.344 40.445 49.344 40.445 49.344 40.445 49.344 40.182 49.344 40.182 49.081 40.182 49.081 40.182 49.081 39.92 49.081 39.92 49.081 39.92 49.081 39.657 49.081 39.657 49.081 39.395 49.081 39.132 49.081 38.87 49.081 38.87 49.081 38.607 48.819 38.345 48.819 38.082 48.556 37.82 48.556 37.295 48.294 37.032 48.031 36.77 47.769 36.77 47.769 36.508 47.507 36.245 47.244 35.983 46.982 35.458 46.719 35.195 46.457 34.933 46.457 34.67 46.194 34.408 45.932 34.145 45.932 33.883 45.669 33.62 45.669 33.358 45.407 33.095 45.407 33.095 45.144 32.833 45.144 32.571 45.144 32.571 45.144 32.308 44.882 32.308 45.144 32.308 45.144 32.308 45.144 32.308 45.407 32.308 45.407 32.308 45.407 32.308 45.407 32.046 45.669 32.046 45.669 32.046 45.932 31.783 45.932 31.783 45.932 31.521 46.194 31.258 46.194 31.258 46.194 30.996 46.194 30.996 46.457 30.733 46.457 30.471 46.719 30.208 46.719 29.946 46.982 29.421 46.982 28.896 47.244 28.634 47.244 28.371 47.244 27.846 47.244 27.584 47.507 27.059 47.507 26.534 47.769 26.271 47.507 25.221 47.507 24.959 47.507 24.434 47.507 23.909 47.507 23.384 47.244 22.859 47.244 22.597 47.244 22.072 47.244 21.809 47.507 21.284 47.507 20.76 47.507 20.497 47.244 20.235 47.244 19.71 47.244 19.447 47.244 18.922 46.982 18.66 46.982 17.61 46.719 17.085 46.719 16.56 46.457 16.298 46.194 15.773 46.194 15.248 45.932 14.46 45.669 14.198 45.669 13.935 45.407 13.673 45.407 13.41 45.144 13.148 45.144 12.885 44.619 12.623 44.357 12.361 44.357 12.098 44.094 12.098 43.57 11.836 43.045 11.311 42.52 11.311 42.257 11.048 41.995 10.786 41.732 10.523 41.47 10.523 41.47 10.261 41.207 10.261 40.682 9.998 40.42 9.998 40.157 9.998 39.895 9.736 39.37 9.736 39.108 9.473 38.845 9.473 38.583 9.473 38.32 9.473 37.795 9.473 37.533 9.211 37.27 9.211 37.008 9.211 36.745 8.948 36.483 8.948 35.433 8.686 35.171 8.424 34.908 8.424 34.383 8.161 34.121 8.161 33.858 7.899 33.596 7.636 33.333 7.636 33.071 7.374 32.808 7.374 32.546 7.111 32.021 7.111 31.759 6.849 31.496 6.586 31.234 6.586 30.971 6.324 30.709 6.324 30.446 6.324 30.184 6.061 30.184 6.061 29.921 5.799 29.921 5.799 29.659 5.799 29.659 5.536 29.659 5.274 29.396 5.274 29.396 5.011 29.396 5.011 29.396 5.011 29.396 5.011 29.396 5.011 29.396 5.274 29.396 5.274 29.396 5.536 29.396 5.799 29.396 6.061 29.396 6.061 29.659 6.324 29.659 6.324 29.659 6.324 29.659 6.586 29.659 6.586 29.659 6.849 29.659 6.849 29.659 7.111 29.659 7.111 29.659 7.111 29.921 7.111 29.921 7.374 29.921 7.374 29.921 7.636 29.921 7.636 29.921 7.899 29.921 8.161 30.184 8.161 30.184 8.424 30.184 8.686 30.184 8.948 30.184 9.211 30.446 9.473 30.446 9.998 30.446 10.523 30.446 11.048 30.446 11.311 30.446 11.836 30.446 12.098 30.446 12.623 30.446 12.885 30.446 13.148 30.446 13.935 30.446 14.198 30.446 14.46 30.184 14.723 30.184 15.248 30.184 15.51 30.184 16.035 30.184 16.298 30.184 16.56 30.184 17.085 30.184 17.347 30.184 18.135 30.184 18.397 30.184 18.922 30.184 19.185 30.446 19.972 30.446 20.235 30.446 20.497 30.709 20.76 30.709 21.022 30.709 21.547 30.971 22.072 30.971 22.334 31.234 22.597 31.234 22.859 31.496 23.384 31.496 23.647 31.496 23.909 31.759 24.434 31.759 24.697 32.283 25.221 32.283 25.746 32.546 26.009 32.808 26.271 32.808 26.534 33.071 26.796 33.333 27.584 33.333 27.846 33.333 27.846 33.596 28.109 33.596 28.371 33.858 28.634 34.121 28.896 34.383 28.896 34.383 29.158 34.646 29.158 34.646 29.421 35.171 29.683 35.171 29.946 35.433 29.946 35.433 30.208 35.958 30.471 35.958 30.471 36.22 30.471 36.483 30.733 36.483 30.733 36.745 30.733 37.008 30.996 37.008 30.996 37.27 30.996 37.795 30.996 37.795 30.996 38.058 30.996 38.32 31.258 38.32 31.258 38.583 31.258 38.845 31.258 39.108 31.258 39.37 31.258 39.633 31.258 39.895 31.258 40.42 31.258 40.42 31.258 40.682 31.258 40.945 31.521 40.945 31.521 41.47 31.521 41.47 31.521 41.732 31.521 41.732 31.521 41.995 31.521 42.257 31.521 42.257 31.521 42.52 31.521 42.52 31.521 42.52 31.521 42.782 31.521 42.782 31.521 42.782 31.258 43.045 31.258 43.045 31.258 43.045 30.996 43.307 30.996 43.307 30.733 43.57 30.733 43.57 30.733 43.57 30.471 43.57 30.471 43.57 30.471 43.832 30.208 43.832 30.208 43.832 30.208 43.832 29.946 43.832 29.683 43.57 29.421 43.57 29.421 43.57 29.158 43.57 28.896 43.57 28.896 43.307 28.634 43.045 28.109 42.782 27.846 42.782 27.584 42.52 27.321 42.257 27.059 42.257 26.796 41.995 26.271 41.995 25.746 41.732 25.484 41.732 25.221 41.732 24.697 41.47 23.909 41.47 23.647 41.47 23.384 41.207 22.859 41.207 22.597 40.945 22.072 40.682 21.547 40.42 21.284 40.42 21.022 40.157 20.76 39.895 20.497 39.633 20.235 39.37 19.972 39.108 19.71 39.108 19.447 38.845 19.185 38.845 18.922 38.583 18.397 38.583 18.135 38.583 17.872 38.32 17.61 38.32 17.085 38.32 16.56 38.058 16.298 38.058 16.298 38.058 15.773 38.058 15.773 37.795 15.248 37.533 14.985 37.533 14.723 37.27 14.723 37.27 14.46 37.27 14.198 37.008 14.198 36.745 13.935 36.745 13.673 36.483 13.41 36.22 13.41 36.22 13.148 35.958 12.885 35.696 12.623 35.696 12.623 35.433 12.623 35.433 12.361 35.171 12.098 34.908 12.098 34.908 12.098 34.908 12.361 34.908 12.361" stroke="#000000" fill="none" stroke-width=".9" stroke-linecap="round" stroke-linejoin="round"/></svg>