<svg version="1.1" baseProfile="full" width="100%" height="100%" viewBox="0 0 100 100" xmlns="http://www.w3.org/2000/svg"><polyline points="7.271 0.688 7.715 1.354 8.382 2.465 8.604 3.132 9.271 4.688 9.938 6.021 11.493 8.688 12.16 10.465 13.938 13.576 15.493 15.799 17.493 18.688 18.604 20.465 19.715 21.799 20.16 22.91 20.604 23.576 20.604 23.799 20.604 24.243 20.604 24.688 20.604 24.91 20.604 25.132 20.604 25.354 20.826 25.354 21.271 26.021 21.715 26.465 21.938 26.91 22.382 27.354 23.049 28.021 23.493 28.243 24.382 28.688 24.826 28.91 25.271 29.132 25.938 29.354 26.826 29.576 27.938 30.021 28.826 30.465 30.16 30.688 31.049 30.688 33.049 30.91 34.604 30.91 36.826 30.91 38.16 30.91 39.938 30.465 41.271 30.243 42.604 29.799 43.271 29.354 44.382 28.91 45.271 28.465 46.604 27.799 47.493 27.576 48.382 27.354 49.271 26.687 49.493 26.465 49.938 25.576 50.16 25.354 50.382 24.688 50.382 24.021 50.604 22.465 50.604 21.799 50.604 20.243 50.604 18.91 50.382 17.354 49.938 16.243 49.271 15.354 48.826 14.243 47.715 13.354 46.826 12.91 45.715 12.243 44.16 11.799 43.049 11.576 41.049 11.576 39.938 11.576 37.938 11.576 36.604 12.243 35.049 13.354 33.938 13.799 32.382 15.354 30.826 16.465 29.715 17.799 28.826 19.354 27.715 20.688 27.049 21.799 26.16 23.354 25.715 24.688 25.493 26.243 25.271 27.132 25.271 28.021 25.271 29.132 25.271 29.799 25.715 31.354 25.938 32.021 26.826 33.799 27.493 34.465 28.382 35.576 29.715 36.91 31.715 38.243 33.715 39.576 37.493 41.132 39.938 42.243 44.382 43.354 46.826 44.021 50.826 44.688 53.049 45.354 55.493 45.799 57.938 46.688 59.938 47.354 61.715 48.243 62.826 48.91 63.938 49.132 64.16 49.354 64.16 49.576 64.16 49.799 64.382 49.799 64.382 50.021 64.382 50.243 64.382 50.688 64.604 51.132 64.826 51.576 65.049 52.021 65.049 52.91 65.049 53.132 65.049 53.576 65.049 54.243 65.049 54.688 65.049 55.354 65.049 56.021 65.049 56.91 64.604 57.354 64.382 58.688 63.938 59.354 63.715 60.243 63.271 61.132 62.604 62.243 62.382 62.91 61.938 63.576 61.493 64.243 61.271 64.91 60.826 65.132 60.382 65.799 59.493 66.465 58.826 67.132 57.493 67.799 56.604 68.465 55.271 68.91 54.16 69.132 52.16 69.354 50.604 69.799 48.826 70.021 47.271 70.243 45.049 70.465 43.715 70.465 41.938 70.465 40.826 70.465 38.604 70.465 37.049 70.243 34.604 69.799 32.604 69.576 30.826 68.91 28.16 68.688 26.382 68.243 24.604 67.799 23.493 67.132 22.16 66.465 21.938 66.243 21.493 65.576 21.271 65.354 21.271 65.132 21.271 64.688 21.271 63.799 21.271 62.91 21.049 61.799 21.049 60.688 20.826 59.132 20.604 58.243 20.382 57.132 20.382 56.021 20.382 54.688 20.382 53.354 20.826 52.465 21.715 51.132 22.382 50.465 23.715 49.799 25.715 49.354 28.16 49.132 30.16 49.132 33.493 49.132 35.938 49.354 39.938 50.243 42.604 50.688 47.493 51.354 50.382 51.799 55.715 52.688 58.382 52.688 61.271 52.688 64.16 52.465 65.938 51.576 68.16 50.243 69.271 48.91 70.382 47.132 71.271 46.021 71.715 44.465 72.16 43.354 72.382 41.354 72.382 39.576 72.382 37.354 72.382 35.576 71.938 33.132 71.271 31.132 69.938 28.688 69.271 26.91 67.715 25.354 65.938 22.91 64.604 21.576 62.16 19.799 60.604 18.688 57.715 17.132 55.937 16.243 53.049 15.576 51.271 15.576 48.826 15.354 47.271 15.354 45.049 15.576 43.715 16.243 42.16 17.799 41.271 18.91 39.938 20.688 39.493 22.465 38.604 24.91 38.382 26.465 38.16 28.243 38.16 31.132 38.16 32.91 38.604 35.354 39.493 36.91 40.826 39.576 42.16 41.132 45.049 44.465 47.493 46.465 50.826 48.91 53.271 50.688 57.049 52.91 59.938 54.465 64.604 56.465 67.049 57.354 71.049 58.91 73.049 59.799 75.049 60.91 76.826 61.799 77.938 62.465 79.049 63.354 79.493 63.576 79.715 64.021 79.715 64.465 79.715 65.132 79.715 65.576 79.715 66.465 79.715 66.91 79.715 67.576 79.493 67.799 79.049 68.243 78.604 69.132 77.493 70.021 76.604 70.465 75.049 71.799 73.715 72.688 72.604 73.354 71.049 74.021 69.715 74.465 67.271 74.688 65.271 74.91 61.938 74.91 59.049 74.91 55.271 74.91 52.826 74.688 49.715 74.688 47.938 74.688 46.382 74.688 45.938 74.688 46.382 74.688 47.271 74.688 48.16 74.243 50.604 73.576 52.604 73.354 55.493 73.354 57.493 73.354 60.16 73.354 62.382 73.799 65.715 74.465 67.938 74.688 69.938 75.132 70.604 75.576 71.049 76.021 70.826 76.021 69.049 76.243 66.382 76.243 60.826 76.243 57.493 76.465 52.16 77.576 49.493 78.021 46.16 78.021 43.715 78.021 41.493 78.021 41.049 78.021 41.271 78.021 41.493 78.021 42.16 77.799 43.938 76.688 48.16 74.91 50.604 73.799 53.271 72.465 58.16 70.91 60.826 69.576 63.938 68.021 65.938 67.132 67.493 66.465 67.938 66.243 67.938 66.021 65.715 65.354 56.382 63.132 46.604 60.688 28.826 56.688 20.382 54.688 10.604 52.91 7.938 52.465 5.715 52.021 5.493 51.799 5.493 51.576 5.493 51.354 5.938 49.576 7.493 47.799 10.826 45.576 13.715 44.688 18.826 42.465 22.604 41.132 27.271 40.243 30.16 40.021 33.049 39.799 34.382 39.799 35.715 40.021 35.715 40.465 35.271 40.91 34.16 41.576 33.049 42.021 30.826 43.132 29.715 43.576 27.938 44.465 27.493 44.688 27.493 45.132 27.938 45.576 32.826 47.132 41.049 47.576 57.715 47.576 70.16 46.91 87.938 42.91 96.382 40.91 100.0 37.132 100.0 36.021 100.0 35.132 100.0 35.132 100.0 35.132 100.0 35.132 100.0 35.132 100.0 35.132 100.0 35.132 100.0 35.354 100.0 35.576 98.382 36.465 95.271 36.91 88.382 37.132 83.271 37.576 76.604 39.132 73.715 39.576 71.271 40.243 70.826 40.465 70.604 40.688 70.604 40.465 71.049 39.354 71.715 37.799 72.826 36.243 74.382 33.799 75.493 31.576 76.826 28.021 78.16 25.354 79.715 21.354 80.382 19.354 80.604 16.465 80.826 14.465 80.826 12.021 79.938 10.688 79.049 9.576 76.16 8.021 73.715 7.576 68.604 7.576 64.382 8.243 54.382 11.799 47.271 15.354 36.382 20.688 31.493 24.243 23.715 31.576 19.271 36.91 15.271 43.576 14.604 46.021 14.604 49.132 15.493 50.465 18.604 52.91 21.271 54.243 25.049 55.576 34.16 57.799 39.493 58.688 47.938 59.799 52.382 59.799 59.938 59.354 64.826 58.465 70.382 56.243 73.049 54.688 75.493 52.91 76.16 51.576 76.382 49.799 76.382 47.799 75.938 45.132 75.049 43.132 72.826 40.243 71.049 38.465 68.604 36.688 66.382 35.576 64.16 35.132 60.382 35.132 57.715 35.576 52.382 37.132 47.493 39.354 40.826 43.799 37.715 46.021 32.826 50.91 31.049 54.465 30.604 58.465 30.604 60.465 31.049 63.354 31.938 64.91 33.493 66.91 34.826 68.021 36.16 69.132 37.271 69.576 37.938 69.799 38.826 70.021 39.493 70.243 41.493 70.243 43.715 70.243 48.16 70.243 51.493 70.243 56.604 70.021 59.493 69.576 62.16 68.91 63.271 68.465 63.493 68.243 63.493 68.021 63.271 66.91 61.715 63.576 60.382 60.91 58.16 55.799 56.382 52.91 54.382 49.799 51.938 45.132 50.382 42.465 48.604 39.576 47.049 37.799 45.049 35.576 43.493 34.243 40.604 33.132 37.493 32.91 32.16 32.91 25.938 34.465 15.715 38.91 8.604 42.465 0.0 50.91 0.0 55.799 0.0 63.354 0.0 68.021 0.0 72.021 0.0 76.465 0.0 78.688 0.0 81.576 0.0 82.91 0.0 84.91 0.0 86.243 0.0 87.799 0.0 88.688 0.0 91.132 0.16 92.243 4.604 94.021 7.493 94.465 12.604 95.132 16.382 95.132 23.715 95.132 29.493 95.132 39.271 92.91 45.493 91.132 51.493 89.799 61.271 87.576 65.271 86.91 71.938 85.799 75.049 84.91 79.493 83.576 81.938 82.91 83.938 82.021 84.16 82.021 84.382 82.021 84.16 82.021 83.938 82.021" stroke="#000000" fill="none" stroke-width=".9" stroke-linecap="round" stroke-linejoin="round"/></svg>