<svg version="1.1" baseProfile="full" width="100%" height="100%" viewBox="0 0 100 100" xmlns="http://www.w3.org/2000/svg"><polyline points="0.0 68.701 0.702 68.701 2.105 68.701 2.807 68.701 3.86 68.701 5.263 68.701 6.316 68.701 7.719 68.701 9.123 68.701 10.175 68.701 11.579 68.701 12.632 68.701 14.035 68.701 15.439 68.701 16.491 68.701 17.895 68.701 18.947 68.701 20.0 68.701 21.053 68.701 22.456 68.701 23.86 68.701 25.263 68.701 27.018 68.701 29.123 68.701 30.877 68.701 32.632 68.701 34.386 68.701 36.14 69.052 37.895 69.052 39.649 69.402 41.404 69.402 43.158 69.753 45.263 69.753 47.018 70.104 48.421 70.104 50.175 70.455 51.93 70.455 53.333 70.806 55.088 70.806 56.842 70.806 58.596 70.806 60.351 70.806 61.754 70.806 63.86 70.806 65.263 70.806 66.667 70.806 68.07 71.157 69.825 71.157 71.228 71.157 72.632 71.157 73.684 71.157 74.386 71.157 75.439 71.157 76.491 71.157 77.544 71.157 78.246 71.157 79.649 71.157 80.702 71.157 81.754 71.157 82.807 70.806 84.211 70.806 85.263 70.806 86.316 70.806 87.018 70.455 87.719 70.455 88.772 70.455 89.474 70.455 90.526 70.455 91.228 70.455 92.281 70.455 92.982 70.104 93.684 70.104 94.386 70.104 94.737 70.104 95.088 70.104 95.439 70.104 95.789 70.104 96.14 70.104 96.491 70.104 96.491 69.753 96.491 69.402 96.491 69.052 96.491 68.701 96.491 68.35 96.491 67.999 96.491 67.297 96.491 66.946 96.491 65.894 96.491 65.192 96.14 64.139 96.14 62.736 96.14 61.683 96.14 59.929 95.789 58.174 95.439 56.069 95.439 53.964 95.088 51.859 94.737 49.052 94.737 46.245 94.386 43.438 94.035 40.63 94.035 37.823 94.035 34.666 94.035 31.508 94.035 28.35 93.684 25.543 93.333 23.087 92.982 20.63 92.281 18.525 91.579 16.42 91.228 14.315 90.877 12.56 90.526 11.157 90.175 10.455 89.825 9.753 89.474 9.402 89.123 9.402 88.772 9.402 88.421 9.402 88.07 9.402 87.368 9.402 87.018 9.402 86.316 9.052 85.614 9.052 84.561 9.052 83.86 8.701 82.456 8.701 80.702 8.701 79.298 8.701 77.193 8.701 75.088 8.701 72.632 8.701 69.825 8.701 65.965 8.701 62.456 9.052 58.246 9.753 54.035 10.806 49.474 11.508 45.263 12.56 40.702 12.911 36.842 13.613 32.982 13.964 29.474 14.315 25.965 14.666 22.456 15.367 19.298 15.718 16.842 15.718 14.386 16.069 12.281 16.42 10.877 16.771 9.825 17.122 9.123 17.473 8.421 17.823 7.719 18.525 7.368 18.876 7.368 19.578 7.018 20.28 7.018 20.981 6.667 21.683 6.316 22.736 6.316 23.438 5.965 24.139 5.614 24.841 5.263 25.894 5.263 26.946 4.912 27.648 4.561 28.701 4.561 29.753 4.211 31.157 4.211 32.56 3.86 33.964 3.86 35.367 3.509 36.771 3.158 38.174 3.158 39.578 3.158 41.332 2.807 43.087 2.807 44.841 2.807 46.595 2.807 48.35 2.807 50.104 2.807 52.209 2.807 53.964 2.807 55.718 2.807 57.122 2.807 58.525 2.807 59.578 2.807 60.63 2.807 61.683 2.807 62.736 2.807 63.438 2.807 64.139 2.807 64.49 2.807 64.841 2.807 65.192 3.158 65.192 3.509 65.192 3.86 65.192 4.211 65.192 4.561 65.192 4.912 65.192 5.263 65.192 5.614 65.192 5.614 64.841 5.965 64.49 5.965 64.139 6.316 63.438 6.316 63.087 6.667 62.385 7.018 61.683 7.368 60.63 7.719 59.929 8.772 58.525 9.825 57.122 11.228 55.016 14.035 51.508 17.544 46.946 22.105 42.034 28.07 36.069 32.632 31.157 37.544 26.245 40.702 22.736 42.807 20.28 44.211 18.525 44.912 17.122 45.263 16.42 45.263 16.069 45.263 15.718 45.263 15.367 45.614 15.367 45.614 15.718 45.614 16.069 45.614 16.42 45.614 16.771 45.614 17.122 45.614 17.823 45.614 18.174 45.614 18.876 45.614 19.929 45.614 21.332 45.614 23.087 45.614 25.543 45.614 28.35 45.965 32.56 45.965 37.122 45.965 41.332 45.965 45.192 45.965 49.753 46.316 52.911 47.018 55.367 47.719 57.823 48.07 60.28 48.772 62.385 49.123 63.788 49.474 65.192 49.474 66.595 49.825 67.648 49.825 68.35 49.825 68.701 50.175 69.052 50.175 69.402 50.526 69.402 50.877 69.402 50.877 69.052 50.877 68.701 51.228 68.701 51.228 68.35 51.228 67.999 51.228 67.648 51.579 67.297 51.579 66.946 51.579 66.595 51.93 66.245 51.93 65.543 52.281 64.841 52.281 63.788 52.632 62.736 52.982 60.981 53.333 59.578 54.035 57.473 55.088 54.666 56.491 51.859 57.895 47.999 59.298 44.49 60.351 40.981 61.404 37.823 62.807 34.666 63.86 30.806 64.912 27.648 65.614 24.49 66.316 21.332 67.018 18.876 67.368 16.771 67.719 14.666 68.07 12.911 68.421 11.859 68.772 10.806 69.123 10.455 69.474 9.753 69.825 9.753 70.175 9.753 70.526 10.104 70.526 10.806 70.526 11.157 70.526 11.859 70.526 12.911 70.526 13.964 70.877 15.016 70.877 16.42 71.228 17.823 71.579 19.578 71.93 21.332 72.281 23.438 72.281 25.543 72.632 27.648 72.632 29.753 72.982 31.859 72.982 34.315 73.333 36.42 73.684 38.876 74.035 40.981 74.386 43.788 75.088 46.595 75.088 49.052 75.439 51.508 75.439 54.315 75.789 56.42 75.789 58.525 76.14 60.63 76.14 62.736 76.491 64.49 76.491 65.894 76.842 67.297 76.842 67.999 77.193 68.701 77.193 69.402 77.193 69.753 77.193 70.104 77.544 70.455 77.544 70.806 77.544 71.157 77.544 71.508 77.544 71.859 77.544 72.209 77.544 72.56 77.544 72.911 77.544 73.262 77.544 73.613 77.544 73.964 77.544 74.315 77.544 74.666 77.193 75.016 77.193 75.367 77.193 76.069 76.842 76.42 76.842 76.771 76.491 77.122 76.491 77.473 76.491 77.823 76.14 78.174 75.789 78.876 75.789 79.227 75.439 79.929 75.439 80.63 75.088 80.981 74.737 82.034 74.737 82.736 74.386 83.438 74.035 83.788 74.035 84.49 73.684 85.192 73.684 85.894 73.333 86.595 72.982 86.946 72.281 87.648 72.281 88.35 71.579 89.052 71.579 89.753 71.228 90.455 70.877 91.157 70.526 91.859 70.175 92.56 69.825 92.911 69.123 93.613 68.772 93.964 68.421 94.315 68.07 94.666 67.368 95.016 67.018 95.367 66.667 95.367 66.316 95.718 65.965 95.718 65.614 96.069 65.263 96.069 64.912 96.42 64.561 96.42 64.211 96.42 63.86 96.771 63.158 96.771 62.807 96.771 62.105 96.771 61.754 96.771 61.404 97.122 61.053 97.122 60.702 97.122 60.351 97.122 60.0 97.122 59.649 97.122 59.298 97.122 58.947 97.122 58.596 97.122 58.246 97.122 57.895 97.122 57.544 97.122 57.193 97.122 56.491 97.122 55.789 97.122 54.737 97.122 53.684 97.122 52.632 97.122 51.93 96.771 51.228 96.771 50.526 96.771 50.175 96.42 49.825 96.069 49.474 96.069 49.123 95.718 48.772 95.367 48.421 94.666 47.719 94.315 47.368 93.613 46.667 92.911 45.965 91.859 45.263 90.806 44.912 89.753 44.561 89.052 44.561 87.648 44.211 86.946 44.211 85.894 44.211 84.841 44.211 83.438 44.211 82.385 44.211 80.63 44.211 79.578 44.211 78.525 44.211 76.771 44.211 75.718 44.211 74.666 44.211 73.613 44.211 72.56 44.211 71.508 44.211 70.455 44.211 69.402 44.211 68.701 44.211 67.999 44.211 67.297 44.211 66.946 44.211 66.595 44.211 66.245 43.86 66.245 43.509 66.245 43.158 66.245 42.807 66.245 42.456 66.245 42.105 66.245 41.754 66.595 41.404 66.946 41.053 67.297 40.351 67.999 39.649 69.402 38.596 70.806 37.544 72.209 36.842 73.613 35.789 74.315 34.386 75.367 33.333 76.42 32.281 77.473 30.877 78.525 29.123 79.578 27.719 80.981 25.965 82.034 24.912 83.087 23.509 83.788 22.456 84.49 21.053 85.192 20.0 85.894 18.947 86.595 18.246 87.297 17.544 87.648 17.193 87.999 16.491 88.35 16.14 88.35 15.789 88.701 15.439 88.701 15.088 89.052 14.386 89.052 14.035 89.052 13.684 89.052 13.333 89.052 12.982 88.701 12.982 87.999 12.632 87.297 11.93 86.245 11.579 85.192 11.228 84.139 10.526 83.087 10.175 82.034 9.474 80.981 9.123 79.929 8.772 79.227 8.421 78.525 8.421 77.823 8.07 77.122 7.719 76.42 7.368 75.718 7.018 75.016 6.667 74.315 6.316 73.262 5.965 72.56 5.614 72.209 5.614 71.508 5.263 70.806 4.912 70.455 4.561 70.104 4.211 69.753 3.86 69.753 3.509 69.753 3.158 69.753 2.807 69.753 2.807 70.104 2.807 70.455 2.807 70.806 2.456 70.806 2.456 70.455 2.456 70.104 2.456 69.753 2.456 69.402 2.105 69.402 2.105 69.052 2.105 68.701 2.105 68.35 1.754 67.999 1.754 67.648 1.754 67.297 1.404 66.946 1.404 66.245 1.053 65.894 0.702 65.192 0.702 64.49 0.702 63.788 0.351 63.087 0.351 62.034 0.0 60.981 0.0 59.929 0.0 58.525 0.0 56.771 0.0 55.367 0.0 53.613 0.0 51.508 0.0 49.402 0.0 47.297 0.0 44.841 0.0 42.736 0.0 39.578 0.0 36.771 0.0 33.613 0.0 30.455 0.0 27.297 0.0 24.49 0.0 21.332 0.0 18.174 0.0 15.367 0.0 12.911 0.0 9.753 0.0 7.297 0.0 4.841 0.0 2.034 0.0 0.0 0.0 0.0 0.0 0.0 0.0 0.0 0.0 0.0 0.0 0.0 0.351 0.0 1.404 0.0 2.105 0.0 2.807 0.0 3.86 0.0 4.561 0.0 5.263 0.0 5.965 0.0 7.018 0.0 7.719 0.0 9.123 0.0 10.526 0.0 11.93 0.0 13.684 0.0 16.14 0.0 18.246 0.0 20.351 0.0 22.807 0.0 25.263 0.0 27.018 0.0 28.772 0.0 29.825 0.0 30.526 0.0 31.228 0.0 31.579 0.0 31.93 0.0 32.632 0.0 32.982 0.0 33.333 0.0 34.035 0.0 34.386 0.0 34.737 0.0 35.088 0.0 35.439 0.0 35.789 0.0 36.14 0.0 36.491 0.0 36.842 0.0 37.193 0.0 37.544 0.0 37.895 0.0 38.246 0.0 38.246 0.0 38.596 0.0 38.947 0.0 39.298 0.0 39.649 0.0 40.0 0.0 40.351 0.0 40.702 0.0 41.053 0.0 41.404 0.0 42.105 0.0 42.807 0.0 43.158 0.0 43.86 0.0 44.561 0.0 45.263 0.0 45.614 0.0 46.316 0.0 47.018 0.0 47.719 0.0 48.421 0.0 49.474 0.0 49.825 0.0 50.175 0.0 50.526 0.0 50.877 0.0 51.228 0.0 51.228 0.0 51.579 0.0 51.579 0.0 51.579 0.0 51.579 0.0 51.579 0.0 51.579 0.0 51.579 0.28 51.579 1.332 51.579 2.034 51.579 3.087 51.579 4.139 51.579 5.192 51.228 6.245 50.877 7.297 50.526 8.35 50.526 9.402 50.175 10.455 49.825 11.508 49.474 13.262 48.772 14.666 48.421 15.718 48.07 17.473 47.719 18.525 47.018 19.929 47.018 20.981 46.316 22.385 46.316 23.438 45.965 24.841 45.263 25.894 44.912 26.946 44.561 28.35 44.561 29.402 44.211 30.455 43.86 32.209 43.86 33.262 43.509 34.315 43.158 35.718 42.807 37.122 42.807 38.525 42.456 39.578 42.456 40.981 42.105 42.034 42.105 43.087 41.754 44.49 41.754 45.543 41.404 46.595 41.404 47.999 41.053 49.052 41.053 50.455 41.053 52.209 40.702 53.262 40.702 54.315 40.351 55.718 40.351 56.771 40.0 58.174 40.0 59.227 39.649 60.981 39.649 62.034 39.649 63.438 39.649 64.49 39.649 65.192 39.649 65.543 39.649 66.245 39.649 66.595 40.0 66.946 40.351 67.297 40.702 67.297 41.053 67.648 41.754 67.648 42.807 67.648 43.509 67.648 44.211 67.648 45.263 67.648 46.316 66.946 48.772 65.543 52.632 63.087 57.544 60.28 63.158 56.771 68.772 53.262 74.386 50.104 79.649 47.297 83.158 45.192 86.667 43.087 89.474 40.981 92.281 39.227 94.386 38.174 96.491 37.122 97.895 36.42 98.947 36.42 99.649 36.42 99.649 37.473 99.649 38.525 98.947 39.929 98.246 41.332 97.544 42.736 96.842 44.841 95.789 46.595 95.088 48.35 94.386 50.455 94.035 52.56 93.684 53.964 93.333 55.367 93.333 56.069 93.333 56.42 93.333 56.771 93.684 56.771 94.035 56.771 94.386 57.122 94.737 58.174 95.088 59.227 95.439 60.63 95.789 62.385 95.789 64.139 95.789 65.543 95.088 66.946 94.386 67.999 93.333 68.701 92.632 69.402 92.281 69.753 91.93 70.455 91.93 72.209 91.93 73.964 92.281 76.771 94.035 80.28 95.439 83.087 96.491 84.841 97.544 86.245 97.895 86.946 97.895 87.297 97.544 87.297 96.14 87.297 94.737 87.297 94.035 87.297 93.684 87.297 94.737 88.701 96.14 90.455 97.193 91.859 97.193 93.262 97.193 94.315 96.491 95.016 94.737 95.718 93.333 96.42 92.281 97.122 91.579 97.823 91.579 99.227 91.579 100.0 91.93 100.0 93.333 100.0 94.035 100.0 94.737 100.0 95.088 100.0 95.088 100.0 95.439 100.0 95.439 100.0 95.789 100.0 95.789 100.0 95.789 100.0 95.789 100.0 95.439 100.0 95.088 100.0 94.737 100.0 94.737 100.0 94.737 100.0 94.737 100.0 94.737 100.0 94.737 100.0 94.386 100.0 94.386 100.0 94.386 100.0 94.386 100.0 94.386 100.0 94.035 100.0 94.035 100.0 93.684 100.0 93.333 100.0 92.982 100.0 92.632 100.0 91.93 100.0 91.228 100.0 89.474 100.0 88.07 100.0 85.965 100.0 82.807 100.0 78.596 100.0 65.614 100.0 61.053 100.0 50.175 100.0 46.316 100.0 44.211 100.0 43.509 100.0 43.158 100.0 43.509 100.0 43.509 100.0 43.509 100.0 43.158 100.0 43.158 100.0 43.158 100.0 43.158 100.0 43.158 100.0 42.807 98.876 42.807 95.718 42.807 91.508 43.158 85.894 44.561 81.683 46.316 76.771 48.421 72.56 50.877 69.052 52.982 66.245 55.439 63.788 58.246 62.034 60.351 60.981 62.807 60.28 64.912 59.929 66.316 59.929 67.368 59.929 67.719 59.929 68.07 59.929 68.421 60.28 68.421 60.63 68.772 61.683 68.772 62.385 69.123 63.438 69.123 64.49 69.123 65.894 69.123 67.999 68.772 71.859 66.316 76.42 63.158 81.683 57.895 87.999 52.281 93.613 47.368 98.174 43.509 100.0 41.053 100.0 39.649 100.0 38.947 100.0 38.596 100.0 38.596 100.0 38.596 99.929 38.246 98.525 37.895 97.122 37.193 96.069 36.14 94.666 34.737 93.613 33.684 92.56 32.281 91.859 30.526 90.806 28.772 89.753 27.018 89.052 25.263 88.35 23.509 87.297 21.404 86.595 19.649 85.894 17.895 85.192 15.789 84.841 14.035 84.49 12.281 84.49 10.526 84.49 9.123 84.49 7.368 84.49 6.316 85.192 4.912 85.894 3.86 86.946 2.807 87.999 1.754 88.701 1.053 89.753 0.0 90.455 0.0 91.508 0.0 91.859 0.0 92.56 0.0 93.262 0.0 93.964 0.0 94.666 0.0 95.367 0.0 96.069 0.0 96.771 0.351 97.473 1.404 97.823 2.105 98.525 2.807 98.876 3.509 99.578 4.561 99.929 5.614 100.0 7.018 100.0 8.421 100.0 9.825 100.0 11.228 100.0 12.632 100.0 14.386 100.0 16.491 100.0 20.351 100.0 24.912 100.0 29.474 100.0 33.684 100.0 37.895 100.0 40.702 100.0 43.86 100.0 46.667 100.0 49.474 100.0 52.281 100.0 55.439 100.0 59.298 100.0 62.105 99.929 65.614 99.578 68.772 99.227 71.93 99.227 75.088 98.525 78.246 98.174 80.702 97.823 83.158 97.473 85.614 97.122 87.719 96.771 89.123 96.771 90.526 96.771 91.579 96.771 92.632 96.771 93.684 96.771 94.386 96.771 95.088 96.771 95.789 96.771 96.491 96.771 97.544 96.771 98.246 96.771 98.947 96.771 99.649 96.771 100.0 96.771 100.0 96.771 100.0 97.122 100.0 97.122 100.0 97.473 100.0 97.823 100.0 98.174 100.0 98.525 100.0 98.876 100.0 99.227 100.0 99.578 99.649 99.929 98.596 100.0 97.193 100.0 95.439 100.0 93.333 100.0 90.877 100.0 87.719 100.0 84.561 100.0 80.0 100.0 75.088 100.0 69.474 100.0 64.211 100.0" stroke="#000000" fill="none" stroke-width=".9" stroke-linecap="round" stroke-linejoin="round"/></svg>