<svg version="1.1" baseProfile="full" width="100%" height="100%" viewBox="0 0 100 100" xmlns="http://www.w3.org/2000/svg"><polyline points="23.559 18.91 23.781 18.91 24.003 19.354 24.226 19.576 24.448 20.021 24.67 20.243 24.892 20.688 25.115 20.91 25.115 21.132 25.337 21.132 25.337 21.354 25.559 21.354 25.781 21.576 26.226 21.799 26.892 22.243 27.781 22.688 29.115 23.576 30.226 24.021 31.559 24.465 32.67 24.688 34.003 24.91 34.892 24.91 35.781 24.465 36.448 24.021 36.892 23.576 37.115 22.688 37.337 21.799 37.337 21.354 37.337 20.688 37.115 20.021 36.892 19.576 36.448 18.91 36.226 18.465 36.003 18.243 35.559 18.021 35.115 17.799 34.892 17.576 34.67 17.576 34.448 17.576 34.226 17.576 33.781 17.799 33.559 18.021 33.337 18.243 33.115 18.243 32.892 18.465 32.67 18.688 32.448 18.91 32.003 19.576 31.781 20.021 31.559 20.243 31.337 20.465 31.337 20.91 31.115 21.354 30.892 22.021 30.892 22.243 30.892 22.465 30.892 23.132 30.892 23.354 31.115 23.799 31.337 24.021 32.003 24.465 32.67 24.91 33.781 25.354 34.67 26.021 35.559 26.465 36.448 27.132 37.781 27.354 38.892 27.799 40.226 28.021 42.003 28.243 43.559 28.465 45.337 28.688 47.337 28.688 49.115 28.688 51.115 28.243 52.67 27.576 54.448 26.687 55.559 25.799 56.448 24.688 56.892 23.354 57.115 22.243 57.115 21.354 56.67 20.243 56.003 19.576 55.337 18.688 54.67 18.243 54.003 17.799 53.115 17.354 52.448 17.132 52.226 16.91 52.003 16.91 51.781 16.91 51.559 16.91 51.115 16.91 50.892 17.132 50.226 17.354 49.559 17.799 48.892 18.243 48.003 18.688 47.559 19.354 47.337 19.576 46.892 20.021 46.67 20.465 46.448 20.91 46.226 21.576 46.226 22.021 46.003 22.688 46.003 23.132 46.003 23.576 46.003 24.021 46.003 24.465 46.003 24.688 46.226 25.132 46.226 25.576 46.67 26.021 46.892 26.243 47.115 26.465 47.337 26.687 48.003 27.132 48.448 27.354 48.892 27.576 49.115 27.799 49.559 27.799 50.226 28.021 50.67 28.021 51.115 28.243 52.003 28.243 52.448 28.243 53.115 28.243 53.781 28.243 54.67 28.243 56.003 28.243 56.67 28.243 57.559 28.021 58.226 27.576 58.892 27.354 59.559 27.132 60.448 26.687 61.115 26.465 61.781 26.243 62.448 25.799 63.115 25.354 63.781 24.91 64.226 24.465 64.448 24.243 64.67 24.243 64.67 24.465 64.67 24.688 64.67 25.132 64.67 25.799 64.67 26.243 64.67 26.687 64.67 27.132 64.448 27.576 64.226 28.021 64.003 28.465 64.003 28.91 63.781 29.354 63.337 29.799 63.115 30.243 62.892 30.91 62.448 31.132 62.226 31.576 61.781 32.021 61.115 32.688 60.226 33.354 59.337 33.799 58.448 34.91 57.559 35.354 56.67 35.799 55.781 36.243 54.448 36.688 53.559 37.132 52.67 37.354 51.559 37.576 50.67 38.021 49.337 38.465 48.003 38.465 47.115 38.688 45.781 38.688 44.892 38.688 44.003 38.688 42.892 38.91 39.781 38.91 39.115 38.688 38.226 38.688 37.559 38.465 36.448 38.021 35.559 37.799 34.892 37.354 34.226 37.132 33.559 36.91 32.892 36.688 32.448 36.243 32.003 36.021 31.337 35.354 30.67 34.91 30.226 34.465 29.781 34.243 29.337 33.799 28.892 33.354 28.448 32.91 28.003 32.243 27.781 32.021 27.337 31.576 27.115 31.132 26.892 30.688 26.67 30.021 26.448 29.576 26.226 29.132 26.003 28.688 25.781 28.021 25.559 27.576 25.559 27.132 25.337 26.687 25.337 26.465 25.115 25.799 24.892 25.576 24.892 25.132 24.892 24.688 24.67 24.243 24.67 24.021 24.448 23.576 24.448 23.354 24.226 23.132 24.226 22.91 24.226 22.688 24.003 22.243 24.003 22.021 24.003 21.799 24.003 21.132 23.781 20.91 23.781 20.465 23.781 20.243 23.559 20.021 23.559 19.799 23.559 19.576 23.559 19.354 23.559 19.132 23.559 18.91 23.781 18.91 24.003 18.91 24.226 19.132 24.448 19.132 24.67 19.354 24.892 19.576 25.115 19.576 25.337 19.799 25.559 20.021 25.559 20.243 25.781 20.465 26.003 20.688 26.003 20.688 26.226 20.91 26.226 21.132 26.226 21.354 26.67 21.576 26.67 21.799 26.892 21.799 26.892 22.021 26.892 22.243 26.892 22.243 26.892 22.465 26.892 22.688 27.115 23.132 27.115 23.354 27.115 23.576 27.337 23.799 27.559 23.799 27.559 24.021 27.559 24.243 27.781 24.465 27.781 24.688 28.003 24.91 28.226 25.132 28.448 25.354 28.448 25.576 28.67 25.799 28.892 26.021 29.115 26.021 29.337 26.243 29.559 26.465 30.003 26.91 30.226 27.132 30.448 27.132 30.67 27.354 31.115 27.576 31.337 27.799 31.559 27.799 31.781 28.021 32.226 28.021 32.448 28.243 32.67 28.243 32.892 28.688 33.115 28.688 33.337 28.688 33.559 28.91 33.781 28.91 34.226 28.91 34.448 29.132 34.892 29.354 35.337 29.354 35.781 29.799 36.226 29.799 36.67 30.021 36.892 30.021 37.337 30.243 37.781 30.243 38.448 30.465 38.892 30.688 39.559 30.91 40.003 30.91 40.67 31.132 41.115 31.354 41.781 31.576 42.226 31.799 42.892 31.799 43.337 31.799 44.003 32.243 44.448 32.243 45.115 32.243 45.781 32.243 46.226 32.465 46.67 32.465 47.115 32.465 47.559 32.465 48.003 32.465 48.67 32.465 49.115 32.465 49.781 32.465 50.448 32.465 50.892 32.465 51.337 32.243 51.781 32.243 52.448 32.021 52.892 31.799 53.559 31.576 54.003 31.354 54.226 31.354 54.892 31.132 55.115 30.91 55.781 30.688 56.003 30.688 56.448 30.465 56.67 30.465 57.115 30.243 57.337 30.243 57.781 30.021 58.003 30.021 58.448 29.799 58.67 29.799 58.892 29.576 59.559 29.354 59.781 29.354 60.003 29.132 60.448 28.91 60.67 28.91 61.115 28.688 61.337 28.243 61.781 28.021 62.226 28.021 62.448 28.021 62.67 27.799 62.892 27.799 62.892 27.576 63.115 27.576 63.337 27.354 63.559 27.354 63.559 27.132 63.781 26.91 63.781 26.687 64.003 26.465 64.003 26.243 64.003 26.021 64.226 26.021 64.226 25.799 64.448 25.576 64.448 25.354 64.67 25.132 64.67 25.132 64.67 24.91 64.892 24.91 64.892 24.688 64.67 24.688 64.448 24.91 64.226 24.91 64.003 24.91 63.781 25.132 63.559 25.132 63.559 25.354 63.337 25.354 63.115 25.354 63.115 25.354 62.67 25.354 62.67 25.576 62.448 25.576 62.226 25.576 62.226 25.799 62.226 25.799 62.226 26.021 62.003 26.021 61.781 26.021 61.559 26.243 61.337 26.243 61.337 26.465 61.115 26.465 60.892 26.465 60.448 26.687 60.226 26.687 60.003 27.132 59.781 27.132 59.559 27.132 59.337 27.354 59.115 27.354 58.892 27.576 58.67 27.576 58.448 27.799 58.226 27.799 58.003 27.799 57.781 28.021 57.559 28.021 57.337 28.243 57.337 28.243 57.115 28.243 57.115 28.465 56.892 28.465 56.892 28.688 56.892 28.91 56.892 29.132 56.892 29.354 56.67 29.576 56.67 29.799 56.67 30.021 56.67 30.465 56.67 30.91 56.67 31.354 56.67 31.576 56.67 31.799 56.67 32.021 56.67 32.243 56.67 32.465 56.67 32.688 56.67 32.91 56.67 33.132 56.67 33.132 56.67 33.354 56.67 33.576 56.67 33.799 56.67 34.021 56.67 34.243 56.67 34.243 56.67 34.465 56.67 34.688 56.67 34.91 56.67 35.132 56.67 35.354 56.67 35.576 56.67 35.799 56.448 35.799 56.448 36.021 56.226 36.021 56.003 36.243 55.781 36.243 55.781 36.465 55.559 36.465 55.337 36.688 55.115 36.688 54.892 36.688 54.67 36.688 54.67 36.91 54.67 36.91 54.448 36.91 54.448 37.354 54.226 37.354 54.003 37.354 54.003 37.354 53.781 37.354 53.559 37.354 53.337 37.354 53.115 37.576 52.892 37.576 52.67 37.799 52.448 37.799 52.003 37.799 51.781 38.021 51.559 38.021 51.337 38.021 51.115 38.021 50.892 38.243 50.892 38.243 50.67 38.243 50.448 38.465 50.226 38.465 50.003 38.465 49.781 38.465 49.781 38.465 49.559 38.465 49.337 38.465 49.337 38.465 49.115 38.465 48.892 38.465 48.892 38.688 48.67 38.688 48.448 38.688 48.226 38.688 48.003 38.688 48.003 39.132 47.781 39.132 47.559 39.132 47.337 39.132 47.115 39.132 47.115 38.688 47.115 38.465 47.115 38.021 47.115 37.576 46.892 37.132 46.892 36.688 46.892 36.465 46.892 36.021 46.892 35.132 46.892 34.688 46.67 34.465 46.67 34.021 46.448 33.576 46.226 33.132 46.226 32.465 46.003 32.021 45.781 31.354 45.781 30.91 45.559 30.688 45.559 30.465 45.559 29.799 45.337 29.576 45.337 29.354 45.337 29.132 45.337 28.91 45.337 28.688 45.337 28.465 45.115 28.465 45.115 28.243 44.892 28.243 44.67 28.243 44.448 28.243 44.226 28.465 44.003 28.688 43.559 28.688 43.115 28.688 42.892 28.688 42.67 28.688 42.226 28.688 42.003 28.688 41.781 28.688 41.559 28.688 41.337 28.688 41.115 28.688 40.892 28.688 40.67 28.688 40.67 28.688 40.448 28.688 40.226 28.688 40.003 28.688 39.781 28.688 39.559 28.688 39.337 28.688 39.337 28.465 39.115 28.465 39.115 28.465 38.892 28.465 38.67 28.465 38.67 28.243 38.448 28.243 38.226 28.243 38.226 28.465 38.003 28.688 37.781 28.91 37.337 29.132 36.892 29.576 36.448 30.021 36.003 30.243 35.781 30.688 35.337 30.91 35.115 31.132 34.892 31.354 34.67 31.576 34.448 31.576 34.226 31.576 34.226 32.021 34.003 32.243 33.781 32.243 33.559 32.465 33.337 32.688 33.115 32.91 32.892 33.132 32.67 33.354 32.448 33.354 32.226 33.576 32.003 33.799 32.003 34.021 31.781 34.021 31.781 34.243 31.559 34.243 31.559 34.465 31.337 34.465 31.337 34.688 31.337 34.688 31.337 34.688 31.115 34.688 30.892 34.688 30.67 34.688 30.448 34.688 30.226 34.688 30.003 34.688 29.781 34.688 29.781 34.465 29.559 34.465 29.559 34.243 29.337 34.243 29.337 34.243 29.337 34.021 29.115 34.021 29.115 34.021 29.115 33.799 28.892 33.799 28.892 33.576 28.67 33.576 28.67 33.132 28.448 33.132 28.448 32.91 28.226 32.688 28.226 32.465 28.003 32.465 28.003 32.243 27.781 32.243 27.781 32.021 27.781 32.021 27.559 32.021 27.559 31.799 27.337 31.799 27.337 31.354 27.337 31.354 27.115 31.354 27.115 31.132 26.892 30.91 26.892 30.688 26.67 30.465 26.67 30.243 26.67 30.021 26.892 30.021 27.115 29.799 27.337 29.576 27.781 29.354 28.226 28.91 28.448 28.91 28.67 28.465 28.892 28.465 29.337 28.021 29.559 27.799 30.003 27.576 30.003 27.354 30.226 27.354 30.226 27.132 30.448 26.91 30.448 26.91 30.448 26.687 30.892 26.465 30.892 26.243 30.892 26.021 31.115 25.799 31.337 25.799 31.337 25.576 31.559 25.576 31.559 25.354 31.781 25.354 31.781 25.132 31.781 24.91 32.003 24.91 32.226 24.688 32.226 24.465 32.448 24.465 32.448 24.243 32.448 24.021 32.448 23.799 32.448 23.799 32.448 23.576 32.448 23.354 32.448 23.132 32.448 22.91 32.448 22.688 32.67 22.688 32.67 22.465 32.892 22.465 33.115 22.465 33.337 22.465 33.559 22.465 33.781 22.465 33.781 22.688 33.781 22.688 33.781 22.91 33.781 23.132 33.781 23.354 33.781 23.576 33.781 23.799 33.781 23.799 33.781 24.021 33.781 24.021 33.559 24.021 33.559 24.243 33.337 24.243 33.115 24.243 32.892 24.243 33.115 24.243 33.115 24.465 33.337 24.465 33.559 24.465 33.559 24.688 33.781 24.688 34.003 24.688 34.003 24.91 34.226 24.91 34.226 25.132 34.448 25.132 34.448 25.354 34.67 25.354 34.67 25.576 34.67 25.576 34.67 25.799 34.892 25.799 35.115 26.021 35.337 26.021 35.337 26.243 35.559 26.243 35.781 26.243 35.781 26.465 36.003 26.465 36.226 26.687 36.448 26.687 36.67 26.91 36.892 26.91 36.892 27.132 37.115 27.132 37.337 27.132 37.337 27.576 37.559 27.576 37.781 27.576 38.003 27.576 38.226 27.799 38.448 27.799 38.67 27.799 38.892 27.799 39.115 27.799 39.337 27.799 39.337 27.799 39.559 27.799 39.781 27.799 40.003 27.799 40.226 27.799 40.448 27.799 40.67 27.799 41.115 27.799 41.115 27.799 41.337 27.799 41.781 27.799 42.003 27.799 42.226 27.799 42.448 27.799 42.67 27.799 42.892 27.799 43.115 27.799 43.337 27.799 43.559 27.799 43.781 27.799 44.003 27.799 44.448 27.799 44.67 27.799 44.892 27.799 45.337 27.799 45.337 27.799 45.559 27.799 45.781 27.799 46.003 27.799 46.226 27.799 46.448 27.799 46.67 27.799 46.892 27.799 47.115 27.799 47.337 27.799 47.559 27.799 47.559 27.799 47.781 27.799 48.003 27.799 48.226 27.799 48.448 27.799 48.67 27.799 48.892 27.799 49.115 27.799 49.337 27.799 49.559 27.799 49.781 27.799 49.781 27.799 50.003 27.799 49.781 27.799 49.559 27.799 49.559 27.799 49.559 27.576 49.337 27.576 49.337 27.354 49.337 27.132 49.337 26.91 49.337 26.687 49.337 26.465 49.337 26.243 49.337 26.021 49.337 26.021 49.337 25.799 49.559 25.799 49.559 25.576 49.781 25.576 50.003 25.576 50.003 25.354 50.226 25.354 50.448 25.354 50.67 25.354 50.892 25.354 51.115 25.354 51.337 25.354 51.337 25.576 51.559 25.576 51.559 25.799 51.559 26.021 51.559 26.021 51.559 26.243 51.559 26.465 51.559 26.687 51.559 26.91 51.559 27.132 51.337 27.132 51.337 27.354 51.115 27.576 50.892 27.576 50.892 27.799 50.67 27.799 50.67 27.799 50.448 27.799 50.448 28.021 50.226 28.021 50.003 28.021 49.781 28.021 49.781 28.021 49.559 28.021 49.559 27.799 49.559 27.576 49.559 27.354 49.559 27.132 49.559 26.91" stroke="#000000" fill="none" stroke-width=".9" stroke-linecap="round" stroke-linejoin="round"/></svg>