<svg version="1.1" baseProfile="full" width="100%" height="100%" viewBox="0 0 100 100" xmlns="http://www.w3.org/2000/svg"><polyline points="5.365 31.132 5.365 31.132 5.365 30.688 4.698 30.465 4.031 30.021 3.587 29.576 3.365 29.354 2.92 28.91 2.92 28.688 2.92 28.243 2.92 28.021 2.92 27.576 2.92 27.354 2.92 26.687 2.92 26.021 2.92 25.576 2.92 24.91 2.92 24.465 2.92 23.799 2.92 23.354 3.365 23.132 3.587 22.688 4.031 22.021 4.253 21.799 4.476 21.799 4.698 21.799 5.142 22.021 5.587 22.243 6.253 22.688 6.253 22.91 6.253 23.132 6.476 23.354 6.476 24.021 6.476 24.91 6.476 25.799 6.476 26.687 6.476 27.354 6.476 28.465 6.476 29.576 6.476 30.91 6.476 32.021 6.476 32.688 6.253 32.91 6.253 33.354 6.253 33.576 6.031 33.576 5.809 34.021 5.365 34.465 5.142 35.132 4.476 35.576 4.253 36.021 4.031 36.021 3.587 36.021 3.365 36.243 2.92 36.688 2.698 36.688 2.698 37.132 2.698 36.91 2.698 36.243 2.698 35.576 3.142 34.465 3.587 34.021 4.253 33.354 4.698 32.91 5.365 32.688 5.809 32.021 6.476 31.576 6.698 31.354 7.142 31.354 7.142 31.354 7.142 30.91 7.587 30.91 7.809 30.91 8.253 30.688 8.476 30.465 9.142 30.243 9.809 30.021 10.253 29.576 10.698 29.576 10.698 29.576 10.698 29.799 10.253 30.021 9.809 30.465 9.587 31.132 9.365 31.799 9.365 32.465 9.365 32.91 9.365 33.354 9.365 33.576 9.365 33.576 9.587 33.576 9.809 33.576 10.476 34.021 11.142 34.021 11.365 34.021 11.809 34.021 11.809 34.021 12.253 34.021 12.476 33.799 12.92 33.576 13.142 33.132 13.142 32.91 13.587 32.243 13.587 31.799 13.587 31.576 13.587 30.91 13.587 30.465 13.365 30.243 13.142 30.243 13.142 29.799 12.92 29.799 12.92 29.799 12.698 29.799 12.698 29.799 12.476 29.799 12.253 29.799 11.809 29.799 11.809 29.799 11.365 29.799 11.142 30.021 10.92 30.021 10.698 30.243 10.476 30.688 10.476 30.91 10.476 31.132 10.698 31.132 10.92 31.132 11.142 31.132 11.587 31.576 12.476 31.576 13.809 31.576 14.698 31.576 15.365 31.576 15.587 31.576 16.031 31.132 16.031 30.91 16.476 30.91 16.92 30.688 17.365 30.688 17.587 30.243 18.031 30.021 18.031 29.799 18.253 29.132 18.253 28.688 18.253 28.465 18.031 28.465 17.809 28.465 17.809 28.465 17.365 28.688 17.142 28.91 16.476 29.132 16.031 29.576 15.809 29.799 15.587 30.021 15.142 30.243 15.142 30.465 15.142 30.91 15.142 31.132 15.142 31.576 15.142 31.799 15.142 32.243 15.365 32.465 15.587 32.688 15.809 32.91 16.031 33.132 16.253 33.132 16.253 33.576 16.476 33.576 16.698 33.576 16.92 33.799 17.365 33.799 17.587 33.799 18.031 33.799 18.698 34.243 18.92 34.243 19.365 34.243 19.365 34.243 19.809 34.243 20.031 34.021 20.476 33.799 20.698 33.354 21.142 33.132 21.365 32.465 21.809 32.243 22.031 31.576 22.253 31.132 22.253 30.91 22.476 30.465 22.698 30.243 22.698 29.799 22.698 29.354 22.698 29.354 22.698 28.91 22.698 28.688 22.698 28.021 22.698 28.021 22.92 28.021 22.92 27.576 22.92 27.354 23.365 27.132 23.587 26.687 23.587 26.687 24.031 26.687 24.253 26.243 24.698 26.021 25.142 25.576 25.809 25.354 26.031 24.91 26.476 24.688 26.698 24.688 26.698 24.243 26.92 24.243 27.365 24.243 27.587 24.243 28.031 24.243 28.253 24.243 28.698 24.243 28.698 24.021 28.698 24.021 28.476 24.021 28.031 24.021 27.809 24.021 27.587 23.799 27.365 23.799 27.142 23.799 26.92 23.799 26.698 23.799 26.253 23.799 26.031 23.799 25.809 24.021 25.587 24.243 25.365 24.688 25.142 24.688 24.698 25.132 24.698 25.354 24.698 25.576 24.698 25.799 24.698 26.021 24.698 26.243 24.698 26.465 25.142 26.687 25.365 27.132 25.587 27.132 26.031 27.354 26.031 27.576 26.476 28.021 26.698 28.243 26.698 28.688 27.142 28.91 27.365 28.91 27.365 29.354 27.809 29.354 27.809 29.576 28.031 30.021 28.253 30.243 28.253 30.465 28.476 30.91 28.476 31.132 28.476 31.799 28.476 32.465 28.476 33.132 28.476 33.799 28.476 34.465 28.476 34.688 28.476 35.132 28.476 35.576 28.476 35.576 28.031 36.021 27.809 36.243 27.587 36.465 27.365 36.465 27.142 36.688 26.698 36.688 26.031 36.688 25.365 36.688 24.92 36.688 24.698 36.688 24.698 36.465 24.698 36.243 24.698 36.021 24.698 35.799 24.698 35.576 24.92 35.576 25.142 35.576 25.587 35.576 26.031 35.576 26.253 35.576 26.698 35.576 26.92 35.576 27.142 35.576 27.809 36.021 28.253 36.021 28.476 36.021 28.698 36.021 29.142 36.021 29.365 35.799 30.031 35.799 30.698 35.354 31.365 35.354 31.587 35.354 32.031 34.91 32.253 34.688 32.476 34.688 32.698 34.465 32.92 34.243 32.92 34.021 32.92 33.799 33.142 33.576 33.142 33.354 33.142 32.91 33.142 32.688 32.92 32.465 32.698 32.465 32.698 32.465 32.476 32.465 32.253 32.465 31.809 32.465 31.809 32.688 31.365 32.91 31.142 33.132 31.142 33.354 31.142 34.021 31.142 34.243 31.142 34.465 31.142 34.688 31.142 35.132 31.142 35.354 31.142 35.576 31.142 35.799 31.365 35.799 31.809 35.799 31.809 36.021 32.253 36.021 32.476 36.021 32.698 36.021 32.92 36.021 33.587 36.021 33.809 36.021 34.253 36.021 34.92 35.799 35.587 35.576 35.587 35.354 35.587 35.132 35.809 34.688 35.809 34.465 36.031 34.021 36.253 34.021 36.253 33.576 36.476 33.354 36.698 33.354 36.92 33.354 37.365 33.354 37.809 33.354 38.031 33.354 37.809 33.354 37.142 33.354 36.698 33.354 36.031 33.354 35.365 33.799 34.698 34.021 34.476 34.243 34.031 34.465 34.031 34.688 34.031 34.91 34.031 35.132 34.031 35.576 34.031 35.799 34.031 36.021 34.031 36.243 34.476 36.243 34.698 36.243 34.92 36.243 35.142 36.243 35.809 36.243 36.476 36.243 36.92 36.243 37.142 36.243 37.365 36.021 37.365 36.021 37.365 35.576 37.587 35.354 37.587 34.688 37.587 34.465 37.587 34.243 37.587 34.021 37.587 34.243 37.587 34.91 37.809 35.576 37.809 35.799 37.809 36.243 37.809 36.688 38.031 36.91 38.253 36.91 38.253 37.132 38.253 37.132 38.476 37.132 38.698 37.132 38.92 37.132 39.142 37.132 39.365 37.132 39.809 37.132 40.031 36.91 40.476 36.91 40.476 36.688 40.92 36.243 41.142 36.243 41.142 35.799 41.142 35.576 41.587 35.132 41.587 34.688 41.587 34.243 41.587 34.021 41.587 33.799 41.587 33.354 41.587 32.688 41.587 32.021 41.587 31.799 41.587 31.132 41.587 30.91 41.587 30.465 41.587 30.243 41.587 29.799 41.587 29.576 41.365 29.576 41.365 29.354 41.365 28.91 41.365 28.688 41.365 28.021 41.365 27.354 41.365 26.91 41.365 26.91 41.365 26.687 41.365 26.465 41.365 26.687 41.365 26.91 41.365 27.576 41.365 28.688 41.365 29.132 41.365 29.354 41.365 29.799 41.365 30.688 41.365 31.354 41.365 32.021 41.365 32.465 41.365 32.688 41.365 33.132 41.365 33.354 41.365 33.799 41.365 34.465 41.365 35.132 41.365 35.354 41.365 35.132 41.809 34.465 42.031 34.243 42.253 33.799 42.476 33.576 42.698 33.132 42.92 33.132 43.142 32.91 43.365 32.91 43.587 32.91 43.587 32.91 43.587 33.132 43.587 33.354 43.587 33.799 44.031 34.243 44.031 34.91 44.031 35.132 44.031 35.576 44.031 35.799 44.031 36.243 44.031 36.465 44.253 36.465 44.476 36.465 44.698 36.465 44.92 36.465 45.365 36.021 45.809 35.799 46.476 35.354 46.698 35.132 46.92 35.132 46.92 34.688 46.92 34.465 47.142 34.465 47.365 34.465 47.587 34.465 47.809 34.465 48.253 34.465 48.253 34.465 48.031 34.465 47.809 34.465 46.92 34.91 46.253 35.132 45.809 35.576 45.809 35.799 45.587 36.021 45.587 36.465 45.587 36.465 45.587 36.688 45.587 36.91 45.809 36.91 46.031 36.91 46.253 36.91 46.476 36.91 46.92 36.91 47.142 36.91 47.809 36.688 47.809 36.465 48.253 36.021 48.476 35.799 48.92 35.354 48.92 35.354 49.142 35.354 49.142 35.132 49.142 35.354 49.142 35.576 49.142 35.576 49.142 36.021 49.142 36.243 49.142 36.688 49.142 36.91 49.142 36.91 49.587 36.91 49.587 37.132 49.809 37.132 50.031 37.132 50.253 37.132 50.698 36.91 50.92 36.465 50.92 36.243 50.92 35.799 50.92 35.576 51.142 35.354 51.365 35.132 51.587 35.132 52.031 34.91 52.253 34.91 52.476 34.91 52.698 35.132 52.476 35.132 52.253 35.132 52.031 35.132 51.587 35.132 51.142 35.132 50.92 35.354 50.92 35.576 50.698 35.799 50.698 36.243 50.698 36.465 50.698 36.91 50.698 36.91 50.698 37.354 50.698 37.576 50.92 37.576 50.92 37.576 51.365 37.576 51.587 37.576 51.809 37.576 52.253 37.354 52.476 36.91 52.92 36.465 52.92 35.799 53.142 35.132 53.142 34.465 53.142 34.021 53.142 33.354 53.142 32.91 53.142 32.243 53.142 31.799 53.142 31.132 53.142 30.465 53.142 29.799 53.365 29.354 53.365 28.688 53.365 28.465 53.365 28.91 53.365 29.576 53.365 30.243 53.365 30.465 53.365 30.91 53.365 31.576 53.365 32.243 53.365 33.132 53.587 34.021 53.587 34.688 53.587 34.91 53.587 35.354 53.587 35.354 54.031 35.799 54.253 36.021 54.698 36.243 54.92 36.688 55.142 36.688 55.365 36.688 55.587 36.688 55.809 36.688 56.476 36.243 56.92 36.021 57.142 35.576 57.365 35.354 57.365 34.91 57.142 34.688 57.142 34.465 56.92 34.465 56.698 34.465 56.476 34.465 56.476 34.688 56.031 34.91 56.031 35.354 56.031 36.021 56.031 36.465 56.031 36.688 56.031 36.91 56.253 37.132 56.476 37.354 56.92 37.354 57.365 37.576 57.587 37.576 58.031 37.576 58.698 37.576 58.92 37.576 59.142 37.576 59.365 37.354 59.587 36.688 60.031 36.243 60.253 36.243 60.698 36.243 60.92 36.243 61.365 36.021 61.587 35.576 62.031 35.576 62.253 35.132 62.253 34.91 62.253 34.688 62.698 34.688 62.476 34.688 62.253 34.91 62.031 34.91 61.809 35.132 61.587 35.576 61.365 35.799 61.365 36.243 61.142 36.688 61.142 36.91 61.142 37.354 61.142 37.576 61.365 37.799 61.809 38.243 62.031 38.465 62.476 38.91 62.92 38.91 63.142 38.91 63.365 38.91 63.587 38.91 63.809 38.91 64.253 38.688 64.476 38.021 64.92 37.576 65.365 36.91 65.587 36.243 65.587 36.021 65.809 36.021 66.031 36.021 66.698 35.576 67.142 35.354 67.587 35.354 67.587 35.576 67.587 35.799 67.587 36.021 67.142 36.021 67.142 36.243 66.92 36.243 66.92 36.688 66.92 36.91 66.92 37.132 66.92 37.576 66.698 37.576 66.698 38.021 66.476 38.465 66.476 39.132 66.253 39.576 66.253 39.799 66.253 40.243 65.809 40.243 65.587 40.465 65.365 40.688 64.92 41.354 64.698 41.576 64.476 41.576 64.253 41.576 64.031 41.799 63.809 41.799 63.809 41.576 63.809 41.132 63.809 40.688 63.809 40.021 64.253 39.354 64.698 39.132 64.92 38.688 65.587 38.465 66.253 38.021 66.92 37.354 67.365 36.688 67.809 36.688 68.031 36.688 68.031 36.688 68.253 36.688 68.476 36.688 68.92 36.688 69.142 36.243 69.587 36.021 69.809 36.021 70.031 36.021 70.476 35.576 70.476 35.354 70.476 35.132 70.476 34.91 70.698 34.91 70.698 34.91 70.92 34.688 70.92 34.243 71.142 34.021 71.142 33.799 71.142 33.576 71.587 33.132 71.587 33.354 71.809 33.799 71.809 34.91 71.809 36.243 71.809 37.576 71.809 38.243 71.809 38.688 71.809 38.91 71.809 39.576 71.365 40.243 71.365 40.91 71.365 41.354 71.365 41.576 71.365 41.354 71.365 40.243 71.365 39.132 71.365 38.243 71.587 36.91 71.587 36.243 71.809 35.354 72.031 34.688 72.253 34.021 72.476 33.354 72.698 32.91 73.142 32.465 73.142 32.465 73.365 32.465 73.587 32.465 73.809 32.465 74.031 32.465 74.031 32.688 74.031 33.132 74.476 33.354 74.476 34.021 74.476 34.243 74.476 34.465 74.253 34.688 73.809 34.91 73.365 35.799 73.142 36.021 72.92 36.465 72.698 36.465 72.476 36.688 72.253 36.688 72.031 36.688 72.031 36.91 72.476 36.91 72.476 36.91 72.698 36.91 73.142 36.91 73.809 36.91 74.92 36.91 75.587 36.91 75.809 36.688 75.809 36.465 76.253 36.021 76.476 35.799 76.698 35.576 76.92 35.354 76.92 35.132 76.698 35.132 76.476 35.132 76.031 35.132 76.031 35.132 76.031 35.354 75.587 35.354 75.587 35.799 75.365 36.021 75.365 36.465 75.365 36.688 75.365 36.91 75.365 37.132 75.365 37.354 75.587 37.576 75.809 37.799 76.031 37.799 76.253 37.799 76.476 37.799 76.92 37.799 77.142 37.799 77.587 37.799 77.809 37.576 77.809 37.354 78.253 37.132 78.253 36.688 78.253 36.465 78.476 36.243 78.476 35.799 78.476 35.354 78.476 35.132 78.476 34.91 78.476 34.688 78.253 34.688 78.253 34.465 78.031 34.465 77.809 34.465 77.587 34.465 77.365 34.465 77.142 34.465 76.92 34.465 76.698 34.688 76.476 34.91 76.476 34.91 76.476 35.132 76.476 35.354 76.698 35.354 76.92 35.354 77.142 35.799 77.365 35.799 77.809 35.799 78.253 35.799 78.92 36.021 79.142 36.021 79.587 36.021 79.809 36.021 79.809 36.021 79.809 35.799 80.253 35.576 80.253 35.354 80.253 35.132 80.476 34.91 80.476 34.465 80.476 34.465 80.698 34.021 80.92 34.021 80.92 33.799 81.142 33.799 80.92 33.576 80.698 33.576 80.476 33.576 80.253 33.576 80.031 33.576 79.587 33.576 79.587 33.576 79.587 33.799 79.587 34.021 79.587 34.465 79.587 34.688 79.587 35.132 79.587 35.354 80.031 35.799 80.031 36.021 80.031 36.243 80.253 36.243 80.253 36.465 80.253 36.688 80.476 36.688 80.698 36.688 80.92 36.688 81.142 36.688 81.587 36.688 81.809 36.688 82.031 36.688 82.031 36.243 82.031 36.243 82.031 36.021 82.253 35.799 82.698 35.576 82.698 35.354 83.142 34.91 83.365 34.91 83.587 34.91 83.809 34.688 83.809 34.243 84.031 34.243 84.031 33.799 84.031 33.799 84.031 34.021 84.031 34.465 84.031 34.688 84.031 35.132 84.031 35.132 84.031 35.576 84.031 35.799 84.031 36.243 84.031 36.465 84.476 36.021 85.142 35.354 85.809 34.91 86.031 34.243 86.476 34.021 86.476 33.576 86.698 33.576 86.92 33.354 87.142 33.354 87.142 33.576 87.142 34.021 87.142 34.688 87.142 35.132 87.142 35.576 87.142 36.021 87.142 36.243 87.142 36.243 87.142 36.465 87.365 36.243 87.809 36.021 88.253 35.576 88.698 34.91 89.142 34.688 89.365 34.688 89.587 34.688 89.809 34.688 90.031 34.688 90.031 34.91 90.253 35.354 90.253 35.576 90.253 36.021 90.253 36.243 90.253 36.465 90.253 36.688 90.253 36.91 90.253 37.132 90.253 37.576 90.253 37.799 90.253 38.021 90.476 38.021" stroke="#000000" fill="none" stroke-width=".9" stroke-linecap="round" stroke-linejoin="round"/></svg>