<svg version="1.1" baseProfile="full" width="100%" height="100%" viewBox="0 0 100 100" xmlns="http://www.w3.org/2000/svg"><polyline points="4.309 38.688 4.309 38.465 4.531 38.465 4.976 37.799 5.198 37.132 5.865 36.021 7.198 34.021 8.531 31.354 10.087 28.021 11.642 24.688 13.198 22.021 14.531 19.799 15.42 18.021 15.865 16.688 16.531 15.132 16.976 14.021 17.198 13.799 17.198 13.576 17.198 13.799 17.198 14.021 16.976 14.465 16.753 14.91 16.753 15.576 16.531 16.243 16.309 17.132 16.087 17.799 16.087 18.688 16.087 19.576 16.087 20.465 16.087 21.354 16.087 22.243 16.087 22.91 16.087 23.576 16.087 24.465 16.087 25.132 16.531 25.799 16.753 26.465 16.976 26.687 16.976 27.132 17.198 27.132 17.198 27.354 17.42 27.354 17.42 27.132 17.865 26.687 18.309 26.243 18.531 25.576 18.976 24.688 19.642 24.243 19.865 23.799 20.531 22.91 20.976 22.021 21.865 20.688 22.753 19.132 23.642 17.576 24.531 16.021 25.42 14.465 25.642 12.91 26.309 11.576 26.753 10.688 26.753 10.465 26.976 10.021 27.198 10.021 27.198 9.799 27.198 10.021 27.198 10.243 27.198 10.465 27.198 10.688 27.198 10.91 27.198 11.354 26.976 11.799 26.976 12.465 26.753 13.132 26.531 13.576 26.087 14.465 25.865 15.132 25.42 16.243 25.198 16.91 24.753 17.576 24.531 18.243 24.087 18.91 23.865 19.354 23.642 19.576 23.642 20.021 23.42 20.243 23.198 20.688 23.198 20.91 23.198 21.132 22.976 21.354 23.198 21.354 23.42 21.354 23.642 21.354 23.865 21.354 24.309 21.354 24.753 21.132 25.42 20.688 26.753 20.243 27.42 20.021 27.865 19.576 28.531 19.354 29.198 19.132 29.642 19.132 30.087 18.91 30.309 18.91 30.087 18.91 29.865 18.91 29.642 18.91 29.642 19.132 29.42 19.132 29.198 19.354 28.753 19.576 28.753 19.799 28.309 20.021 27.865 20.465 27.42 20.91 26.976 21.132 26.531 21.576 26.309 21.799 26.309 22.243 26.087 22.465 25.865 22.688 25.865 23.132 25.865 23.354 25.865 23.576 25.865 23.799 25.865 24.021 26.087 24.021 26.309 24.021 26.531 24.021 26.753 24.021 27.198 23.799 27.42 23.576 28.087 23.132 28.531 22.688 28.976 22.465 29.42 22.021 29.865 21.799 30.087 21.576 30.531 21.132 30.531 20.91 30.531 20.688 30.309 20.688 30.087 20.688 29.865 20.688 29.865 20.91 29.642 20.91 29.642 21.132 29.642 21.354 29.42 21.576 29.42 21.799 29.42 22.243 29.42 22.91 29.42 23.132 29.42 23.799 29.642 24.243 29.865 24.688 30.087 24.91 30.309 25.354 30.753 25.354 30.976 25.576 31.198 25.799 31.642 25.799 31.865 25.799 32.309 25.799 32.531 25.576 32.976 25.354 33.42 25.132 33.865 24.465 34.309 24.021 34.753 23.354 34.976 22.688 35.42 22.243 35.642 21.354 36.087 20.91 36.309 20.688 36.531 20.465 36.753 20.465 36.753 20.243 36.531 20.243 36.309 20.243 36.309 20.465 36.087 20.465 35.865 20.465 35.865 20.688 35.865 20.91 35.642 20.91 35.42 21.354 35.42 21.576 35.198 22.021 35.198 22.465 35.198 22.688 35.198 22.91 35.42 22.91 35.42 23.132 35.642 23.132 35.865 23.132 35.865 22.91 36.087 22.91 36.309 22.91 36.531 22.91 36.531 22.688 36.753 22.688 36.753 22.465 36.753 22.243 36.976 22.243 37.198 22.021 37.198 21.799 37.198 22.021 37.198 22.243 37.198 22.465 37.42 23.354 37.865 24.243 38.309 25.132 38.753 26.243 39.642 27.799 40.087 29.354 40.309 30.91 40.309 32.243 40.309 33.132 40.531 33.576 40.531 33.799 40.309 34.021 40.087 34.243 39.865 34.243 39.42 34.243 39.198 34.243 38.753 34.021 38.309 33.799 37.865 33.132 37.42 32.465 36.976 31.799 36.753 31.132 36.753 30.688 36.753 30.021 36.753 29.576 36.753 28.91 36.976 28.243 37.198 27.576 37.42 26.91 37.865 26.465 38.087 25.799 38.309 25.354 38.753 24.91 38.976 24.91 38.976 25.132 38.976 25.354 39.198 25.576 39.198 25.799 39.42 25.799 39.42 26.021 39.642 26.243 39.865 26.243 40.309 26.243 40.531 26.243 40.753 26.021 40.976 25.799 41.42 25.354 41.642 25.132 41.865 24.688 42.087 24.243 42.309 24.021 42.309 23.799 42.309 23.354 42.309 23.132 42.309 22.91 42.309 22.688 42.309 22.91 42.309 23.132 42.309 23.354 42.087 23.576 42.087 23.799 42.087 24.91 42.087 25.354 42.309 25.799 42.531 26.021 42.531 26.243 42.753 26.465 42.976 26.687 43.198 26.687 43.42 26.91 43.865 26.91 44.087 27.132 44.309 27.132 44.531 27.132 44.753 27.132 44.976 26.91 45.198 26.91 45.198 26.687 45.42 26.465 45.642 26.021 45.642 25.576 45.642 25.132 45.642 24.688 45.642 24.243 45.642 24.021 45.42 24.021 45.42 24.243 45.42 24.465 45.42 24.688 45.42 24.91 45.42 25.132 45.42 25.576 45.42 26.021 45.42 26.243 45.642 26.687 45.865 27.132 46.531 27.354 46.753 27.576 46.976 27.799 47.42 27.799 47.865 27.799 48.087 27.576 48.753 27.354 48.976 27.132 49.42 26.687 49.865 26.243 50.309 25.576 50.976 24.91 51.42 24.021 51.865 23.354 52.531 22.243 52.976 20.688 53.198 19.354 53.198 18.243 53.198 16.91 53.198 16.021 52.976 15.576 52.753 15.354 52.309 15.132 51.865 15.132 51.42 15.132 50.976 15.132 50.531 15.576 50.087 15.799 49.642 16.465 49.198 17.132 48.753 17.799 48.087 19.354 47.642 20.465 47.42 21.799 47.42 22.91 47.42 24.243 47.642 25.354 48.087 26.243 48.531 26.91 48.753 27.132 49.198 27.354 49.642 27.354 49.865 27.576 50.087 27.576 50.531 27.576 50.753 27.576 50.976 27.576 51.42 27.576 51.642 27.354 51.865 27.354 52.087 27.132 52.309 27.132 52.531 26.91 52.753 26.687 52.976 26.465 53.198 26.243 53.198 26.021 53.42 25.576 53.42 25.354 53.42 25.132 53.198 25.132 52.976 25.132 52.753 25.132 52.753 25.354 52.531 25.354 52.531 25.576 52.531 25.799 52.087 26.021 52.087 26.243 51.865 26.687 51.642 27.132 51.642 27.354 51.642 27.799 51.642 28.021 51.865 28.243 51.865 28.465 52.309 28.465 52.309 28.688 52.531 28.688 52.753 28.688 52.976 28.688 53.198 28.688 53.42 28.688 53.865 28.465 54.087 28.465 54.309 28.021 54.309 27.799 54.531 27.354 54.753 26.91 54.753 26.465 54.753 26.243 54.753 26.021 54.753 25.799 54.531 25.799 54.531 25.576 54.309 25.576 54.309 25.799 54.087 25.799 54.087 26.021 54.087 26.243 54.087 26.465 54.087 27.354 54.309 27.799 54.531 28.243 54.976 28.688 55.198 28.91 55.642 29.132 55.865 29.132 56.309 29.132 56.531 29.132 56.976 29.132 57.198 28.688 57.642 28.465 58.087 28.021 58.531 27.354 58.976 26.91 59.198 26.243 59.642 25.354 60.087 24.243 60.976 21.354 61.198 19.799 61.198 18.243 61.198 14.91 60.976 12.243 60.531 12.021 60.309 11.799 60.087 11.799 60.087 12.021 60.087 12.243 59.642 12.687 59.42 13.576 59.42 14.688 58.976 16.465 58.976 18.688 58.976 20.91 58.976 23.354 59.642 25.576 60.087 27.354 60.753 28.91 61.198 30.243 61.42 31.132 61.642 31.354 61.865 31.576 61.642 31.576 61.642 31.354 61.198 31.132 60.531 30.688 59.865 30.243 59.198 29.799 58.753 29.576 58.531 29.576 58.309 29.354 58.087 29.354 58.309 29.354 58.531 29.354 58.753 29.132 59.198 28.688 59.642 28.465 60.087 28.021 60.531 27.354 60.976 26.91 61.198 26.465 61.42 26.021 61.642 25.576 61.865 25.354 61.865 25.132 61.865 24.91 61.865 24.465 61.865 24.243 62.087 24.021 62.087 23.576 62.087 23.132 62.087 22.91 62.087 22.688 62.087 22.91 61.865 22.91 61.865 23.354 61.642 24.243 61.42 25.576 61.42 26.687 61.42 28.465 61.42 30.021 61.42 32.91 61.642 34.243 62.087 35.132 62.087 35.354 62.309 35.354 62.309 35.132 62.309 34.91 62.531 34.465 62.531 34.021 62.531 33.354 62.753 32.91 62.976 32.465 63.198 32.021 63.42 31.799 63.642 31.576 63.865 31.576 64.087 31.354 64.309 31.354 64.309 31.576 64.309 31.799 64.531 32.021 64.753 32.465 64.976 32.91 65.42 33.132 65.42 33.354 65.642 33.576 65.642 33.799 65.865 33.799 65.865 34.021 65.865 34.243 65.865 34.465 66.087 34.465 66.087 34.243 66.309 34.243 66.531 34.021 66.753 33.799 66.976 33.354 67.198 32.91 67.42 32.465 67.865 32.021 67.865 31.799 68.087 31.576 68.309 31.354 68.309 31.132 68.309 31.354 68.087 31.354 67.865 31.799 67.642 32.021 67.198 32.465 66.976 32.91 66.753 33.576 66.753 34.021 66.531 34.465 66.531 34.91 66.531 35.354 66.753 35.576 66.976 35.799 67.198 35.799 67.42 35.799 67.642 35.799 67.642 35.576 67.865 35.576 68.087 35.354 68.087 34.91 68.309 34.465 68.531 34.021 68.531 33.576 68.753 33.132 68.753 32.688 68.753 32.243 68.753 32.021 68.531 32.021 68.531 32.243 68.531 32.465 68.531 32.688 68.753 33.799 68.976 34.243 69.198 34.91 69.865 35.576 70.309 36.021 70.976 36.465 71.642 36.688 72.087 36.91 72.531 36.91 72.753 37.132 73.198 37.132 73.42 37.132 73.642 36.91 73.865 36.688 74.087 36.243 74.309 35.799 74.531 35.132 74.753 34.465 74.976 33.576 74.976 32.688 75.198 31.799 75.42 31.132 75.42 30.688 75.42 30.465 75.642 30.243 75.642 30.465 75.865 30.688 75.865 31.132 76.309 31.576 76.976 32.688 77.642 34.021 78.531 35.354 79.198 36.688 79.642 38.021 80.087 39.132 80.087 39.799 80.087 40.021 80.087 40.243 80.087 40.465 79.865 40.465 79.865 40.688 79.642 40.688 79.42 40.688 78.976 40.688 78.309 40.688 77.642 40.465 76.753 40.021 76.087 39.799 75.42 39.799 74.976 39.799 74.531 39.799" stroke="#000000" fill="none" stroke-width=".9" stroke-linecap="round" stroke-linejoin="round"/></svg>