<svg version="1.1" baseProfile="full" width="100%" height="100%" viewBox="0 0 100 100" xmlns="http://www.w3.org/2000/svg"><polyline points="51.93 47.297 52.632 47.297 53.333 47.297 54.035 47.297 54.737 47.297 55.439 47.297 56.14 46.946 56.491 46.595 57.193 46.245 57.544 45.894 58.246 45.543 58.596 45.192 58.947 44.49 59.649 43.788 60.351 43.087 61.053 42.034 61.754 40.981 62.105 39.929 62.807 39.227 62.807 38.876 63.158 38.174 63.158 37.823 63.158 37.122 63.158 36.42 63.158 35.718 63.158 35.016 63.158 34.315 63.158 33.613 63.158 32.56 63.158 31.859 62.807 31.157 62.807 30.104 62.456 29.402 62.105 28.701 61.754 27.999 61.754 26.946 61.404 26.245 61.404 25.192 61.053 24.49 60.702 23.788 60.702 23.087 60.702 22.385 60.351 21.332 60.351 20.63 60.0 19.929 59.649 19.227 59.298 18.525 59.298 17.823 58.947 16.771 58.596 16.42 58.246 15.718 57.895 15.367 57.895 15.016 57.544 14.315 57.193 13.964 57.193 13.613 56.842 12.911 56.842 12.56 56.491 11.859 56.491 11.508 56.491 10.806 56.491 10.104 56.491 9.753 56.491 9.402 56.491 9.052 56.491 8.701 56.491 8.35 56.491 7.999 56.491 6.946 56.842 5.894 57.544 5.192 57.895 4.49 58.246 4.139 58.246 3.788 58.596 3.788 58.596 4.139 58.246 4.139 58.246 4.49 58.246 4.841 58.246 5.192 57.895 5.192 57.895 5.543 57.544 5.894 57.544 6.245 57.193 6.245 57.193 6.595 56.842 6.946 56.842 7.297 56.491 7.999 56.491 8.35 56.14 8.701 56.14 9.052 55.789 9.402 55.439 9.753 55.439 10.104 55.088 10.455 54.737 10.806 54.737 11.157 54.386 11.859 54.035 12.209 53.684 12.911 52.982 13.262 52.632 13.613 52.281 13.964 51.93 14.315 51.228 15.016 50.877 15.367 50.175 15.718 49.825 16.42 48.772 16.771 48.421 17.122 47.719 17.823 47.018 18.525 46.667 18.876 45.965 19.227 45.614 19.578 44.912 20.28 44.561 20.63 43.86 21.332 43.509 21.683 42.807 22.385 41.754 23.087 41.053 23.788 40.702 24.49 40.0 25.192 39.649 26.245 38.947 26.946 38.596 27.648 38.246 28.35 38.246 29.052 37.895 29.753 37.544 30.455 37.544 30.806 37.193 31.508 37.193 31.859 37.193 32.209 36.842 32.56 36.842 33.262 36.491 33.613 36.491 33.964 36.491 34.666 36.14 35.016 36.14 35.367 36.14 36.069 36.14 36.42 36.14 36.771 36.14 37.473 36.14 38.174 36.14 38.525 36.14 39.227 36.14 39.578 36.14 39.929 36.14 40.28 36.14 40.63 36.14 40.981 36.14 41.332 36.491 42.034 36.491 42.385 36.842 42.736 37.193 43.087 37.193 43.438 37.544 43.788 37.895 44.139 38.246 44.49 38.596 44.841 38.947 45.192 39.298 45.192 39.649 45.543 40.0 45.894 40.351 45.894 40.351 46.245 40.702 46.245 40.702 46.595 41.053 46.595 41.404 46.946 42.105 47.297 42.807 47.648 43.158 48.35 43.86 48.701 44.561 49.052 45.263 49.052 45.965 49.402 46.316 49.402 46.667 49.753 47.018 49.753 47.018 49.402 47.018 49.052 47.018 48.701 47.018 47.999 47.018 47.648 47.018 47.297 47.018 46.245 47.018 45.894 46.667 45.192 46.667 44.49 46.316 43.788 46.316 43.087 46.316 42.736 46.316 42.034 46.316 41.332 46.316 40.981 46.316 40.28 46.316 39.578 46.316 39.227 46.316 38.525 46.316 37.823 47.018 37.122 47.368 36.069 47.719 35.718 48.07 35.016 48.421 34.666 48.772 34.315 48.772 33.964 49.123 33.613 49.474 33.262 49.825 32.911 49.825 32.56 50.175 32.56 50.175 32.209 50.526 31.859 50.526 31.508 50.877 31.157 50.877 30.806 50.877 30.455 50.877 30.104 51.228 29.753 51.228 29.052 51.228 28.701 51.228 28.35 51.579 27.999 51.579 27.648 51.579 26.946 51.579 26.595 51.93 26.245 51.93 25.894 51.93 25.543 52.281 25.192 52.281 24.841 52.281 25.192 52.281 25.543 52.281 25.894 52.281 26.595 52.281 26.946 52.281 27.648 52.632 27.999 52.632 28.701 52.632 29.402 52.632 29.753 52.632 30.104 52.632 30.455 52.982 30.806 52.982 31.157 53.333 31.508 53.684 31.859 53.684 32.209 54.035 32.56 54.035 32.911 54.035 33.262 54.386 33.262 54.386 33.613 54.386 33.964 54.386 34.315 54.386 34.666 54.737 34.666 54.737 35.016 54.737 35.367 54.737 35.718 54.737 36.069 54.737 36.42 54.737 36.771 54.737 37.122 54.737 37.473 54.737 37.823 54.737 38.174 54.737 38.525 54.737 38.876 54.737 39.227 54.737 39.578 54.737 39.929 54.737 40.28 54.737 40.63 54.737 40.981 54.737 41.332 54.737 41.683 54.386 42.034 54.386 42.385 54.035 42.385 54.035 42.736 53.684 43.087 53.333 43.438 53.333 43.788 52.982 44.139 52.632 44.49 52.632 44.841 52.281 45.192 52.281 45.543 51.93 45.543 51.93 45.894 51.579 45.894 51.579 46.245 51.228 46.595 50.877 46.946 50.877 47.297 50.526 47.648 50.175 47.999 49.825 48.35 49.474 48.35 49.474 48.701 49.123 48.701 48.772 48.701 48.772 49.052 48.421 49.052 48.421 49.402 48.07 49.402 47.719 49.402 47.368 49.402 47.018 49.402 46.667 49.402 46.316 49.402 45.614 49.402 44.912 49.402 43.86 49.402 43.158 49.402 42.456 49.402 41.404 49.402 40.702 49.402 40.0 49.402 39.649 49.402 38.947 49.402 38.596 49.052 37.895 48.701 37.193 48.35 36.842 47.999 36.14 47.648 35.088 47.297 34.386 46.946 33.333 46.245 32.632 45.894 31.579 45.543 30.877 44.841 29.825 44.139 29.123 43.788 28.07 43.438 27.368 42.736 26.667 42.034 25.965 41.683 25.263 40.981 24.561 40.28 23.86 39.929 23.509 39.227 22.807 38.525 22.456 38.174 22.105 37.473 21.404 37.122 21.404 36.42 21.053 36.069 20.702 35.367 20.351 35.016 20.0 34.315 19.649 33.964 19.298 33.262 18.947 32.911 18.596 32.56 18.246 32.209 18.246 31.508 17.895 31.157 17.895 30.806 17.544 30.455 17.193 30.104 17.193 30.455 17.193 30.806 17.193 31.508 17.193 31.859 17.544 32.209 17.544 32.56 17.895 32.911 17.895 33.262 18.246 33.613 18.246 33.964 18.596 34.315 18.947 34.666 19.298 35.367 19.649 35.718 20.0 36.069 20.0 36.771 20.351 37.473 20.702 38.174 21.053 38.876 21.404 39.578 22.105 40.28 22.456 40.981 22.807 41.683 23.158 42.385 23.509 43.087 23.86 43.788 24.211 44.49 24.561 45.543 24.912 46.595 25.614 47.648 25.965 48.35 26.316 49.402 26.667 50.104 27.368 51.157 27.719 51.859 28.07 52.56 28.772 53.613 29.123 53.964 29.474 54.666 29.825 55.367 30.175 56.069 30.526 56.771 31.228 57.473 31.579 58.174 31.93 58.876 32.281 59.227 32.632 59.929 32.982 60.28 33.333 60.981 33.684 61.332 34.035 61.683 34.737 62.385 35.088 62.736 35.789 63.087 36.14 63.438 36.491 63.788 36.842 64.139 37.193 64.49 37.895 64.841 38.246 65.192 38.596 65.192 38.947 65.543 39.649 65.894 40.0 65.894 40.351 66.245 40.702 66.245 41.404 66.595 41.754 66.946 42.105 66.946 42.456 67.297 43.158 67.297 43.509 67.648 43.86 67.648 44.211 67.999 44.912 67.999 45.263 68.35 45.614 68.35 45.965 68.35 46.667 68.701 47.018 68.701 47.368 68.701 47.719 68.701 48.07 68.701 48.421 68.701 48.772 68.701 49.123 68.701 49.474 68.701 49.825 68.701 50.175 68.701 50.526 68.701 50.877 68.701 51.579 68.701 51.93 68.701 52.281 68.701 52.632 68.701 52.982 68.701 53.333 68.701 53.684 68.701 54.035 68.701 54.386 68.701 55.088 68.701 55.439 68.701 56.14 68.701 56.491 68.701 57.193 68.701 57.544 68.701 57.895 68.35 58.596 68.35 58.947 67.999 59.298 67.999 59.649 67.648 60.351 67.297 60.702 67.297 61.404 66.946 61.754 66.595 62.105 66.245 62.807 65.894 63.158 65.543 63.86 65.543 64.211 65.192 64.561 64.841 64.912 64.841 65.263 64.49 65.614 64.139 65.965 64.139 66.316 63.788 66.667 63.438 67.368 63.087 67.719 62.736 68.07 62.385 68.772 62.385 69.123 61.683 69.825 61.332 70.526 60.981 71.228 60.63 71.579 59.929 72.281 59.578 72.632 59.227 73.333 58.525 73.684 58.174 74.386 57.473 74.737 57.122 75.088 56.42 75.439 55.718 75.789 55.367 76.491 54.666 76.842 54.315 77.193 53.964 77.544 53.262 77.895 52.911 78.246 52.56 78.246 51.859 78.596 51.157 78.947 50.806 79.298 50.104 79.649 49.402 80.0 49.052 80.0 48.35 80.351 47.648 80.702 47.297 81.053 46.595 81.053 45.894 81.404 45.543 81.404 45.192 81.404 44.841 81.754 44.139 81.754 43.788 82.105 43.087 82.105 42.736 82.456 42.034 82.456 41.683 82.456 41.332 82.807 40.63 82.807 40.28 82.807 39.929 83.158 39.578 83.509 39.227 83.158 39.227 82.807 39.227 82.456 39.227 82.105 39.227 81.754 39.578 81.404 39.578 81.053 39.929 80.702 40.28 80.351 40.28 80.0 40.63 79.298 40.63 78.947 40.981 78.596 40.981 78.246 41.332 77.544 41.332 77.193 41.683 76.491 42.034 75.439 42.034 74.737 42.385 74.035 42.736 73.333 43.087 72.281 43.438 71.579 43.788 70.526 44.139 69.474 44.49 68.421 44.841 67.368 45.192 66.667 45.894 65.614 46.245 64.561 46.595 63.86 46.946 62.807 47.648 61.754 47.999 61.053 47.999 60.0 48.35 58.947 48.35 58.246 48.701 57.544 48.701 56.842 49.052 56.14 49.052 55.088 49.052 54.737 49.052 54.035 49.052 53.333 49.052 52.982 49.052 52.281 49.052 51.93 49.052 51.228 49.052 50.877 49.052 50.526 49.052 50.175 49.052 49.825 49.052 49.474 49.052 48.772 49.052 48.421 49.052 48.07 49.052 47.719 49.052 47.368 49.052 47.018 48.701 46.667 48.701 46.667 48.35 46.316 48.35 46.316 47.999 46.316 48.35 46.316 48.701 46.316 49.052 46.316 49.402 46.667 49.402 46.667 50.104 47.018 50.806 47.018 51.157 47.018 51.508 47.368 52.209 47.368 52.56 47.719 53.262 47.719 53.613 47.719 53.964 48.07 54.666 48.07 55.016 48.07 55.718 48.07 56.069 48.07 57.122 48.07 57.473 48.07 58.174 48.07 58.525 48.07 59.227 48.07 59.929 48.07 60.63 48.07 61.332 48.07 62.034 48.07 62.736 48.07 63.788 48.07 64.49 48.07 65.543 48.07 66.245 47.719 67.297 47.368 67.999 47.018 69.052 46.667 69.753 46.316 70.455 45.614 71.508 45.263 72.56 44.912 73.262 44.211 74.315 43.86 75.367 43.158 76.42 42.456 77.473 41.754 78.525 41.053 79.578 40.0 80.981 39.298 82.034 38.596 83.087 37.544 84.49 36.842 85.543 36.14 86.245 35.439 87.297 34.737 87.999 34.386 88.701 33.684 89.402 33.333 89.753 32.982 90.104 32.632 90.455 32.281 90.806 31.93 91.157 31.579 91.157 31.579 91.508 31.579 91.859 31.93 91.508 32.281 91.508 32.632 91.508 32.982 91.508 33.684 91.508 34.035 91.508 34.737 91.157 35.789 91.157 36.842 91.157 37.895 90.806 38.947 90.806 40.0 90.455 41.404 90.104 43.158 89.753 44.211 89.402 45.614 89.402 46.667 89.052 47.368 88.701 48.421 88.35 49.474 87.999 50.526 87.648 51.228 87.297 52.281 86.946 52.982 86.946 53.333 86.946 54.035 86.946 54.386 86.946 54.737 86.595 55.088 86.595 55.439 86.595 55.789 86.595 56.14 86.595 56.491 86.595 56.842 86.595 56.842 86.245 57.193 86.245 57.544 86.245 57.895 86.245 58.246 86.245 58.596 86.245 59.298 86.245 59.649 86.245 60.351 86.245 61.053 86.245 61.404 86.245 62.105 85.894 62.456 85.894 62.807 85.894 63.158 85.894 63.509 85.894 63.86 85.894 64.211 85.894 64.561 85.894 64.912 85.894 65.263 85.894 65.614 85.894 65.965 85.894 66.316 85.894 66.667 85.894 67.018 85.894 67.018 85.543 67.018 85.192 66.667 84.841 66.316 84.139 65.614 83.788 65.263 83.087 64.561 82.385 64.211 81.332 63.509 80.63 62.807 79.929 62.105 78.876 61.404 77.823 60.702 76.42 60.0 75.367 59.298 74.315 58.596 73.262 57.895 72.209 57.544 71.508 57.193 70.455 56.842 69.753 56.14 68.701 55.789 67.648 55.439 66.946 55.088 65.894 55.088 65.192 54.737 64.49 54.386 63.788 54.035 63.087 53.684 62.385 53.684 61.332 53.333 60.981 52.982 60.28 52.982 59.578 52.632 58.876 52.632 58.525 52.281 57.823 52.281 57.473 51.93 56.771 51.93 56.069 51.93 55.718 51.93 55.367 51.579 55.016 51.579 54.666 51.579 53.964 51.228 53.964 51.228 53.613 51.228 53.262 51.228 52.911 50.877 52.56 50.877 52.209 50.877 51.859 50.877 51.508 50.526 51.157 50.526 50.806 50.526 50.455 50.175 50.455 49.825 50.455 49.474 50.455 49.474 50.104 49.474 49.753" stroke="#000000" fill="none" stroke-width=".9" stroke-linecap="round" stroke-linejoin="round"/></svg>