<svg version="1.1" baseProfile="full" width="100%" height="100%" viewBox="0 0 100 100" xmlns="http://www.w3.org/2000/svg"><polyline points="21.304 22.955 20.0 22.955 18.696 22.955 16.522 22.955 15.652 22.955 13.913 22.955 13.478 22.955 12.174 22.52 11.304 21.651 10.435 21.216 10.0 20.781 9.13 20.346 8.261 19.477 7.391 18.607 7.391 17.738 6.957 17.738 6.957 16.868 6.522 15.999 6.522 15.564 6.522 14.694 6.522 13.825 6.522 13.39 6.522 12.52 6.957 12.086 7.826 11.651 8.696 11.651 10.0 11.651 10.87 11.651 12.174 11.651 13.478 11.651 14.348 12.52 15.217 13.39 16.087 14.26 16.522 14.694 16.957 15.564 17.391 16.433 17.826 16.868 17.826 17.303 18.261 17.303 18.261 16.433 17.826 15.564 17.826 14.694 17.391 12.52 17.391 11.216 17.391 9.912 17.391 8.607 17.826 7.738 18.696 6.868 19.565 5.999 20.87 5.564 21.739 5.564 22.609 5.564 23.913 5.564 25.217 5.564 26.087 5.564 27.391 5.564 28.261 6.433 28.696 7.303 29.13 8.173 29.565 8.607 29.565 9.477 29.565 10.346 29.565 11.651 29.565 12.086 29.565 12.955 28.696 14.26 28.261 15.129 27.826 16.433 26.957 17.303 26.522 18.173 26.087 19.042 25.652 19.912 25.652 20.781 25.652 20.781 25.217 21.216 25.217 21.651 25.217 22.086 24.783 22.52 24.783 22.955 24.783 23.39 24.783 23.825 24.783 23.825 24.783 24.26 24.783 24.694 24.783 25.129 25.217 25.129 25.652 25.129 26.087 25.129 27.391 25.129 28.696 25.129 30.87 24.694 34.783 23.825 41.304 21.651 45.217 20.781 47.826 20.346 50.0 19.912 52.609 19.912 55.652 19.912 58.261 19.912 60.0 19.912 61.739 19.912 63.913 19.912 66.087 19.912 68.261 19.912 70.87 19.912 72.609 20.346 73.913 20.781 76.087 21.651 77.391 22.52 79.13 23.825 80.87 24.694 82.609 26.433 83.478 27.303 84.783 29.042 85.217 30.346 86.087 31.651 86.087 32.955 86.087 34.694 86.087 35.999 86.087 37.303 86.087 39.042 85.652 39.912 84.783 41.651 83.478 42.52 82.609 44.26 81.304 45.129 80.0 46.433 79.13 47.738 78.261 48.607 77.391 49.477 76.957 50.346 76.957 51.216 76.957 51.651 76.522 52.086 76.522 52.955 76.522 53.39 76.087 53.825 76.087 54.26 76.087 54.26 76.087 54.694 76.087 55.129 76.087 55.564 76.087 55.999 75.652 55.999 75.217 55.999 74.783 55.999 74.348 55.999 73.913 55.999 73.478 55.999 72.174 55.999 71.304 55.999 70.435 55.999 69.565 55.999 68.261 55.999 67.826 55.564 66.957 55.564 66.087 55.564 65.652 55.129 64.783 55.129 64.783 55.129 64.348 55.129 63.913 55.129 63.478 55.129 63.043 55.129 62.609 55.129 62.609 54.694 63.043 54.26 63.478 54.26 63.478 53.825 63.913 53.39 64.348 52.52 64.783 52.086 64.783 51.216 64.783 50.781 65.217 50.346 65.652 49.042 66.087 48.607 66.087 48.173 66.522 47.738 66.522 46.868 66.522 46.433 66.957 45.564 66.957 45.129 66.957 44.694 66.957 43.825 66.957 43.39 66.957 42.52 66.957 42.086 66.957 41.216 66.522 40.781 65.652 40.346 64.783 39.477 64.348 39.042 63.478 39.042 63.043 39.042 62.609 39.042 62.174 39.042 61.739 39.042 61.739 39.042 61.304 39.042 60.87 39.477 60.87 40.346 60.435 40.781 60.435 41.651 60.0 42.086 60.0 42.52 60.0 42.955 60.0 43.825 60.0 44.26 60.0 45.129 60.0 45.129 60.0 45.999 60.0 46.433 60.0 47.303 60.0 47.738 60.0 48.173 60.87 48.607 61.304 49.042 61.739 49.477 61.739 49.912 61.739 50.346 62.174 50.346 62.609 50.781 63.043 50.781 63.043 51.216 63.478 51.216 63.913 51.216 64.348 51.216 64.783 51.216 64.783 51.216 64.783 51.651 64.348 52.086 63.913 52.52 63.478 53.39 63.043 54.26 62.609 54.694 62.174 55.564 61.739 56.433 61.304 56.868 60.87 57.738 60.435 58.607 59.565 59.042 59.13 59.912 58.696 60.346 58.696 60.781 58.261 61.216 57.826 61.651 57.391 62.086 57.391 62.52 56.957 62.52 56.957 62.955 56.957 62.955 56.522 62.955 56.522 63.39 56.522 63.825 56.087 64.26 56.087 64.694 56.087 65.129 55.652 65.129 55.652 65.564 55.652 65.564 55.217 65.564 54.348 65.564 53.478 65.564 52.609 65.129 51.739 64.694 50.87 63.39 50.0 62.955 50.0 62.955 49.565 62.52 49.13 62.086 48.696 62.086 48.261 61.651 47.826 61.216 47.391 61.216 46.957 60.781 46.957 60.346 46.957 59.912 46.957 59.912 46.957 59.477 46.957 58.607 46.957 58.173 47.391 57.738 47.826 56.868 48.261 56.868 48.261 55.999 48.696 55.129 49.13 54.694 49.13 54.26 49.565 53.39 49.565 52.52 50.0 51.216 50.0 50.781 50.0 50.346 50.0 49.042 50.0 48.173 50.0 47.738 49.565 46.868 48.696 45.564 47.826 45.129 46.957 44.694 45.652 44.26 44.348 43.825 43.913 43.825 42.609 43.825 41.739 43.825 40.87 43.825 40.87 43.825 40.435 44.694 40.435 45.129 40.0 45.999 40.0 46.868 40.0 47.738 40.0 48.173 40.0 49.477 40.0 50.346 40.435 51.216 40.87 51.651 41.304 52.52 42.609 52.955 43.913 53.825 44.348 54.26 45.217 54.26 45.652 54.694 46.087 54.694 46.522 55.129 46.957 55.129 46.957 55.129 47.391 55.129 47.826 55.129 48.261 55.129 48.696 55.129 48.696 55.564 48.696 55.999 48.696 56.433 48.696 56.868 47.826 57.738 47.391 59.042 46.957 59.912 45.652 61.216 44.783 62.52 43.913 63.39 42.174 65.129 41.304 65.999 40.87 66.433 40.435 67.303 40.0 67.738 39.565 67.738 39.13 68.173 39.13 68.607 39.13 69.042 39.13 69.042 38.696 69.042 38.696 69.477 39.13 69.477 39.13 69.042 40.0 69.042 40.435 68.173 40.87 67.303 41.739 66.433 42.609 65.999 43.478 65.564 43.913 64.26 44.783 63.39 45.217 62.955 45.652 61.651 46.522 60.781 46.957 59.912 46.957 59.477 47.391 59.042 47.826 58.173 47.826 57.738 48.261 57.738 48.261 57.303 48.696 57.303 48.696 57.738 48.696 58.607 48.696 59.912 48.696 60.346 48.696 61.216 48.696 62.086 49.13 62.955 49.13 63.39 49.565 64.26 49.565 65.129 49.565 65.999 49.565 65.999 49.565 66.868 49.565 67.738 49.565 68.173 49.565 69.042 49.565 69.042 49.565 69.477 50.0 70.346 50.0 70.781 50.0 71.651 50.0 72.086 50.0 72.086 50.0 72.955 50.0 73.39 50.0 74.26 50.0 74.694 50.0 75.129 50.0 75.564 50.435 76.433 50.435 76.868 50.435 77.303 50.435 78.173 50.435 78.173 50.435 79.042 50.435 79.477 50.87 79.912 50.87 80.346 50.87 81.216 50.87 81.216 50.87 81.651 51.304 82.086 51.304 82.52 51.304 82.955 51.304 83.39 51.304 83.825 51.739 84.26 51.739 84.26 51.739 84.694 51.739 85.129 51.739 85.564 51.739 85.999 51.739 86.433 51.739 86.868 52.174 86.868 52.174 87.303 51.739 87.738 50.87 88.173 50.0 89.042 50.0 89.477 49.13 90.346 48.696 90.781 47.826 91.216 47.391 91.651 46.957 92.086 46.522 92.52 46.087 92.955 45.652 93.39 45.217 93.825 45.217 94.26 44.783 94.26 44.348 94.694 43.913 95.129 43.913 95.564 43.478 95.999 43.043 95.999 43.043 96.433 43.043 96.433 43.913 95.999 44.783 94.694 45.652 93.825 46.957 92.52 47.391 91.651 48.261 90.781 49.13 90.346 49.565 89.477 50.0 89.042 50.0 88.607 50.435 88.173 50.87 88.173 51.304 88.173 51.739 88.173 52.174 88.173 52.609 88.173 53.478 88.173 53.913 88.173 54.783 88.607 55.652 88.607 56.087 89.477 56.957 89.912 57.391 90.346 58.261 90.781 58.696 91.216 58.696 91.651 59.13 92.086 59.565 92.52 60.0 92.955 60.435 93.39 60.87 93.825 61.304 94.26 61.739 94.694 61.739 95.129 61.739 95.564 62.174 95.999 62.609 96.433 62.609 96.433 63.043 95.999 63.043 94.694 63.043 93.39 63.478 92.086 63.913 90.346 64.783 89.042 65.217 87.303 65.652 86.433 66.087 85.129 66.522 84.26 66.522 83.825 66.957 83.39 66.957 82.955 66.957 82.52 67.391 82.52 67.826 82.52 67.826 82.52 68.261 82.52 68.696 82.52 69.13 82.52 69.565 82.52 70.435 82.52 70.87 82.955 71.739 83.825 72.174 84.26 73.043 84.26 73.913 84.694 74.348 85.564 74.783 85.999 75.652 86.868 76.087 87.303 76.522 87.303 76.957 88.173 76.957 88.607 77.826 89.042 78.261 89.477 78.696 90.346 79.13 90.346 80.0 90.781 80.0 90.781 80.0 91.216 80.435 91.651 80.87 91.651 80.87 92.086 81.304 92.086 81.304 92.52 81.739 92.52 81.739 92.955 82.174 92.955 82.174 93.39 81.739 93.39 81.304 92.52 80.435 91.651 80.0 91.216 78.696 90.781 77.826 90.346 76.957 89.912 76.522 89.042 75.652 88.607 74.783 87.738 73.913 87.303 73.478 87.303 73.043 86.433 72.174 85.999 71.304 85.564 70.87 85.129 70.87 85.129 70.435 84.694 70.0 84.26 69.565 84.26 69.565 84.26 69.13 84.26 69.13 83.825 69.13 83.39 69.13 82.955 69.13 82.52 69.13 82.086 69.13 81.651 69.13 81.216 68.696 80.346 68.696 79.477 68.696 78.607 68.696 77.738 68.261 76.868 68.261 75.999 68.261 75.129 68.261 74.26 68.261 73.825 67.826 72.955 67.826 72.086 67.826 72.086 67.826 71.216 67.826 70.781 67.826 70.346 67.826 69.912 67.826 69.477 67.826 69.042 67.391 68.607 66.957 68.173 66.957 67.738 66.957 67.303 66.522 66.868 66.522 66.433 66.522 65.999 66.087 65.564 65.652 65.129 65.652 64.694 65.217 63.825 65.217 62.955 65.217 62.955 64.783 62.52 64.783 62.086 64.783 61.216 64.783 60.781 64.783 60.346 64.783 59.912 64.783 59.477 64.783 59.042 64.783 58.173 64.783 57.738 64.783 57.303 64.783 56.868 64.783 56.868 64.783 56.433 64.783 55.999 64.783 55.564 64.783 55.129 64.783 54.694 64.783 54.26 65.652 54.26" stroke="#000000" fill="none" stroke-width=".9" stroke-linecap="round" stroke-linejoin="round"/></svg>