<svg version="1.1" baseProfile="full" width="100%" height="100%" viewBox="0 0 100 100" xmlns="http://www.w3.org/2000/svg"><polyline points="13.056 93.576 13.056 93.576 13.278 93.576 13.278 93.354 13.5 93.132 13.722 92.91 13.944 92.688 14.389 92.243 14.611 91.799 15.056 91.132 15.722 90.243 16.167 89.354 16.833 88.243 17.278 87.132 17.5 86.021 17.722 85.132 17.722 84.243 17.722 83.576 17.5 82.688 17.056 82.021 16.389 81.354 15.944 80.91 15.278 80.465 14.611 80.021 13.944 79.799 13.5 79.576 12.833 79.576 12.611 79.354 12.167 79.354 12.167 79.354 11.944 79.354 11.944 79.354 11.722 79.799 11.722 80.243 11.722 80.688 11.722 81.132 12.167 81.576 12.389 82.243 12.833 82.688 13.278 83.132 13.944 83.576 14.389 84.021 15.056 84.465 15.722 84.688 16.389 84.91 17.056 84.91 17.722 85.132 18.389 85.132 18.833 85.132 19.056 85.132 19.5 84.91 19.722 84.688 20.167 84.688 20.389 84.465 20.611 84.021 20.833 83.799 21.056 83.354 21.056 83.132 21.056 82.688 21.056 82.243 20.833 81.799 20.611 81.576 20.389 81.132 19.944 80.688 19.722 80.243 19.5 79.799 19.056 79.576 18.389 79.354 17.722 79.132 17.056 78.688 15.944 78.465 14.833 77.799 13.5 77.132 12.389 76.243 11.278 75.354 10.389 74.465 9.944 73.576 9.722 72.465 9.722 71.576 9.722 70.465 9.944 69.576 10.389 68.688 10.833 68.243 11.5 67.799 11.944 67.354 12.611 67.354 13.056 67.354 13.722 67.354 14.389 67.576 14.833 67.799 15.278 68.465 15.722 68.91 15.944 69.576 16.167 70.465 16.167 71.354 16.167 72.021 15.944 72.91 15.722 73.576 15.5 74.243 15.056 74.688 14.833 74.91 14.833 75.132 14.833 75.132 14.833 75.132 14.833 74.688 15.5 73.799 15.944 72.688 16.833 71.799 17.722 70.688 18.611 69.799 19.5 69.132 20.389 68.688 21.278 68.465 21.944 68.243 22.833 68.243 23.5 68.243 24.167 68.465 24.833 68.91 25.278 69.576 25.722 70.243 25.944 70.91 25.944 71.799 25.944 72.688 25.722 73.799 25.056 74.688 24.389 75.799 23.5 76.91 22.833 77.799 21.944 78.465 21.5 78.91 21.5 78.91 21.278 78.91 21.278 78.91 21.5 78.91 21.944 78.688 22.611 78.243 23.5 77.799 24.611 77.354 25.5 76.91 26.389 76.688 27.278 76.465 27.944 76.465 28.611 76.465 29.056 77.132 29.5 77.799 29.722 78.688 29.722 79.799 29.722 80.688 29.056 81.799 28.167 82.91 27.056 83.799 25.944 84.465 25.056 85.132 24.167 85.354 23.5 85.354 23.056 85.354 22.833 84.91 22.611 84.243 22.611 83.576 22.611 82.688 22.833 82.021 23.278 81.132 23.944 80.465 24.389 79.799 25.056 78.91 25.5 78.243 26.167 77.576 26.833 76.91 27.278 76.243 27.944 75.799 28.389 75.354 29.056 74.91 29.5 74.243 30.167 73.799 30.611 73.132 31.278 72.465 31.722 71.799 32.167 71.132 32.611 70.465 32.833 69.576 33.056 68.465 33.056 67.132 33.056 65.576 33.056 63.354 33.056 60.91 33.056 58.243 32.611 55.576 32.389 52.91 32.167 50.243 32.167 47.799 32.167 45.132 32.167 42.243 32.167 39.354 32.167 36.021 32.167 32.688 32.389 29.354 32.833 26.465 33.278 24.021 33.944 21.799 34.833 20.021 35.944 18.465 37.278 17.132 38.833 15.576 40.611 14.243 42.389 13.132 43.944 12.243 45.5 11.576 47.056 10.91 48.611 10.243 49.944 9.576 51.5 9.132 52.611 8.688 53.944 8.243 55.056 7.576 56.167 7.132 57.278 6.465 58.389 6.021 59.5 5.576 60.611 4.91 61.722 4.465 62.833 3.799 63.944 3.354 64.833 2.688 65.944 2.021 66.833 1.354 67.722 0.688 68.389 0.243 68.833 0.021 68.833 0.0 68.833 0.0 68.833 0.0 68.833 0.0 68.389 0.0 67.944 0.0 67.278 0.0 66.389 0.0 65.278 0.0 63.722 0.0 61.944 0.0 60.167 0.0 57.944 0.0 55.944 0.0 53.944 0.0 52.167 0.0 50.389 0.243 48.611 0.91 46.611 1.576 44.833 2.465 42.833 3.132 41.056 4.021 39.722 4.91 38.611 5.576 37.722 6.021 37.278 6.465 36.833 6.688 36.833 7.132 36.833 7.354 36.833 7.576 37.278 7.799 37.722 8.021 38.389 8.021 39.278 8.021 40.611 8.021 41.722 7.799 43.278 7.576 44.611 7.354 45.944 7.132 47.278 6.91 48.611 6.688 49.722 6.688 50.389 6.465 50.833 6.465 51.056 6.465 51.278 6.465 51.278 6.465 51.278 6.465 51.278 6.465 51.278 6.465 51.278 6.688 50.611 7.132 49.944 7.576 48.833 8.243 47.5 9.132 46.167 10.021 44.833 10.91 43.5 11.799 42.167 12.687 40.833 13.576 39.722 14.465 38.611 15.354 37.722 16.243 37.056 16.91 36.389 17.576 35.944 18.465 35.5 19.132 35.056 19.799 34.611 20.243 34.389 20.91 34.167 21.354 33.944 21.799 33.722 22.243 33.722 22.688 33.722 23.132 33.5 23.576 33.5 24.465 33.5 25.132 33.278 26.021 33.278 26.91 33.056 27.576 33.056 28.243 32.833 28.91 32.833 29.576 32.833 30.465 32.833 31.354 32.833 32.021 32.833 32.91 32.833 33.799 33.056 34.688 33.278 35.576 33.278 36.465 33.5 37.576 33.722 38.465 33.944 39.354 34.167 40.021 34.389 40.91 34.611 41.576 34.833 42.243 35.278 43.132 35.5 43.799 35.944 44.465 36.167 45.132 36.611 45.799 36.833 46.688 37.278 47.354 37.722 48.021 37.944 48.688 38.389 49.132 38.833 49.576 39.5 50.243 39.944 50.688 40.611 51.132 41.056 51.576 41.5 52.021 41.944 52.465 42.389 52.91 42.833 53.354 43.278 53.799 43.722 54.021 44.167 54.243 44.389 54.465 44.833 54.688 45.278 55.132 45.722 55.354 46.167 55.576 46.611 55.799 47.056 56.243 47.5 56.465 47.944 56.688 48.167 56.91 48.611 57.132 48.833 57.354 49.056 57.576 49.278 57.799 49.722 58.021 49.944 58.243 50.167 58.688 50.389 58.91 50.611 59.132 50.833 59.354 51.056 59.576 51.278 59.799 51.5 60.021 51.722 60.465 51.722 60.688 51.944 60.91 52.167 61.354 52.167 61.576 52.389 62.021 52.611 62.243 52.611 62.687 52.611 63.132 52.611 63.354 52.833 63.576 52.833 64.021 52.833 64.465 52.833 64.688 52.833 64.91 52.833 65.354 52.833 65.576 52.833 65.799 52.833 65.799 52.833 66.021 52.833 66.243 52.833 66.465 52.833 66.91 52.833 67.132 52.833 67.354 52.833 67.576 52.833 67.576 52.833 67.799 52.611 68.021 52.611 68.243 52.611 68.243 52.611 68.465 52.389 68.465 52.389 68.688 52.167 68.91 52.167 69.132 52.167 69.354 51.944 69.354 51.944 69.576 51.722 69.799 51.722 69.799 51.722 70.021 51.5 70.021 51.5 70.243 51.5 70.243 51.5 70.465 51.5 70.465 51.278 70.465 51.278 70.688 51.278 70.688 51.278 70.91 51.278 70.91 51.056 70.91 51.056 71.132 51.056 71.132 51.056 71.132 51.056 71.354 51.056 71.354 51.056 71.576 51.056 71.576 51.056 71.799 51.056 71.799 51.056 72.021 51.056 72.243 51.056 72.465 51.278 72.465 51.278 72.91 51.5 73.132 51.722 73.354 51.944 73.576 51.944 73.576 52.167 73.799 52.389 74.021 52.611 74.243 52.833 74.243 52.833 74.465 53.056 74.465 53.278 74.465 53.5 74.688 53.944 74.688 54.167 74.91 54.389 74.91 54.611 74.91 54.833 74.91 54.833 75.132 55.056 75.132 55.278 75.132 55.5 75.132 55.722 75.132 55.944 75.132 55.944 75.132 56.167 75.132 56.389 75.132 56.611 75.132 56.833 75.132 56.833 75.132 57.056 75.132 57.056 75.132 57.056 75.132 57.278 75.132 57.278 75.132 57.278 74.91 57.5 74.91 57.722 74.91 57.722 74.91 57.722 74.91 57.944 74.91 57.944 74.91 57.944 74.91 57.944 74.91 58.167 74.91 58.167 74.91 58.167 75.132 58.167 75.132 58.389 75.132 58.389 75.132 58.389 75.354 58.611 75.354 58.611 75.576 58.611 75.799 58.611 75.799 58.611 76.021 58.833 76.021 58.833 76.243 58.833 76.243 58.833 76.465 58.833 76.688 58.833 76.91 59.056 76.91 59.056 77.132 59.056 77.354 59.056 77.354 59.056 77.576 59.056 77.799 59.056 78.021 59.056 78.021 59.056 78.243 59.056 78.243 59.056 78.243 59.056 78.465 59.056 78.465 59.056 78.465 59.056 78.688 59.056 78.688 59.056 78.91 58.833 78.91 58.833 78.91 58.833 78.91 58.833 79.132 58.833 79.132 58.833 79.132 58.833 79.132 58.833 79.132 58.833 79.132 58.833 79.132 58.833 79.132 58.833 79.132 58.833 79.132 58.833 79.132 58.833 79.132 58.833 79.132 58.833 79.132 58.833 79.132 59.056 79.132 59.278 79.132 59.278 79.354 59.5 79.354 59.722 79.354 59.722 79.354 59.944 79.354 60.167 79.354 60.167 79.576 60.611 79.576 60.833 79.576 61.056 79.799 61.278 79.799 61.722 80.021 61.944 80.243 62.167 80.243 62.389 80.465 62.389 80.688 62.611 80.688 62.611 80.91 62.611 80.91 62.833 81.132 62.833 81.132 62.833 81.354 62.833 81.576 62.833 81.576 62.833 81.799 62.833 81.799 62.833 82.021 62.833 82.021 62.833 82.243 62.833 82.243 62.833 82.465 62.833 82.688 62.833 82.688 62.833 82.688 62.833 82.91 62.833 82.91 62.833 82.91 62.833 83.132 62.833 83.132 62.833 83.354 62.833 83.576 62.833 83.576 63.056 83.799 63.056 84.021 63.278 84.021 63.5 84.243 63.5 84.465 63.722 84.465 63.944 84.688 64.167 84.688 64.167 84.688 64.389 84.91 64.389 84.91 64.611 84.91 64.611 85.132 64.833 85.132 65.056 85.132 65.278 85.354 65.278 85.354 65.5 85.354 65.5 85.576 65.5 85.576 65.722 85.576 65.722 85.576 65.944 85.799 65.944 85.799 65.944 85.799 66.167 86.021 66.167 86.021 66.167 86.021 66.167 86.021 66.389 86.243 66.389 86.243 66.389 86.243 66.611 86.465 66.611 86.465 66.611 86.465 66.611 86.688 66.833 86.688 66.833 86.688 66.833 86.688 66.833 86.688 67.056 86.91 67.056 86.91 67.056 86.91 67.056 87.132 67.278 87.132 67.278 87.132 67.278 87.354 67.5 87.354 67.5 87.354 67.5 87.576 67.5 87.576 67.722 87.576 67.722 87.576 67.722 87.799 67.944 87.799 67.944 87.799 67.944 88.021 67.944 88.021 68.167 88.021 68.167 88.021 68.389 88.243 68.389 88.243 68.389 88.243 68.611 88.465 68.611 88.465 68.833 88.688 69.056 88.91 69.278 88.91 69.278 89.132 69.5 89.132 69.722 89.132 69.944 89.354 70.167 89.354 70.389 89.576 70.611 89.576 71.056 89.576 71.278 89.576 71.5 89.576 71.944 89.576 72.389 89.576 72.611 89.576 73.056 89.576 73.5 89.576 73.722 89.576 74.167 89.576 74.611 89.354 75.056 89.132 75.5 88.91 75.944 88.688 76.611 88.465 77.278 88.243 77.944 87.799 78.611 87.576 79.056 87.132 79.722 86.688 80.389 86.243 81.056 85.799 81.722 85.354 82.167 84.91 82.611 84.465 83.056 83.799 83.5 83.132 83.722 82.465 83.722 81.576 83.722 80.688 83.722 79.799 83.722 78.688 83.722 77.576 83.722 76.688 83.722 75.799 83.722 74.91 83.722 74.021 83.5 72.91 83.278 72.021 83.278 70.91 83.056 69.576 83.056 68.465 83.056 64.688 83.056 63.354 83.056 62.021 82.833 60.688 82.833 59.799 82.833 58.688 82.833 57.799 82.833 56.91 82.833 56.021 82.833 55.132 82.833 54.021 82.833 52.91 82.611 51.354 82.389 50.021 81.944 48.465 81.722 47.132 81.5 46.021 81.056 44.91 80.833 43.576 80.611 42.465 80.389 41.132 80.389 40.021 80.389 38.91 80.389 38.021 80.611 37.354 80.833 36.91 81.278 36.465 81.944 36.021 82.389 35.799 83.056 35.799 83.722 35.799 84.389 36.021 85.278 36.465 85.944 37.132 86.611 37.799 87.5 38.688 87.944 39.799 88.389 40.91 88.833 42.243 88.833 43.354 88.833 44.465 88.833 45.576 88.833 46.688 88.389 47.799 88.167 48.688 87.944 49.799 87.5 50.465 87.056 51.132 86.833 51.799 86.167 52.243 85.722 52.688 85.278 53.132 84.833 53.354 84.389 53.799 83.944 54.021 83.5 54.243 83.056 54.465 82.389 54.688 81.944 54.688 81.278 54.688 80.611 54.688 79.944 54.688 79.278 54.688 78.389 54.688 77.278 54.688 76.389 54.91 75.5 55.132 74.611 55.132 73.722 55.354 72.833 55.354 71.944 55.576 70.833 55.576 69.722 55.799 68.833 55.799 68.167 55.799 67.278 56.021 66.611 56.021 66.167 56.021 65.5 56.243 65.056 56.243 64.611 56.243 64.167 56.243 63.5 56.021 62.833 55.799 62.167 55.576 61.5 55.354 60.833 55.132 60.167 55.132 59.722 54.91 59.278 54.688 58.833 54.465 58.611 54.243 58.167 54.243 57.944 54.021 57.722 54.021 57.722 54.021 57.5 53.799 57.5 53.799 57.5 53.799 57.5 53.799 57.5 53.799 57.5 53.799 57.5 53.799 57.722 53.799 58.389 54.243 59.056 54.688 59.722 55.354 60.389 56.243 61.056 56.91 61.722 57.799 62.167 58.465 62.611 59.132 63.056 59.576 63.278 59.799 63.5 60.021 63.5 60.243 63.5 60.243 63.5 60.243 63.5 60.243 63.5 60.243 63.278 60.243 62.611 59.799 61.944 59.132 61.056 58.465 60.167 57.576 59.278 56.91 58.611 56.243 57.944 55.576 57.278 54.91 56.611 54.465 56.167 54.021 55.722 53.799 55.278 53.354 54.833 52.91 54.611 52.465 54.167 51.799 53.944 51.354 53.944 50.91 53.722 50.465 53.722 50.021 53.5 49.576 53.5 48.91 53.5 48.465 53.5 48.021 53.5 47.354 53.944 47.132 54.389 46.688 54.833 46.465 55.5 46.243 55.944 46.243 56.611 46.021 57.278 46.021 57.944 45.799 58.611 45.799 59.056 45.799 59.722 45.799 60.389 45.799 61.056 45.799 61.722 45.799 62.389 46.021 62.611 46.465 63.056 46.91 63.278 47.132 63.5 47.576 63.944 48.021 64.167 48.243 64.611 48.688 64.833 49.132 65.056 49.354 65.278 49.799 65.5 50.243 65.722 50.688 65.944 51.132 66.167 51.576 66.389 51.799 66.389 52.243 66.611 52.465 66.611 52.91 66.611 53.354 66.611 53.576 66.611 54.021 66.611 54.465 66.611 54.91 66.611 55.354 66.389 55.799 66.389 56.243 66.167 56.688 66.167 57.132 65.944 57.576 65.944 58.021 65.722 58.243 65.722 58.688 65.5 58.91 65.278 59.354 65.278 59.576 65.056 59.799 65.056 60.021 64.833 60.243 64.833 60.243 64.833 60.465 64.611 60.688 64.611 60.91 64.389 61.132 64.389 61.354 64.167 61.354 64.167 61.576 64.167 61.576 64.167 61.576 63.944 61.799 63.944 61.799 63.944 62.021 63.944 62.243 63.722 62.243 63.722 62.465 63.5 62.687 63.5 62.687 63.5 62.91 63.278 62.91 63.278 63.132 63.278 63.132 63.056 63.354 63.056 63.354 62.833 63.576 62.833 63.576 62.833 63.799 62.611 63.799 62.611 64.021 62.611 64.021 62.611 64.021 62.611 64.021 62.611 64.021 62.611 64.021 62.389 64.021 62.389 64.243 62.389 64.243 62.389 64.243 62.389 64.243 62.389 64.465 62.389 64.465 62.389 64.465 62.389 64.465 62.389 64.465 62.389 64.465 62.389 64.465 62.389 64.465 62.389 64.465 62.389 64.465 62.389 64.465 62.389 64.465 62.389 64.465 62.389 64.465 62.389 64.465 62.389 64.465 62.389 64.465 62.167 64.465" stroke="#000000" fill="none" stroke-width=".9" stroke-linecap="round" stroke-linejoin="round"/></svg>