<svg version="1.1" baseProfile="full" width="100%" height="100%" viewBox="0 0 100 100" xmlns="http://www.w3.org/2000/svg"><polyline points="29.085 83.1 28.641 82.656 27.752 81.989 26.863 80.656 25.53 78.656 23.752 76.433 21.974 74.656 20.196 72.878 17.307 70.211 15.53 67.989 14.419 66.211 13.307 65.1 12.419 63.989 11.752 63.544 11.085 63.1 10.863 62.878 10.641 62.878 10.641 62.656 10.419 62.656 10.641 62.656 11.085 62.656 11.752 62.656 13.085 62.656 15.085 62.878 18.196 62.878 20.641 63.322 22.419 63.767 24.419 63.989 25.974 64.656 27.53 65.1 29.085 65.544 30.641 65.989 31.974 66.433 33.974 67.322 35.53 67.767 35.974 67.989 36.419 67.989 36.641 67.989 36.419 68.433 35.307 69.1 33.752 69.767 31.752 70.433 29.974 71.1 27.974 71.989 25.974 72.656 23.307 73.989 20.419 75.1 17.53 76.211 15.085 76.878 13.307 77.322 11.974 77.767 11.307 78.211 10.419 78.433 9.974 78.433 9.752 78.433 10.196 77.1 11.53 74.878 13.085 71.989 15.752 67.1 18.196 62.433 20.196 59.322 21.752 57.322 23.085 56.211 24.196 55.1 25.085 54.211 25.53 53.767 25.974 53.1 26.196 53.1 26.196 52.878 26.196 53.1 26.196 53.767 26.419 54.878 26.419 57.1 26.419 59.1 26.419 60.656 26.641 61.989 26.641 62.878 26.641 63.989 26.641 65.1 26.641 66.878 26.641 67.989 26.641 68.656 26.641 69.1 26.641 69.544 26.641 69.767 26.641 69.989 26.641 70.433 26.641 71.1 26.641 71.767 26.641 72.433 26.641 73.1 26.641 73.322 26.863 73.544 27.085 73.544 27.085 73.989 27.085 74.433 27.307 75.322 27.53 76.433 27.752 77.322 27.974 78.211 28.196 79.1 28.196 79.767 28.419 80.211 28.641 80.656 28.863 81.1 28.863 81.322 28.863 81.544 29.085 81.544 30.196 81.544 30.863 81.544 31.307 81.544 31.53 81.544 31.752 81.544 32.196 81.544 32.419 81.544 32.641 81.544 33.307 81.322 33.974 80.656 34.863 79.544 35.974 78.211 37.53 75.767 39.085 74.211 39.974 73.1 40.419 72.656 40.863 71.989 41.085 71.767 41.307 71.544 41.307 70.878 41.752 70.433 41.974 69.767 42.196 69.322 42.641 68.211 42.863 67.1 43.307 65.989 43.307 65.544 43.307 65.322 43.53 65.1 43.974 64.656 44.196 63.767 44.641 63.322 44.863 62.878 45.085 62.433 45.307 62.433 45.307 62.211 45.53 62.211 45.53 61.989 45.307 62.211 44.863 63.1 43.974 63.767 43.53 64.656 43.307 65.1 43.307 65.544 43.085 65.989 42.863 66.433 42.641 67.1 42.641 67.767 42.196 68.878 41.752 69.322 41.752 69.767 41.53 70.211 41.752 70.211 42.196 70.211 42.863 69.989 43.752 69.1 44.863 67.989 46.641 66.656 47.974 65.322 48.863 64.878 49.307 64.211 49.53 63.989 49.974 63.767 49.974 63.989 48.641 65.322 47.085 66.656 45.974 67.544 44.863 68.211 44.196 68.656 43.307 69.1 42.641 69.544 41.974 69.767 41.53 69.989 41.085 70.211 40.863 70.211 41.085 70.211 41.53 70.211 42.419 70.211 42.863 70.211 43.307 70.211 43.53 70.211 43.752 70.211 43.974 70.211 44.196 70.211 44.419 70.433 44.419 71.1 44.419 71.767 44.419 73.322 44.419 74.656 44.419 75.322 44.419 75.767 44.419 75.989 44.641 76.211 45.085 76.433 45.53 76.433 45.974 76.433 46.419 76.433 46.863 76.433 47.307 76.433 48.641 76.433 49.752 76.433 51.085 76.211 52.196 75.989 52.641 75.322 53.307 74.656 53.53 73.322 53.53 72.878 53.53 72.656 53.53 72.433 53.53 72.211 53.307 72.211 52.863 71.767 51.974 71.1 51.307 70.878 50.863 70.656 50.641 70.433 50.419 70.433 49.974 70.433 49.974 70.656 49.53 71.322 49.53 72.878 49.53 74.211 49.53 75.1 49.53 75.544 49.53 75.767 49.53 76.211 49.53 76.433 49.53 76.656 49.53 77.1 49.752 77.544 49.974 77.989 50.196 78.433 50.419 78.656 50.641 79.1 51.085 79.1 51.307 79.322 51.974 79.544 52.196 79.544 52.419 79.544 52.641 79.544 52.863 79.544 53.085 79.544 53.307 79.544 53.752 79.322 53.752 79.1 53.974 79.1 54.196 78.878 54.419 78.656 54.419 78.433 54.641 78.433 54.641 77.989 55.085 77.767 55.307 77.1 55.53 75.989 55.53 75.1 55.752 74.433 55.974 73.767 56.196 73.544 56.196 73.322 56.196 73.544 56.196 74.211 56.641 74.878 56.863 75.322 57.085 75.767 57.085 75.989 57.53 76.433 57.53 76.656 57.974 77.1 58.196 77.322 58.419 77.989 58.641 78.433 58.863 78.878 59.085 79.1 59.307 79.322 59.752 79.322 59.752 79.1 59.752 78.878 59.752 78.656 60.196 78.433 60.419 77.989 61.53 77.1 62.641 75.989 63.53 74.878 63.752 73.989 63.974 73.989 64.196 73.767 64.196 74.211 64.419 74.433 64.641 74.878 64.641 75.322 64.863 75.767 65.307 76.211 65.307 76.433 65.752 76.656 65.974 77.1 66.641 77.322 67.085 77.322 67.53 77.322 67.752 77.322 68.419 77.322 68.419 76.878 68.419 76.656 68.419 76.433 68.419 75.544 68.419 74.878 68.419 74.211 68.419 73.767 68.419 73.322 68.419 73.544 68.419 73.767 68.419 74.211 68.419 74.433 68.419 74.656 68.641 74.878 68.863 75.544 68.863 75.767 69.085 75.989 69.307 76.433 69.53 76.656 69.53 77.1 69.752 77.322 69.752 77.544 69.974 77.767 70.196 77.767 70.196 77.989 70.641 78.211 70.863 78.433 71.307 78.656 71.307 78.878 71.53 78.878 71.752 78.878 71.752 79.1 71.974 79.1 72.196 79.1 72.641 79.1 72.863 79.1 73.085 79.1 73.752 78.878 73.974 78.656 74.196 78.433 74.641 78.211 74.863 77.544 75.307 76.656 75.752 75.322 75.974 73.767 76.196 72.878 76.419 72.211 76.419 71.767 76.419 71.544 76.419 71.322 76.419 71.989 76.419 73.544 76.419 75.1 76.641 75.767 76.641 76.433 76.641 76.878 76.641 77.1 76.641 77.544 76.641 77.767 76.863 77.544 77.307 76.878 77.974 75.322 78.641 73.322 79.53 71.767 79.974 70.656 80.419 70.433 80.641 69.989 81.085 69.767 81.53 69.767 81.974 69.767 82.419 69.767 82.863 70.433 83.307 71.1 83.752 72.211 84.196 73.544 84.641 74.433 84.641 75.1 85.085 75.767 85.085 76.211 85.307 76.656 85.307 77.1 85.307 77.322 85.53 77.322 85.752 77.544 85.752 77.767 86.196 77.767 86.419 77.767 86.863 77.767 87.085 77.767 87.53 77.767 87.974 77.767 88.196 77.767 88.419 77.767 88.641 77.544 88.641 77.322 88.863 77.322 88.863 76.878 88.863 76.656 88.863 76.211 88.863 75.767 88.863 75.1 88.863 74.656 88.863 74.211 88.863 73.767 88.863 73.1 88.863 72.656 88.863 72.433 88.863 71.989 89.085 71.544 89.085 70.878 89.085 70.656 89.085 69.989 89.085 69.767 89.085 69.322 89.085 69.1 89.085 68.878 89.085 68.656 89.085 68.433 89.085 67.989 89.085 67.322 89.085 66.656 89.085 65.989 89.085 65.767 89.085 65.322 89.085 64.878 89.085 64.433 89.085 63.989 89.307 63.989 89.307 63.767 89.307 63.544 89.53 63.544 89.752 63.544 89.752 63.322 89.974 63.1 89.974 62.656 89.974 62.211 90.196 61.989 90.196 61.544 90.196 61.1 90.419 60.433 90.419 59.989 90.641 59.544 90.863 59.1 90.863 58.656 90.863 58.433 90.863 58.211 90.863 57.989 90.641 57.989 90.641 58.656 90.419 59.322 90.196 59.989 90.196 60.433 89.974 60.433 89.974 60.656 89.974 61.1 89.974 61.544 89.974 61.767 89.974 61.989 89.974 62.211 89.974 62.433 89.974 61.989 90.196 61.767 90.641 60.878 91.085 60.211 91.53 59.1 91.974 58.656 92.419 58.211 92.863 57.989 93.307 57.989 93.752 57.989 94.196 57.989 94.419 58.211 94.863 58.656 95.085 58.878 95.307 59.1 95.53 59.322 95.752 59.322 95.752 59.544 95.752 59.767 95.752 59.989 95.752 60.211 95.752 60.433 95.752 60.878 95.752 61.322 95.752 61.544 95.752 61.989 95.974 62.433 95.974 62.656 95.974 63.1 95.974 63.767 95.974 64.433 95.974 64.656 95.974 64.878 95.974 65.322 95.974 65.767 95.752 65.767 95.53 65.989 95.53 66.211 95.307 66.211 95.085 66.211 94.863 66.433 94.641 66.433 94.196 66.656 93.752 66.656 93.53 66.656 93.085 66.656 92.641 66.656 92.419 66.656 91.974 66.656 91.752 66.656 91.53 66.656 91.307 66.656 91.085 66.656 90.863 66.656 90.641 66.656 90.419 66.656 90.196 66.656 89.974 66.656 89.974 66.433 89.53 66.211 89.53 65.989 89.53 65.767 89.307 65.767" stroke="#000000" fill="none" stroke-width=".9" stroke-linecap="round" stroke-linejoin="round"/></svg>