<svg version="1.1" baseProfile="full" width="100%" height="100%" viewBox="0 0 100 100" xmlns="http://www.w3.org/2000/svg"><polyline points="58.944 50.243 58.944 49.576 59.389 49.354 59.611 48.91 59.833 48.688 60.056 48.465 60.278 48.243 60.722 48.243 60.944 48.021 61.167 47.799 61.611 47.799 62.056 47.799 62.5 47.799 62.722 47.576 63.167 47.576 63.611 47.576 63.833 47.576 64.278 47.576 64.5 47.799 64.722 48.021 64.944 48.243 64.944 48.688 64.944 49.354 64.944 49.799 64.944 50.465 64.944 50.91 64.944 51.354 64.944 52.021 64.5 52.688 64.056 53.132 63.611 53.799 63.167 54.465 62.5 55.132 62.056 55.799 61.611 56.465 60.944 57.132 60.5 57.576 59.833 58.021 59.611 58.465 58.944 58.688 58.722 59.132 58.278 59.576 57.833 59.799 57.389 60.243 57.167 60.243 56.722 60.465 56.278 60.688 56.056 60.688 55.833 60.688 55.389 60.688 55.167 60.688 54.944 60.91 54.722 60.91 54.5 60.91 54.278 60.91 54.056 60.91 54.056 60.688 54.056 60.465 54.056 60.243 54.056 60.021 54.056 59.576 54.056 59.354 54.056 59.132 54.056 58.91 54.056 58.688 54.278 58.243 54.278 58.021 54.278 57.576 54.5 57.132 54.722 56.91 54.944 56.465 55.167 56.021 55.389 55.799 55.611 55.354 55.833 55.132 55.833 54.688 56.278 54.465 56.278 54.021 56.5 53.799 56.944 53.354 56.944 53.132 57.167 52.688 57.389 52.465 57.611 52.021 58.056 51.576 58.056 51.132 58.5 50.688 58.722 50.243 58.944 50.021 59.167 49.576 59.389 49.354 59.611 49.132 59.833 48.688 60.056 48.243 60.278 48.021 60.278 47.799 60.5 47.354 60.722 47.354 60.722 47.132 60.722 46.91 60.722 46.688 60.722 46.465 60.722 46.243 60.722 46.021 60.722 45.799 60.722 45.576 60.722 45.354 60.722 45.132 60.722 44.688 60.722 44.243 60.722 44.021 60.722 43.576 60.722 43.354 60.722 42.91 60.5 42.91 60.278 42.688 60.056 42.465 59.833 42.243 59.611 42.243 59.167 42.021 58.944 42.021 58.5 42.021 58.278 42.021 57.833 42.021 57.611 42.021 57.389 42.021 57.167 42.021 56.944 42.021 56.722 42.021 56.5 42.021 56.278 42.465 55.833 42.465 55.833 42.91 55.389 43.132 55.167 43.354 55.167 43.576 54.944 44.021 54.722 44.021 54.722 44.243 54.5 44.465 54.5 44.243 54.5 44.021 54.5 43.576 54.5 43.354 54.5 42.91 54.5 42.465 54.5 42.243 54.5 42.021 54.5 41.799 54.5 41.576 54.5 41.354 54.5 41.132 54.5 40.91 54.5 40.688 54.5 40.465 54.5 40.243 54.5 39.799 54.5 39.576 54.278 39.576 54.278 39.354 54.278 39.132 54.056 38.91 53.833 38.91 53.611 38.688 53.611 38.465 53.389 38.243 53.167 38.243 52.944 38.021 52.722 38.021 52.5 38.021 52.278 38.021 52.056 38.021 51.833 38.021 51.611 38.021 51.389 38.021 51.167 38.021 50.944 38.021 50.722 38.021 50.5 38.021 50.278 38.243 50.056 38.243 49.833 38.465 49.833 38.688 49.611 38.688 49.389 38.91 49.389 39.132 49.167 39.132 48.944 39.354 48.722 39.576 48.5 39.799 48.278 40.243 47.833 40.465 47.611 40.688 47.389 40.91 47.167 41.354 46.944 41.576 46.722 41.799 46.5 42.021 46.056 42.465 45.833 42.688 45.611 42.91 45.389 43.354 45.167 43.799 44.722 44.243 44.5 44.688 44.278 45.132 44.056 45.354 43.833 45.799 43.611 46.243 43.389 46.465 43.389 46.91 43.167 47.354 42.944 47.799 42.944 48.243 42.5 48.688 42.278 49.132 42.278 49.576 42.056 50.243 41.833 50.688 41.833 51.132 41.833 51.576 41.611 51.799 41.611 52.021 41.611 52.465 41.611 52.688 41.611 52.91 41.611 53.132 41.611 53.354 41.611 53.576 41.611 53.799 41.611 54.021 41.611 54.243 41.611 54.465 41.611 54.688 41.611 54.91 41.611 55.132 41.833 55.354 42.056 55.354 42.278 55.354 42.5 55.354 42.722 55.354 42.944 55.132 43.389 54.91 43.389 54.688 43.833 54.465 44.056 54.243 44.278 54.021 44.722 53.576 44.944 53.576 45.389 53.132 45.611 53.132 46.056 52.688 46.5 52.465 46.722 52.021 47.167 51.799 47.389 51.576 47.611 51.132 48.056 51.132 48.278 50.688 48.5 50.465 48.722 50.021 49.167 49.576 49.389 49.354 49.833 48.91 50.056 48.465 50.5 48.243 50.722 48.021 50.944 47.799 51.389 47.354 51.611 47.354 51.833 46.91 52.056 46.688 52.278 46.465 52.5 46.021 52.722 45.576 52.944 45.132 53.167 44.91 53.167 44.688 53.389 44.243 53.611 44.021 53.833 43.576 54.056 43.354 54.056 43.132 54.278 43.132 54.278 42.91 54.278 42.688 54.278 42.91 53.833 43.576 53.389 44.465 53.167 45.132 52.5 45.576 52.056 46.243 51.833 46.465 51.389 46.91 50.944 47.354 50.722 47.799 50.5 48.243 50.278 48.688 49.833 49.132 49.611 49.799 49.389 50.243 49.167 50.688 48.944 51.132 48.722 51.354 48.5 51.799 48.5 52.021 48.278 52.465 48.056 52.688 48.056 52.91 47.833 53.354 47.611 53.799 47.611 54.021 47.389 54.465 47.167 54.91 47.167 55.354 47.167 55.799 46.944 56.021 46.944 56.465 46.944 56.688 46.722 56.91 46.722 57.132 46.722 57.354 46.722 57.576 46.722 57.799 46.722 58.021 46.722 58.243 46.722 58.465 46.722 58.688 46.722 58.91 46.722 59.354 46.722 59.576 46.944 59.799 47.167 60.021 47.167 60.243 47.389 60.243 47.389 60.465 47.611 60.465 47.611 60.688 47.833 60.688 48.056 60.688 48.278 60.688 48.5 60.688 48.722 60.688 48.944 60.688 49.167 60.688 49.389 60.688 49.611 60.688 49.833 60.688 50.056 60.688 50.278 60.688 50.5 60.688 50.722 60.688 50.944 60.688 51.167 60.688 51.389 60.688 51.833 60.688 52.056 60.688 52.056 60.465 52.278 60.243 52.5 59.799 52.722 59.576 52.944 59.576 53.167 59.132 53.389 58.91 53.611 58.688 53.611 58.465 54.056 58.243 54.056 58.021 54.278 57.799 54.5 57.576 54.722 57.354 54.722 57.132 54.722 56.91 54.944 56.91 55.167 56.91 55.167 57.132 55.167 57.354 55.167 57.576 55.167 57.799 55.167 58.021 55.167 58.243 55.167 58.465 55.167 58.688 55.167 58.91 54.944 59.132 54.944 59.354 54.722 59.576 54.722 59.799 54.722 60.243 54.5 60.688 54.278 60.91 54.056 61.354 53.833 61.799 53.611 62.021 53.611 62.243 53.389 62.687 53.167 62.91 52.944 63.132 52.5 63.354 52.5 63.576 52.056 63.799 51.833 64.021 51.611 64.243 51.389 64.465 50.944 64.91 50.722 64.91 50.5 65.132 50.5 65.354 50.278 65.576 50.056 65.576 49.833 65.799 49.611 66.021 49.389 66.243 49.167 66.243 48.944 66.465 48.722 66.465 48.5 66.688 48.278 66.91 48.056 67.132 47.833 67.132 47.611 67.354 47.167 67.576 46.944 67.576 46.722 67.799 46.278 67.799 46.056 68.021 45.611 68.021 45.389 68.243 44.944 68.243 44.722 68.465 44.5 68.465 44.056 68.688 43.833 68.688 43.389 68.688 43.167 68.91 42.944 68.91 42.722 68.91 42.278 68.91 42.056 68.91 41.833 68.91 41.611 68.91 41.389 68.91 41.167 68.91 40.944 68.91 40.722 68.91 40.278 68.91 40.056 68.91 39.611 68.91 39.389 68.91 39.167 68.91 38.722 68.91 38.5 68.91 38.278 68.688 38.056 68.688 37.611 68.465 37.389 68.465 37.167 68.243 36.944 68.243 36.5 68.243 36.278 68.021 36.056 67.799 35.833 67.799 35.611 67.576 35.389 67.576 34.944 67.354 34.722 67.132 34.5 67.132 34.278 66.91 34.056 66.688 33.833 66.465 33.611 66.243 33.389 66.243 33.167 65.799 32.944 65.354 32.722 65.132 32.5 64.91 32.278 64.688 32.056 64.243 31.833 64.021 31.611 63.576 31.389 63.132 31.167 62.687 30.944 62.243 30.944 61.799 30.722 61.576 30.722 61.132 30.5 60.91 30.5 60.688 30.278 60.243 30.056 59.799 30.056 59.576 29.833 59.132 29.833 58.91 29.833 58.465 29.611 58.021 29.611 57.799 29.389 57.354 29.389 56.91 29.167 56.465 29.167 56.243 28.944 55.576 28.944 55.354 28.722 54.91 28.722 54.688 28.722 54.243 28.722 54.021 28.722 53.799 28.722 53.576 28.722 53.354 28.722 53.132 28.722 52.91 28.5 52.688 28.5 52.465 28.5 52.243 28.5 52.021 28.5 51.799 28.5 51.576 28.5 51.354 28.5 51.132 28.5 50.91 28.5 50.688 28.5 50.465 28.5 50.243 28.5 50.021 28.5 49.799 28.5 49.576 28.5 49.354 28.5 49.132 28.5 48.91 28.5 48.688 28.5 48.465 28.5 48.243 28.5 48.021 28.5 47.799 28.722 47.576 28.722 47.354 28.722 47.132 28.722 46.91 28.944 46.91 29.167 46.91 29.167 47.132 29.389 47.132 29.389 47.354 29.611 47.576 29.833 47.799 29.833 48.021 30.056 48.243 30.056 48.688 30.278 49.132 30.5 49.576 30.722 50.021 30.944 50.243 31.167 50.91 31.389 51.354 31.833 51.799 32.056 52.021 32.5 52.243 32.944 52.688 33.167 52.688 33.611 52.91 33.833 52.91 34.056 52.91 34.278 52.91 34.5 52.91 34.722 52.91 35.167 52.91 35.389 52.91 35.833 52.91 36.056 52.688 36.278 52.465 36.722 52.021 36.944 51.354 37.167 50.688 37.389 49.799 37.389 48.91 37.389 48.243 37.389 47.799 37.389 47.354 37.389 46.91 37.389 46.465 37.389 46.021 37.389 45.576 37.389 45.132 37.167 44.688 36.944 44.465 36.944 44.243 36.722 43.799 36.278 43.576 36.056 43.132 35.833 42.91 35.389 42.91 34.944 42.91 34.5 42.688 34.278 42.688 33.833 42.688 33.611 42.688 33.167 42.688 32.944 42.688 32.722 42.688 32.5 42.688 32.278 42.91 32.056 42.91 31.611 43.354 31.389 43.576 31.167 43.799 30.944 44.021 30.722 44.243 30.5 44.465 30.278 44.688 30.056 44.91 30.056 45.132 29.833 45.354 29.833 45.576 29.611 45.576 29.611 46.021 29.389 46.243 29.389 46.465 29.167 46.688 29.167 46.91 28.944 47.132 28.944 46.91 28.944 46.688 28.944 46.243 29.167 46.021 29.389 45.576 29.389 45.132 29.611 45.132 29.833 44.465 30.056 44.243 30.278 43.799 30.5 43.354 30.722 43.132 30.944 42.91 31.167 42.465 31.389 42.465 31.611 42.465 31.833 42.021 32.056 42.021 32.056 41.799 32.278 41.799 32.5 41.799 32.5 41.576 32.5 41.354 32.5 41.132 32.5 40.91 32.5 40.465 32.056 40.243 31.833 39.576 31.389 39.132 30.944 38.688 30.722 38.021 30.5 37.354 30.056 36.465 29.833 35.576 29.611 34.91 29.389 33.799 28.944 32.91 28.722 32.021 28.722 31.132 28.5 30.243 28.278 29.354 28.278 28.465 28.056 27.799 27.833 26.91 27.833 26.021 27.611 25.132 27.611 24.465 27.611 24.021 27.611 23.576 27.611 22.91 27.611 22.465 27.611 21.799 27.611 21.132 27.611 20.465 27.611 19.799 27.833 19.576 28.056 19.132 28.278 18.91 28.278 18.688 28.5 18.465 28.722 18.465 28.944 18.465 29.167 18.465 29.611 18.465 29.833 18.688 30.056 18.91 30.5 19.132 30.722 19.354 30.944 19.799 31.167 20.021 31.389 20.243 31.389 20.688 31.611 20.91 31.611 21.132 31.833 21.576 32.056 21.799 32.278 22.243 32.5 22.688 32.5 22.91 32.944 23.576 33.167 24.021 33.167 24.465 33.611 25.132 33.611 25.576 33.833 26.243 34.056 26.687 34.278 27.132 34.278 27.799 34.5 28.021 34.722 28.465 34.722 28.91 34.944 29.354 35.389 29.799 35.389 30.021 35.611 30.465 35.611 30.91 35.833 31.354 35.833 31.576 36.056 31.799 36.056 32.021 36.278 32.465 36.278 32.688 36.5 33.132 36.722 33.354 36.722 33.576 36.944 33.799 36.944 34.021 37.167 34.243 37.389 34.465 37.389 34.688 37.389 34.91 37.611 34.91 37.611 35.132 37.833 35.132 38.056 35.132 38.056 34.91 38.056 34.465 38.5 34.021 38.5 33.354 38.944 32.465 39.167 31.799 39.611 31.132 39.833 30.688 40.056 30.021 40.5 29.354 40.722 28.91 41.167 28.021 41.389 27.354 41.611 26.91 41.833 26.243 42.278 25.799 42.5 25.354 42.944 24.91 43.167 24.465 43.389 24.021 43.833 23.799 44.056 23.354 44.5 22.91 44.944 22.465 45.167 21.799 45.611 21.354 46.056 20.91 46.278 20.465 46.722 20.243 46.944 19.799 47.167 19.354 47.167 19.132 47.611 18.91 47.833 18.688 48.278 18.465 48.5 18.465 48.722 18.243 48.944 18.021 49.167 18.021 49.389 18.021 49.611 18.021 49.833 18.021 50.056 17.799 50.5 17.799 50.722 17.799 50.944 17.799 51.167 17.799 51.389 17.799 51.611 17.799 51.833 18.021 52.056 18.021 52.278 18.243 52.278 18.465 52.5 18.465 52.5 18.688 52.722 18.91 52.944 19.132 53.167 19.132 53.167 19.354 53.167 19.576 53.389 19.576 53.389 19.799 53.611 20.021 53.611 20.243 53.611 20.465 53.611 20.688 53.611 20.91 53.611 21.354 53.611 21.576 53.611 21.799 53.611 22.243 53.611 22.465 53.611 22.91 53.611 23.132 53.611 23.576 53.611 23.799 53.611 24.021 53.611 24.465 53.611 24.91 53.389 25.354 53.389 25.576 53.167 26.243 53.167 26.465 52.944 26.91 52.722 27.132 52.5 27.576 52.5 27.799 52.278 28.021 52.278 28.243 52.056 28.465 51.833 28.688 51.833 28.91 51.611 29.132 51.389 29.354 51.389 29.576 51.389 29.799 51.167 30.021 50.944 30.465 50.944 30.688 50.722 30.91 50.5 31.132 50.278 31.576 50.056 32.021 49.833 32.243 49.833 32.688 49.611 32.91 49.389 33.354 49.389 33.576 49.167 34.021 48.944 34.243 48.722 34.465 48.722 34.688 48.722 34.91 48.5 34.91 48.5 35.132 48.278 35.132 48.278 35.354 48.278 35.576 48.056 35.799 47.833 36.021 47.833 36.243 47.611 36.465 47.611 36.688 47.389 36.91 47.389 37.132 47.167 37.354 47.167 37.576 46.944 37.799 46.944 38.021 46.722 38.021 46.722 38.243 46.5 38.243 46.5 38.465 46.278 38.465 46.278 38.688 46.056 38.91 46.056 39.132 45.833 39.354 45.833 39.576 45.611 39.576 45.611 39.799 45.611 40.021 45.611 40.243 45.611 40.465 45.611 40.688 45.611 40.91 45.833 40.91 46.056 40.91 46.278 40.91 46.5 40.91 46.722 40.91" stroke="#000000" fill="none" stroke-width=".9" stroke-linecap="round" stroke-linejoin="round"/></svg>