<svg version="1.1" baseProfile="full" width="100%" height="100%" viewBox="0 0 100 100" xmlns="http://www.w3.org/2000/svg"><polyline points="47.594 5.799 48.038 5.576 48.927 5.576 50.26 5.576 52.26 5.576 54.26 5.576 56.483 5.799 59.372 6.465 61.594 7.132 63.594 7.799 65.149 8.688 66.705 9.799 68.705 11.132 70.927 13.132 73.149 15.132 74.927 16.465 76.26 18.021 78.26 20.243 79.594 22.243 81.149 24.465 82.26 26.687 83.372 28.91 84.483 31.576 85.149 33.354 85.594 34.465 86.26 36.243 86.705 37.799 86.927 40.465 86.927 42.91 86.927 45.576 86.927 47.132 86.927 48.688 86.927 50.243 86.705 52.243 86.26 54.243 85.594 56.021 85.149 58.243 84.483 59.576 84.038 61.132 83.372 62.91 82.705 65.132 82.038 67.132 81.372 69.132 80.927 70.688 80.483 71.799 79.816 73.132 79.149 74.243 78.705 74.91 78.038 76.021 77.594 76.91 77.149 77.799 76.26 78.688 74.927 79.576 74.038 80.465 72.483 81.799 71.594 82.243 70.038 82.91 68.927 83.576 66.927 84.243 64.927 85.132 62.705 85.132 60.705 85.576 59.149 85.799 56.927 86.021 54.927 86.021 52.927 86.021 50.705 86.021 47.816 86.021 45.149 86.021 42.705 86.021 40.26 86.021 37.816 86.021 36.26 86.021 35.149 86.021 33.594 85.132 32.26 84.243 30.483 82.91 28.705 82.021 26.705 80.465 25.372 79.132 24.038 78.021 22.705 76.688 21.816 75.354 20.705 74.021 19.594 72.465 18.483 70.91 17.594 69.132 16.705 67.576 16.26 66.465 15.372 64.688 15.149 63.132 14.038 61.132 13.372 59.354 13.149 58.021 12.927 55.799 12.705 53.132 12.705 50.91 12.705 48.243 12.705 45.799 12.705 43.354 12.705 40.688 13.149 37.799 13.372 34.688 13.816 33.132 14.038 30.91 14.483 28.91 15.149 27.132 15.594 25.799 16.038 24.243 16.483 23.132 16.927 22.021 17.816 20.91 18.483 20.021 19.372 18.91 20.483 17.799 21.594 16.465 22.927 15.354 24.038 14.465 25.594 13.132 26.927 12.243 28.038 11.354 29.372 10.243 30.927 9.576 32.26 8.688 33.816 8.021 35.149 7.354 36.483 6.91 37.816 6.465 38.705 6.465 39.594 6.243 40.483 6.243 41.372 6.243 42.26 6.243 42.483 6.243 43.149 6.243 43.372 6.243 43.594 6.243 44.038 6.243 44.26 6.243 44.483 6.243 44.483 6.465 44.705 6.465 44.927 6.465 45.149 6.465 45.594 6.465 46.038 6.465 46.483 6.465 46.927 6.465 47.149 6.465 47.372 6.465 47.594 6.465 47.816 6.465 47.816 6.688 47.816 6.91 48.038 7.354 48.038 7.799 48.038 8.465 48.038 9.354 48.038 10.688 48.038 11.799 48.038 12.465 48.038 13.354 48.038 14.243 48.038 14.91 48.26 15.576 48.483 16.021 48.705 16.465 48.927 16.688 49.149 16.91 49.594 17.132 49.816 17.354 50.483 17.799 50.705 18.021 51.372 18.465 52.26 18.688 52.927 18.91 53.594 18.91 54.038 18.91 54.705 18.91 55.816 18.91 56.483 19.132 56.927 19.354 57.594 19.576 58.26 20.243 58.705 20.465 59.149 20.688 59.372 21.132 59.816 21.576 60.038 22.243 60.26 22.688 60.705 23.132 60.927 23.576 61.149 23.799 61.372 23.799 61.372 24.021 61.594 24.021 61.816 24.021 62.26 24.021 62.705 23.799 63.372 23.576 63.816 23.576 64.705 23.354 65.149 23.354 66.038 23.354 67.149 23.354 67.816 23.354 68.483 23.354 69.149 23.354 69.372 23.354 69.594 23.354 69.816 23.354 70.038 23.576 70.26 23.799 70.483 24.243 70.705 24.688 70.927 25.354 70.927 25.799 70.927 26.243 70.927 26.465 70.705 27.132 70.26 27.576 69.816 28.243 69.149 28.465 68.705 28.688 68.483 28.688 68.483 28.91 68.038 28.91 67.594 28.91 67.149 28.91 66.483 28.91 65.816 28.91 65.372 28.91 65.149 28.91 64.927 28.91 64.927 29.132 64.927 29.354 64.705 29.799 64.705 30.243 64.705 30.465 64.705 30.91 64.705 31.132 64.705 31.576 64.927 32.243 65.149 32.91 65.372 33.132 65.594 33.354 65.816 33.576 66.038 33.799 66.038 34.243 66.26 34.688 66.26 35.354 66.26 36.465 66.26 37.354 66.26 38.021 66.26 38.688 66.26 39.354 66.26 39.799 66.26 40.243 66.26 40.465 66.038 41.132 65.816 41.576 65.149 42.021 64.26 42.465 63.594 42.688 62.705 43.132 62.038 43.354 61.594 43.799 61.372 44.021 61.149 44.021 61.149 44.243 61.149 44.688 61.149 45.354 61.594 46.243 62.26 46.91 62.483 47.132 62.483 47.354 62.483 47.576 62.26 47.799 61.816 48.243 61.372 48.688 60.705 49.132 60.038 49.576 59.594 50.021 58.705 50.465 58.26 50.91 58.038 51.132 57.594 51.576 57.594 51.576 57.372 51.576 57.149 51.576 56.927 51.799 56.705 51.799 56.483 51.799 56.483 52.021 56.483 52.243 56.483 52.465 56.483 52.91 56.483 53.132 56.483 53.576 56.483 54.021 56.705 54.243 57.149 54.465 57.594 54.688 57.816 55.132 58.26 55.576 58.705 55.799 59.372 56.465 59.816 56.688 60.483 57.576 60.927 58.021 61.372 58.688 61.816 59.354 62.26 60.243 62.927 61.354 63.594 62.687 64.038 63.799 64.26 64.91 64.705 65.576 64.927 66.021 65.149 66.243 65.594 66.465 65.594 66.91 65.594 67.132 65.594 67.576 64.927 68.243 64.705 69.132 64.705 69.576 64.705 70.021 64.705 70.465 64.705 70.465 64.705 70.688 64.705 70.91 64.705 71.132 64.705 71.576 64.26 72.021 63.816 72.688 63.594 73.354 63.594 73.799 63.372 73.799 63.149 74.243 62.927 75.132 62.26 76.021 61.594 76.91 60.927 77.576 60.705 78.243 60.038 78.688 60.038 79.132 59.372 79.576 58.927 80.243 58.483 80.465 58.038 80.91 57.594 81.132 56.927 81.576 56.483 81.799 56.038 82.021 55.594 82.243 55.149 82.465 54.26 82.91 53.372 83.132 52.927 83.354 52.26 83.576 51.816 83.576 51.594 83.576 51.372 83.576 51.149 83.799 50.927 84.021 50.927 84.243 50.927 84.243 50.927 84.465 50.927 84.688 50.927 84.91 50.927 85.132 50.927 85.132 50.927 84.91 50.927 84.465 50.927 84.021 50.927 83.354 51.372 82.465 51.816 81.799 52.038 80.688 52.038 80.243 52.038 79.576 52.038 78.91 52.038 78.465 52.038 78.243 52.038 77.799 52.038 77.576 52.038 77.354 52.038 76.91 52.038 76.688 52.038 76.465 52.038 75.799 52.26 75.354 52.483 74.91 52.927 74.688 52.927 74.688 52.927 74.021 52.927 74.021 52.927 73.576 52.927 72.465 52.705 71.576 52.038 70.688 52.038 70.465 51.816 70.243 51.816 70.021 51.594 69.354 51.372 68.688 51.149 68.021 51.149 67.799 50.927 67.576 50.927 67.354 50.705 66.91 50.705 66.465 50.483 66.021 50.483 65.354 50.483 65.132 50.705 64.465 51.149 64.021 51.372 63.576 51.816 63.132 52.26 62.687 52.483 62.465 52.927 62.243 52.927 62.021 53.149 61.799 53.149 61.576 53.372 61.132 53.372 60.688 53.372 60.243 53.372 59.799 53.372 59.132 53.372 58.91 53.149 58.688 52.927 58.243 52.705 58.243 52.483 58.021 52.26 58.021 52.26 58.021 52.26 57.799 52.038 57.576 51.816 57.354 51.816 57.132 51.594 56.91 51.594 56.688 51.594 56.243 51.594 56.021 51.594 55.576 51.594 55.354 51.594 55.132 51.594 54.91 51.594 54.465 51.594 54.243 51.594 54.021 51.594 53.799 51.594 53.576 51.816 53.132 51.816 52.91 51.816 52.688 51.816 52.465 51.816 52.243 51.816 52.021 51.816 51.799 51.816 51.576 51.816 51.576 51.816 51.354 52.038 51.132 52.038 50.91 52.26 50.91 52.483 50.91 52.483 50.688 52.927 50.688 52.927 50.465 53.149 50.465 53.372 50.465 53.372 50.243 53.372 50.021 53.372 49.799 53.372 49.576 53.372 49.354 53.372 49.354 53.372 49.132 52.705 48.91 52.483 48.465 52.26 48.465 51.816 48.243 51.372 48.243 51.149 48.243 50.483 48.243 50.038 48.243 49.594 48.021 49.149 48.021 48.705 48.021 48.038 48.021 47.816 48.021 47.594 48.021 47.372 47.799 47.149 47.799 46.927 47.799 46.705 47.576 46.483 47.576 46.26 47.354 46.26 47.132 46.038 46.91 46.038 46.688 45.816 46.688 45.816 46.243 45.594 45.799 45.594 45.354 45.594 45.132 45.594 45.132 45.594 44.688 45.594 44.465 45.372 44.243 45.372 44.021 45.149 43.799 44.927 43.576 44.483 43.132 44.26 43.132 44.038 42.91 44.038 42.688 43.816 42.688 43.594 42.688 43.594 42.465 43.372 42.465 43.149 42.465 42.927 42.465 42.927 42.465 42.705 42.465 42.705 42.688 42.483 42.688 42.26 42.91 42.26 43.132 41.594 43.354 41.372 43.354 41.372 43.354 41.149 43.354 40.927 43.354 40.927 43.132 40.927 42.91 40.927 42.465 40.927 42.021 40.927 41.576 40.927 40.688 40.927 40.465 40.927 40.021 41.149 39.576 41.149 39.132 41.372 38.688 41.594 38.243 41.594 37.576 41.594 37.132 41.594 36.688 41.594 36.243 41.594 35.799 41.594 35.354 41.594 34.688 41.594 34.021 41.594 33.354 41.594 33.132 41.594 32.91 41.594 32.465 41.594 32.243 42.038 31.576 42.038 31.132 42.038 30.465 42.038 29.576 42.038 29.132 42.038 28.688 41.816 28.465 41.594 28.021 41.372 27.576 41.372 27.132 41.149 26.687 41.149 26.465 41.149 26.021 41.149 25.354 41.149 24.91 41.149 24.465 41.149 24.243 41.149 23.799 41.594 23.576 41.816 23.132 42.26 22.688 42.26 22.465 42.483 22.243 42.705 22.243 42.705 22.021 42.927 22.021 43.149 21.799 43.594 21.576 44.038 21.354 44.483 21.132 44.705 20.91 44.705 20.688 45.149 20.465 45.372 19.799 45.594 19.576 45.816 19.354 45.816 19.132 45.816 19.132 45.816 18.91 45.816 18.688 45.816 18.465 45.816 18.021 45.816 17.799 45.816 17.354 45.594 17.354 45.594 17.132 45.372 16.91 45.372 16.688 45.372 16.465 45.372 16.243 45.372 15.799 45.372 15.354 45.372 15.132 45.372 14.688 45.372 14.465 45.372 14.021 45.372 14.021 45.372 13.799 45.372 13.354 45.372 12.91 45.372 12.687 45.372 12.465 45.372 12.243 45.372 12.021 45.594 12.021 45.594 11.354 45.816 11.132 45.816 10.91 46.038 10.465 46.038 10.243 46.26 9.799 46.483 9.576 46.483 9.354 46.483 9.132 46.927 8.91 46.927 8.465 47.372 8.243 47.372 8.021 47.594 8.021 47.594 7.799 47.594 7.576 47.594 7.354 47.594 7.132 47.594 6.91 47.594 6.688 47.816 6.688 47.816 6.465 48.038 6.465 48.038 6.243 48.26 6.021 48.26 6.021 48.26 5.799 48.26 5.576 48.26 5.354 48.26 5.132 48.26 5.132 48.038 5.132 48.038 4.91 48.038 4.688 47.816 4.688 47.816 4.243 47.594 4.021" stroke="#000000" fill="none" stroke-width=".9" stroke-linecap="round" stroke-linejoin="round"/></svg>