<svg version="1.1" baseProfile="full" width="100%" height="100%" viewBox="0 0 100 100" xmlns="http://www.w3.org/2000/svg"><polyline points="47.365 36.91 47.142 36.91 46.92 36.91 46.698 36.91 46.476 36.91 46.253 36.91 46.031 36.91 45.809 36.91 45.587 37.132 45.365 37.132 45.142 37.132 44.92 37.132 44.698 37.132 44.476 37.132 44.253 37.132 44.031 37.132 43.809 37.132 43.587 36.91 43.365 36.91 43.365 36.688 43.142 36.688 42.92 36.465 42.92 36.243 42.698 36.243 42.698 36.021 42.476 36.021 42.476 35.799 42.476 35.576 42.253 35.354 42.253 35.132 42.031 34.91 42.031 34.688 42.031 34.465 42.031 34.243 42.031 34.021 42.031 33.799 42.031 33.576 42.031 33.354 42.031 33.132 42.031 32.91 42.253 32.688 42.253 32.465 42.253 32.243 42.253 32.021 42.253 31.799 42.476 31.576 42.476 31.354 42.476 31.132 42.698 31.132 42.698 30.91 42.92 30.688 43.142 30.465 43.142 30.243 43.365 30.021 43.365 29.799 43.587 29.576 43.809 29.576 43.809 29.354 44.031 29.354 44.031 29.132 44.253 28.91 44.476 28.91 44.476 28.688 44.698 28.688 44.698 28.465 44.92 28.465 45.142 28.243 45.365 28.243 45.587 28.021 45.809 27.799 46.031 27.799 46.253 27.799 46.253 27.576 46.476 27.576 46.698 27.576 46.92 27.354 47.142 27.354 47.365 27.132 47.587 27.132 47.809 27.132 48.031 27.132 48.253 27.132 48.476 27.132 48.698 27.132 48.92 27.132 49.142 27.132 49.365 27.132 49.587 27.132 49.809 27.132 50.031 27.132 50.253 27.132 50.476 27.132 50.698 27.132 50.92 27.132 51.142 27.132 51.365 27.132 51.587 27.132 51.809 27.132 52.031 27.132 52.031 27.354 52.253 27.354 52.476 27.354 52.698 27.576 52.92 27.799 53.142 28.021 53.365 28.243 53.365 28.465 53.587 28.465 53.587 28.688 53.809 28.688 53.809 28.91 54.031 28.91 54.031 29.132 54.031 29.354 54.253 29.354 54.253 29.576 54.476 29.576 54.476 29.799 54.476 30.021 54.698 30.021 54.698 30.243 54.92 30.465 54.92 30.688 55.142 30.91 55.142 31.132 55.142 31.354 55.365 31.354 55.365 31.576 55.587 31.799 55.587 32.021 55.587 32.243 55.809 32.243 55.809 32.465 55.809 32.688 55.809 32.91 55.809 33.132 56.031 33.132 56.031 33.354 56.031 33.576 56.031 33.799 56.031 34.021 56.031 34.243 56.031 34.465 56.031 34.688 56.031 34.91 56.031 35.132 55.809 35.354 55.587 35.354 55.365 35.354 55.142 35.354 55.142 35.576 54.92 35.576 54.698 35.576 54.476 35.576 54.253 35.576 54.253 35.799 54.031 35.799 53.809 35.799 53.809 36.021 53.587 36.021 53.365 36.021 53.142 36.021 52.92 36.243 52.698 36.243 52.476 36.243 52.253 36.465 52.031 36.465 51.809 36.465 51.809 36.688 51.587 36.688 51.365 36.688 51.142 36.91 50.92 36.91 50.92 37.132 50.698 37.132 50.476 37.132 50.253 37.132 50.253 37.354 50.031 37.354 49.809 37.354 49.587 37.354 49.365 37.354 49.142 37.354 48.92 37.354 48.698 37.354 48.476 37.354 48.253 37.354 48.031 37.354 47.809 37.354 47.587 37.354 47.365 37.354 47.142 37.354 46.92 37.354 46.698 37.354 46.476 37.354 46.253 37.354 46.031 37.354 45.809 37.354 45.587 37.354 45.365 37.354 45.142 37.354 44.92 37.576 44.698 37.576 44.476 37.799 44.253 38.021 44.031 38.021 44.031 38.243 43.809 38.243 43.587 38.243 43.587 38.465 43.365 38.465 43.365 38.688 43.142 38.688 42.92 38.91 42.698 39.132 42.476 39.354 42.253 39.354 42.031 39.576 42.031 39.799 41.809 40.021 41.587 40.021 41.365 40.243 41.365 40.465 41.142 40.465 41.142 40.688 40.92 40.688 40.92 40.91 40.92 41.132 40.698 41.132 40.698 41.354 40.698 41.576 40.476 41.799 40.476 42.021 40.476 42.243 40.476 42.465 40.253 42.465 40.253 42.688 40.253 42.91 40.253 43.132 40.253 43.354 40.253 43.576 40.031 43.799 40.031 44.021 40.031 44.243 40.031 44.465 40.031 44.688 40.031 44.91 40.031 45.132 40.031 45.354 40.031 45.576 40.031 45.799 40.031 46.021 40.031 46.243 40.031 46.465 40.031 46.688 40.253 46.688 40.253 46.91 40.253 47.132 40.476 47.132 40.476 47.354 40.698 47.354 40.698 47.576 40.92 47.576 41.142 47.799 41.365 47.799 41.365 48.021 41.587 48.021 41.809 48.243 42.031 48.243 42.253 48.465 42.476 48.465 42.476 48.688 42.698 48.688 42.92 48.688 42.92 48.91 43.142 48.91 43.365 48.91 43.365 49.132 43.587 49.132 43.809 49.132 44.031 49.132 44.253 49.132 44.253 49.354 44.476 49.354 44.698 49.354 44.92 49.354 45.142 49.354 45.142 49.576 45.365 49.576 45.587 49.576 45.809 49.576 46.031 49.576 46.253 49.576 46.476 49.576 46.698 49.576 46.92 49.576 47.142 49.576 47.142 49.799 46.92 50.021 46.92 50.243 46.698 50.465 46.698 50.688 46.476 50.688 46.476 50.91 46.476 51.132 46.253 51.132 46.253 51.354 46.031 51.576 46.031 51.799 45.809 51.799 45.809 52.021 45.587 52.243 45.587 52.465 45.365 52.688 45.365 52.91 45.142 53.132 45.142 53.354 45.142 53.576 44.92 53.576 44.92 53.799 44.92 54.021 44.698 54.243 44.698 54.465 44.476 54.688 44.476 54.91 44.253 54.91 44.253 55.132 44.253 55.354 44.253 55.576 44.031 55.576 44.031 55.799 43.809 55.799 43.587 55.799 43.365 55.799 43.142 55.799 42.92 55.799 42.698 55.799 42.476 55.799 42.253 55.799 42.031 55.799 42.031 55.576 41.809 55.576 41.587 55.576 41.587 55.354 41.365 55.354 41.365 55.132 41.142 55.132 40.92 55.132 40.92 54.91 41.142 54.91 41.365 54.91 41.587 54.91 41.809 54.91 42.031 54.91 42.253 54.91 42.476 54.91 42.698 54.91 42.698 55.132 42.92 55.132 43.142 55.132 43.365 55.132 43.587 55.132 43.587 55.354 43.809 55.354 44.031 55.354 44.031 55.132 44.031 54.91 44.253 54.91 44.253 54.688 44.476 54.465 44.476 54.243 44.476 54.021 44.698 54.021 44.698 53.799 44.92 53.576 44.92 53.354 45.142 53.132 45.142 52.91 45.365 52.688 45.365 52.465 45.587 52.243 45.587 52.021 45.809 52.021 45.809 51.799 45.809 51.576 46.031 51.576 46.031 51.354 46.031 51.132 46.253 51.132 46.253 50.91 46.476 50.688 46.476 50.465 46.698 50.243 46.698 50.021 46.92 50.021 46.92 49.799 46.92 49.576 47.142 49.576 47.142 49.354 47.365 49.354 47.587 49.354 47.809 49.354 48.031 49.354 48.253 49.354 48.476 49.354 48.698 49.354 48.92 49.354 49.142 49.354 49.365 49.354 49.587 49.354 49.809 49.354 50.031 49.354 50.253 49.354 50.476 49.132 50.698 49.132 50.92 49.132 51.142 49.132 51.365 48.91 51.587 48.91 52.031 48.91 52.253 48.91 52.476 48.91 52.698 48.91 52.92 48.91 53.142 48.688 53.365 48.688 53.587 48.688 53.809 48.688 53.809 48.465 54.031 48.465 54.253 48.465 54.476 48.465 54.698 48.465 54.92 48.465 54.92 48.243 55.142 48.243 55.142 48.465 55.365 48.465 55.365 48.688 55.587 48.688 55.587 48.91 55.809 49.132 55.809 49.354 56.031 49.576 56.031 49.799 56.031 50.021 56.253 50.243 56.253 50.465 56.253 50.688 56.476 50.688 56.476 50.91 56.476 51.132 56.698 51.354 56.698 51.576 56.92 51.799 57.142 52.021 57.142 52.243 57.142 52.465 57.365 52.465 57.365 52.688 57.365 52.91 57.587 52.91 57.587 52.688 57.809 52.688 58.031 52.465 58.253 52.243 58.476 52.021 58.698 52.021 58.92 51.799 59.142 51.576 59.365 51.576 59.587 51.354 59.809 51.132 60.031 50.91 60.253 50.688 60.476 50.465 60.253 50.465 60.253 50.688 60.031 50.688 60.031 50.91 59.809 50.91 59.587 51.132 59.365 51.132 59.365 51.354 59.142 51.354 58.92 51.576 58.698 51.576 58.476 51.576 58.476 51.799 58.253 51.799 58.031 52.021 57.809 52.021 57.809 52.243 57.587 52.243 57.587 52.465 57.587 52.243 57.365 52.243 57.365 52.021 57.142 51.799 57.142 51.576 56.92 51.132 56.698 50.91 56.698 50.688 56.476 50.465 56.476 50.243 56.476 50.021 56.253 50.021 56.253 49.799 56.253 49.576 56.031 49.576 56.031 49.354 56.031 49.132 55.809 49.132 55.809 48.91 55.809 48.688 55.587 48.688 55.587 48.465 55.587 48.243 55.809 48.243 56.031 48.243 56.253 48.243 56.476 48.021 56.698 47.799 56.92 47.576 57.142 47.354 57.365 47.354 57.587 47.132 57.809 46.91 58.031 46.688 58.031 46.465 58.253 46.465 58.476 46.243 58.476 46.021 58.698 45.799 58.92 45.576 59.142 45.354 59.142 45.132 59.365 45.132 59.365 44.91 59.587 44.688 59.587 44.465 59.809 44.465 59.809 44.243 60.031 44.021 60.031 43.799 60.253 43.576 60.253 43.354 60.253 43.132 60.476 42.91 60.476 42.688 60.476 42.465 60.476 42.243 60.476 42.021 60.698 42.021 60.698 41.799 60.698 41.576 60.698 41.354 60.698 41.132 60.698 40.91 60.698 40.688 60.698 40.465 60.698 40.243 60.698 40.021 60.698 39.799 60.698 39.576 60.698 39.354 60.698 39.132 60.476 39.132 60.476 38.91 60.476 38.688 60.476 38.465 60.476 38.243 60.253 38.243 60.253 38.021 60.031 38.021 60.031 37.799 59.809 37.576 59.809 37.354 59.587 37.354 59.587 37.132 59.365 36.91 59.142 36.91 59.142 36.688 58.92 36.465 58.698 36.465 58.698 36.243 58.476 36.243 58.253 36.243 58.253 36.021 58.031 36.021 58.031 35.799 57.809 35.799 57.809 35.576 57.587 35.576 57.365 35.576 57.142 35.576 57.142 35.354 56.92 35.354 56.92 35.132 56.698 35.132 56.476 35.132 56.476 34.91 56.476 34.688 56.476 34.465 56.476 34.243 56.476 34.021 56.476 33.799 56.476 33.576 56.253 33.576 56.253 33.354 56.253 33.132 56.253 32.91 56.031 32.688 56.031 32.465 56.031 32.243 56.031 32.021 55.809 32.021 55.809 31.799 55.809 31.576 55.809 31.354 55.587 31.354 55.587 31.132 55.587 30.91 55.365 30.688 55.142 30.688 54.92 30.688 54.698 30.688 54.476 30.688 54.253 30.688 54.031 30.688 53.809 30.688 53.587 30.688 53.365 30.91 53.365 31.132 53.142 31.132 53.142 31.354 52.92 31.354 52.698 31.354 52.698 31.576 52.476 31.576 52.253 31.576 52.031 31.576 51.809 31.576 51.587 31.576 51.587 31.354 51.587 31.132 51.809 30.91 52.031 30.91 52.031 30.688 52.253 30.688 52.476 30.688 52.476 30.91 52.698 31.132 52.698 31.354 52.698 31.576 52.476 31.576 52.253 31.576 52.031 31.576 51.809 31.354 51.809 31.132 51.809 30.91 51.809 30.688 52.031 30.465 52.253 30.465 52.476 30.465 52.698 30.688 52.698 30.91 52.92 31.132 52.92 31.354 52.92 31.576 52.92 31.799 52.92 32.021 52.698 32.021 52.698 32.243 52.476 32.243 52.253 32.243 52.031 32.021 52.031 31.799 51.809 31.799 51.809 31.576 51.809 31.354 51.809 31.132 51.809 30.91 51.809 30.688 52.031 30.688 52.031 30.465 52.253 30.465 52.476 30.465 52.476 30.688 52.476 30.91 52.476 31.132 52.476 31.354 52.253 31.354 52.253 31.576 52.031 31.576 51.809 31.576 51.809 31.354 52.031 31.354 51.809 31.576 51.587 31.576 51.587 31.354 51.587 31.576 51.365 31.576 51.142 31.576 50.92 31.576 50.698 31.576 50.476 31.576 50.253 31.576 50.031 31.576 49.809 31.799 49.587 31.799 49.365 31.799 49.365 32.021 49.142 32.021 48.92 32.021 48.698 32.021 48.476 32.021 48.253 32.021 48.031 32.021 47.809 32.021 47.809 32.243 47.587 32.243 47.365 32.243 47.142 32.243 46.92 32.021 46.698 31.799 46.698 31.576 46.698 31.354 46.698 31.132 46.92 31.132 47.142 30.91 47.365 30.688 47.587 30.688 47.809 30.688 48.031 30.688 48.031 30.91 48.031 31.132 48.031 31.354 48.031 31.576 48.031 31.799 48.031 32.021 48.031 32.243 47.809 32.243 47.587 32.243 47.365 32.243 47.142 32.243 46.92 32.243 46.92 32.021 46.92 31.799 47.142 31.576 47.365 31.576 47.587 31.576 47.809 31.576 47.809 31.799 48.031 32.021 48.031 32.243 48.031 32.465 48.031 32.688 48.031 32.91 48.031 33.132 47.809 33.354 47.587 33.354 47.365 33.354 47.142 33.132 46.92 33.132 46.92 32.91 46.698 32.91 46.698 32.688 46.698 32.465 46.698 32.243 46.698 32.021 46.698 31.799 46.92 31.799 47.142 31.576 47.365 31.576 47.587 31.576 47.587 31.799 47.587 32.021 47.587 32.243 47.587 32.465 47.587 32.688 47.365 32.91 47.142 32.91 46.92 32.91 46.698 32.91 46.476 32.688 46.476 32.465 46.476 32.243 46.476 32.021 46.698 32.021 46.92 32.021 47.142 32.021 47.142 32.243 47.142 32.465 46.92 32.465 46.92 32.243 46.698 32.243 46.698 32.021 46.476 32.021 46.253 32.021 46.031 32.021 45.809 32.021 45.587 31.799 45.365 31.799 45.142 31.799 44.92 31.799 44.698 31.799 44.476 31.799 44.253 31.799 44.031 31.799 43.809 31.799 43.587 31.799 43.587 32.021 43.587 32.243 43.587 32.465 43.587 32.688 43.587 32.91 43.587 33.132 43.587 33.354 43.587 33.576 43.587 33.799 43.587 34.021 43.809 34.021 43.809 34.243 43.809 34.465 43.809 34.688 44.031 34.688 44.031 34.91 44.031 35.132 44.253 35.132 44.476 35.132 44.476 35.354 44.698 35.354 44.92 35.354 45.142 35.354 45.365 35.354 45.587 35.354 45.809 35.354 45.809 35.576 46.031 35.576 46.253 35.576 46.476 35.576 46.698 35.576 46.92 35.576 47.142 35.576 47.365 35.576 47.587 35.576 47.809 35.576 48.031 35.576 48.253 35.576 48.476 35.576 48.476 35.354 48.698 35.354 48.92 35.132 49.142 35.132 49.365 35.132 49.365 34.91 49.587 34.91 49.809 34.91 49.809 34.688 50.031 34.688 50.253 34.465 50.476 34.465 50.698 34.465 50.92 34.243 51.142 34.243 51.365 34.243 51.587 34.243 51.809 34.243 52.031 34.243 52.253 34.243 52.476 34.243 52.476 34.465 52.698 34.688 52.698 34.91 52.698 35.132 52.698 35.354 52.698 35.576 52.698 35.799 52.698 36.021 52.698 36.243 52.698 36.465 52.476 36.465 52.476 36.688 52.253 36.688 52.031 36.91 51.809 36.91 51.587 36.91 51.365 36.91 51.142 36.91 50.92 36.91 50.698 36.91 50.476 36.91 50.253 36.91 50.031 36.91 49.809 36.91 49.587 36.91 49.365 36.91 49.142 36.91 48.92 36.91 48.698 36.91 48.476 36.91 48.253 36.91 48.031 36.91 47.809 36.91 47.587 36.91 47.365 36.91 47.365 36.688 47.142 36.688 47.142 36.465 47.142 36.243 47.142 36.021 47.142 35.799 47.142 35.576 47.142 35.354 47.142 35.132 47.142 34.91 47.365 34.91 47.587 34.91 47.809 34.688 48.031 34.688 48.253 34.465 48.476 34.465 48.698 34.465 48.92 34.243 49.142 34.243 49.365 34.243 49.365 34.021 49.587 34.021 49.809 34.021 49.809 33.799 50.031 33.799 50.253 33.799 50.476 33.799 50.698 33.799 50.92 33.799 51.142 33.799 51.365 33.799 51.587 33.799 51.809 33.799 52.031 34.021 52.253 34.021 52.253 34.243 52.476 34.243 52.476 34.465 52.476 34.688 52.476 34.91 52.476 35.132 52.476 35.354 52.476 35.576 52.476 35.799 52.253 36.021 52.253 36.243 52.031 36.243 51.809 36.465 51.587 36.465 51.365 36.688 51.142 36.688 50.92 36.688 50.698 36.91 50.476 36.91 50.253 36.91 50.031 37.132 49.809 37.132 49.587 37.132 49.365 37.132 49.142 37.132 48.92 37.132 48.698 37.132 48.476 37.132 48.476 36.91 48.476 36.688 48.476 36.465 48.476 36.243 48.476 36.021 48.698 35.799 48.92 35.576 49.142 35.354 49.365 35.132 49.809 34.91 50.031 34.91 50.476 34.91 50.698 34.91 50.92 34.91 51.142 34.91 51.365 34.91 51.587 35.132 51.587 35.354 51.587 35.576 51.365 35.799 51.142 36.021 50.92 36.021 50.698 36.243 50.253 36.243 50.031 36.243 49.809 36.243 49.587 36.243 49.365 36.243 49.142 36.243 48.92 36.243" stroke="#000000" fill="none" stroke-width=".9" stroke-linecap="round" stroke-linejoin="round"/></svg>